ISO-10303-21;
HEADER;
FILE_DESCRIPTION(('FreeCAD Model'),'2;1');
FILE_NAME('Open CASCADE Shape Model','2026-06-23T09:15:59',(''),(''),
  'Open CASCADE STEP processor 7.9','FreeCAD','Unknown');
FILE_SCHEMA(('AUTOMOTIVE_DESIGN { 1 0 10303 214 1 1 1 1 }'));
ENDSEC;
DATA;
#1 = APPLICATION_PROTOCOL_DEFINITION('international standard',
  'automotive_design',2000,#2);
#2 = APPLICATION_CONTEXT(
  'core data for automotive mechanical design processes');
#3 = SHAPE_DEFINITION_REPRESENTATION(#4,#10);
#4 = PRODUCT_DEFINITION_SHAPE('','',#5);
#5 = PRODUCT_DEFINITION('design','',#6,#9);
#6 = PRODUCT_DEFINITION_FORMATION('','',#7);
#7 = PRODUCT('top','top','',(#8));
#8 = PRODUCT_CONTEXT('',#2,'mechanical');
#9 = PRODUCT_DEFINITION_CONTEXT('part definition',#2,'design');
#10 = ADVANCED_BREP_SHAPE_REPRESENTATION('',(#11,#15),#230);
#11 = AXIS2_PLACEMENT_3D('',#12,#13,#14);
#12 = CARTESIAN_POINT('',(0.,0.,0.));
#13 = DIRECTION('',(0.,0.,1.));
#14 = DIRECTION('',(1.,0.,-0.));
#15 = MANIFOLD_SOLID_BREP('',#16);
#16 = CLOSED_SHELL('',(#17,#51,#76,#95,#122,#147,#167,#192,#212));
#17 = ADVANCED_FACE('',(#18),#46,.T.);
#18 = FACE_BOUND('',#19,.F.);
#19 = EDGE_LOOP('',(#20,#29,#38,#45));
#20 = ORIENTED_EDGE('',*,*,#21,.T.);
#21 = EDGE_CURVE('',#22,#22,#24,.T.);
#22 = VERTEX_POINT('',#23);
#23 = CARTESIAN_POINT('',(-19.,-661.5475616918,0.));
#24 = CIRCLE('',#25,19.);
#25 = AXIS2_PLACEMENT_3D('',#26,#27,#28);
#26 = CARTESIAN_POINT('',(0.,-661.5475616918,0.));
#27 = DIRECTION('',(0.,1.,-0.));
#28 = DIRECTION('',(-1.,0.,0.));
#29 = ORIENTED_EDGE('',*,*,#30,.T.);
#30 = EDGE_CURVE('',#22,#31,#33,.T.);
#31 = VERTEX_POINT('',#32);
#32 = CARTESIAN_POINT('',(-10.,-685.1130677659,0.));
#33 = CIRCLE('',#34,20.);
#34 = AXIS2_PLACEMENT_3D('',#35,#36,#37);
#35 = CARTESIAN_POINT('',(0.,-667.7925596902,0.));
#36 = DIRECTION('',(0.,0.,1.));
#37 = DIRECTION('',(1.,0.,0.));
#38 = ORIENTED_EDGE('',*,*,#39,.F.);
#39 = EDGE_CURVE('',#31,#31,#40,.T.);
#40 = CIRCLE('',#41,10.);
#41 = AXIS2_PLACEMENT_3D('',#42,#43,#44);
#42 = CARTESIAN_POINT('',(0.,-685.1130677659,0.));
#43 = DIRECTION('',(0.,1.,-0.));
#44 = DIRECTION('',(-1.,0.,0.));
#45 = ORIENTED_EDGE('',*,*,#30,.F.);
#46 = SPHERICAL_SURFACE('',#47,20.);
#47 = AXIS2_PLACEMENT_3D('',#48,#49,#50);
#48 = CARTESIAN_POINT('',(0.,-667.7925596902,0.));
#49 = DIRECTION('',(-0.,-1.,-0.));
#50 = DIRECTION('',(-1.,0.,0.));
#51 = ADVANCED_FACE('',(#52),#71,.T.);
#52 = FACE_BOUND('',#53,.F.);
#53 = EDGE_LOOP('',(#54,#55,#63,#70));
#54 = ORIENTED_EDGE('',*,*,#39,.T.);
#55 = ORIENTED_EDGE('',*,*,#56,.T.);
#56 = EDGE_CURVE('',#31,#57,#59,.T.);
#57 = VERTEX_POINT('',#58);
#58 = CARTESIAN_POINT('',(-5.,-762.887307654,0.));
#59 = LINE('',#60,#61);
#60 = CARTESIAN_POINT('',(-10.,-685.1130677659,0.));
#61 = VECTOR('',#62,1.);
#62 = DIRECTION('',(6.415619558935E-02,-0.997939869214,0.));
#63 = ORIENTED_EDGE('',*,*,#64,.F.);
#64 = EDGE_CURVE('',#57,#57,#65,.T.);
#65 = CIRCLE('',#66,5.);
#66 = AXIS2_PLACEMENT_3D('',#67,#68,#69);
#67 = CARTESIAN_POINT('',(0.,-762.887307654,0.));
#68 = DIRECTION('',(0.,1.,-0.));
#69 = DIRECTION('',(-1.,0.,0.));
#70 = ORIENTED_EDGE('',*,*,#56,.F.);
#71 = CONICAL_SURFACE('',#72,10.,6.420028864434E-02);
#72 = AXIS2_PLACEMENT_3D('',#73,#74,#75);
#73 = CARTESIAN_POINT('',(0.,-685.1130677659,0.));
#74 = DIRECTION('',(0.,1.,0.));
#75 = DIRECTION('',(-1.,0.,0.));
#76 = ADVANCED_FACE('',(#77),#90,.T.);
#77 = FACE_BOUND('',#78,.F.);
#78 = EDGE_LOOP('',(#79,#80,#89));
#79 = ORIENTED_EDGE('',*,*,#64,.T.);
#80 = ORIENTED_EDGE('',*,*,#81,.T.);
#81 = EDGE_CURVE('',#57,#82,#84,.T.);
#82 = VERTEX_POINT('',#83);
#83 = CARTESIAN_POINT('',(-1.E-15,-781.5475616918,0.));
#84 = CIRCLE('',#85,10.);
#85 = AXIS2_PLACEMENT_3D('',#86,#87,#88);
#86 = CARTESIAN_POINT('',(0.,-771.5475616918,0.));
#87 = DIRECTION('',(0.,0.,1.));
#88 = DIRECTION('',(1.,0.,0.));
#89 = ORIENTED_EDGE('',*,*,#81,.F.);
#90 = SPHERICAL_SURFACE('',#91,10.);
#91 = AXIS2_PLACEMENT_3D('',#92,#93,#94);
#92 = CARTESIAN_POINT('',(0.,-771.5475616918,0.));
#93 = DIRECTION('',(-0.,-1.,-0.));
#94 = DIRECTION('',(-1.,0.,0.));
#95 = ADVANCED_FACE('',(#96),#117,.F.);
#96 = FACE_BOUND('',#97,.T.);
#97 = EDGE_LOOP('',(#98,#107,#116));
#98 = ORIENTED_EDGE('',*,*,#99,.T.);
#99 = EDGE_CURVE('',#100,#100,#102,.T.);
#100 = VERTEX_POINT('',#101);
#101 = CARTESIAN_POINT('',(-114.5,-538.,0.));
#102 = CIRCLE('',#103,114.5);
#103 = AXIS2_PLACEMENT_3D('',#104,#105,#106);
#104 = CARTESIAN_POINT('',(0.,-538.,0.));
#105 = DIRECTION('',(0.,1.,-0.));
#106 = DIRECTION('',(-1.,0.,0.));
#107 = ORIENTED_EDGE('',*,*,#108,.T.);
#108 = EDGE_CURVE('',#100,#109,#111,.T.);
#109 = VERTEX_POINT('',#110);
#110 = CARTESIAN_POINT('',(-2.1E-14,-652.5,0.));
#111 = CIRCLE('',#112,114.5);
#112 = AXIS2_PLACEMENT_3D('',#113,#114,#115);
#113 = CARTESIAN_POINT('',(0.,-538.,0.));
#114 = DIRECTION('',(0.,0.,1.));
#115 = DIRECTION('',(1.,0.,0.));
#116 = ORIENTED_EDGE('',*,*,#108,.F.);
#117 = SPHERICAL_SURFACE('',#118,114.5);
#118 = AXIS2_PLACEMENT_3D('',#119,#120,#121);
#119 = CARTESIAN_POINT('',(-0.,-538.,0.));
#120 = DIRECTION('',(-0.,-1.,-0.));
#121 = DIRECTION('',(-1.,0.,0.));
#122 = ADVANCED_FACE('',(#123),#142,.F.);
#123 = FACE_BOUND('',#124,.T.);
#124 = EDGE_LOOP('',(#125,#134,#140,#141));
#125 = ORIENTED_EDGE('',*,*,#126,.T.);
#126 = EDGE_CURVE('',#127,#127,#129,.T.);
#127 = VERTEX_POINT('',#128);
#128 = CARTESIAN_POINT('',(-114.5,-530.,0.));
#129 = CIRCLE('',#130,114.5);
#130 = AXIS2_PLACEMENT_3D('',#131,#132,#133);
#131 = CARTESIAN_POINT('',(0.,-530.,0.));
#132 = DIRECTION('',(0.,1.,-0.));
#133 = DIRECTION('',(-1.,0.,0.));
#134 = ORIENTED_EDGE('',*,*,#135,.T.);
#135 = EDGE_CURVE('',#127,#100,#136,.T.);
#136 = LINE('',#137,#138);
#137 = CARTESIAN_POINT('',(-114.5,-530.,0.));
#138 = VECTOR('',#139,1.);
#139 = DIRECTION('',(0.,-1.,0.));
#140 = ORIENTED_EDGE('',*,*,#99,.F.);
#141 = ORIENTED_EDGE('',*,*,#135,.F.);
#142 = CYLINDRICAL_SURFACE('',#143,114.5);
#143 = AXIS2_PLACEMENT_3D('',#144,#145,#146);
#144 = CARTESIAN_POINT('',(0.,-530.,0.));
#145 = DIRECTION('',(-0.,-1.,-0.));
#146 = DIRECTION('',(-1.,0.,0.));
#147 = ADVANCED_FACE('',(#148,#159),#162,.T.);
#148 = FACE_BOUND('',#149,.T.);
#149 = EDGE_LOOP('',(#150));
#150 = ORIENTED_EDGE('',*,*,#151,.T.);
#151 = EDGE_CURVE('',#152,#152,#154,.T.);
#152 = VERTEX_POINT('',#153);
#153 = CARTESIAN_POINT('',(-119.75,-530.,0.));
#154 = CIRCLE('',#155,119.75);
#155 = AXIS2_PLACEMENT_3D('',#156,#157,#158);
#156 = CARTESIAN_POINT('',(0.,-530.,0.));
#157 = DIRECTION('',(0.,1.,-0.));
#158 = DIRECTION('',(-1.,0.,0.));
#159 = FACE_BOUND('',#160,.T.);
#160 = EDGE_LOOP('',(#161));
#161 = ORIENTED_EDGE('',*,*,#126,.F.);
#162 = PLANE('',#163);
#163 = AXIS2_PLACEMENT_3D('',#164,#165,#166);
#164 = CARTESIAN_POINT('',(0.,-530.,0.));
#165 = DIRECTION('',(0.,1.,0.));
#166 = DIRECTION('',(-1.,0.,0.));
#167 = ADVANCED_FACE('',(#168),#187,.T.);
#168 = FACE_BOUND('',#169,.T.);
#169 = EDGE_LOOP('',(#170,#179,#185,#186));
#170 = ORIENTED_EDGE('',*,*,#171,.T.);
#171 = EDGE_CURVE('',#172,#172,#174,.T.);
#172 = VERTEX_POINT('',#173);
#173 = CARTESIAN_POINT('',(-119.75,-538.,0.));
#174 = CIRCLE('',#175,119.75);
#175 = AXIS2_PLACEMENT_3D('',#176,#177,#178);
#176 = CARTESIAN_POINT('',(0.,-538.,0.));
#177 = DIRECTION('',(0.,1.,-0.));
#178 = DIRECTION('',(-1.,0.,0.));
#179 = ORIENTED_EDGE('',*,*,#180,.T.);
#180 = EDGE_CURVE('',#172,#152,#181,.T.);
#181 = LINE('',#182,#183);
#182 = CARTESIAN_POINT('',(-119.75,-538.,0.));
#183 = VECTOR('',#184,1.);
#184 = DIRECTION('',(0.,1.,0.));
#185 = ORIENTED_EDGE('',*,*,#151,.F.);
#186 = ORIENTED_EDGE('',*,*,#180,.F.);
#187 = CYLINDRICAL_SURFACE('',#188,119.75);
#188 = AXIS2_PLACEMENT_3D('',#189,#190,#191);
#189 = CARTESIAN_POINT('',(0.,-538.,0.));
#190 = DIRECTION('',(0.,1.,0.));
#191 = DIRECTION('',(-1.,0.,0.));
#192 = ADVANCED_FACE('',(#193,#204),#207,.T.);
#193 = FACE_BOUND('',#194,.T.);
#194 = EDGE_LOOP('',(#195));
#195 = ORIENTED_EDGE('',*,*,#196,.T.);
#196 = EDGE_CURVE('',#197,#197,#199,.T.);
#197 = VERTEX_POINT('',#198);
#198 = CARTESIAN_POINT('',(-125.,-538.,0.));
#199 = CIRCLE('',#200,125.);
#200 = AXIS2_PLACEMENT_3D('',#201,#202,#203);
#201 = CARTESIAN_POINT('',(0.,-538.,0.));
#202 = DIRECTION('',(0.,1.,-0.));
#203 = DIRECTION('',(-1.,0.,0.));
#204 = FACE_BOUND('',#205,.T.);
#205 = EDGE_LOOP('',(#206));
#206 = ORIENTED_EDGE('',*,*,#171,.F.);
#207 = PLANE('',#208);
#208 = AXIS2_PLACEMENT_3D('',#209,#210,#211);
#209 = CARTESIAN_POINT('',(0.,-538.,0.));
#210 = DIRECTION('',(0.,1.,0.));
#211 = DIRECTION('',(-1.,0.,0.));
#212 = ADVANCED_FACE('',(#213),#225,.T.);
#213 = FACE_BOUND('',#214,.F.);
#214 = EDGE_LOOP('',(#215,#216,#223,#224));
#215 = ORIENTED_EDGE('',*,*,#196,.T.);
#216 = ORIENTED_EDGE('',*,*,#217,.T.);
#217 = EDGE_CURVE('',#197,#22,#218,.T.);
#218 = CIRCLE('',#219,125.);
#219 = AXIS2_PLACEMENT_3D('',#220,#221,#222);
#220 = CARTESIAN_POINT('',(0.,-538.,0.));
#221 = DIRECTION('',(0.,0.,1.));
#222 = DIRECTION('',(1.,0.,0.));
#223 = ORIENTED_EDGE('',*,*,#21,.F.);
#224 = ORIENTED_EDGE('',*,*,#217,.F.);
#225 = SPHERICAL_SURFACE('',#226,125.);
#226 = AXIS2_PLACEMENT_3D('',#227,#228,#229);
#227 = CARTESIAN_POINT('',(-0.,-538.,0.));
#228 = DIRECTION('',(-0.,-1.,-0.));
#229 = DIRECTION('',(-1.,0.,0.));
#230 = ( GEOMETRIC_REPRESENTATION_CONTEXT(3) 
GLOBAL_UNCERTAINTY_ASSIGNED_CONTEXT((#234)) GLOBAL_UNIT_ASSIGNED_CONTEXT
((#231,#232,#233)) REPRESENTATION_CONTEXT('Context #1',
  '3D Context with UNIT and UNCERTAINTY') );
#231 = ( LENGTH_UNIT() NAMED_UNIT(*) SI_UNIT(.MILLI.,.METRE.) );
#232 = ( NAMED_UNIT(*) PLANE_ANGLE_UNIT() SI_UNIT($,.RADIAN.) );
#233 = ( NAMED_UNIT(*) SI_UNIT($,.STERADIAN.) SOLID_ANGLE_UNIT() );
#234 = UNCERTAINTY_MEASURE_WITH_UNIT(LENGTH_MEASURE(1.E-07),#231,
  'distance_accuracy_value','confusion accuracy');
#235 = PRODUCT_RELATED_PRODUCT_CATEGORY('part',$,(#7));
#236 = MECHANICAL_DESIGN_GEOMETRIC_PRESENTATION_REPRESENTATION('',(#237)
  ,#230);
#237 = STYLED_ITEM('color',(#238),#15);
#238 = PRESENTATION_STYLE_ASSIGNMENT((#239,#245));
#239 = SURFACE_STYLE_USAGE(.BOTH.,#240);
#240 = SURFACE_SIDE_STYLE('',(#241));
#241 = SURFACE_STYLE_FILL_AREA(#242);
#242 = FILL_AREA_STYLE('',(#243));
#243 = FILL_AREA_STYLE_COLOUR('',#244);
#244 = COLOUR_RGB('',0.72156863771,0.764705913506,0.780392170416);
#245 = CURVE_STYLE('',#246,POSITIVE_LENGTH_MEASURE(0.1),#247);
#246 = DRAUGHTING_PRE_DEFINED_CURVE_FONT('continuous');
#247 = COLOUR_RGB('',9.803921802644E-02,9.803921802644E-02,
  9.803921802644E-02);
ENDSEC;
END-ISO-10303-21;
