ISO-10303-21;
HEADER;
FILE_DESCRIPTION(('FreeCAD Model'),'2;1');
FILE_NAME('Open CASCADE Shape Model','2026-06-23T09:15:39',(''),(''),
  'Open CASCADE STEP processor 7.9','FreeCAD','Unknown');
FILE_SCHEMA(('AUTOMOTIVE_DESIGN { 1 0 10303 214 1 1 1 1 }'));
ENDSEC;
DATA;
#1 = APPLICATION_PROTOCOL_DEFINITION('international standard',
  'automotive_design',2000,#2);
#2 = APPLICATION_CONTEXT(
  'core data for automotive mechanical design processes');
#3 = SHAPE_DEFINITION_REPRESENTATION(#4,#10);
#4 = PRODUCT_DEFINITION_SHAPE('','',#5);
#5 = PRODUCT_DEFINITION('design','',#6,#9);
#6 = PRODUCT_DEFINITION_FORMATION('','',#7);
#7 = PRODUCT('HeadBody','HeadBody','',(#8));
#8 = PRODUCT_CONTEXT('',#2,'mechanical');
#9 = PRODUCT_DEFINITION_CONTEXT('part definition',#2,'design');
#10 = ADVANCED_BREP_SHAPE_REPRESENTATION('',(#11,#15),#1217);
#11 = AXIS2_PLACEMENT_3D('',#12,#13,#14);
#12 = CARTESIAN_POINT('',(0.,0.,0.));
#13 = DIRECTION('',(0.,0.,1.));
#14 = DIRECTION('',(1.,0.,-0.));
#15 = MANIFOLD_SOLID_BREP('',#16);
#16 = CLOSED_SHELL('',(#17,#466,#475,#495,#526,#585,#644,#669,#694,#753,
    #812,#829,#860,#919,#978,#1003,#1028,#1087,#1146,#1163,#1208));
#17 = ADVANCED_FACE('',(#18,#45,#253),#461,.T.);
#18 = FACE_BOUND('',#19,.F.);
#19 = EDGE_LOOP('',(#20,#29,#37,#44));
#20 = ORIENTED_EDGE('',*,*,#21,.F.);
#21 = EDGE_CURVE('',#22,#22,#24,.T.);
#22 = VERTEX_POINT('',#23);
#23 = CARTESIAN_POINT('',(125.,0.,0.));
#24 = CIRCLE('',#25,125.);
#25 = AXIS2_PLACEMENT_3D('',#26,#27,#28);
#26 = CARTESIAN_POINT('',(0.,0.,0.));
#27 = DIRECTION('',(0.,-1.,0.));
#28 = DIRECTION('',(1.,0.,0.));
#29 = ORIENTED_EDGE('',*,*,#30,.T.);
#30 = EDGE_CURVE('',#22,#31,#33,.T.);
#31 = VERTEX_POINT('',#32);
#32 = CARTESIAN_POINT('',(125.,-255.,6.E-14));
#33 = LINE('',#34,#35);
#34 = CARTESIAN_POINT('',(125.,0.,0.));
#35 = VECTOR('',#36,1.);
#36 = DIRECTION('',(0.,-1.,2.2E-16));
#37 = ORIENTED_EDGE('',*,*,#38,.T.);
#38 = EDGE_CURVE('',#31,#31,#39,.T.);
#39 = CIRCLE('',#40,125.);
#40 = AXIS2_PLACEMENT_3D('',#41,#42,#43);
#41 = CARTESIAN_POINT('',(0.,-255.,6.E-14));
#42 = DIRECTION('',(0.,-1.,0.));
#43 = DIRECTION('',(1.,0.,0.));
#44 = ORIENTED_EDGE('',*,*,#30,.F.);
#45 = FACE_BOUND('',#46,.F.);
#46 = EDGE_LOOP('',(#47,#57,#100,#109,#152,#160,#203,#212));
#47 = ORIENTED_EDGE('',*,*,#48,.F.);
#48 = EDGE_CURVE('',#49,#51,#53,.T.);
#49 = VERTEX_POINT('',#50);
#50 = CARTESIAN_POINT('',(-100.,-187.,75.));
#51 = VERTEX_POINT('',#52);
#52 = CARTESIAN_POINT('',(-100.,-185.,75.));
#53 = LINE('',#54,#55);
#54 = CARTESIAN_POINT('',(-100.,1.665E-14,75.));
#55 = VECTOR('',#56,1.);
#56 = DIRECTION('',(0.,1.,-2.2E-16));
#57 = ORIENTED_EDGE('',*,*,#58,.T.);
#58 = EDGE_CURVE('',#49,#59,#61,.T.);
#59 = VERTEX_POINT('',#60);
#60 = CARTESIAN_POINT('',(-65.,-222.,106.77078252031));
#61 = B_SPLINE_CURVE_WITH_KNOTS('',7,(#62,#63,#64,#65,#66,#67,#68,#69,
    #70,#71,#72,#73,#74,#75,#76,#77,#78,#79,#80,#81,#82,#83,#84,#85,#86,
    #87,#88,#89,#90,#91,#92,#93,#94,#95,#96,#97,#98,#99),.UNSPECIFIED.,
  .F.,.F.,(8,6,6,6,6,6,8),(0.,0.215418055163,0.309291406285,
    0.555277561186,0.770994053625,0.86082162344,1.),.UNSPECIFIED.);
#62 = CARTESIAN_POINT('',(-100.,-187.,75.));
#63 = CARTESIAN_POINT('',(-100.,-188.8047254215,75.));
#64 = CARTESIAN_POINT('',(-99.89143222642,-190.6003678292,
    75.144757440641));
#65 = CARTESIAN_POINT('',(-99.67626369933,-192.3764459306,
    75.431646593666));
#66 = CARTESIAN_POINT('',(-99.35810777773,-194.1223435282,
    75.853110473966));
#67 = CARTESIAN_POINT('',(-98.9424283883,-195.8267935059,76.396611281791
    ));
#68 = CARTESIAN_POINT('',(-98.43751369508,-197.4777250186,
    77.044988756796));
#69 = CARTESIAN_POINT('',(-97.60213984653,-199.7531053114,
    78.096020021889));
#70 = CARTESIAN_POINT('',(-97.33331296854,-200.4329868615,78.4317558546)
  );
#71 = CARTESIAN_POINT('',(-97.04968903253,-201.1020551605,
    78.783119919781));
#72 = CARTESIAN_POINT('',(-96.75172638058,-201.7602177952,
    79.149040204061));
#73 = CARTESIAN_POINT('',(-96.43986066279,-202.4073816796,
    79.528482471465));
#74 = CARTESIAN_POINT('',(-96.11450845167,-203.0434529948,
    79.920452028399));
#75 = CARTESIAN_POINT('',(-94.88922744824,-205.3057863451,
    81.381442601505));
#76 = CARTESIAN_POINT('',(-93.91223090802,-206.8669755546,
    82.518721282297));
#77 = CARTESIAN_POINT('',(-92.85084560293,-208.3525803875,
    83.720362641365));
#78 = CARTESIAN_POINT('',(-91.70894926052,-209.7631722032,
    84.973886028836));
#79 = CARTESIAN_POINT('',(-90.48874279712,-211.0989757348,
    86.269591592037));
#80 = CARTESIAN_POINT('',(-89.19076326184,-212.3594547371,
    87.599938687683));
#81 = CARTESIAN_POINT('',(-86.60699199824,-214.5802799317,90.15046468972
    ));
#82 = CARTESIAN_POINT('',(-85.33957141296,-215.5582867492,
    91.363842466776));
#83 = CARTESIAN_POINT('',(-84.01190502376,-216.4749768316,
    92.594297955739));
#84 = CARTESIAN_POINT('',(-82.6235746448,-217.3277582341,93.837739672847
    ));
#85 = CARTESIAN_POINT('',(-81.17393397759,-218.1130260231,
    95.090318002376));
#86 = CARTESIAN_POINT('',(-79.66235898912,-218.826006931,96.3481739986)
  );
#87 = CARTESIAN_POINT('',(-77.43322387301,-219.7248262245,
    98.131545436241));
#88 = CARTESIAN_POINT('',(-76.76711414763,-219.9754656863,
    98.656033045014));
#89 = CARTESIAN_POINT('',(-76.09029082393,-220.2120319087,
    99.180365028646));
#90 = CARTESIAN_POINT('',(-75.40281939023,-220.4340264542,
    99.704188952742));
#91 = CARTESIAN_POINT('',(-74.70478436904,-220.6409187628,
    100.22714699127));
#92 = CARTESIAN_POINT('',(-73.99629066215,-220.8321456246,
    100.74887702055));
#93 = CARTESIAN_POINT('',(-72.16371993542,-221.2782005692,
    102.07491084051));
#94 = CARTESIAN_POINT('',(-71.02458889959,-221.5103935091,
    102.87740453245));
#95 = CARTESIAN_POINT('',(-69.86138278189,-221.7011811064,
    103.67448763792));
#96 = CARTESIAN_POINT('',(-68.67557337572,-221.8480556873,
    104.46420785551));
#97 = CARTESIAN_POINT('',(-67.46880968585,-221.9485038423,
    105.24468161959));
#98 = CARTESIAN_POINT('',(-66.24293433992,-222.,106.01410798643));
#99 = CARTESIAN_POINT('',(-65.,-222.,106.77078252031));
#100 = ORIENTED_EDGE('',*,*,#101,.T.);
#101 = EDGE_CURVE('',#59,#102,#104,.T.);
#102 = VERTEX_POINT('',#103);
#103 = CARTESIAN_POINT('',(65.,-222.,106.77078252031));
#104 = CIRCLE('',#105,125.);
#105 = AXIS2_PLACEMENT_3D('',#106,#107,#108);
#106 = CARTESIAN_POINT('',(0.,-222.,4.929E-14));
#107 = DIRECTION('',(0.,1.,-2.2E-16));
#108 = DIRECTION('',(1.,0.,0.));
#109 = ORIENTED_EDGE('',*,*,#110,.T.);
#110 = EDGE_CURVE('',#102,#111,#113,.T.);
#111 = VERTEX_POINT('',#112);
#112 = CARTESIAN_POINT('',(100.,-187.,75.));
#113 = B_SPLINE_CURVE_WITH_KNOTS('',7,(#114,#115,#116,#117,#118,#119,
    #120,#121,#122,#123,#124,#125,#126,#127,#128,#129,#130,#131,#132,
    #133,#134,#135,#136,#137,#138,#139,#140,#141,#142,#143,#144,#145,
    #146,#147,#148,#149,#150,#151),.UNSPECIFIED.,.F.,.F.,(8,6,6,6,6,6,8)
  ,(0.,0.139178440277,0.229006051216,0.444722642412,0.690708862141,
    0.784582196175,1.),.UNSPECIFIED.);
#114 = CARTESIAN_POINT('',(65.,-222.,106.77078252031));
#115 = CARTESIAN_POINT('',(66.242934339928,-222.,106.01410798643));
#116 = CARTESIAN_POINT('',(67.46880968585,-221.9485038423,
    105.24468161959));
#117 = CARTESIAN_POINT('',(68.675573375724,-221.8480556873,
    104.46420785551));
#118 = CARTESIAN_POINT('',(69.861382781897,-221.7011811064,
    103.67448763792));
#119 = CARTESIAN_POINT('',(71.024588899597,-221.5103935091,
    102.87740453245));
#120 = CARTESIAN_POINT('',(72.163719935422,-221.2782005692,
    102.07491084051));
#121 = CARTESIAN_POINT('',(73.996290662157,-220.8321456246,
    100.74887702055));
#122 = CARTESIAN_POINT('',(74.70478436904,-220.6409187628,
    100.22714699127));
#123 = CARTESIAN_POINT('',(75.402819390237,-220.4340264542,
    99.704188952743));
#124 = CARTESIAN_POINT('',(76.090290823936,-220.2120319087,
    99.180365028648));
#125 = CARTESIAN_POINT('',(76.767114147636,-219.9754656863,
    98.656033045015));
#126 = CARTESIAN_POINT('',(77.433223873017,-219.7248262245,
    98.131545436242));
#127 = CARTESIAN_POINT('',(79.662358989124,-218.826006931,
    96.348173998601));
#128 = CARTESIAN_POINT('',(81.173933977595,-218.1130260231,
    95.090318002377));
#129 = CARTESIAN_POINT('',(82.623574644806,-217.3277582341,
    93.837739672848));
#130 = CARTESIAN_POINT('',(84.011905023766,-216.4749768316,
    92.59429795574));
#131 = CARTESIAN_POINT('',(85.339571412962,-215.5582867492,
    91.363842466776));
#132 = CARTESIAN_POINT('',(86.606991998245,-214.5802799317,
    90.150464689721));
#133 = CARTESIAN_POINT('',(89.190762994418,-212.359454967,
    87.599938951665));
#134 = CARTESIAN_POINT('',(90.488742251132,-211.0989762605,
    86.269592150064));
#135 = CARTESIAN_POINT('',(91.708948606528,-209.7631729481,
    84.973886732948));
#136 = CARTESIAN_POINT('',(92.85084501778,-208.3525811774,
    83.720363299454));
#137 = CARTESIAN_POINT('',(93.912230499829,-206.8669762002,
    82.518721756675));
#138 = CARTESIAN_POINT('',(94.889227250495,-205.3057867103,
    81.381442837301));
#139 = CARTESIAN_POINT('',(96.114508376339,-203.0434531339,
    79.920452118223));
#140 = CARTESIAN_POINT('',(96.439860538787,-202.4073819243,
    79.528482621124));
#141 = CARTESIAN_POINT('',(96.751726234838,-201.7602181041,
    79.149040382016));
#142 = CARTESIAN_POINT('',(97.049688891011,-201.1020554845,
    78.783120094477));
#143 = CARTESIAN_POINT('',(97.333312855089,-200.4329871438,
    78.43175599608));
#144 = CARTESIAN_POINT('',(97.6021397817,-199.753105488,78.096020103466)
  );
#145 = CARTESIAN_POINT('',(98.437513270936,-197.4777261739,
    77.044989290447));
#146 = CARTESIAN_POINT('',(98.942427860958,-195.8267953442,
    76.396611964404));
#147 = CARTESIAN_POINT('',(99.358107333861,-194.1223456322,
    75.853111060302));
#148 = CARTESIAN_POINT('',(99.676263420749,-192.3764479378,
    75.431646965089));
#149 = CARTESIAN_POINT('',(99.891432116686,-190.6003694236,
    75.144757586963));
#150 = CARTESIAN_POINT('',(100.,-188.8047263338,75.));
#151 = CARTESIAN_POINT('',(100.,-187.,75.));
#152 = ORIENTED_EDGE('',*,*,#153,.T.);
#153 = EDGE_CURVE('',#111,#154,#156,.T.);
#154 = VERTEX_POINT('',#155);
#155 = CARTESIAN_POINT('',(100.,-185.,75.));
#156 = LINE('',#157,#158);
#157 = CARTESIAN_POINT('',(100.,1.665E-14,75.));
#158 = VECTOR('',#159,1.);
#159 = DIRECTION('',(0.,1.,-2.2E-16));
#160 = ORIENTED_EDGE('',*,*,#161,.T.);
#161 = EDGE_CURVE('',#154,#162,#164,.T.);
#162 = VERTEX_POINT('',#163);
#163 = CARTESIAN_POINT('',(65.,-150.,106.77078252031));
#164 = B_SPLINE_CURVE_WITH_KNOTS('',7,(#165,#166,#167,#168,#169,#170,
    #171,#172,#173,#174,#175,#176,#177,#178,#179,#180,#181,#182,#183,
    #184,#185,#186,#187,#188,#189,#190,#191,#192,#193,#194,#195,#196,
    #197,#198,#199,#200,#201,#202),.UNSPECIFIED.,.F.,.F.,(8,6,6,6,6,6,8)
  ,(0.,0.215417804078,0.309291138075,0.555277357773,0.770993948879,
    0.86082155978,1.),.UNSPECIFIED.);
#165 = CARTESIAN_POINT('',(100.,-185.,75.));
#166 = CARTESIAN_POINT('',(100.,-183.1952736687,75.));
#167 = CARTESIAN_POINT('',(99.891432116993,-181.3996305766,
    75.144757586553));
#168 = CARTESIAN_POINT('',(99.676263420645,-179.6235520601,
    75.431646965231));
#169 = CARTESIAN_POINT('',(99.35810733326,-177.8776543656,
    75.853111061114));
#170 = CARTESIAN_POINT('',(98.942427860706,-176.1732046558,
    76.39661196468));
#171 = CARTESIAN_POINT('',(98.437513271852,-174.5222738285,
    77.044989289295));
#172 = CARTESIAN_POINT('',(97.602139781701,-172.2468945119,
    78.096020103464));
#173 = CARTESIAN_POINT('',(97.33331285509,-171.5670128561,
    78.431755996078));
#174 = CARTESIAN_POINT('',(97.049688891012,-170.8979445154,
    78.783120094475));
#175 = CARTESIAN_POINT('',(96.75172623484,-170.2397818958,
    79.149040382014));
#176 = CARTESIAN_POINT('',(96.439860538788,-169.5926180756,
    79.528482621123));
#177 = CARTESIAN_POINT('',(96.114508376341,-168.956546866,
    79.920452118221));
#178 = CARTESIAN_POINT('',(94.88922725026,-166.6942132892,
    81.381442837581));
#179 = CARTESIAN_POINT('',(93.912230500007,-165.1330238002,
    82.518721756452));
#180 = CARTESIAN_POINT('',(92.850845018095,-163.6474188228,83.7203632991
    ));
#181 = CARTESIAN_POINT('',(91.708948606371,-162.2368270515,
    84.973886733182));
#182 = CARTESIAN_POINT('',(90.488742250664,-160.9010237391,
    86.269592150496));
#183 = CARTESIAN_POINT('',(89.190762994817,-159.6405450333,
    87.599938951271));
#184 = CARTESIAN_POINT('',(86.606991998247,-157.4197200682,
    90.150464689719));
#185 = CARTESIAN_POINT('',(85.339571412966,-156.4417132507,
    91.363842466773));
#186 = CARTESIAN_POINT('',(84.011905023767,-155.5250231683,
    92.594297955738));
#187 = CARTESIAN_POINT('',(82.623574644809,-154.6722417658,
    93.837739672846));
#188 = CARTESIAN_POINT('',(81.1739339776,-153.8869739768,95.090318002373
    ));
#189 = CARTESIAN_POINT('',(79.662358989127,-153.1739930689,
    96.348173998598));
#190 = CARTESIAN_POINT('',(77.43322387302,-152.2751737754,
    98.131545436239));
#191 = CARTESIAN_POINT('',(76.767114147639,-152.0245343136,
    98.656033045013));
#192 = CARTESIAN_POINT('',(76.090290823939,-151.7879680912,
    99.180365028645));
#193 = CARTESIAN_POINT('',(75.40281939024,-151.5659735457,99.70418895274
    ));
#194 = CARTESIAN_POINT('',(74.704784369044,-151.3590812371,
    100.22714699127));
#195 = CARTESIAN_POINT('',(73.99629066216,-151.1678543753,
    100.74887702055));
#196 = CARTESIAN_POINT('',(72.163719935425,-150.7217994307,
    102.07491084051));
#197 = CARTESIAN_POINT('',(71.0245888996,-150.4896064908,102.87740453244
    ));
#198 = CARTESIAN_POINT('',(69.861382781899,-150.2988188935,
    103.67448763791));
#199 = CARTESIAN_POINT('',(68.675573375726,-150.1519443126,
    104.46420785551));
#200 = CARTESIAN_POINT('',(67.468809685851,-150.0514961576,
    105.24468161959));
#201 = CARTESIAN_POINT('',(66.242934339929,-150.,106.01410798643));
#202 = CARTESIAN_POINT('',(65.,-150.,106.77078252031));
#203 = ORIENTED_EDGE('',*,*,#204,.F.);
#204 = EDGE_CURVE('',#205,#162,#207,.T.);
#205 = VERTEX_POINT('',#206);
#206 = CARTESIAN_POINT('',(-65.,-150.,106.77078252031));
#207 = CIRCLE('',#208,125.);
#208 = AXIS2_PLACEMENT_3D('',#209,#210,#211);
#209 = CARTESIAN_POINT('',(0.,-150.,3.331E-14));
#210 = DIRECTION('',(0.,1.,-2.2E-16));
#211 = DIRECTION('',(1.,0.,0.));
#212 = ORIENTED_EDGE('',*,*,#213,.T.);
#213 = EDGE_CURVE('',#205,#51,#214,.T.);
#214 = B_SPLINE_CURVE_WITH_KNOTS('',7,(#215,#216,#217,#218,#219,#220,
    #221,#222,#223,#224,#225,#226,#227,#228,#229,#230,#231,#232,#233,
    #234,#235,#236,#237,#238,#239,#240,#241,#242,#243,#244,#245,#246,
    #247,#248,#249,#250,#251,#252),.UNSPECIFIED.,.F.,.F.,(8,6,6,6,6,6,8)
  ,(0.,0.138593148123,0.228027123168,0.442796070388,0.692004211891,
    0.785465727166,1.),.UNSPECIFIED.);
#215 = CARTESIAN_POINT('',(-65.,-150.,106.77078252031));
#216 = CARTESIAN_POINT('',(-66.23773486292,-150.,106.01727332808));
#217 = CARTESIAN_POINT('',(-67.4586042469,-150.0510662473,
    105.25108767981));
#218 = CARTESIAN_POINT('',(-68.66055847,-150.1506938456,104.47391905392)
  );
#219 = CARTESIAN_POINT('',(-69.84175406432,-150.2963905431,
    103.68755853205));
#220 = CARTESIAN_POINT('',(-71.00053780706,-150.4856704707,
    102.89388125147));
#221 = CARTESIAN_POINT('',(-72.13543075163,-150.716047881,
    102.09483285753));
#222 = CARTESIAN_POINT('',(-73.96118826644,-151.1586052626,
    100.77461739157));
#223 = CARTESIAN_POINT('',(-74.66702844235,-151.3483189174,
    100.25522637284));
#224 = CARTESIAN_POINT('',(-75.3625063544,-151.5535823561,99.73460409918
    ));
#225 = CARTESIAN_POINT('',(-76.04751702942,-151.7738386051,
    99.213108651087));
#226 = CARTESIAN_POINT('',(-76.72197563028,-152.0085626917,
    98.691093913583));
#227 = CARTESIAN_POINT('',(-77.38581613288,-152.2572611248,
    98.168908499525));
#228 = CARTESIAN_POINT('',(-79.60753779985,-153.1491495218,
    96.393317831338));
#229 = CARTESIAN_POINT('',(-81.11442249751,-153.8566885928,
    95.14085028342));
#230 = CARTESIAN_POINT('',(-82.55990602183,-154.6360244498,
    93.893505184065));
#231 = CARTESIAN_POINT('',(-83.94459620248,-155.4824172745,
    92.655096667225));
#232 = CARTESIAN_POINT('',(-85.26912912494,-156.3922772208,
    91.429425286843));
#233 = CARTESIAN_POINT('',(-86.53392368813,-157.3630132442,
    90.220522081566));
#234 = CARTESIAN_POINT('',(-89.13733395088,-159.5879449023,
    87.654947970097));
#235 = CARTESIAN_POINT('',(-90.45496072944,-160.8623744648,
    86.305966163436));
#236 = CARTESIAN_POINT('',(-91.69279066006,-162.2141276403,
    84.992325868717));
#237 = CARTESIAN_POINT('',(-92.85029372056,-163.6426335448,
    83.721827465044));
#238 = CARTESIAN_POINT('',(-93.9251873773,-165.148125543,82.504539031348
    ));
#239 = CARTESIAN_POINT('',(-94.91342582896,-166.7311995163,
    81.35346184888));
#240 = CARTESIAN_POINT('',(-96.14483437314,-169.0156230917,
    79.883942504159));
#241 = CARTESIAN_POINT('',(-96.46770110012,-169.6497789053,
    79.494671336742));
#242 = CARTESIAN_POINT('',(-96.77717457958,-170.2949285761,
    79.117879233128));
#243 = CARTESIAN_POINT('',(-97.0728409431,-170.9509766229,
    78.754552037045));
#244 = CARTESIAN_POINT('',(-97.35426800723,-171.6178283402,
    78.405713840581));
#245 = CARTESIAN_POINT('',(-97.62100166237,-172.2953897387,
    78.072425224398));
#246 = CARTESIAN_POINT('',(-98.45000175692,-174.5632306467,
    77.028948304669));
#247 = CARTESIAN_POINT('',(-98.95098264984,-176.2083741541,
    76.385425800317));
#248 = CARTESIAN_POINT('',(-99.36335318304,-177.906479855,
    75.846162139718));
#249 = CARTESIAN_POINT('',(-99.678935242,-179.6455913427,75.428084582059
    ));
#250 = CARTESIAN_POINT('',(-99.89233704028,-181.4145435472,
    75.143551011903));
#251 = CARTESIAN_POINT('',(-100.,-183.2028106964,75.));
#252 = CARTESIAN_POINT('',(-100.,-185.,75.));
#253 = FACE_BOUND('',#254,.F.);
#254 = EDGE_LOOP('',(#255,#265,#308,#317,#360,#368,#411,#420));
#255 = ORIENTED_EDGE('',*,*,#256,.T.);
#256 = EDGE_CURVE('',#257,#259,#261,.T.);
#257 = VERTEX_POINT('',#258);
#258 = CARTESIAN_POINT('',(100.,-75.,75.));
#259 = VERTEX_POINT('',#260);
#260 = CARTESIAN_POINT('',(100.,-55.,75.));
#261 = LINE('',#262,#263);
#262 = CARTESIAN_POINT('',(100.,1.665E-14,75.));
#263 = VECTOR('',#264,1.);
#264 = DIRECTION('',(0.,1.,-2.2E-16));
#265 = ORIENTED_EDGE('',*,*,#266,.T.);
#266 = EDGE_CURVE('',#259,#267,#269,.T.);
#267 = VERTEX_POINT('',#268);
#268 = CARTESIAN_POINT('',(65.,-20.,106.77078252031));
#269 = B_SPLINE_CURVE_WITH_KNOTS('',7,(#270,#271,#272,#273,#274,#275,
    #276,#277,#278,#279,#280,#281,#282,#283,#284,#285,#286,#287,#288,
    #289,#290,#291,#292,#293,#294,#295,#296,#297,#298,#299,#300,#301,
    #302,#303,#304,#305,#306,#307),.UNSPECIFIED.,.F.,.F.,(8,6,6,6,6,6,8)
  ,(0.,0.215417803888,0.309291137913,0.555277357621,0.770993948797,
    0.860821559728,1.),.UNSPECIFIED.);
#270 = CARTESIAN_POINT('',(100.,-55.,75.));
#271 = CARTESIAN_POINT('',(100.,-53.19527366681,75.));
#272 = CARTESIAN_POINT('',(99.891432116763,-51.39963057639,
    75.144757586861));
#273 = CARTESIAN_POINT('',(99.676263420724,-49.62355206163,
    75.431646965121));
#274 = CARTESIAN_POINT('',(99.358107333709,-47.87765436721,
    75.85311106051));
#275 = CARTESIAN_POINT('',(98.942427860898,-46.17320465577,
    76.396611964468));
#276 = CARTESIAN_POINT('',(98.437513271164,-44.52227382664,
    77.04498929016));
#277 = CARTESIAN_POINT('',(97.6021397817,-42.24689451195,78.096020103466
    ));
#278 = CARTESIAN_POINT('',(97.33331285509,-41.56701285617,
    78.431755996078));
#279 = CARTESIAN_POINT('',(97.049688891013,-40.89794451548,
    78.783120094474));
#280 = CARTESIAN_POINT('',(96.751726234841,-40.23978189584,
    79.149040382012));
#281 = CARTESIAN_POINT('',(96.439860538789,-39.59261807564,
    79.528482621123));
#282 = CARTESIAN_POINT('',(96.114508376339,-38.95654686608,
    79.920452118223));
#283 = CARTESIAN_POINT('',(94.889227250496,-36.69421328968,
    81.381442837301));
#284 = CARTESIAN_POINT('',(93.912230499832,-35.1330237998,
    82.518721756672));
#285 = CARTESIAN_POINT('',(92.850845017785,-33.64741882259,
    83.72036329945));
#286 = CARTESIAN_POINT('',(91.708948606528,-32.23682705187,
    84.973886732948));
#287 = CARTESIAN_POINT('',(90.488742251132,-30.90102373948,
    86.269592150064));
#288 = CARTESIAN_POINT('',(89.190762994425,-29.64054503297,
    87.599938951658));
#289 = CARTESIAN_POINT('',(86.606991998249,-27.41972006825,
    90.150464689718));
#290 = CARTESIAN_POINT('',(85.339571412964,-26.44171325072,
    91.363842466775));
#291 = CARTESIAN_POINT('',(84.011905023768,-25.52502316832,
    92.594297955738));
#292 = CARTESIAN_POINT('',(82.623574644809,-24.67224176581,
    93.837739672845));
#293 = CARTESIAN_POINT('',(81.173933977598,-23.88697397685,
    95.090318002375));
#294 = CARTESIAN_POINT('',(79.662358989128,-23.17399306896,
    96.348173998597));
#295 = CARTESIAN_POINT('',(77.43322387302,-22.27517377544,
    98.131545436239));
#296 = CARTESIAN_POINT('',(76.767114147638,-22.02453431368,
    98.656033045013));
#297 = CARTESIAN_POINT('',(76.090290823939,-21.78796809122,
    99.180365028646));
#298 = CARTESIAN_POINT('',(75.40281939024,-21.56597354576,99.70418895274
    ));
#299 = CARTESIAN_POINT('',(74.704784369044,-21.35908123718,
    100.22714699127));
#300 = CARTESIAN_POINT('',(73.99629066216,-21.16785437538,
    100.74887702055));
#301 = CARTESIAN_POINT('',(72.163719935364,-20.72179943071,
    102.07491084055));
#302 = CARTESIAN_POINT('',(71.024588899591,-20.48960649087,
    102.87740453245));
#303 = CARTESIAN_POINT('',(69.861382781948,-20.29881889356,
    103.67448763788));
#304 = CARTESIAN_POINT('',(68.675573375778,-20.15194431269,
    104.46420785547));
#305 = CARTESIAN_POINT('',(67.468809685846,-20.05149615766,
    105.2446816196));
#306 = CARTESIAN_POINT('',(66.242934339861,-20.,106.01410798647));
#307 = CARTESIAN_POINT('',(65.,-20.,106.77078252031));
#308 = ORIENTED_EDGE('',*,*,#309,.F.);
#309 = EDGE_CURVE('',#310,#267,#312,.T.);
#310 = VERTEX_POINT('',#311);
#311 = CARTESIAN_POINT('',(-65.,-20.,106.77078252031));
#312 = CIRCLE('',#313,125.);
#313 = AXIS2_PLACEMENT_3D('',#314,#315,#316);
#314 = CARTESIAN_POINT('',(0.,-20.,4.44E-15));
#315 = DIRECTION('',(0.,1.,-2.2E-16));
#316 = DIRECTION('',(1.,0.,0.));
#317 = ORIENTED_EDGE('',*,*,#318,.T.);
#318 = EDGE_CURVE('',#310,#319,#321,.T.);
#319 = VERTEX_POINT('',#320);
#320 = CARTESIAN_POINT('',(-100.,-55.,75.));
#321 = B_SPLINE_CURVE_WITH_KNOTS('',7,(#322,#323,#324,#325,#326,#327,
    #328,#329,#330,#331,#332,#333,#334,#335,#336,#337,#338,#339,#340,
    #341,#342,#343,#344,#345,#346,#347,#348,#349,#350,#351,#352,#353,
    #354,#355,#356,#357,#358,#359),.UNSPECIFIED.,.F.,.F.,(8,6,6,6,6,6,8)
  ,(0.,0.139178440284,0.229006051222,0.444722642417,0.690708862144,
    0.784582196177,1.),.UNSPECIFIED.);
#322 = CARTESIAN_POINT('',(-65.,-20.,106.77078252031));
#323 = CARTESIAN_POINT('',(-66.24293433986,-20.,106.01410798647));
#324 = CARTESIAN_POINT('',(-67.46880968584,-20.05149615766,
    105.2446816196));
#325 = CARTESIAN_POINT('',(-68.67557337577,-20.15194431269,
    104.46420785548));
#326 = CARTESIAN_POINT('',(-69.86138278194,-20.29881889356,
    103.67448763788));
#327 = CARTESIAN_POINT('',(-71.02458889958,-20.48960649087,
    102.87740453245));
#328 = CARTESIAN_POINT('',(-72.16371993536,-20.72179943071,
    102.07491084055));
#329 = CARTESIAN_POINT('',(-73.99629066215,-21.16785437538,
    100.74887702055));
#330 = CARTESIAN_POINT('',(-74.70478436904,-21.35908123718,
    100.22714699127));
#331 = CARTESIAN_POINT('',(-75.40281939023,-21.56597354576,
    99.704188952743));
#332 = CARTESIAN_POINT('',(-76.09029082393,-21.78796809122,
    99.180365028647));
#333 = CARTESIAN_POINT('',(-76.76711414763,-22.02453431368,
    98.656033045015));
#334 = CARTESIAN_POINT('',(-77.43322387301,-22.27517377544,
    98.131545436242));
#335 = CARTESIAN_POINT('',(-79.66235898912,-23.17399306896,
    96.348173998601));
#336 = CARTESIAN_POINT('',(-81.17393397759,-23.88697397685,
    95.090318002375));
#337 = CARTESIAN_POINT('',(-82.6235746448,-24.67224176581,
    93.837739672849));
#338 = CARTESIAN_POINT('',(-84.01190502376,-25.52502316832,
    92.594297955741));
#339 = CARTESIAN_POINT('',(-85.33957141296,-26.44171325072,
    91.363842466776));
#340 = CARTESIAN_POINT('',(-86.60699199824,-27.41972006825,
    90.150464689722));
#341 = CARTESIAN_POINT('',(-89.19076299441,-29.64054503296,
    87.599938951665));
#342 = CARTESIAN_POINT('',(-90.48874225113,-30.90102373949,
    86.269592150061));
#343 = CARTESIAN_POINT('',(-91.70894860652,-32.23682705187,
    84.97388673295));
#344 = CARTESIAN_POINT('',(-92.85084501778,-33.64741882258,
    83.720363299454));
#345 = CARTESIAN_POINT('',(-93.91223049982,-35.13302379979,
    82.518721756677));
#346 = CARTESIAN_POINT('',(-94.88922725049,-36.69421328969,81.3814428373
    ));
#347 = CARTESIAN_POINT('',(-96.11450837633,-38.95654686608,
    79.920452118223));
#348 = CARTESIAN_POINT('',(-96.43986053878,-39.59261807564,
    79.528482621124));
#349 = CARTESIAN_POINT('',(-96.75172623483,-40.23978189584,
    79.149040382015));
#350 = CARTESIAN_POINT('',(-97.04968889101,-40.89794451547,
    78.783120094477));
#351 = CARTESIAN_POINT('',(-97.33331285508,-41.56701285616,
    78.43175599608));
#352 = CARTESIAN_POINT('',(-97.6021397817,-42.24689451195,
    78.096020103466));
#353 = CARTESIAN_POINT('',(-98.43751327093,-44.52227382601,
    77.044989290449));
#354 = CARTESIAN_POINT('',(-98.94242786096,-46.17320465572,
    76.396611964398));
#355 = CARTESIAN_POINT('',(-99.35810733385,-47.87765436773,
    75.853111060309));
#356 = CARTESIAN_POINT('',(-99.67626342075,-49.62355206212,
    75.431646965085));
#357 = CARTESIAN_POINT('',(-99.89143211668,-51.3996305763,
    75.144757586964));
#358 = CARTESIAN_POINT('',(-100.,-53.19527366617,75.));
#359 = CARTESIAN_POINT('',(-100.,-55.,75.));
#360 = ORIENTED_EDGE('',*,*,#361,.F.);
#361 = EDGE_CURVE('',#362,#319,#364,.T.);
#362 = VERTEX_POINT('',#363);
#363 = CARTESIAN_POINT('',(-100.,-75.,75.));
#364 = LINE('',#365,#366);
#365 = CARTESIAN_POINT('',(-100.,1.665E-14,75.));
#366 = VECTOR('',#367,1.);
#367 = DIRECTION('',(0.,1.,-2.2E-16));
#368 = ORIENTED_EDGE('',*,*,#369,.T.);
#369 = EDGE_CURVE('',#362,#370,#372,.T.);
#370 = VERTEX_POINT('',#371);
#371 = CARTESIAN_POINT('',(-65.,-110.,106.77078252031));
#372 = B_SPLINE_CURVE_WITH_KNOTS('',7,(#373,#374,#375,#376,#377,#378,
    #379,#380,#381,#382,#383,#384,#385,#386,#387,#388,#389,#390,#391,
    #392,#393,#394,#395,#396,#397,#398,#399,#400,#401,#402,#403,#404,
    #405,#406,#407,#408,#409,#410),.UNSPECIFIED.,.F.,.F.,(8,6,6,6,6,6,8)
  ,(0.,0.215418055191,0.309291406308,0.555277561198,0.770994053627,
    0.860821623438,1.),.UNSPECIFIED.);
#373 = CARTESIAN_POINT('',(-100.,-75.,75.));
#374 = CARTESIAN_POINT('',(-100.,-76.80472542121,75.));
#375 = CARTESIAN_POINT('',(-99.89143222645,-78.60036782918,
    75.144757440596));
#376 = CARTESIAN_POINT('',(-99.67626369933,-80.37644593085,
    75.431646593676));
#377 = CARTESIAN_POINT('',(-99.35810777766,-82.12234352855,
    75.853110474064));
#378 = CARTESIAN_POINT('',(-98.94242838827,-83.82679350588,
    76.396611281817));
#379 = CARTESIAN_POINT('',(-98.43751369519,-85.47772501839,
    77.044988756669));
#380 = CARTESIAN_POINT('',(-97.60213984653,-87.75310531144,
    78.096020021889));
#381 = CARTESIAN_POINT('',(-97.33331296854,-88.43298686156,78.4317558546
    ));
#382 = CARTESIAN_POINT('',(-97.04968903253,-89.10205516057,
    78.783119919781));
#383 = CARTESIAN_POINT('',(-96.75172638058,-89.76021779524,
    79.149040204061));
#384 = CARTESIAN_POINT('',(-96.43986066279,-90.40738167965,
    79.528482471464));
#385 = CARTESIAN_POINT('',(-96.11450845167,-91.04345299481,
    79.920452028399));
#386 = CARTESIAN_POINT('',(-94.88922744824,-93.30578634518,
    81.381442601506));
#387 = CARTESIAN_POINT('',(-93.91223090802,-94.86697555465,
    82.518721282296));
#388 = CARTESIAN_POINT('',(-92.85084560293,-96.35258038753,
    83.720362641364));
#389 = CARTESIAN_POINT('',(-91.70894926052,-97.76317220323,
    84.973886028836));
#390 = CARTESIAN_POINT('',(-90.48874279712,-99.09897573487,
    86.26959159204));
#391 = CARTESIAN_POINT('',(-89.19076326184,-100.3594547371,
    87.599938687682));
#392 = CARTESIAN_POINT('',(-86.60699199824,-102.5802799317,
    90.150464689721));
#393 = CARTESIAN_POINT('',(-85.33957141296,-103.5582867492,
    91.363842466775));
#394 = CARTESIAN_POINT('',(-84.01190502376,-104.4749768316,
    92.59429795574));
#395 = CARTESIAN_POINT('',(-82.6235746448,-105.3277582341,
    93.837739672847));
#396 = CARTESIAN_POINT('',(-81.17393397759,-106.1130260231,
    95.090318002375));
#397 = CARTESIAN_POINT('',(-79.66235898912,-106.826006931,96.3481739986)
  );
#398 = CARTESIAN_POINT('',(-77.43322387301,-107.7248262245,
    98.131545436241));
#399 = CARTESIAN_POINT('',(-76.76711414763,-107.9754656863,
    98.656033045015));
#400 = CARTESIAN_POINT('',(-76.09029082393,-108.2120319087,
    99.180365028646));
#401 = CARTESIAN_POINT('',(-75.40281939023,-108.4340264542,
    99.704188952741));
#402 = CARTESIAN_POINT('',(-74.70478436904,-108.6409187628,
    100.22714699127));
#403 = CARTESIAN_POINT('',(-73.99629066215,-108.8321456246,
    100.74887702055));
#404 = CARTESIAN_POINT('',(-72.16371993536,-109.2782005692,
    102.07491084055));
#405 = CARTESIAN_POINT('',(-71.02458889958,-109.5103935091,
    102.87740453245));
#406 = CARTESIAN_POINT('',(-69.86138278194,-109.7011811064,
    103.67448763788));
#407 = CARTESIAN_POINT('',(-68.67557337577,-109.8480556873,
    104.46420785548));
#408 = CARTESIAN_POINT('',(-67.46880968584,-109.9485038423,
    105.2446816196));
#409 = CARTESIAN_POINT('',(-66.24293433986,-110.,106.01410798647));
#410 = CARTESIAN_POINT('',(-65.,-110.,106.77078252031));
#411 = ORIENTED_EDGE('',*,*,#412,.T.);
#412 = EDGE_CURVE('',#370,#413,#415,.T.);
#413 = VERTEX_POINT('',#414);
#414 = CARTESIAN_POINT('',(65.,-110.,106.77078252031));
#415 = CIRCLE('',#416,125.);
#416 = AXIS2_PLACEMENT_3D('',#417,#418,#419);
#417 = CARTESIAN_POINT('',(0.,-110.,2.442E-14));
#418 = DIRECTION('',(0.,1.,-2.2E-16));
#419 = DIRECTION('',(1.,0.,0.));
#420 = ORIENTED_EDGE('',*,*,#421,.T.);
#421 = EDGE_CURVE('',#413,#257,#422,.T.);
#422 = B_SPLINE_CURVE_WITH_KNOTS('',7,(#423,#424,#425,#426,#427,#428,
    #429,#430,#431,#432,#433,#434,#435,#436,#437,#438,#439,#440,#441,
    #442,#443,#444,#445,#446,#447,#448,#449,#450,#451,#452,#453,#454,
    #455,#456,#457,#458,#459,#460),.UNSPECIFIED.,.F.,.F.,(8,6,6,6,6,6,8)
  ,(0.,0.139178440284,0.229006051222,0.444722642416,0.690708862144,
    0.784582196177,1.),.UNSPECIFIED.);
#423 = CARTESIAN_POINT('',(65.,-110.,106.77078252031));
#424 = CARTESIAN_POINT('',(66.242934339861,-110.,106.01410798647));
#425 = CARTESIAN_POINT('',(67.468809685845,-109.9485038423,
    105.2446816196));
#426 = CARTESIAN_POINT('',(68.675573375777,-109.8480556873,
    104.46420785548));
#427 = CARTESIAN_POINT('',(69.861382781946,-109.7011811064,
    103.67448763788));
#428 = CARTESIAN_POINT('',(71.024588899588,-109.5103935091,
    102.87740453245));
#429 = CARTESIAN_POINT('',(72.163719935362,-109.2782005692,
    102.07491084055));
#430 = CARTESIAN_POINT('',(73.996290662156,-108.8321456246,
    100.74887702055));
#431 = CARTESIAN_POINT('',(74.70478436904,-108.6409187628,
    100.22714699127));
#432 = CARTESIAN_POINT('',(75.402819390237,-108.4340264542,
    99.704188952743));
#433 = CARTESIAN_POINT('',(76.090290823936,-108.2120319087,
    99.180365028647));
#434 = CARTESIAN_POINT('',(76.767114147636,-107.9754656863,
    98.656033045015));
#435 = CARTESIAN_POINT('',(77.433223873017,-107.7248262245,
    98.131545436242));
#436 = CARTESIAN_POINT('',(79.662358989123,-106.826006931,
    96.348173998601));
#437 = CARTESIAN_POINT('',(81.173933977596,-106.1130260231,
    95.090318002377));
#438 = CARTESIAN_POINT('',(82.623574644806,-105.3277582341,
    93.837739672848));
#439 = CARTESIAN_POINT('',(84.011905023765,-104.4749768316,
    92.59429795574));
#440 = CARTESIAN_POINT('',(85.339571412963,-103.5582867492,
    91.363842466776));
#441 = CARTESIAN_POINT('',(86.606991998245,-102.5802799317,
    90.150464689722));
#442 = CARTESIAN_POINT('',(89.19076299442,-100.359454967,87.599938951663
    ));
#443 = CARTESIAN_POINT('',(90.488742251131,-99.09897626051,
    86.269592150065));
#444 = CARTESIAN_POINT('',(91.708948606528,-97.76317294812,
    84.973886732948));
#445 = CARTESIAN_POINT('',(92.85084501778,-96.35258117741,
    83.720363299455));
#446 = CARTESIAN_POINT('',(93.91223049983,-94.8669762002,82.518721756674
    ));
#447 = CARTESIAN_POINT('',(94.889227250495,-93.30578671031,
    81.381442837302));
#448 = CARTESIAN_POINT('',(96.114508376339,-91.04345313391,
    79.920452118223));
#449 = CARTESIAN_POINT('',(96.439860538787,-90.40738192435,
    79.528482621125));
#450 = CARTESIAN_POINT('',(96.751726234838,-89.76021810415,
    79.149040382016));
#451 = CARTESIAN_POINT('',(97.049688891011,-89.10205548452,
    78.783120094477));
#452 = CARTESIAN_POINT('',(97.333312855089,-88.43298714383,
    78.431755996079));
#453 = CARTESIAN_POINT('',(97.602139781699,-87.75310548804,
    78.096020103466));
#454 = CARTESIAN_POINT('',(98.437513270935,-85.47772617397,
    77.044989290448));
#455 = CARTESIAN_POINT('',(98.94242786096,-83.82679534428,
    76.396611964402));
#456 = CARTESIAN_POINT('',(99.358107333859,-82.12234563224,
    75.853111060304));
#457 = CARTESIAN_POINT('',(99.67626342075,-80.37644793789,
    75.431646965088));
#458 = CARTESIAN_POINT('',(99.891432116685,-78.60036942367,
    75.144757586963));
#459 = CARTESIAN_POINT('',(100.,-76.80472633383,75.));
#460 = CARTESIAN_POINT('',(100.,-75.,75.));
#461 = CYLINDRICAL_SURFACE('',#462,125.);
#462 = AXIS2_PLACEMENT_3D('',#463,#464,#465);
#463 = CARTESIAN_POINT('',(0.,0.,0.));
#464 = DIRECTION('',(0.,1.,-2.2E-16));
#465 = DIRECTION('',(1.,0.,0.));
#466 = ADVANCED_FACE('',(#467),#470,.T.);
#467 = FACE_BOUND('',#468,.F.);
#468 = EDGE_LOOP('',(#469));
#469 = ORIENTED_EDGE('',*,*,#21,.T.);
#470 = PLANE('',#471);
#471 = AXIS2_PLACEMENT_3D('',#472,#473,#474);
#472 = CARTESIAN_POINT('',(-5.6E-15,0.,6.1E-15));
#473 = DIRECTION('',(0.,1.,0.));
#474 = DIRECTION('',(0.,0.,1.));
#475 = ADVANCED_FACE('',(#476,#479),#490,.F.);
#476 = FACE_BOUND('',#477,.F.);
#477 = EDGE_LOOP('',(#478));
#478 = ORIENTED_EDGE('',*,*,#38,.F.);
#479 = FACE_BOUND('',#480,.F.);
#480 = EDGE_LOOP('',(#481));
#481 = ORIENTED_EDGE('',*,*,#482,.T.);
#482 = EDGE_CURVE('',#483,#483,#485,.T.);
#483 = VERTEX_POINT('',#484);
#484 = CARTESIAN_POINT('',(121.,-255.,6.E-14));
#485 = CIRCLE('',#486,121.);
#486 = AXIS2_PLACEMENT_3D('',#487,#488,#489);
#487 = CARTESIAN_POINT('',(0.,-255.,5.995E-14));
#488 = DIRECTION('',(0.,-1.,2.2E-16));
#489 = DIRECTION('',(1.,0.,0.));
#490 = PLANE('',#491);
#491 = AXIS2_PLACEMENT_3D('',#492,#493,#494);
#492 = CARTESIAN_POINT('',(-5.6E-15,-255.,6.61E-14));
#493 = DIRECTION('',(0.,1.,0.));
#494 = DIRECTION('',(0.,0.,1.));
#495 = ADVANCED_FACE('',(#496),#521,.T.);
#496 = FACE_BOUND('',#497,.T.);
#497 = EDGE_LOOP('',(#498,#508,#514,#515));
#498 = ORIENTED_EDGE('',*,*,#499,.T.);
#499 = EDGE_CURVE('',#500,#502,#504,.T.);
#500 = VERTEX_POINT('',#501);
#501 = CARTESIAN_POINT('',(-100.,-187.,68.124885321004));
#502 = VERTEX_POINT('',#503);
#503 = CARTESIAN_POINT('',(-100.,-185.,68.124885321004));
#504 = LINE('',#505,#506);
#505 = CARTESIAN_POINT('',(-100.,1.513E-14,68.124885321004));
#506 = VECTOR('',#507,1.);
#507 = DIRECTION('',(0.,1.,-2.2E-16));
#508 = ORIENTED_EDGE('',*,*,#509,.T.);
#509 = EDGE_CURVE('',#502,#51,#510,.T.);
#510 = LINE('',#511,#512);
#511 = CARTESIAN_POINT('',(-100.,-185.,0.));
#512 = VECTOR('',#513,1.);
#513 = DIRECTION('',(0.,0.,1.));
#514 = ORIENTED_EDGE('',*,*,#48,.F.);
#515 = ORIENTED_EDGE('',*,*,#516,.F.);
#516 = EDGE_CURVE('',#500,#49,#517,.T.);
#517 = LINE('',#518,#519);
#518 = CARTESIAN_POINT('',(-100.,-187.,0.));
#519 = VECTOR('',#520,1.);
#520 = DIRECTION('',(0.,0.,1.));
#521 = PLANE('',#522);
#522 = AXIS2_PLACEMENT_3D('',#523,#524,#525);
#523 = CARTESIAN_POINT('',(-100.,-185.,0.));
#524 = DIRECTION('',(1.,0.,0.));
#525 = DIRECTION('',(0.,-1.,0.));
#526 = ADVANCED_FACE('',(#527),#580,.F.);
#527 = FACE_BOUND('',#528,.T.);
#528 = EDGE_LOOP('',(#529,#572,#573,#574));
#529 = ORIENTED_EDGE('',*,*,#530,.F.);
#530 = EDGE_CURVE('',#500,#531,#533,.T.);
#531 = VERTEX_POINT('',#532);
#532 = CARTESIAN_POINT('',(-65.,-222.,102.05880657738));
#533 = B_SPLINE_CURVE_WITH_KNOTS('',7,(#534,#535,#536,#537,#538,#539,
    #540,#541,#542,#543,#544,#545,#546,#547,#548,#549,#550,#551,#552,
    #553,#554,#555,#556,#557,#558,#559,#560,#561,#562,#563,#564,#565,
    #566,#567,#568,#569,#570,#571),.UNSPECIFIED.,.F.,.F.,(8,6,6,6,6,6,8)
  ,(0.,0.202109878409,0.295399835712,0.553316524901,0.770578062516,
    0.860777060805,1.),.UNSPECIFIED.);
#534 = CARTESIAN_POINT('',(-100.,-187.,68.124885321004));
#535 = CARTESIAN_POINT('',(-100.,-188.7323166049,68.124885321004));
#536 = CARTESIAN_POINT('',(-99.89996941538,-190.4540494994,
    68.271719966488));
#537 = CARTESIAN_POINT('',(-99.70210766657,-192.1554621182,
    68.562156945166));
#538 = CARTESIAN_POINT('',(-99.41016882694,-193.8265890478,
    68.98778041495));
#539 = CARTESIAN_POINT('',(-99.02970497237,-195.4566269644,
    69.534922827963));
#540 = CARTESIAN_POINT('',(-98.56914963572,-197.0336886112,
    70.185002144489));
#541 = CARTESIAN_POINT('',(-97.79736446067,-199.2425033099,
    71.252006714071));
#542 = CARTESIAN_POINT('',(-97.53842060098,-199.9284134168,
    71.607155401141));
#543 = CARTESIAN_POINT('',(-97.26483476465,-200.6026602251,
    71.979118154225));
#544 = CARTESIAN_POINT('',(-96.97713319349,-201.2652355357,
    72.366595825365));
#545 = CARTESIAN_POINT('',(-96.67580685871,-201.9161325446,
    72.768356626394));
#546 = CARTESIAN_POINT('',(-96.36131504752,-202.5553458212,
    73.183237772223));
#547 = CARTESIAN_POINT('',(-95.12941416721,-204.9177771117,
    74.790414001838));
#548 = CARTESIAN_POINT('',(-94.12653612856,-206.5650134155,
    76.063750168593));
#549 = CARTESIAN_POINT('',(-93.03308796777,-208.1263603333,
    77.40885767849));
#550 = CARTESIAN_POINT('',(-91.85399107024,-209.6036985182,
    78.809470646979));
#551 = CARTESIAN_POINT('',(-90.59166317288,-210.9986858864,
    80.253997346933));
#552 = CARTESIAN_POINT('',(-89.24586629587,-212.3120921056,
    81.734362451104));
#553 = CARTESIAN_POINT('',(-86.6081697034,-214.5792676605,
    84.516849953991));
#554 = CARTESIAN_POINT('',(-85.34203792612,-215.5563841758,
    85.809416406244));
#555 = CARTESIAN_POINT('',(-84.01551596412,-216.4725269861,
    87.117652878166));
#556 = CARTESIAN_POINT('',(-82.62787692439,-217.3252401647,
    88.437538457897));
#557 = CARTESIAN_POINT('',(-81.17811683973,-218.1109614175,
    89.765332219699));
#558 = CARTESIAN_POINT('',(-79.66522904506,-218.8248496832,
    91.097263626073));
#559 = CARTESIAN_POINT('',(-77.43400227759,-219.7245123606,
    92.98230785681));
#560 = CARTESIAN_POINT('',(-76.76846654652,-219.974962996,
    93.535315093028));
#561 = CARTESIAN_POINT('',(-76.09197924605,-220.211457869,
    94.087980390189));
#562 = CARTESIAN_POINT('',(-75.40457275963,-220.433486337,
    94.639956918187));
#563 = CARTESIAN_POINT('',(-74.70629907769,-220.6405009164,
    95.19089019027));
#564 = CARTESIAN_POINT('',(-73.99723125963,-220.8319166794,
    95.74041920083));
#565 = CARTESIAN_POINT('',(-72.16649924652,-221.2775240739,
    97.13364736465));
#566 = CARTESIAN_POINT('',(-71.02947403813,-221.5094293328,
    97.975333257101));
#567 = CARTESIAN_POINT('',(-69.86753861633,-221.7002567528,
    98.811237925215));
#568 = CARTESIAN_POINT('',(-68.68201168803,-221.8474013011,
    99.639403974204));
#569 = CARTESIAN_POINT('',(-67.47439992367,-221.9482151102,
    100.45792875414));
#570 = CARTESIAN_POINT('',(-66.24641655951,-222.,101.26497918428));
#571 = CARTESIAN_POINT('',(-65.,-222.,102.05880657738));
#572 = ORIENTED_EDGE('',*,*,#516,.T.);
#573 = ORIENTED_EDGE('',*,*,#58,.T.);
#574 = ORIENTED_EDGE('',*,*,#575,.F.);
#575 = EDGE_CURVE('',#531,#59,#576,.T.);
#576 = LINE('',#577,#578);
#577 = CARTESIAN_POINT('',(-65.,-222.,0.));
#578 = VECTOR('',#579,1.);
#579 = DIRECTION('',(0.,0.,1.));
#580 = CYLINDRICAL_SURFACE('',#581,35.);
#581 = AXIS2_PLACEMENT_3D('',#582,#583,#584);
#582 = CARTESIAN_POINT('',(-65.,-187.,0.));
#583 = DIRECTION('',(-0.,-0.,-1.));
#584 = DIRECTION('',(1.,0.,0.));
#585 = ADVANCED_FACE('',(#586),#639,.F.);
#586 = FACE_BOUND('',#587,.T.);
#587 = EDGE_LOOP('',(#588,#631,#637,#638));
#588 = ORIENTED_EDGE('',*,*,#589,.F.);
#589 = EDGE_CURVE('',#590,#502,#592,.T.);
#590 = VERTEX_POINT('',#591);
#591 = CARTESIAN_POINT('',(-65.,-150.,102.05880657738));
#592 = B_SPLINE_CURVE_WITH_KNOTS('',7,(#593,#594,#595,#596,#597,#598,
    #599,#600,#601,#602,#603,#604,#605,#606,#607,#608,#609,#610,#611,
    #612,#613,#614,#615,#616,#617,#618,#619,#620,#621,#622,#623,#624,
    #625,#626,#627,#628,#629,#630),.UNSPECIFIED.,.F.,.F.,(8,6,6,6,6,6,8)
  ,(0.,0.138639650844,0.22844376291,0.444752626261,0.703807838529,
    0.796770707236,1.),.UNSPECIFIED.);
#593 = CARTESIAN_POINT('',(-65.,-150.,102.05880657738));
#594 = CARTESIAN_POINT('',(-66.24119045707,-150.,101.26830762471));
#595 = CARTESIAN_POINT('',(-67.4641521755,-150.0513515909,
    100.46466433658));
#596 = CARTESIAN_POINT('',(-68.66694864612,-150.1513406273,
    99.64961408033));
#597 = CARTESIAN_POINT('',(-69.84786452799,-150.2973042684,
    98.824980026906));
#598 = CARTESIAN_POINT('',(-71.00538752952,-150.486623688,
    97.992656685097));
#599 = CARTESIAN_POINT('',(-72.13819028959,-150.7167167836,
    97.154595435671));
#600 = CARTESIAN_POINT('',(-73.96212318561,-151.1588318839,
    95.767508947675));
#601 = CARTESIAN_POINT('',(-74.66853430543,-151.3487325764,
    95.220459706174));
#602 = CARTESIAN_POINT('',(-75.36424985588,-151.5541171438,
    94.672004609984));
#603 = CARTESIAN_POINT('',(-76.04919633438,-151.7744070824,
    94.122500663747));
#604 = CARTESIAN_POINT('',(-76.72332105968,-152.0090606116,
    93.572298487732));
#605 = CARTESIAN_POINT('',(-77.38659073372,-152.2575720808,
    93.021741197724));
#606 = CARTESIAN_POINT('',(-79.610407405,-153.1503014966,91.145000375887
    ));
#607 = CARTESIAN_POINT('',(-81.11861238849,-153.8587465831,
    89.818840143126));
#608 = CARTESIAN_POINT('',(-82.56422551981,-154.6385392212,
    88.496673602378));
#609 = CARTESIAN_POINT('',(-83.94823204616,-155.4848700852,
    87.182228771772));
#610 = CARTESIAN_POINT('',(-85.27162161644,-156.3941885692,
    85.879199271729));
#611 = CARTESIAN_POINT('',(-86.53511936631,-157.3640350971,
    84.591544958676));
#612 = CARTESIAN_POINT('',(-89.18080652609,-159.6250975211,81.8056687996
    ));
#613 = CARTESIAN_POINT('',(-90.53591944924,-160.940931642,
    80.317373026037));
#614 = CARTESIAN_POINT('',(-91.80683343856,-162.3390705257,
    78.864944957379));
#615 = CARTESIAN_POINT('',(-92.99383590525,-163.8202517136,
    77.456501972152));
#616 = CARTESIAN_POINT('',(-94.09452272645,-165.3861315844,
    76.103709898378));
#617 = CARTESIAN_POINT('',(-95.10394961957,-167.038603562,
    74.822971685059));
#618 = CARTESIAN_POINT('',(-96.34114378861,-169.4041761326,
    73.209782513464));
#619 = CARTESIAN_POINT('',(-96.65523867545,-170.040487925,72.79566468389
    ));
#620 = CARTESIAN_POINT('',(-96.95628016877,-170.6883972341,
    72.394524213156));
#621 = CARTESIAN_POINT('',(-97.24381672256,-171.3479017358,
    72.00750670061));
#622 = CARTESIAN_POINT('',(-97.51736506489,-172.0189976372,
    71.635826441449));
#623 = CARTESIAN_POINT('',(-97.77640677061,-172.7016796549,
    71.280764852827));
#624 = CARTESIAN_POINT('',(-98.55375358622,-174.913689348,
    70.206731958885));
#625 = CARTESIAN_POINT('',(-99.01912277997,-176.4981387689,
    69.550138997906));
#626 = CARTESIAN_POINT('',(-99.40366069148,-178.1362951306,
    68.997267544869));
#627 = CARTESIAN_POINT('',(-99.69878311405,-179.8161225675,
    68.567036953091));
#628 = CARTESIAN_POINT('',(-99.89883978979,-181.5266912324,
    68.273378152793));
#629 = CARTESIAN_POINT('',(-100.,-183.2579294735,68.124885321004));
#630 = CARTESIAN_POINT('',(-100.,-185.,68.124885321004));
#631 = ORIENTED_EDGE('',*,*,#632,.T.);
#632 = EDGE_CURVE('',#590,#205,#633,.T.);
#633 = LINE('',#634,#635);
#634 = CARTESIAN_POINT('',(-65.,-150.,0.));
#635 = VECTOR('',#636,1.);
#636 = DIRECTION('',(0.,0.,1.));
#637 = ORIENTED_EDGE('',*,*,#213,.T.);
#638 = ORIENTED_EDGE('',*,*,#509,.F.);
#639 = CYLINDRICAL_SURFACE('',#640,35.);
#640 = AXIS2_PLACEMENT_3D('',#641,#642,#643);
#641 = CARTESIAN_POINT('',(-65.,-185.,0.));
#642 = DIRECTION('',(-0.,-0.,-1.));
#643 = DIRECTION('',(1.,0.,0.));
#644 = ADVANCED_FACE('',(#645),#664,.T.);
#645 = FACE_BOUND('',#646,.T.);
#646 = EDGE_LOOP('',(#647,#656,#657,#658));
#647 = ORIENTED_EDGE('',*,*,#648,.F.);
#648 = EDGE_CURVE('',#531,#649,#651,.T.);
#649 = VERTEX_POINT('',#650);
#650 = CARTESIAN_POINT('',(65.,-222.,102.05880657738));
#651 = CIRCLE('',#652,121.);
#652 = AXIS2_PLACEMENT_3D('',#653,#654,#655);
#653 = CARTESIAN_POINT('',(0.,-222.,4.929E-14));
#654 = DIRECTION('',(0.,1.,-2.2E-16));
#655 = DIRECTION('',(1.,0.,0.));
#656 = ORIENTED_EDGE('',*,*,#575,.T.);
#657 = ORIENTED_EDGE('',*,*,#101,.T.);
#658 = ORIENTED_EDGE('',*,*,#659,.F.);
#659 = EDGE_CURVE('',#649,#102,#660,.T.);
#660 = LINE('',#661,#662);
#661 = CARTESIAN_POINT('',(65.,-222.,0.));
#662 = VECTOR('',#663,1.);
#663 = DIRECTION('',(0.,0.,1.));
#664 = PLANE('',#665);
#665 = AXIS2_PLACEMENT_3D('',#666,#667,#668);
#666 = CARTESIAN_POINT('',(-65.,-222.,0.));
#667 = DIRECTION('',(0.,1.,0.));
#668 = DIRECTION('',(1.,0.,0.));
#669 = ADVANCED_FACE('',(#670),#689,.T.);
#670 = FACE_BOUND('',#671,.T.);
#671 = EDGE_LOOP('',(#672,#681,#687,#688));
#672 = ORIENTED_EDGE('',*,*,#673,.T.);
#673 = EDGE_CURVE('',#590,#674,#676,.T.);
#674 = VERTEX_POINT('',#675);
#675 = CARTESIAN_POINT('',(65.,-150.,102.05880657738));
#676 = CIRCLE('',#677,121.);
#677 = AXIS2_PLACEMENT_3D('',#678,#679,#680);
#678 = CARTESIAN_POINT('',(0.,-150.,3.331E-14));
#679 = DIRECTION('',(0.,1.,-2.2E-16));
#680 = DIRECTION('',(1.,0.,0.));
#681 = ORIENTED_EDGE('',*,*,#682,.T.);
#682 = EDGE_CURVE('',#674,#162,#683,.T.);
#683 = LINE('',#684,#685);
#684 = CARTESIAN_POINT('',(65.,-150.,0.));
#685 = VECTOR('',#686,1.);
#686 = DIRECTION('',(0.,0.,1.));
#687 = ORIENTED_EDGE('',*,*,#204,.F.);
#688 = ORIENTED_EDGE('',*,*,#632,.F.);
#689 = PLANE('',#690);
#690 = AXIS2_PLACEMENT_3D('',#691,#692,#693);
#691 = CARTESIAN_POINT('',(65.,-150.,0.));
#692 = DIRECTION('',(0.,-1.,0.));
#693 = DIRECTION('',(-1.,0.,0.));
#694 = ADVANCED_FACE('',(#695),#748,.F.);
#695 = FACE_BOUND('',#696,.T.);
#696 = EDGE_LOOP('',(#697,#740,#741,#742));
#697 = ORIENTED_EDGE('',*,*,#698,.F.);
#698 = EDGE_CURVE('',#649,#699,#701,.T.);
#699 = VERTEX_POINT('',#700);
#700 = CARTESIAN_POINT('',(100.,-187.,68.124885321004));
#701 = B_SPLINE_CURVE_WITH_KNOTS('',7,(#702,#703,#704,#705,#706,#707,
    #708,#709,#710,#711,#712,#713,#714,#715,#716,#717,#718,#719,#720,
    #721,#722,#723,#724,#725,#726,#727,#728,#729,#730,#731,#732,#733,
    #734,#735,#736,#737,#738,#739),.UNSPECIFIED.,.F.,.F.,(8,6,6,6,6,6,8)
  ,(0.,0.139227954858,0.229430202663,0.446699567356,0.702551876531,
    0.795931067194,1.),.UNSPECIFIED.);
#702 = CARTESIAN_POINT('',(65.,-222.,102.05880657738));
#703 = CARTESIAN_POINT('',(66.24641655945,-222.,101.26497918432));
#704 = CARTESIAN_POINT('',(67.474399923667,-221.9482151102,
    100.45792875414));
#705 = CARTESIAN_POINT('',(68.682011688091,-221.8474013011,
    99.639403974169));
#706 = CARTESIAN_POINT('',(69.867538616386,-221.7002567528,
    98.811237925179));
#707 = CARTESIAN_POINT('',(71.029474038125,-221.5094293328,
    97.975333257106));
#708 = CARTESIAN_POINT('',(72.166499246464,-221.2775240739,
    97.133647364697));
#709 = CARTESIAN_POINT('',(73.997231259631,-220.8319166794,
    95.74041920083));
#710 = CARTESIAN_POINT('',(74.706299077689,-220.6405009164,
    95.19089019027));
#711 = CARTESIAN_POINT('',(75.404572759632,-220.433486337,
    94.639956918187));
#712 = CARTESIAN_POINT('',(76.091979246053,-220.211457869,94.08798039019
    ));
#713 = CARTESIAN_POINT('',(76.76846654652,-219.974962996,93.53531509303)
  );
#714 = CARTESIAN_POINT('',(77.434002277591,-219.7245123606,
    92.982307856812));
#715 = CARTESIAN_POINT('',(79.66522904506,-218.8248496832,
    91.097263626074));
#716 = CARTESIAN_POINT('',(81.178116839734,-218.1109614175,89.7653322197
    ));
#717 = CARTESIAN_POINT('',(82.627876924396,-217.3252401647,
    88.437538457898));
#718 = CARTESIAN_POINT('',(84.015515964125,-216.4725269861,
    87.117652878167));
#719 = CARTESIAN_POINT('',(85.342037926125,-215.5563841758,
    85.809416406245));
#720 = CARTESIAN_POINT('',(86.608169703399,-214.5792676605,
    84.516849953993));
#721 = CARTESIAN_POINT('',(89.234355836165,-212.3219856745,
    81.74650475374));
#722 = CARTESIAN_POINT('',(90.570040135169,-211.0197803389,
    80.277779324557));
#723 = CARTESIAN_POINT('',(91.823575873038,-209.6372792931,
    78.844265174548));
#724 = CARTESIAN_POINT('',(92.99520149299,-208.1737579861,
    77.453840413331));
#725 = CARTESIAN_POINT('',(94.082595739774,-206.6276207971,
    76.117770784262));
#726 = CARTESIAN_POINT('',(95.081014847766,-204.9970426268,
    74.851823311996));
#727 = CARTESIAN_POINT('',(96.312331143824,-202.6537185096,
    73.247711456815));
#728 = CARTESIAN_POINT('',(96.628847014033,-202.01545458,72.830737398076
    ));
#729 = CARTESIAN_POINT('',(96.932218752899,-201.3654934716,
    72.426787276231));
#730 = CARTESIAN_POINT('',(97.221992201431,-200.703834307,
    72.037016183037));
#731 = CARTESIAN_POINT('',(97.49768039651,-200.0304778245,
    71.662649849737));
#732 = CARTESIAN_POINT('',(97.758760171399,-199.3454263981,
    71.304983081576));
#733 = CARTESIAN_POINT('',(98.542072241141,-197.126037902,
    70.223212760846));
#734 = CARTESIAN_POINT('',(99.011092144309,-195.5360184328,
    69.561683866576));
#735 = CARTESIAN_POINT('',(99.398720248829,-193.8917390529,
    69.004468847774));
#736 = CARTESIAN_POINT('',(99.696258317328,-192.2053466633,
    68.570743025084));
#737 = CARTESIAN_POINT('',(99.897981455958,-190.4878652825,
    68.274638107612));
#738 = CARTESIAN_POINT('',(100.,-188.7494455831,68.124885321004));
#739 = CARTESIAN_POINT('',(100.,-187.,68.124885321004));
#740 = ORIENTED_EDGE('',*,*,#659,.T.);
#741 = ORIENTED_EDGE('',*,*,#110,.T.);
#742 = ORIENTED_EDGE('',*,*,#743,.F.);
#743 = EDGE_CURVE('',#699,#111,#744,.T.);
#744 = LINE('',#745,#746);
#745 = CARTESIAN_POINT('',(100.,-187.,0.));
#746 = VECTOR('',#747,1.);
#747 = DIRECTION('',(0.,0.,1.));
#748 = CYLINDRICAL_SURFACE('',#749,35.);
#749 = AXIS2_PLACEMENT_3D('',#750,#751,#752);
#750 = CARTESIAN_POINT('',(65.,-187.,0.));
#751 = DIRECTION('',(-0.,-0.,-1.));
#752 = DIRECTION('',(1.,0.,0.));
#753 = ADVANCED_FACE('',(#754),#807,.F.);
#754 = FACE_BOUND('',#755,.T.);
#755 = EDGE_LOOP('',(#756,#799,#805,#806));
#756 = ORIENTED_EDGE('',*,*,#757,.F.);
#757 = EDGE_CURVE('',#758,#674,#760,.T.);
#758 = VERTEX_POINT('',#759);
#759 = CARTESIAN_POINT('',(100.,-185.,68.124885321004));
#760 = B_SPLINE_CURVE_WITH_KNOTS('',7,(#761,#762,#763,#764,#765,#766,
    #767,#768,#769,#770,#771,#772,#773,#774,#775,#776,#777,#778,#779,
    #780,#781,#782,#783,#784,#785,#786,#787,#788,#789,#790,#791,#792,
    #793,#794,#795,#796,#797,#798),.UNSPECIFIED.,.F.,.F.,(8,6,6,6,6,6,8)
  ,(0.,0.20406893281,0.297448123473,0.553300432649,0.770569797344,
    0.86077204515,1.),.UNSPECIFIED.);
#761 = CARTESIAN_POINT('',(100.,-185.,68.124885321004));
#762 = CARTESIAN_POINT('',(100.,-183.2505544168,68.124885321004));
#763 = CARTESIAN_POINT('',(99.897981455958,-181.5121347174,
    68.274638107612));
#764 = CARTESIAN_POINT('',(99.696258317327,-179.7946533366,
    68.570743025084));
#765 = CARTESIAN_POINT('',(99.398720248832,-178.108260947,
    69.004468847772));
#766 = CARTESIAN_POINT('',(99.011092144307,-176.4639815671,
    69.561683866577));
#767 = CARTESIAN_POINT('',(98.542072241142,-174.8739620979,
    70.223212760844));
#768 = CARTESIAN_POINT('',(97.758760171402,-172.6545736018,
    71.304983081572));
#769 = CARTESIAN_POINT('',(97.497680396511,-171.9695221754,
    71.662649849735));
#770 = CARTESIAN_POINT('',(97.221992201431,-171.2961656929,
    72.037016183038));
#771 = CARTESIAN_POINT('',(96.932218752899,-170.6345065283,
    72.426787276232));
#772 = CARTESIAN_POINT('',(96.628847014034,-169.9845454199,
    72.830737398073));
#773 = CARTESIAN_POINT('',(96.312331143828,-169.3462814903,
    73.247711456811));
#774 = CARTESIAN_POINT('',(95.081014847767,-167.0029573731,
    74.851823311995));
#775 = CARTESIAN_POINT('',(94.082595739774,-165.3723792028,
    76.117770784263));
#776 = CARTESIAN_POINT('',(92.995201492996,-163.8262420138,
    77.453840413323));
#777 = CARTESIAN_POINT('',(91.823575873038,-162.3627207068,
    78.844265174549));
#778 = CARTESIAN_POINT('',(90.570040135172,-160.980219661,
    80.277779324553));
#779 = CARTESIAN_POINT('',(89.234355836166,-159.6780143254,
    81.746504753739));
#780 = CARTESIAN_POINT('',(86.608169703402,-157.4207323394,
    84.51684995399));
#781 = CARTESIAN_POINT('',(85.342037926129,-156.4436158241,
    85.809416406241));
#782 = CARTESIAN_POINT('',(84.015515964127,-155.5274730138,
    87.117652878165));
#783 = CARTESIAN_POINT('',(82.627876924397,-154.6747598352,
    88.437538457896));
#784 = CARTESIAN_POINT('',(81.178116839738,-153.8890385824,
    89.765332219696));
#785 = CARTESIAN_POINT('',(79.665229045063,-153.1751503167,
    91.097263626072));
#786 = CARTESIAN_POINT('',(77.434002277595,-152.2754876393,
    92.982307856809));
#787 = CARTESIAN_POINT('',(76.768466546524,-152.0250370039,
    93.535315093027));
#788 = CARTESIAN_POINT('',(76.091979246056,-151.7885421309,
    94.087980390187));
#789 = CARTESIAN_POINT('',(75.404572759635,-151.5665136629,
    94.639956918185));
#790 = CARTESIAN_POINT('',(74.706299077692,-151.3594990835,
    95.190890190268));
#791 = CARTESIAN_POINT('',(73.997231259634,-151.1680833205,
    95.740419200828));
#792 = CARTESIAN_POINT('',(72.166499246529,-150.722475926,
    97.133647364649));
#793 = CARTESIAN_POINT('',(71.029474038136,-150.4905706671,97.9753332571
    ));
#794 = CARTESIAN_POINT('',(69.867538616338,-150.2997432471,
    98.811237925215));
#795 = CARTESIAN_POINT('',(68.682011688038,-150.1525986988,
    99.639403974204));
#796 = CARTESIAN_POINT('',(67.474399923674,-150.0517848897,
    100.45792875414));
#797 = CARTESIAN_POINT('',(66.24641655952,-150.,101.26497918427));
#798 = CARTESIAN_POINT('',(65.,-150.,102.05880657738));
#799 = ORIENTED_EDGE('',*,*,#800,.T.);
#800 = EDGE_CURVE('',#758,#154,#801,.T.);
#801 = LINE('',#802,#803);
#802 = CARTESIAN_POINT('',(100.,-185.,0.));
#803 = VECTOR('',#804,1.);
#804 = DIRECTION('',(0.,0.,1.));
#805 = ORIENTED_EDGE('',*,*,#161,.T.);
#806 = ORIENTED_EDGE('',*,*,#682,.F.);
#807 = CYLINDRICAL_SURFACE('',#808,35.);
#808 = AXIS2_PLACEMENT_3D('',#809,#810,#811);
#809 = CARTESIAN_POINT('',(65.,-185.,0.));
#810 = DIRECTION('',(-0.,-0.,-1.));
#811 = DIRECTION('',(1.,0.,0.));
#812 = ADVANCED_FACE('',(#813),#824,.T.);
#813 = FACE_BOUND('',#814,.T.);
#814 = EDGE_LOOP('',(#815,#821,#822,#823));
#815 = ORIENTED_EDGE('',*,*,#816,.F.);
#816 = EDGE_CURVE('',#699,#758,#817,.T.);
#817 = LINE('',#818,#819);
#818 = CARTESIAN_POINT('',(100.,1.513E-14,68.124885321004));
#819 = VECTOR('',#820,1.);
#820 = DIRECTION('',(0.,1.,-2.2E-16));
#821 = ORIENTED_EDGE('',*,*,#743,.T.);
#822 = ORIENTED_EDGE('',*,*,#153,.T.);
#823 = ORIENTED_EDGE('',*,*,#800,.F.);
#824 = PLANE('',#825);
#825 = AXIS2_PLACEMENT_3D('',#826,#827,#828);
#826 = CARTESIAN_POINT('',(100.,-187.,0.));
#827 = DIRECTION('',(-1.,0.,0.));
#828 = DIRECTION('',(0.,1.,0.));
#829 = ADVANCED_FACE('',(#830),#855,.F.);
#830 = FACE_BOUND('',#831,.F.);
#831 = EDGE_LOOP('',(#832,#842,#848,#849));
#832 = ORIENTED_EDGE('',*,*,#833,.T.);
#833 = EDGE_CURVE('',#834,#836,#838,.T.);
#834 = VERTEX_POINT('',#835);
#835 = CARTESIAN_POINT('',(100.,-75.,68.124885321004));
#836 = VERTEX_POINT('',#837);
#837 = CARTESIAN_POINT('',(100.,-55.,68.124885321004));
#838 = LINE('',#839,#840);
#839 = CARTESIAN_POINT('',(100.,1.513E-14,68.124885321004));
#840 = VECTOR('',#841,1.);
#841 = DIRECTION('',(0.,1.,-2.2E-16));
#842 = ORIENTED_EDGE('',*,*,#843,.T.);
#843 = EDGE_CURVE('',#836,#259,#844,.T.);
#844 = LINE('',#845,#846);
#845 = CARTESIAN_POINT('',(100.,-55.,0.));
#846 = VECTOR('',#847,1.);
#847 = DIRECTION('',(0.,0.,1.));
#848 = ORIENTED_EDGE('',*,*,#256,.F.);
#849 = ORIENTED_EDGE('',*,*,#850,.F.);
#850 = EDGE_CURVE('',#834,#257,#851,.T.);
#851 = LINE('',#852,#853);
#852 = CARTESIAN_POINT('',(100.,-75.,0.));
#853 = VECTOR('',#854,1.);
#854 = DIRECTION('',(0.,0.,1.));
#855 = PLANE('',#856);
#856 = AXIS2_PLACEMENT_3D('',#857,#858,#859);
#857 = CARTESIAN_POINT('',(100.,-55.,0.));
#858 = DIRECTION('',(1.,0.,0.));
#859 = DIRECTION('',(0.,-1.,0.));
#860 = ADVANCED_FACE('',(#861),#914,.F.);
#861 = FACE_BOUND('',#862,.T.);
#862 = EDGE_LOOP('',(#863,#906,#912,#913));
#863 = ORIENTED_EDGE('',*,*,#864,.F.);
#864 = EDGE_CURVE('',#865,#834,#867,.T.);
#865 = VERTEX_POINT('',#866);
#866 = CARTESIAN_POINT('',(65.,-110.,102.05880657738));
#867 = B_SPLINE_CURVE_WITH_KNOTS('',7,(#868,#869,#870,#871,#872,#873,
    #874,#875,#876,#877,#878,#879,#880,#881,#882,#883,#884,#885,#886,
    #887,#888,#889,#890,#891,#892,#893,#894,#895,#896,#897,#898,#899,
    #900,#901,#902,#903,#904,#905),.UNSPECIFIED.,.F.,.F.,(8,6,6,6,6,6,8)
  ,(0.,0.13922795485,0.229430202656,0.446699567351,0.702551876526,
    0.79593106719,1.),.UNSPECIFIED.);
#868 = CARTESIAN_POINT('',(65.,-110.,102.05880657738));
#869 = CARTESIAN_POINT('',(66.246416559519,-110.,101.26497918428));
#870 = CARTESIAN_POINT('',(67.474399923672,-109.9482151102,
    100.45792875414));
#871 = CARTESIAN_POINT('',(68.682011688036,-109.8474013011,
    99.639403974205));
#872 = CARTESIAN_POINT('',(69.867538616336,-109.7002567528,
    98.811237925216));
#873 = CARTESIAN_POINT('',(71.029474038134,-109.5094293328,
    97.975333257102));
#874 = CARTESIAN_POINT('',(72.166499246526,-109.2775240739,
    97.133647364651));
#875 = CARTESIAN_POINT('',(73.997231259631,-108.8319166794,
    95.74041920083));
#876 = CARTESIAN_POINT('',(74.706299077689,-108.6405009164,
    95.190890190271));
#877 = CARTESIAN_POINT('',(75.404572759632,-108.433486337,
    94.639956918188));
#878 = CARTESIAN_POINT('',(76.091979246053,-108.211457869,94.08798039019
    ));
#879 = CARTESIAN_POINT('',(76.76846654652,-107.974962996,93.53531509303)
  );
#880 = CARTESIAN_POINT('',(77.434002277591,-107.7245123606,
    92.982307856812));
#881 = CARTESIAN_POINT('',(79.66522904506,-106.8248496832,
    91.097263626074));
#882 = CARTESIAN_POINT('',(81.178116839734,-106.1109614175,89.7653322197
    ));
#883 = CARTESIAN_POINT('',(82.627876924395,-105.3252401647,
    88.437538457899));
#884 = CARTESIAN_POINT('',(84.015515964125,-104.4725269861,
    87.117652878167));
#885 = CARTESIAN_POINT('',(85.342037926125,-103.5563841758,
    85.809416406244));
#886 = CARTESIAN_POINT('',(86.608169703399,-102.5792676605,
    84.516849953993));
#887 = CARTESIAN_POINT('',(89.234355836161,-100.3219856745,
    81.746504753744));
#888 = CARTESIAN_POINT('',(90.570040135174,-99.01978033898,
    80.277779324551));
#889 = CARTESIAN_POINT('',(91.823575873035,-97.63727929318,
    78.844265174552));
#890 = CARTESIAN_POINT('',(92.995201492991,-96.17375798616,
    77.453840413328));
#891 = CARTESIAN_POINT('',(94.082595739771,-94.62762079718,
    76.117770784267));
#892 = CARTESIAN_POINT('',(95.081014847768,-92.99704262688,
    74.851823311993));
#893 = CARTESIAN_POINT('',(96.312331143827,-90.65371850962,
    73.247711456812));
#894 = CARTESIAN_POINT('',(96.628847014033,-90.01545458002,
    72.830737398075));
#895 = CARTESIAN_POINT('',(96.932218752897,-89.3654934716,
    72.426787276233));
#896 = CARTESIAN_POINT('',(97.221992201429,-88.70383430707,
    72.03701618304));
#897 = CARTESIAN_POINT('',(97.49768039651,-88.03047782457,
    71.662649849737));
#898 = CARTESIAN_POINT('',(97.758760171401,-87.34542639818,
    71.304983081574));
#899 = CARTESIAN_POINT('',(98.542072241141,-85.12603790201,
    70.223212760846));
#900 = CARTESIAN_POINT('',(99.011092144305,-83.53601843289,
    69.561683866576));
#901 = CARTESIAN_POINT('',(99.398720248836,-81.89173905298,
    69.004468847775));
#902 = CARTESIAN_POINT('',(99.696258317322,-80.2053466633,
    68.570743025083));
#903 = CARTESIAN_POINT('',(99.89798145596,-78.48786528252,
    68.274638107613));
#904 = CARTESIAN_POINT('',(100.,-76.74944558313,68.124885321004));
#905 = CARTESIAN_POINT('',(100.,-75.,68.124885321004));
#906 = ORIENTED_EDGE('',*,*,#907,.T.);
#907 = EDGE_CURVE('',#865,#413,#908,.T.);
#908 = LINE('',#909,#910);
#909 = CARTESIAN_POINT('',(65.,-110.,0.));
#910 = VECTOR('',#911,1.);
#911 = DIRECTION('',(0.,0.,1.));
#912 = ORIENTED_EDGE('',*,*,#421,.T.);
#913 = ORIENTED_EDGE('',*,*,#850,.F.);
#914 = CYLINDRICAL_SURFACE('',#915,35.);
#915 = AXIS2_PLACEMENT_3D('',#916,#917,#918);
#916 = CARTESIAN_POINT('',(65.,-75.,0.));
#917 = DIRECTION('',(-0.,-0.,-1.));
#918 = DIRECTION('',(1.,0.,0.));
#919 = ADVANCED_FACE('',(#920),#973,.F.);
#920 = FACE_BOUND('',#921,.T.);
#921 = EDGE_LOOP('',(#922,#965,#966,#967));
#922 = ORIENTED_EDGE('',*,*,#923,.F.);
#923 = EDGE_CURVE('',#836,#924,#926,.T.);
#924 = VERTEX_POINT('',#925);
#925 = CARTESIAN_POINT('',(65.,-20.,102.05880657738));
#926 = B_SPLINE_CURVE_WITH_KNOTS('',7,(#927,#928,#929,#930,#931,#932,
    #933,#934,#935,#936,#937,#938,#939,#940,#941,#942,#943,#944,#945,
    #946,#947,#948,#949,#950,#951,#952,#953,#954,#955,#956,#957,#958,
    #959,#960,#961,#962,#963,#964),.UNSPECIFIED.,.F.,.F.,(8,6,6,6,6,6,8)
  ,(0.,0.204068932516,0.297448123214,0.553300432484,0.770569797259,
    0.860772045098,1.),.UNSPECIFIED.);
#927 = CARTESIAN_POINT('',(100.,-55.,68.124885321004));
#928 = CARTESIAN_POINT('',(100.,-53.25055441406,68.124885321004));
#929 = CARTESIAN_POINT('',(99.89798145563,-51.51213471706,
    68.274638108092));
#930 = CARTESIAN_POINT('',(99.696258317443,-49.79465333882,
    68.570743024917));
#931 = CARTESIAN_POINT('',(99.398720249457,-48.10826094931,
    69.004468846835));
#932 = CARTESIAN_POINT('',(99.01109214459,-46.46398156695,
    69.561683866239));
#933 = CARTESIAN_POINT('',(98.54207224017,-44.87396209524,
    70.223212762186));
#934 = CARTESIAN_POINT('',(97.758760171402,-42.65457360182,
    71.304983081572));
#935 = CARTESIAN_POINT('',(97.497680396511,-41.96952217542,
    71.662649849735));
#936 = CARTESIAN_POINT('',(97.22199220143,-41.29616569293,
    72.037016183038));
#937 = CARTESIAN_POINT('',(96.932218752899,-40.63450652839,
    72.426787276232));
#938 = CARTESIAN_POINT('',(96.628847014034,-39.98454541998,
    72.830737398073));
#939 = CARTESIAN_POINT('',(96.312331143828,-39.34628149037,
    73.247711456811));
#940 = CARTESIAN_POINT('',(95.081014847765,-37.00295737311,
    74.851823311997));
#941 = CARTESIAN_POINT('',(94.082595739776,-35.37237920283,
    76.11777078426));
#942 = CARTESIAN_POINT('',(92.995201492995,-33.82624201384,
    77.453840413324));
#943 = CARTESIAN_POINT('',(91.82357587304,-32.36272070682,
    78.844265174546));
#944 = CARTESIAN_POINT('',(90.570040135169,-30.98021966101,
    80.277779324557));
#945 = CARTESIAN_POINT('',(89.234355836167,-29.67801432547,
    81.746504753738));
#946 = CARTESIAN_POINT('',(86.608169703402,-27.42073233947,
    84.51684995399));
#947 = CARTESIAN_POINT('',(85.342037926127,-26.44361582414,
    85.809416406242));
#948 = CARTESIAN_POINT('',(84.015515964128,-25.5274730138,
    87.117652878164));
#949 = CARTESIAN_POINT('',(82.627876924398,-24.67475983528,
    88.437538457896));
#950 = CARTESIAN_POINT('',(81.178116839737,-23.88903858243,
    89.765332219697));
#951 = CARTESIAN_POINT('',(79.665229045063,-23.17515031673,
    91.097263626072));
#952 = CARTESIAN_POINT('',(77.434002277594,-22.27548763934,
    92.982307856809));
#953 = CARTESIAN_POINT('',(76.768466546523,-22.0250370039,
    93.535315093027));
#954 = CARTESIAN_POINT('',(76.091979246056,-21.78854213094,
    94.087980390187));
#955 = CARTESIAN_POINT('',(75.404572759635,-21.56651366293,
    94.639956918185));
#956 = CARTESIAN_POINT('',(74.706299077693,-21.35949908358,
    95.190890190268));
#957 = CARTESIAN_POINT('',(73.997231259635,-21.16808332052,
    95.740419200827));
#958 = CARTESIAN_POINT('',(72.166499246529,-20.72247592602,
    97.133647364649));
#959 = CARTESIAN_POINT('',(71.029474038136,-20.49057066711,97.9753332571
    ));
#960 = CARTESIAN_POINT('',(69.867538616338,-20.29974324711,
    98.811237925215));
#961 = CARTESIAN_POINT('',(68.682011688038,-20.1525986988,
    99.639403974204));
#962 = CARTESIAN_POINT('',(67.474399923673,-20.05178488974,
    100.45792875414));
#963 = CARTESIAN_POINT('',(66.24641655952,-20.,101.26497918427));
#964 = CARTESIAN_POINT('',(65.,-20.,102.05880657738));
#965 = ORIENTED_EDGE('',*,*,#843,.T.);
#966 = ORIENTED_EDGE('',*,*,#266,.T.);
#967 = ORIENTED_EDGE('',*,*,#968,.F.);
#968 = EDGE_CURVE('',#924,#267,#969,.T.);
#969 = LINE('',#970,#971);
#970 = CARTESIAN_POINT('',(65.,-20.,0.));
#971 = VECTOR('',#972,1.);
#972 = DIRECTION('',(0.,0.,1.));
#973 = CYLINDRICAL_SURFACE('',#974,35.);
#974 = AXIS2_PLACEMENT_3D('',#975,#976,#977);
#975 = CARTESIAN_POINT('',(65.,-55.,0.));
#976 = DIRECTION('',(-0.,-0.,-1.));
#977 = DIRECTION('',(1.,0.,0.));
#978 = ADVANCED_FACE('',(#979),#998,.F.);
#979 = FACE_BOUND('',#980,.F.);
#980 = EDGE_LOOP('',(#981,#990,#991,#992));
#981 = ORIENTED_EDGE('',*,*,#982,.T.);
#982 = EDGE_CURVE('',#983,#865,#985,.T.);
#983 = VERTEX_POINT('',#984);
#984 = CARTESIAN_POINT('',(-65.,-110.,102.05880657738));
#985 = CIRCLE('',#986,121.);
#986 = AXIS2_PLACEMENT_3D('',#987,#988,#989);
#987 = CARTESIAN_POINT('',(0.,-110.,2.442E-14));
#988 = DIRECTION('',(0.,1.,-2.2E-16));
#989 = DIRECTION('',(1.,0.,0.));
#990 = ORIENTED_EDGE('',*,*,#907,.T.);
#991 = ORIENTED_EDGE('',*,*,#412,.F.);
#992 = ORIENTED_EDGE('',*,*,#993,.F.);
#993 = EDGE_CURVE('',#983,#370,#994,.T.);
#994 = LINE('',#995,#996);
#995 = CARTESIAN_POINT('',(-65.,-110.,0.));
#996 = VECTOR('',#997,1.);
#997 = DIRECTION('',(0.,0.,1.));
#998 = PLANE('',#999);
#999 = AXIS2_PLACEMENT_3D('',#1000,#1001,#1002);
#1000 = CARTESIAN_POINT('',(-1.525E-14,-110.,449.30812367461));
#1001 = DIRECTION('',(-0.,-1.,-0.));
#1002 = DIRECTION('',(0.,0.,-1.));
#1003 = ADVANCED_FACE('',(#1004),#1023,.F.);
#1004 = FACE_BOUND('',#1005,.F.);
#1005 = EDGE_LOOP('',(#1006,#1015,#1021,#1022));
#1006 = ORIENTED_EDGE('',*,*,#1007,.F.);
#1007 = EDGE_CURVE('',#1008,#924,#1010,.T.);
#1008 = VERTEX_POINT('',#1009);
#1009 = CARTESIAN_POINT('',(-65.,-20.,102.05880657738));
#1010 = CIRCLE('',#1011,121.);
#1011 = AXIS2_PLACEMENT_3D('',#1012,#1013,#1014);
#1012 = CARTESIAN_POINT('',(0.,-20.,4.44E-15));
#1013 = DIRECTION('',(0.,1.,-2.2E-16));
#1014 = DIRECTION('',(1.,0.,0.));
#1015 = ORIENTED_EDGE('',*,*,#1016,.T.);
#1016 = EDGE_CURVE('',#1008,#310,#1017,.T.);
#1017 = LINE('',#1018,#1019);
#1018 = CARTESIAN_POINT('',(-65.,-20.,0.));
#1019 = VECTOR('',#1020,1.);
#1020 = DIRECTION('',(0.,0.,1.));
#1021 = ORIENTED_EDGE('',*,*,#309,.T.);
#1022 = ORIENTED_EDGE('',*,*,#968,.F.);
#1023 = PLANE('',#1024);
#1024 = AXIS2_PLACEMENT_3D('',#1025,#1026,#1027);
#1025 = CARTESIAN_POINT('',(-8.21E-15,-20.,449.30812367461));
#1026 = DIRECTION('',(0.,1.,0.));
#1027 = DIRECTION('',(0.,0.,1.));
#1028 = ADVANCED_FACE('',(#1029),#1082,.F.);
#1029 = FACE_BOUND('',#1030,.T.);
#1030 = EDGE_LOOP('',(#1031,#1074,#1080,#1081));
#1031 = ORIENTED_EDGE('',*,*,#1032,.F.);
#1032 = EDGE_CURVE('',#1033,#983,#1035,.T.);
#1033 = VERTEX_POINT('',#1034);
#1034 = CARTESIAN_POINT('',(-100.,-75.,68.124885321004));
#1035 = B_SPLINE_CURVE_WITH_KNOTS('',7,(#1036,#1037,#1038,#1039,#1040,
    #1041,#1042,#1043,#1044,#1045,#1046,#1047,#1048,#1049,#1050,#1051,
    #1052,#1053,#1054,#1055,#1056,#1057,#1058,#1059,#1060,#1061,#1062,
    #1063,#1064,#1065,#1066,#1067,#1068,#1069,#1070,#1071,#1072,#1073),
  .UNSPECIFIED.,.F.,.F.,(8,6,6,6,6,6,8),(0.,0.202109878689,
    0.295399835958,0.553316525057,0.770578062596,0.860777060854,1.),
  .UNSPECIFIED.);
#1036 = CARTESIAN_POINT('',(-100.,-75.,68.124885321004));
#1037 = CARTESIAN_POINT('',(-100.,-76.73231660225,68.124885321004));
#1038 = CARTESIAN_POINT('',(-99.89996941569,-78.45404949905,
    68.271719966032));
#1039 = CARTESIAN_POINT('',(-99.70210766646,-80.15546212025,
    68.562156945325));
#1040 = CARTESIAN_POINT('',(-99.41016882634,-81.82658905,68.987780415842
    ));
#1041 = CARTESIAN_POINT('',(-99.0297049721,-83.45662696426,
    69.534922828283));
#1042 = CARTESIAN_POINT('',(-98.56914963664,-85.03368860857,
    70.185002143211));
#1043 = CARTESIAN_POINT('',(-97.79736446067,-87.24250330996,
    71.252006714074));
#1044 = CARTESIAN_POINT('',(-97.53842060098,-87.92841341688,
    71.607155401142));
#1045 = CARTESIAN_POINT('',(-97.26483476466,-88.60266022515,
    71.979118154223));
#1046 = CARTESIAN_POINT('',(-96.97713319349,-89.26523553576,
    72.366595825363));
#1047 = CARTESIAN_POINT('',(-96.67580685871,-89.91613254469,
    72.768356626394));
#1048 = CARTESIAN_POINT('',(-96.36131504752,-90.55534582125,
    73.183237772226));
#1049 = CARTESIAN_POINT('',(-95.12941416721,-92.91777711169,
    74.790414001836));
#1050 = CARTESIAN_POINT('',(-94.12653612856,-94.5650134156,
    76.063750168595));
#1051 = CARTESIAN_POINT('',(-93.03308796778,-96.1263603333,
    77.408857678489));
#1052 = CARTESIAN_POINT('',(-91.85399107024,-97.60369851826,
    78.809470646982));
#1053 = CARTESIAN_POINT('',(-90.59166317288,-98.99868588643,
    80.25399734693));
#1054 = CARTESIAN_POINT('',(-89.24586629587,-100.3120921056,
    81.734362451104));
#1055 = CARTESIAN_POINT('',(-86.6081697034,-102.5792676605,
    84.516849953991));
#1056 = CARTESIAN_POINT('',(-85.34203792612,-103.5563841758,
    85.809416406243));
#1057 = CARTESIAN_POINT('',(-84.01551596412,-104.4725269861,
    87.117652878166));
#1058 = CARTESIAN_POINT('',(-82.62787692439,-105.3252401647,
    88.437538457898));
#1059 = CARTESIAN_POINT('',(-81.17811683973,-106.1109614175,
    89.765332219698));
#1060 = CARTESIAN_POINT('',(-79.66522904506,-106.8248496832,
    91.097263626073));
#1061 = CARTESIAN_POINT('',(-77.43400227759,-107.7245123606,
    92.98230785681));
#1062 = CARTESIAN_POINT('',(-76.76846654652,-107.974962996,
    93.535315093029));
#1063 = CARTESIAN_POINT('',(-76.09197924605,-108.211457869,
    94.087980390189));
#1064 = CARTESIAN_POINT('',(-75.40457275963,-108.433486337,
    94.639956918186));
#1065 = CARTESIAN_POINT('',(-74.70629907769,-108.6405009164,
    95.19089019027));
#1066 = CARTESIAN_POINT('',(-73.99723125963,-108.8319166794,
    95.740419200829));
#1067 = CARTESIAN_POINT('',(-72.16649924652,-109.2775240739,
    97.13364736465));
#1068 = CARTESIAN_POINT('',(-71.02947403813,-109.5094293328,
    97.975333257101));
#1069 = CARTESIAN_POINT('',(-69.86753861633,-109.7002567528,
    98.811237925215));
#1070 = CARTESIAN_POINT('',(-68.68201168803,-109.8474013011,
    99.639403974205));
#1071 = CARTESIAN_POINT('',(-67.47439992367,-109.9482151102,
    100.45792875414));
#1072 = CARTESIAN_POINT('',(-66.24641655951,-110.,101.26497918427));
#1073 = CARTESIAN_POINT('',(-65.,-110.,102.05880657738));
#1074 = ORIENTED_EDGE('',*,*,#1075,.T.);
#1075 = EDGE_CURVE('',#1033,#362,#1076,.T.);
#1076 = LINE('',#1077,#1078);
#1077 = CARTESIAN_POINT('',(-100.,-75.,0.));
#1078 = VECTOR('',#1079,1.);
#1079 = DIRECTION('',(0.,0.,1.));
#1080 = ORIENTED_EDGE('',*,*,#369,.T.);
#1081 = ORIENTED_EDGE('',*,*,#993,.F.);
#1082 = CYLINDRICAL_SURFACE('',#1083,35.);
#1083 = AXIS2_PLACEMENT_3D('',#1084,#1085,#1086);
#1084 = CARTESIAN_POINT('',(-65.,-75.,0.));
#1085 = DIRECTION('',(-0.,-0.,-1.));
#1086 = DIRECTION('',(1.,0.,0.));
#1087 = ADVANCED_FACE('',(#1088),#1141,.F.);
#1088 = FACE_BOUND('',#1089,.T.);
#1089 = EDGE_LOOP('',(#1090,#1133,#1134,#1135));
#1090 = ORIENTED_EDGE('',*,*,#1091,.F.);
#1091 = EDGE_CURVE('',#1008,#1092,#1094,.T.);
#1092 = VERTEX_POINT('',#1093);
#1093 = CARTESIAN_POINT('',(-100.,-55.,68.124885321004));
#1094 = B_SPLINE_CURVE_WITH_KNOTS('',7,(#1095,#1096,#1097,#1098,#1099,
    #1100,#1101,#1102,#1103,#1104,#1105,#1106,#1107,#1108,#1109,#1110,
    #1111,#1112,#1113,#1114,#1115,#1116,#1117,#1118,#1119,#1120,#1121,
    #1122,#1123,#1124,#1125,#1126,#1127,#1128,#1129,#1130,#1131,#1132),
  .UNSPECIFIED.,.F.,.F.,(8,6,6,6,6,6,8),(0.,0.139227954901,
    0.229430202739,0.446699567512,0.702551876781,0.795931067478,1.),
  .UNSPECIFIED.);
#1095 = CARTESIAN_POINT('',(-65.,-20.,102.05880657738));
#1096 = CARTESIAN_POINT('',(-66.24641655951,-20.,101.26497918428));
#1097 = CARTESIAN_POINT('',(-67.47439992367,-20.05178488974,
    100.45792875414));
#1098 = CARTESIAN_POINT('',(-68.68201168803,-20.1525986988,
    99.639403974205));
#1099 = CARTESIAN_POINT('',(-69.86753861633,-20.29974324711,
    98.811237925216));
#1100 = CARTESIAN_POINT('',(-71.02947403813,-20.49057066711,
    97.975333257101));
#1101 = CARTESIAN_POINT('',(-72.16649924652,-20.72247592602,
    97.13364736465));
#1102 = CARTESIAN_POINT('',(-73.99723125963,-21.16808332052,
    95.74041920083));
#1103 = CARTESIAN_POINT('',(-74.70629907769,-21.35949908358,
    95.19089019027));
#1104 = CARTESIAN_POINT('',(-75.40457275963,-21.56651366293,
    94.639956918187));
#1105 = CARTESIAN_POINT('',(-76.09197924605,-21.78854213094,
    94.08798039019));
#1106 = CARTESIAN_POINT('',(-76.76846654651,-22.0250370039,
    93.53531509303));
#1107 = CARTESIAN_POINT('',(-77.43400227759,-22.27548763934,
    92.982307856812));
#1108 = CARTESIAN_POINT('',(-79.66522904506,-23.17515031673,
    91.097263626073));
#1109 = CARTESIAN_POINT('',(-81.17811683973,-23.88903858243,
    89.7653322197));
#1110 = CARTESIAN_POINT('',(-82.62787692439,-24.67475983527,
    88.437538457898));
#1111 = CARTESIAN_POINT('',(-84.01551596412,-25.5274730138,
    87.117652878167));
#1112 = CARTESIAN_POINT('',(-85.34203792612,-26.44361582413,
    85.809416406245));
#1113 = CARTESIAN_POINT('',(-86.6081697034,-27.42073233947,
    84.516849953991));
#1114 = CARTESIAN_POINT('',(-89.23435583616,-29.67801432547,
    81.746504753741));
#1115 = CARTESIAN_POINT('',(-90.57004013516,-30.98021966101,
    80.277779324561));
#1116 = CARTESIAN_POINT('',(-91.82357587304,-32.36272070682,
    78.844265174543));
#1117 = CARTESIAN_POINT('',(-92.99520149298,-33.82624201383,
    77.453840413333));
#1118 = CARTESIAN_POINT('',(-94.08259573977,-35.37237920282,
    76.117770784261));
#1119 = CARTESIAN_POINT('',(-95.08101484776,-37.00295737311,
    74.851823311998));
#1120 = CARTESIAN_POINT('',(-96.31233114382,-39.34628149037,
    73.247711456813));
#1121 = CARTESIAN_POINT('',(-96.62884701403,-39.98454541997,
    72.830737398075));
#1122 = CARTESIAN_POINT('',(-96.93221875289,-40.63450652839,
    72.426787276233));
#1123 = CARTESIAN_POINT('',(-97.22199220142,-41.29616569292,
    72.03701618304));
#1124 = CARTESIAN_POINT('',(-97.49768039651,-41.96952217542,
    71.662649849737));
#1125 = CARTESIAN_POINT('',(-97.7587601714,-42.65457360181,
    71.304983081573));
#1126 = CARTESIAN_POINT('',(-98.54207224018,-44.87396209529,
    70.22321276216));
#1127 = CARTESIAN_POINT('',(-99.01109214458,-46.46398156695,
    69.561683866248));
#1128 = CARTESIAN_POINT('',(-99.39872024945,-48.10826094926,
    69.004468846853));
#1129 = CARTESIAN_POINT('',(-99.69625831743,-49.79465333878,
    68.570743024921));
#1130 = CARTESIAN_POINT('',(-99.89798145563,-51.51213471707,
    68.274638108083));
#1131 = CARTESIAN_POINT('',(-100.,-53.25055441411,68.124885321004));
#1132 = CARTESIAN_POINT('',(-100.,-55.,68.124885321004));
#1133 = ORIENTED_EDGE('',*,*,#1016,.T.);
#1134 = ORIENTED_EDGE('',*,*,#318,.T.);
#1135 = ORIENTED_EDGE('',*,*,#1136,.F.);
#1136 = EDGE_CURVE('',#1092,#319,#1137,.T.);
#1137 = LINE('',#1138,#1139);
#1138 = CARTESIAN_POINT('',(-100.,-55.,0.));
#1139 = VECTOR('',#1140,1.);
#1140 = DIRECTION('',(0.,0.,1.));
#1141 = CYLINDRICAL_SURFACE('',#1142,35.);
#1142 = AXIS2_PLACEMENT_3D('',#1143,#1144,#1145);
#1143 = CARTESIAN_POINT('',(-65.,-55.,0.));
#1144 = DIRECTION('',(-0.,-0.,-1.));
#1145 = DIRECTION('',(1.,0.,0.));
#1146 = ADVANCED_FACE('',(#1147),#1158,.T.);
#1147 = FACE_BOUND('',#1148,.T.);
#1148 = EDGE_LOOP('',(#1149,#1155,#1156,#1157));
#1149 = ORIENTED_EDGE('',*,*,#1150,.T.);
#1150 = EDGE_CURVE('',#1033,#1092,#1151,.T.);
#1151 = LINE('',#1152,#1153);
#1152 = CARTESIAN_POINT('',(-100.,1.513E-14,68.124885321004));
#1153 = VECTOR('',#1154,1.);
#1154 = DIRECTION('',(0.,1.,-2.2E-16));
#1155 = ORIENTED_EDGE('',*,*,#1136,.T.);
#1156 = ORIENTED_EDGE('',*,*,#361,.F.);
#1157 = ORIENTED_EDGE('',*,*,#1075,.F.);
#1158 = PLANE('',#1159);
#1159 = AXIS2_PLACEMENT_3D('',#1160,#1161,#1162);
#1160 = CARTESIAN_POINT('',(-100.,-55.,0.));
#1161 = DIRECTION('',(1.,0.,0.));
#1162 = DIRECTION('',(0.,-1.,0.));
#1163 = ADVANCED_FACE('',(#1164,#1183,#1193),#1203,.F.);
#1164 = FACE_BOUND('',#1165,.T.);
#1165 = EDGE_LOOP('',(#1166,#1175,#1181,#1182));
#1166 = ORIENTED_EDGE('',*,*,#1167,.T.);
#1167 = EDGE_CURVE('',#1168,#1168,#1170,.T.);
#1168 = VERTEX_POINT('',#1169);
#1169 = CARTESIAN_POINT('',(121.,-4.,-1.4E-14));
#1170 = CIRCLE('',#1171,121.);
#1171 = AXIS2_PLACEMENT_3D('',#1172,#1173,#1174);
#1172 = CARTESIAN_POINT('',(0.,-4.,8.9E-16));
#1173 = DIRECTION('',(0.,1.,-2.2E-16));
#1174 = DIRECTION('',(1.,0.,0.));
#1175 = ORIENTED_EDGE('',*,*,#1176,.T.);
#1176 = EDGE_CURVE('',#1168,#483,#1177,.T.);
#1177 = LINE('',#1178,#1179);
#1178 = CARTESIAN_POINT('',(121.,0.,0.));
#1179 = VECTOR('',#1180,1.);
#1180 = DIRECTION('',(0.,-1.,2.2E-16));
#1181 = ORIENTED_EDGE('',*,*,#482,.T.);
#1182 = ORIENTED_EDGE('',*,*,#1176,.F.);
#1183 = FACE_BOUND('',#1184,.T.);
#1184 = EDGE_LOOP('',(#1185,#1186,#1187,#1188,#1189,#1190,#1191,#1192));
#1185 = ORIENTED_EDGE('',*,*,#499,.F.);
#1186 = ORIENTED_EDGE('',*,*,#530,.T.);
#1187 = ORIENTED_EDGE('',*,*,#648,.T.);
#1188 = ORIENTED_EDGE('',*,*,#698,.T.);
#1189 = ORIENTED_EDGE('',*,*,#816,.T.);
#1190 = ORIENTED_EDGE('',*,*,#757,.T.);
#1191 = ORIENTED_EDGE('',*,*,#673,.F.);
#1192 = ORIENTED_EDGE('',*,*,#589,.T.);
#1193 = FACE_BOUND('',#1194,.T.);
#1194 = EDGE_LOOP('',(#1195,#1196,#1197,#1198,#1199,#1200,#1201,#1202));
#1195 = ORIENTED_EDGE('',*,*,#833,.T.);
#1196 = ORIENTED_EDGE('',*,*,#923,.T.);
#1197 = ORIENTED_EDGE('',*,*,#1007,.F.);
#1198 = ORIENTED_EDGE('',*,*,#1091,.T.);
#1199 = ORIENTED_EDGE('',*,*,#1150,.F.);
#1200 = ORIENTED_EDGE('',*,*,#1032,.T.);
#1201 = ORIENTED_EDGE('',*,*,#982,.T.);
#1202 = ORIENTED_EDGE('',*,*,#864,.T.);
#1203 = CYLINDRICAL_SURFACE('',#1204,121.);
#1204 = AXIS2_PLACEMENT_3D('',#1205,#1206,#1207);
#1205 = CARTESIAN_POINT('',(0.,0.,0.));
#1206 = DIRECTION('',(0.,1.,-2.2E-16));
#1207 = DIRECTION('',(1.,0.,0.));
#1208 = ADVANCED_FACE('',(#1209),#1212,.F.);
#1209 = FACE_BOUND('',#1210,.F.);
#1210 = EDGE_LOOP('',(#1211));
#1211 = ORIENTED_EDGE('',*,*,#1167,.T.);
#1212 = PLANE('',#1213);
#1213 = AXIS2_PLACEMENT_3D('',#1214,#1215,#1216);
#1214 = CARTESIAN_POINT('',(-5.6E-15,-4.,6.1E-15));
#1215 = DIRECTION('',(0.,1.,0.));
#1216 = DIRECTION('',(0.,0.,1.));
#1217 = ( GEOMETRIC_REPRESENTATION_CONTEXT(3) 
GLOBAL_UNCERTAINTY_ASSIGNED_CONTEXT((#1221)) 
GLOBAL_UNIT_ASSIGNED_CONTEXT((#1218,#1219,#1220)) REPRESENTATION_CONTEXT
('Context #1','3D Context with UNIT and UNCERTAINTY') );
#1218 = ( LENGTH_UNIT() NAMED_UNIT(*) SI_UNIT(.MILLI.,.METRE.) );
#1219 = ( NAMED_UNIT(*) PLANE_ANGLE_UNIT() SI_UNIT($,.RADIAN.) );
#1220 = ( NAMED_UNIT(*) SI_UNIT($,.STERADIAN.) SOLID_ANGLE_UNIT() );
#1221 = UNCERTAINTY_MEASURE_WITH_UNIT(LENGTH_MEASURE(1.E-07),#1218,
  'distance_accuracy_value','confusion accuracy');
#1222 = PRODUCT_RELATED_PRODUCT_CATEGORY('part',$,(#7));
#1223 = MECHANICAL_DESIGN_GEOMETRIC_PRESENTATION_REPRESENTATION('',(
    #1224),#1217);
#1224 = STYLED_ITEM('color',(#1225),#15);
#1225 = PRESENTATION_STYLE_ASSIGNMENT((#1226,#1232));
#1226 = SURFACE_STYLE_USAGE(.BOTH.,#1227);
#1227 = SURFACE_SIDE_STYLE('',(#1228));
#1228 = SURFACE_STYLE_FILL_AREA(#1229);
#1229 = FILL_AREA_STYLE('',(#1230));
#1230 = FILL_AREA_STYLE_COLOUR('',#1231);
#1231 = COLOUR_RGB('',0.72156863771,0.764705913506,0.780392170416);
#1232 = CURVE_STYLE('',#1233,POSITIVE_LENGTH_MEASURE(0.1),#1234);
#1233 = DRAUGHTING_PRE_DEFINED_CURVE_FONT('continuous');
#1234 = COLOUR_RGB('',9.803921802644E-02,9.803921802644E-02,
  9.803921802644E-02);
ENDSEC;
END-ISO-10303-21;
