ISO-10303-21;
HEADER;
FILE_DESCRIPTION(('FreeCAD Model'),'2;1');
FILE_NAME('Open CASCADE Shape Model','2026-07-19T20:37:33',(''),(''),
  'Open CASCADE STEP processor 7.9','FreeCAD','Unknown');
FILE_SCHEMA(('AUTOMOTIVE_DESIGN { 1 0 10303 214 1 1 1 1 }'));
ENDSEC;
DATA;
#1 = APPLICATION_PROTOCOL_DEFINITION('international standard',
  'automotive_design',2000,#2);
#2 = APPLICATION_CONTEXT(
  'core data for automotive mechanical design processes');
#3 = SHAPE_DEFINITION_REPRESENTATION(#4,#10);
#4 = PRODUCT_DEFINITION_SHAPE('','',#5);
#5 = PRODUCT_DEFINITION('design','',#6,#9);
#6 = PRODUCT_DEFINITION_FORMATION('','',#7);
#7 = PRODUCT('base-top','base-top','',(#8));
#8 = PRODUCT_CONTEXT('',#2,'mechanical');
#9 = PRODUCT_DEFINITION_CONTEXT('part definition',#2,'design');
#10 = ADVANCED_BREP_SHAPE_REPRESENTATION('',(#11,#15),#1331);
#11 = AXIS2_PLACEMENT_3D('',#12,#13,#14);
#12 = CARTESIAN_POINT('',(0.,0.,0.));
#13 = DIRECTION('',(0.,0.,1.));
#14 = DIRECTION('',(1.,0.,-0.));
#15 = MANIFOLD_SOLID_BREP('',#16);
#16 = CLOSED_SHELL('',(#17,#50,#75,#100,#268,#354,#379,#404,#429,#454,
    #479,#504,#529,#554,#579,#604,#636,#661,#686,#704,#729,#754,#779,
    #804,#829,#854,#879,#904,#916,#928,#948,#960,#980,#1005,#1017,#1037,
    #1049,#1069,#1147,#1159,#1184,#1201,#1218,#1235,#1252,#1269,#1294,
    #1314));
#17 = ADVANCED_FACE('',(#18),#45,.T.);
#18 = FACE_BOUND('',#19,.F.);
#19 = EDGE_LOOP('',(#20,#30,#37,#38));
#20 = ORIENTED_EDGE('',*,*,#21,.F.);
#21 = EDGE_CURVE('',#22,#24,#26,.T.);
#22 = VERTEX_POINT('',#23);
#23 = CARTESIAN_POINT('',(129.5,-2.E-15,-9.));
#24 = VERTEX_POINT('',#25);
#25 = CARTESIAN_POINT('',(129.5,-1.E-15,-4.));
#26 = LINE('',#27,#28);
#27 = CARTESIAN_POINT('',(129.5,0.,-10.));
#28 = VECTOR('',#29,1.);
#29 = DIRECTION('',(0.,0.,1.));
#30 = ORIENTED_EDGE('',*,*,#31,.T.);
#31 = EDGE_CURVE('',#22,#22,#32,.T.);
#32 = CIRCLE('',#33,129.5);
#33 = AXIS2_PLACEMENT_3D('',#34,#35,#36);
#34 = CARTESIAN_POINT('',(0.,-2.E-15,-9.));
#35 = DIRECTION('',(0.,-2.2E-16,-1.));
#36 = DIRECTION('',(1.,0.,0.));
#37 = ORIENTED_EDGE('',*,*,#21,.T.);
#38 = ORIENTED_EDGE('',*,*,#39,.F.);
#39 = EDGE_CURVE('',#24,#24,#40,.T.);
#40 = CIRCLE('',#41,129.5);
#41 = AXIS2_PLACEMENT_3D('',#42,#43,#44);
#42 = CARTESIAN_POINT('',(0.,-8.9E-16,-4.));
#43 = DIRECTION('',(0.,-2.2E-16,-1.));
#44 = DIRECTION('',(1.,0.,0.));
#45 = CYLINDRICAL_SURFACE('',#46,129.5);
#46 = AXIS2_PLACEMENT_3D('',#47,#48,#49);
#47 = CARTESIAN_POINT('',(0.,-2.22E-15,-10.));
#48 = DIRECTION('',(0.,2.2E-16,1.));
#49 = DIRECTION('',(1.,0.,0.));
#50 = ADVANCED_FACE('',(#51),#70,.T.);
#51 = FACE_BOUND('',#52,.T.);
#52 = EDGE_LOOP('',(#53,#61,#62,#63));
#53 = ORIENTED_EDGE('',*,*,#54,.F.);
#54 = EDGE_CURVE('',#22,#55,#57,.T.);
#55 = VERTEX_POINT('',#56);
#56 = CARTESIAN_POINT('',(128.5,-2.E-15,-10.));
#57 = LINE('',#58,#59);
#58 = CARTESIAN_POINT('',(129.5,-2.E-15,-9.));
#59 = VECTOR('',#60,1.);
#60 = DIRECTION('',(-0.707106781187,-1.6E-16,-0.707106781187));
#61 = ORIENTED_EDGE('',*,*,#31,.T.);
#62 = ORIENTED_EDGE('',*,*,#54,.T.);
#63 = ORIENTED_EDGE('',*,*,#64,.F.);
#64 = EDGE_CURVE('',#55,#55,#65,.T.);
#65 = CIRCLE('',#66,128.5);
#66 = AXIS2_PLACEMENT_3D('',#67,#68,#69);
#67 = CARTESIAN_POINT('',(0.,-2.22E-15,-10.));
#68 = DIRECTION('',(0.,-2.2E-16,-1.));
#69 = DIRECTION('',(1.,0.,0.));
#70 = CONICAL_SURFACE('',#71,129.5,0.785398163397);
#71 = AXIS2_PLACEMENT_3D('',#72,#73,#74);
#72 = CARTESIAN_POINT('',(0.,-2.E-15,-9.));
#73 = DIRECTION('',(0.,2.2E-16,1.));
#74 = DIRECTION('',(1.,0.,0.));
#75 = ADVANCED_FACE('',(#76),#95,.T.);
#76 = FACE_BOUND('',#77,.F.);
#77 = EDGE_LOOP('',(#78,#86,#87,#88));
#78 = ORIENTED_EDGE('',*,*,#79,.F.);
#79 = EDGE_CURVE('',#24,#80,#82,.T.);
#80 = VERTEX_POINT('',#81);
#81 = CARTESIAN_POINT('',(128.5,-1.E-15,-3.));
#82 = LINE('',#83,#84);
#83 = CARTESIAN_POINT('',(129.5,-8.9E-16,-4.));
#84 = VECTOR('',#85,1.);
#85 = DIRECTION('',(-0.707106781187,1.6E-16,0.707106781187));
#86 = ORIENTED_EDGE('',*,*,#39,.T.);
#87 = ORIENTED_EDGE('',*,*,#79,.T.);
#88 = ORIENTED_EDGE('',*,*,#89,.F.);
#89 = EDGE_CURVE('',#80,#80,#90,.T.);
#90 = CIRCLE('',#91,128.5);
#91 = AXIS2_PLACEMENT_3D('',#92,#93,#94);
#92 = CARTESIAN_POINT('',(0.,-6.7E-16,-3.));
#93 = DIRECTION('',(0.,-2.2E-16,-1.));
#94 = DIRECTION('',(1.,0.,0.));
#95 = CONICAL_SURFACE('',#96,129.5,0.785398163397);
#96 = AXIS2_PLACEMENT_3D('',#97,#98,#99);
#97 = CARTESIAN_POINT('',(0.,-8.9E-16,-4.));
#98 = DIRECTION('',(-0.,-2.2E-16,-1.));
#99 = DIRECTION('',(1.,0.,0.));
#100 = ADVANCED_FACE('',(#101,#104,#115,#126,#137,#148,#159,#170,#181,
    #192,#203,#214,#252),#263,.T.);
#101 = FACE_BOUND('',#102,.F.);
#102 = EDGE_LOOP('',(#103));
#103 = ORIENTED_EDGE('',*,*,#64,.F.);
#104 = FACE_BOUND('',#105,.F.);
#105 = EDGE_LOOP('',(#106));
#106 = ORIENTED_EDGE('',*,*,#107,.T.);
#107 = EDGE_CURVE('',#108,#108,#110,.T.);
#108 = VERTEX_POINT('',#109);
#109 = CARTESIAN_POINT('',(60.85,105.39529164056,-10.));
#110 = CIRCLE('',#111,1.7);
#111 = AXIS2_PLACEMENT_3D('',#112,#113,#114);
#112 = CARTESIAN_POINT('',(60.,103.92304845413,-10.));
#113 = DIRECTION('',(0.,0.,-1.));
#114 = DIRECTION('',(0.5,0.866025403784,0.));
#115 = FACE_BOUND('',#116,.F.);
#116 = EDGE_LOOP('',(#117));
#117 = ORIENTED_EDGE('',*,*,#118,.T.);
#118 = EDGE_CURVE('',#119,#119,#121,.T.);
#119 = VERTEX_POINT('',#120);
#120 = CARTESIAN_POINT('',(121.7,-1.E-15,-10.));
#121 = CIRCLE('',#122,1.7);
#122 = AXIS2_PLACEMENT_3D('',#123,#124,#125);
#123 = CARTESIAN_POINT('',(120.,-6.7E-16,-10.));
#124 = DIRECTION('',(0.,0.,-1.));
#125 = DIRECTION('',(1.,0.,0.));
#126 = FACE_BOUND('',#127,.F.);
#127 = EDGE_LOOP('',(#128));
#128 = ORIENTED_EDGE('',*,*,#129,.T.);
#129 = EDGE_CURVE('',#130,#130,#132,.T.);
#130 = VERTEX_POINT('',#131);
#131 = CARTESIAN_POINT('',(17.2,15.5,-10.));
#132 = CIRCLE('',#133,1.7);
#133 = AXIS2_PLACEMENT_3D('',#134,#135,#136);
#134 = CARTESIAN_POINT('',(15.5,15.5,-10.));
#135 = DIRECTION('',(0.,0.,-1.));
#136 = DIRECTION('',(1.,0.,0.));
#137 = FACE_BOUND('',#138,.F.);
#138 = EDGE_LOOP('',(#139));
#139 = ORIENTED_EDGE('',*,*,#140,.T.);
#140 = EDGE_CURVE('',#141,#141,#143,.T.);
#141 = VERTEX_POINT('',#142);
#142 = CARTESIAN_POINT('',(-60.85,105.39529164056,-10.));
#143 = CIRCLE('',#144,1.7);
#144 = AXIS2_PLACEMENT_3D('',#145,#146,#147);
#145 = CARTESIAN_POINT('',(-60.,103.92304845413,-10.));
#146 = DIRECTION('',(0.,0.,-1.));
#147 = DIRECTION('',(-0.5,0.866025403784,0.));
#148 = FACE_BOUND('',#149,.F.);
#149 = EDGE_LOOP('',(#150));
#150 = ORIENTED_EDGE('',*,*,#151,.T.);
#151 = EDGE_CURVE('',#152,#152,#154,.T.);
#152 = VERTEX_POINT('',#153);
#153 = CARTESIAN_POINT('',(-15.5,17.2,-10.));
#154 = CIRCLE('',#155,1.7);
#155 = AXIS2_PLACEMENT_3D('',#156,#157,#158);
#156 = CARTESIAN_POINT('',(-15.5,15.5,-10.));
#157 = DIRECTION('',(0.,0.,-1.));
#158 = DIRECTION('',(1.1E-16,1.,0.));
#159 = FACE_BOUND('',#160,.F.);
#160 = EDGE_LOOP('',(#161));
#161 = ORIENTED_EDGE('',*,*,#162,.T.);
#162 = EDGE_CURVE('',#163,#163,#165,.T.);
#163 = VERTEX_POINT('',#164);
#164 = CARTESIAN_POINT('',(12.5,-2.E-15,-10.));
#165 = CIRCLE('',#166,12.5);
#166 = AXIS2_PLACEMENT_3D('',#167,#168,#169);
#167 = CARTESIAN_POINT('',(0.,-2.22E-15,-10.));
#168 = DIRECTION('',(0.,-2.2E-16,-1.));
#169 = DIRECTION('',(1.,0.,0.));
#170 = FACE_BOUND('',#171,.F.);
#171 = EDGE_LOOP('',(#172));
#172 = ORIENTED_EDGE('',*,*,#173,.T.);
#173 = EDGE_CURVE('',#174,#174,#176,.T.);
#174 = VERTEX_POINT('',#175);
#175 = CARTESIAN_POINT('',(-121.7,1.4E-14,-10.));
#176 = CIRCLE('',#177,1.7);
#177 = AXIS2_PLACEMENT_3D('',#178,#179,#180);
#178 = CARTESIAN_POINT('',(-120.,1.403E-14,-10.));
#179 = DIRECTION('',(0.,0.,-1.));
#180 = DIRECTION('',(-1.,1.2E-16,0.));
#181 = FACE_BOUND('',#182,.F.);
#182 = EDGE_LOOP('',(#183));
#183 = ORIENTED_EDGE('',*,*,#184,.T.);
#184 = EDGE_CURVE('',#185,#185,#187,.T.);
#185 = VERTEX_POINT('',#186);
#186 = CARTESIAN_POINT('',(15.5,-17.2,-10.));
#187 = CIRCLE('',#188,1.7);
#188 = AXIS2_PLACEMENT_3D('',#189,#190,#191);
#189 = CARTESIAN_POINT('',(15.5,-15.5,-10.));
#190 = DIRECTION('',(0.,0.,-1.));
#191 = DIRECTION('',(-2.2E-16,-1.,-0.));
#192 = FACE_BOUND('',#193,.F.);
#193 = EDGE_LOOP('',(#194));
#194 = ORIENTED_EDGE('',*,*,#195,.T.);
#195 = EDGE_CURVE('',#196,#196,#198,.T.);
#196 = VERTEX_POINT('',#197);
#197 = CARTESIAN_POINT('',(60.85,-105.3952916405,-10.));
#198 = CIRCLE('',#199,1.7);
#199 = AXIS2_PLACEMENT_3D('',#200,#201,#202);
#200 = CARTESIAN_POINT('',(60.,-103.9230484541,-10.));
#201 = DIRECTION('',(0.,-0.,-1.));
#202 = DIRECTION('',(0.5,-0.866025403784,0.));
#203 = FACE_BOUND('',#204,.F.);
#204 = EDGE_LOOP('',(#205));
#205 = ORIENTED_EDGE('',*,*,#206,.T.);
#206 = EDGE_CURVE('',#207,#207,#209,.T.);
#207 = VERTEX_POINT('',#208);
#208 = CARTESIAN_POINT('',(-17.2,-15.5,-10.));
#209 = CIRCLE('',#210,1.7);
#210 = AXIS2_PLACEMENT_3D('',#211,#212,#213);
#211 = CARTESIAN_POINT('',(-15.5,-15.5,-10.));
#212 = DIRECTION('',(0.,0.,-1.));
#213 = DIRECTION('',(-1.,1.2E-16,0.));
#214 = FACE_BOUND('',#215,.F.);
#215 = EDGE_LOOP('',(#216,#227,#236,#245));
#216 = ORIENTED_EDGE('',*,*,#217,.T.);
#217 = EDGE_CURVE('',#218,#220,#222,.T.);
#218 = VERTEX_POINT('',#219);
#219 = CARTESIAN_POINT('',(40.769230769231,-33.86546651805,-10.));
#220 = VERTEX_POINT('',#221);
#221 = CARTESIAN_POINT('',(59.230769230769,-49.20077211113,-10.));
#222 = CIRCLE('',#223,12.);
#223 = AXIS2_PLACEMENT_3D('',#224,#225,#226);
#224 = CARTESIAN_POINT('',(50.,-41.53311931459,-10.));
#225 = DIRECTION('',(0.,0.,-1.));
#226 = DIRECTION('',(1.,0.,0.));
#227 = ORIENTED_EDGE('',*,*,#228,.T.);
#228 = EDGE_CURVE('',#220,#229,#231,.T.);
#229 = VERTEX_POINT('',#230);
#230 = CARTESIAN_POINT('',(-59.23076923076,-49.20077211113,-10.));
#231 = CIRCLE('',#232,77.);
#232 = AXIS2_PLACEMENT_3D('',#233,#234,#235);
#233 = CARTESIAN_POINT('',(0.,-2.E-15,-10.));
#234 = DIRECTION('',(0.,0.,-1.));
#235 = DIRECTION('',(1.,0.,0.));
#236 = ORIENTED_EDGE('',*,*,#237,.T.);
#237 = EDGE_CURVE('',#229,#238,#240,.T.);
#238 = VERTEX_POINT('',#239);
#239 = CARTESIAN_POINT('',(-40.76923076923,-33.86546651805,-10.));
#240 = CIRCLE('',#241,12.);
#241 = AXIS2_PLACEMENT_3D('',#242,#243,#244);
#242 = CARTESIAN_POINT('',(-50.,-41.53311931459,-10.));
#243 = DIRECTION('',(0.,0.,-1.));
#244 = DIRECTION('',(1.,0.,0.));
#245 = ORIENTED_EDGE('',*,*,#246,.F.);
#246 = EDGE_CURVE('',#218,#238,#247,.T.);
#247 = CIRCLE('',#248,53.);
#248 = AXIS2_PLACEMENT_3D('',#249,#250,#251);
#249 = CARTESIAN_POINT('',(0.,-2.E-15,-10.));
#250 = DIRECTION('',(0.,0.,-1.));
#251 = DIRECTION('',(1.,0.,0.));
#252 = FACE_BOUND('',#253,.F.);
#253 = EDGE_LOOP('',(#254));
#254 = ORIENTED_EDGE('',*,*,#255,.T.);
#255 = EDGE_CURVE('',#256,#256,#258,.T.);
#256 = VERTEX_POINT('',#257);
#257 = CARTESIAN_POINT('',(-60.85,-105.3952916405,-10.));
#258 = CIRCLE('',#259,1.7);
#259 = AXIS2_PLACEMENT_3D('',#260,#261,#262);
#260 = CARTESIAN_POINT('',(-60.,-103.9230484541,-10.));
#261 = DIRECTION('',(0.,0.,-1.));
#262 = DIRECTION('',(-0.5,-0.866025403784,-0.));
#263 = PLANE('',#264);
#264 = AXIS2_PLACEMENT_3D('',#265,#266,#267);
#265 = CARTESIAN_POINT('',(0.,-2.22E-15,-10.));
#266 = DIRECTION('',(-0.,-2.2E-16,-1.));
#267 = DIRECTION('',(1.,0.,0.));
#268 = ADVANCED_FACE('',(#269,#272,#283,#294,#305,#316,#327,#338),#349,
  .F.);
#269 = FACE_BOUND('',#270,.F.);
#270 = EDGE_LOOP('',(#271));
#271 = ORIENTED_EDGE('',*,*,#89,.T.);
#272 = FACE_BOUND('',#273,.F.);
#273 = EDGE_LOOP('',(#274));
#274 = ORIENTED_EDGE('',*,*,#275,.T.);
#275 = EDGE_CURVE('',#276,#276,#278,.T.);
#276 = VERTEX_POINT('',#277);
#277 = CARTESIAN_POINT('',(-61.5,106.52112466548,-3.));
#278 = CIRCLE('',#279,3.);
#279 = AXIS2_PLACEMENT_3D('',#280,#281,#282);
#280 = CARTESIAN_POINT('',(-60.,103.92304845413,-3.));
#281 = DIRECTION('',(0.,0.,1.));
#282 = DIRECTION('',(-0.5,0.866025403784,0.));
#283 = FACE_BOUND('',#284,.F.);
#284 = EDGE_LOOP('',(#285));
#285 = ORIENTED_EDGE('',*,*,#286,.T.);
#286 = EDGE_CURVE('',#287,#287,#289,.T.);
#287 = VERTEX_POINT('',#288);
#288 = CARTESIAN_POINT('',(-123.,1.4E-14,-3.));
#289 = CIRCLE('',#290,3.);
#290 = AXIS2_PLACEMENT_3D('',#291,#292,#293);
#291 = CARTESIAN_POINT('',(-120.,0.,-3.));
#292 = DIRECTION('',(0.,0.,1.));
#293 = DIRECTION('',(-1.,0.,0.));
#294 = FACE_BOUND('',#295,.F.);
#295 = EDGE_LOOP('',(#296));
#296 = ORIENTED_EDGE('',*,*,#297,.T.);
#297 = EDGE_CURVE('',#298,#298,#300,.T.);
#298 = VERTEX_POINT('',#299);
#299 = CARTESIAN_POINT('',(61.5,106.52112466548,-3.));
#300 = CIRCLE('',#301,3.);
#301 = AXIS2_PLACEMENT_3D('',#302,#303,#304);
#302 = CARTESIAN_POINT('',(60.,103.92304845413,-3.));
#303 = DIRECTION('',(0.,-0.,1.));
#304 = DIRECTION('',(0.5,0.866025403784,0.));
#305 = FACE_BOUND('',#306,.F.);
#306 = EDGE_LOOP('',(#307));
#307 = ORIENTED_EDGE('',*,*,#308,.F.);
#308 = EDGE_CURVE('',#309,#309,#311,.T.);
#309 = VERTEX_POINT('',#310);
#310 = CARTESIAN_POINT('',(106.5,-1.E-15,-3.));
#311 = CIRCLE('',#312,106.5);
#312 = AXIS2_PLACEMENT_3D('',#313,#314,#315);
#313 = CARTESIAN_POINT('',(0.,-6.7E-16,-3.));
#314 = DIRECTION('',(0.,-2.2E-16,-1.));
#315 = DIRECTION('',(1.,0.,0.));
#316 = FACE_BOUND('',#317,.F.);
#317 = EDGE_LOOP('',(#318));
#318 = ORIENTED_EDGE('',*,*,#319,.T.);
#319 = EDGE_CURVE('',#320,#320,#322,.T.);
#320 = VERTEX_POINT('',#321);
#321 = CARTESIAN_POINT('',(123.,-1.E-15,-3.));
#322 = CIRCLE('',#323,3.);
#323 = AXIS2_PLACEMENT_3D('',#324,#325,#326);
#324 = CARTESIAN_POINT('',(120.,-1.E-15,-3.));
#325 = DIRECTION('',(0.,0.,1.));
#326 = DIRECTION('',(1.,0.,0.));
#327 = FACE_BOUND('',#328,.F.);
#328 = EDGE_LOOP('',(#329));
#329 = ORIENTED_EDGE('',*,*,#330,.T.);
#330 = EDGE_CURVE('',#331,#331,#333,.T.);
#331 = VERTEX_POINT('',#332);
#332 = CARTESIAN_POINT('',(-61.5,-106.5211246654,-3.));
#333 = CIRCLE('',#334,3.);
#334 = AXIS2_PLACEMENT_3D('',#335,#336,#337);
#335 = CARTESIAN_POINT('',(-60.,-103.9230484541,-3.));
#336 = DIRECTION('',(0.,0.,1.));
#337 = DIRECTION('',(-0.5,-0.866025403784,0.));
#338 = FACE_BOUND('',#339,.F.);
#339 = EDGE_LOOP('',(#340));
#340 = ORIENTED_EDGE('',*,*,#341,.T.);
#341 = EDGE_CURVE('',#342,#342,#344,.T.);
#342 = VERTEX_POINT('',#343);
#343 = CARTESIAN_POINT('',(61.5,-106.5211246654,-3.));
#344 = CIRCLE('',#345,3.);
#345 = AXIS2_PLACEMENT_3D('',#346,#347,#348);
#346 = CARTESIAN_POINT('',(60.,-103.9230484541,-3.));
#347 = DIRECTION('',(-0.,0.,1.));
#348 = DIRECTION('',(0.5,-0.866025403784,0.));
#349 = PLANE('',#350);
#350 = AXIS2_PLACEMENT_3D('',#351,#352,#353);
#351 = CARTESIAN_POINT('',(0.,-6.7E-16,-3.));
#352 = DIRECTION('',(-0.,-2.2E-16,-1.));
#353 = DIRECTION('',(1.,0.,0.));
#354 = ADVANCED_FACE('',(#355),#374,.F.);
#355 = FACE_BOUND('',#356,.T.);
#356 = EDGE_LOOP('',(#357,#365,#372,#373));
#357 = ORIENTED_EDGE('',*,*,#358,.F.);
#358 = EDGE_CURVE('',#359,#108,#361,.T.);
#359 = VERTEX_POINT('',#360);
#360 = CARTESIAN_POINT('',(60.85,105.39529164056,-6.4));
#361 = LINE('',#362,#363);
#362 = CARTESIAN_POINT('',(60.85,105.39529164056,-6.4));
#363 = VECTOR('',#364,1.);
#364 = DIRECTION('',(-3.E-17,-5.196152422707E-17,-1.));
#365 = ORIENTED_EDGE('',*,*,#366,.T.);
#366 = EDGE_CURVE('',#359,#359,#367,.T.);
#367 = CIRCLE('',#368,1.7);
#368 = AXIS2_PLACEMENT_3D('',#369,#370,#371);
#369 = CARTESIAN_POINT('',(60.,103.92304845413,-6.4));
#370 = DIRECTION('',(0.,-0.,1.));
#371 = DIRECTION('',(0.5,0.866025403784,0.));
#372 = ORIENTED_EDGE('',*,*,#358,.T.);
#373 = ORIENTED_EDGE('',*,*,#107,.T.);
#374 = CYLINDRICAL_SURFACE('',#375,1.7);
#375 = AXIS2_PLACEMENT_3D('',#376,#377,#378);
#376 = CARTESIAN_POINT('',(60.,103.92304845413,-6.4));
#377 = DIRECTION('',(0.,-0.,-1.));
#378 = DIRECTION('',(0.5,0.866025403784,0.));
#379 = ADVANCED_FACE('',(#380),#399,.F.);
#380 = FACE_BOUND('',#381,.T.);
#381 = EDGE_LOOP('',(#382,#390,#397,#398));
#382 = ORIENTED_EDGE('',*,*,#383,.F.);
#383 = EDGE_CURVE('',#384,#119,#386,.T.);
#384 = VERTEX_POINT('',#385);
#385 = CARTESIAN_POINT('',(121.7,-1.E-15,-6.4));
#386 = LINE('',#387,#388);
#387 = CARTESIAN_POINT('',(121.7,-1.E-15,-6.4));
#388 = VECTOR('',#389,1.);
#389 = DIRECTION('',(-6.E-17,0.,-1.));
#390 = ORIENTED_EDGE('',*,*,#391,.T.);
#391 = EDGE_CURVE('',#384,#384,#392,.T.);
#392 = CIRCLE('',#393,1.7);
#393 = AXIS2_PLACEMENT_3D('',#394,#395,#396);
#394 = CARTESIAN_POINT('',(120.,-1.E-15,-6.4));
#395 = DIRECTION('',(0.,0.,1.));
#396 = DIRECTION('',(1.,0.,0.));
#397 = ORIENTED_EDGE('',*,*,#383,.T.);
#398 = ORIENTED_EDGE('',*,*,#118,.T.);
#399 = CYLINDRICAL_SURFACE('',#400,1.7);
#400 = AXIS2_PLACEMENT_3D('',#401,#402,#403);
#401 = CARTESIAN_POINT('',(120.,-1.E-15,-6.4));
#402 = DIRECTION('',(-0.,-0.,-1.));
#403 = DIRECTION('',(1.,0.,0.));
#404 = ADVANCED_FACE('',(#405),#424,.F.);
#405 = FACE_BOUND('',#406,.T.);
#406 = EDGE_LOOP('',(#407,#415,#422,#423));
#407 = ORIENTED_EDGE('',*,*,#408,.F.);
#408 = EDGE_CURVE('',#409,#130,#411,.T.);
#409 = VERTEX_POINT('',#410);
#410 = CARTESIAN_POINT('',(17.2,15.5,-6.4));
#411 = LINE('',#412,#413);
#412 = CARTESIAN_POINT('',(17.2,15.5,-6.4));
#413 = VECTOR('',#414,1.);
#414 = DIRECTION('',(-6.E-17,0.,-1.));
#415 = ORIENTED_EDGE('',*,*,#416,.T.);
#416 = EDGE_CURVE('',#409,#409,#417,.T.);
#417 = CIRCLE('',#418,1.7);
#418 = AXIS2_PLACEMENT_3D('',#419,#420,#421);
#419 = CARTESIAN_POINT('',(15.5,15.5,-6.4));
#420 = DIRECTION('',(0.,0.,1.));
#421 = DIRECTION('',(1.,0.,0.));
#422 = ORIENTED_EDGE('',*,*,#408,.T.);
#423 = ORIENTED_EDGE('',*,*,#129,.T.);
#424 = CYLINDRICAL_SURFACE('',#425,1.7);
#425 = AXIS2_PLACEMENT_3D('',#426,#427,#428);
#426 = CARTESIAN_POINT('',(15.5,15.5,-6.4));
#427 = DIRECTION('',(-0.,-0.,-1.));
#428 = DIRECTION('',(1.,0.,0.));
#429 = ADVANCED_FACE('',(#430),#449,.F.);
#430 = FACE_BOUND('',#431,.T.);
#431 = EDGE_LOOP('',(#432,#440,#447,#448));
#432 = ORIENTED_EDGE('',*,*,#433,.F.);
#433 = EDGE_CURVE('',#434,#141,#436,.T.);
#434 = VERTEX_POINT('',#435);
#435 = CARTESIAN_POINT('',(-60.85,105.39529164056,-6.4));
#436 = LINE('',#437,#438);
#437 = CARTESIAN_POINT('',(-60.85,105.39529164056,-6.4));
#438 = VECTOR('',#439,1.);
#439 = DIRECTION('',(3.E-17,-5.196152422707E-17,-1.));
#440 = ORIENTED_EDGE('',*,*,#441,.T.);
#441 = EDGE_CURVE('',#434,#434,#442,.T.);
#442 = CIRCLE('',#443,1.7);
#443 = AXIS2_PLACEMENT_3D('',#444,#445,#446);
#444 = CARTESIAN_POINT('',(-60.,103.92304845413,-6.4));
#445 = DIRECTION('',(0.,0.,1.));
#446 = DIRECTION('',(-0.5,0.866025403784,0.));
#447 = ORIENTED_EDGE('',*,*,#433,.T.);
#448 = ORIENTED_EDGE('',*,*,#140,.T.);
#449 = CYLINDRICAL_SURFACE('',#450,1.7);
#450 = AXIS2_PLACEMENT_3D('',#451,#452,#453);
#451 = CARTESIAN_POINT('',(-60.,103.92304845413,-6.4));
#452 = DIRECTION('',(0.,0.,-1.));
#453 = DIRECTION('',(-0.5,0.866025403784,0.));
#454 = ADVANCED_FACE('',(#455),#474,.F.);
#455 = FACE_BOUND('',#456,.T.);
#456 = EDGE_LOOP('',(#457,#465,#472,#473));
#457 = ORIENTED_EDGE('',*,*,#458,.F.);
#458 = EDGE_CURVE('',#459,#152,#461,.T.);
#459 = VERTEX_POINT('',#460);
#460 = CARTESIAN_POINT('',(-15.5,17.2,-6.4));
#461 = LINE('',#462,#463);
#462 = CARTESIAN_POINT('',(-15.5,17.2,-6.4));
#463 = VECTOR('',#464,1.);
#464 = DIRECTION('',(-0.,-6.E-17,-1.));
#465 = ORIENTED_EDGE('',*,*,#466,.T.);
#466 = EDGE_CURVE('',#459,#459,#467,.T.);
#467 = CIRCLE('',#468,1.7);
#468 = AXIS2_PLACEMENT_3D('',#469,#470,#471);
#469 = CARTESIAN_POINT('',(-15.5,15.5,-6.4));
#470 = DIRECTION('',(0.,-0.,1.));
#471 = DIRECTION('',(0.,1.,0.));
#472 = ORIENTED_EDGE('',*,*,#458,.T.);
#473 = ORIENTED_EDGE('',*,*,#151,.T.);
#474 = CYLINDRICAL_SURFACE('',#475,1.7);
#475 = AXIS2_PLACEMENT_3D('',#476,#477,#478);
#476 = CARTESIAN_POINT('',(-15.5,15.5,-6.4));
#477 = DIRECTION('',(0.,-0.,-1.));
#478 = DIRECTION('',(0.,1.,0.));
#479 = ADVANCED_FACE('',(#480),#499,.F.);
#480 = FACE_BOUND('',#481,.T.);
#481 = EDGE_LOOP('',(#482,#490,#491,#492));
#482 = ORIENTED_EDGE('',*,*,#483,.F.);
#483 = EDGE_CURVE('',#163,#484,#486,.T.);
#484 = VERTEX_POINT('',#485);
#485 = CARTESIAN_POINT('',(11.5,-2.E-15,-9.));
#486 = LINE('',#487,#488);
#487 = CARTESIAN_POINT('',(11.5,-2.E-15,-9.));
#488 = VECTOR('',#489,1.);
#489 = DIRECTION('',(-0.707106781187,1.6E-16,0.707106781187));
#490 = ORIENTED_EDGE('',*,*,#162,.T.);
#491 = ORIENTED_EDGE('',*,*,#483,.T.);
#492 = ORIENTED_EDGE('',*,*,#493,.F.);
#493 = EDGE_CURVE('',#484,#484,#494,.T.);
#494 = CIRCLE('',#495,11.5);
#495 = AXIS2_PLACEMENT_3D('',#496,#497,#498);
#496 = CARTESIAN_POINT('',(0.,-2.E-15,-9.));
#497 = DIRECTION('',(0.,-2.2E-16,-1.));
#498 = DIRECTION('',(1.,0.,0.));
#499 = CONICAL_SURFACE('',#500,11.5,0.785398163397);
#500 = AXIS2_PLACEMENT_3D('',#501,#502,#503);
#501 = CARTESIAN_POINT('',(0.,-2.E-15,-9.));
#502 = DIRECTION('',(-0.,-2.2E-16,-1.));
#503 = DIRECTION('',(1.,0.,0.));
#504 = ADVANCED_FACE('',(#505),#524,.F.);
#505 = FACE_BOUND('',#506,.T.);
#506 = EDGE_LOOP('',(#507,#515,#522,#523));
#507 = ORIENTED_EDGE('',*,*,#508,.F.);
#508 = EDGE_CURVE('',#509,#174,#511,.T.);
#509 = VERTEX_POINT('',#510);
#510 = CARTESIAN_POINT('',(-121.7,1.4E-14,-6.4));
#511 = LINE('',#512,#513);
#512 = CARTESIAN_POINT('',(-121.7,0.,-6.4));
#513 = VECTOR('',#514,1.);
#514 = DIRECTION('',(6.E-17,-0.,-1.));
#515 = ORIENTED_EDGE('',*,*,#516,.T.);
#516 = EDGE_CURVE('',#509,#509,#517,.T.);
#517 = CIRCLE('',#518,1.7);
#518 = AXIS2_PLACEMENT_3D('',#519,#520,#521);
#519 = CARTESIAN_POINT('',(-120.,0.,-6.4));
#520 = DIRECTION('',(0.,0.,1.));
#521 = DIRECTION('',(-1.,0.,0.));
#522 = ORIENTED_EDGE('',*,*,#508,.T.);
#523 = ORIENTED_EDGE('',*,*,#173,.T.);
#524 = CYLINDRICAL_SURFACE('',#525,1.7);
#525 = AXIS2_PLACEMENT_3D('',#526,#527,#528);
#526 = CARTESIAN_POINT('',(-120.,0.,-6.4));
#527 = DIRECTION('',(0.,0.,-1.));
#528 = DIRECTION('',(-1.,0.,0.));
#529 = ADVANCED_FACE('',(#530),#549,.F.);
#530 = FACE_BOUND('',#531,.T.);
#531 = EDGE_LOOP('',(#532,#540,#547,#548));
#532 = ORIENTED_EDGE('',*,*,#533,.F.);
#533 = EDGE_CURVE('',#534,#185,#536,.T.);
#534 = VERTEX_POINT('',#535);
#535 = CARTESIAN_POINT('',(15.5,-17.2,-6.4));
#536 = LINE('',#537,#538);
#537 = CARTESIAN_POINT('',(15.5,-17.2,-6.4));
#538 = VECTOR('',#539,1.);
#539 = DIRECTION('',(0.,6.E-17,-1.));
#540 = ORIENTED_EDGE('',*,*,#541,.T.);
#541 = EDGE_CURVE('',#534,#534,#542,.T.);
#542 = CIRCLE('',#543,1.7);
#543 = AXIS2_PLACEMENT_3D('',#544,#545,#546);
#544 = CARTESIAN_POINT('',(15.5,-15.5,-6.4));
#545 = DIRECTION('',(-0.,0.,1.));
#546 = DIRECTION('',(0.,-1.,0.));
#547 = ORIENTED_EDGE('',*,*,#533,.T.);
#548 = ORIENTED_EDGE('',*,*,#184,.T.);
#549 = CYLINDRICAL_SURFACE('',#550,1.7);
#550 = AXIS2_PLACEMENT_3D('',#551,#552,#553);
#551 = CARTESIAN_POINT('',(15.5,-15.5,-6.4));
#552 = DIRECTION('',(-0.,0.,-1.));
#553 = DIRECTION('',(0.,-1.,0.));
#554 = ADVANCED_FACE('',(#555),#574,.F.);
#555 = FACE_BOUND('',#556,.T.);
#556 = EDGE_LOOP('',(#557,#565,#572,#573));
#557 = ORIENTED_EDGE('',*,*,#558,.F.);
#558 = EDGE_CURVE('',#559,#196,#561,.T.);
#559 = VERTEX_POINT('',#560);
#560 = CARTESIAN_POINT('',(60.85,-105.3952916405,-6.4));
#561 = LINE('',#562,#563);
#562 = CARTESIAN_POINT('',(60.85,-105.3952916405,-6.4));
#563 = VECTOR('',#564,1.);
#564 = DIRECTION('',(-3.E-17,5.196152422707E-17,-1.));
#565 = ORIENTED_EDGE('',*,*,#566,.T.);
#566 = EDGE_CURVE('',#559,#559,#567,.T.);
#567 = CIRCLE('',#568,1.7);
#568 = AXIS2_PLACEMENT_3D('',#569,#570,#571);
#569 = CARTESIAN_POINT('',(60.,-103.9230484541,-6.4));
#570 = DIRECTION('',(-0.,0.,1.));
#571 = DIRECTION('',(0.5,-0.866025403784,0.));
#572 = ORIENTED_EDGE('',*,*,#558,.T.);
#573 = ORIENTED_EDGE('',*,*,#195,.T.);
#574 = CYLINDRICAL_SURFACE('',#575,1.7);
#575 = AXIS2_PLACEMENT_3D('',#576,#577,#578);
#576 = CARTESIAN_POINT('',(60.,-103.9230484541,-6.4));
#577 = DIRECTION('',(-0.,0.,-1.));
#578 = DIRECTION('',(0.5,-0.866025403784,0.));
#579 = ADVANCED_FACE('',(#580),#599,.F.);
#580 = FACE_BOUND('',#581,.T.);
#581 = EDGE_LOOP('',(#582,#590,#597,#598));
#582 = ORIENTED_EDGE('',*,*,#583,.F.);
#583 = EDGE_CURVE('',#584,#207,#586,.T.);
#584 = VERTEX_POINT('',#585);
#585 = CARTESIAN_POINT('',(-17.2,-15.5,-6.4));
#586 = LINE('',#587,#588);
#587 = CARTESIAN_POINT('',(-17.2,-15.5,-6.4));
#588 = VECTOR('',#589,1.);
#589 = DIRECTION('',(6.E-17,-0.,-1.));
#590 = ORIENTED_EDGE('',*,*,#591,.T.);
#591 = EDGE_CURVE('',#584,#584,#592,.T.);
#592 = CIRCLE('',#593,1.7);
#593 = AXIS2_PLACEMENT_3D('',#594,#595,#596);
#594 = CARTESIAN_POINT('',(-15.5,-15.5,-6.4));
#595 = DIRECTION('',(0.,0.,1.));
#596 = DIRECTION('',(-1.,0.,0.));
#597 = ORIENTED_EDGE('',*,*,#583,.T.);
#598 = ORIENTED_EDGE('',*,*,#206,.T.);
#599 = CYLINDRICAL_SURFACE('',#600,1.7);
#600 = AXIS2_PLACEMENT_3D('',#601,#602,#603);
#601 = CARTESIAN_POINT('',(-15.5,-15.5,-6.4));
#602 = DIRECTION('',(0.,0.,-1.));
#603 = DIRECTION('',(-1.,0.,0.));
#604 = ADVANCED_FACE('',(#605),#631,.F.);
#605 = FACE_BOUND('',#606,.F.);
#606 = EDGE_LOOP('',(#607,#608,#616,#625));
#607 = ORIENTED_EDGE('',*,*,#217,.F.);
#608 = ORIENTED_EDGE('',*,*,#609,.T.);
#609 = EDGE_CURVE('',#218,#610,#612,.T.);
#610 = VERTEX_POINT('',#611);
#611 = CARTESIAN_POINT('',(40.769230769231,-33.86546651805,-3.));
#612 = LINE('',#613,#614);
#613 = CARTESIAN_POINT('',(40.769230769231,-33.86546651805,-10.));
#614 = VECTOR('',#615,1.);
#615 = DIRECTION('',(0.,0.,1.));
#616 = ORIENTED_EDGE('',*,*,#617,.T.);
#617 = EDGE_CURVE('',#610,#618,#620,.T.);
#618 = VERTEX_POINT('',#619);
#619 = CARTESIAN_POINT('',(59.230769230769,-49.20077211113,-3.));
#620 = CIRCLE('',#621,12.);
#621 = AXIS2_PLACEMENT_3D('',#622,#623,#624);
#622 = CARTESIAN_POINT('',(50.,-41.53311931459,-3.));
#623 = DIRECTION('',(0.,0.,-1.));
#624 = DIRECTION('',(1.,0.,0.));
#625 = ORIENTED_EDGE('',*,*,#626,.F.);
#626 = EDGE_CURVE('',#220,#618,#627,.T.);
#627 = LINE('',#628,#629);
#628 = CARTESIAN_POINT('',(59.230769230769,-49.20077211113,-10.));
#629 = VECTOR('',#630,1.);
#630 = DIRECTION('',(0.,0.,1.));
#631 = CYLINDRICAL_SURFACE('',#632,12.);
#632 = AXIS2_PLACEMENT_3D('',#633,#634,#635);
#633 = CARTESIAN_POINT('',(50.,-41.53311931459,-10.));
#634 = DIRECTION('',(0.,0.,-1.));
#635 = DIRECTION('',(1.,0.,0.));
#636 = ADVANCED_FACE('',(#637),#656,.T.);
#637 = FACE_BOUND('',#638,.T.);
#638 = EDGE_LOOP('',(#639,#640,#641,#650));
#639 = ORIENTED_EDGE('',*,*,#246,.F.);
#640 = ORIENTED_EDGE('',*,*,#609,.T.);
#641 = ORIENTED_EDGE('',*,*,#642,.T.);
#642 = EDGE_CURVE('',#610,#643,#645,.T.);
#643 = VERTEX_POINT('',#644);
#644 = CARTESIAN_POINT('',(-40.76923076923,-33.86546651805,-3.));
#645 = CIRCLE('',#646,53.);
#646 = AXIS2_PLACEMENT_3D('',#647,#648,#649);
#647 = CARTESIAN_POINT('',(-0.,-2.22E-15,-3.));
#648 = DIRECTION('',(0.,0.,-1.));
#649 = DIRECTION('',(1.,0.,0.));
#650 = ORIENTED_EDGE('',*,*,#651,.F.);
#651 = EDGE_CURVE('',#238,#643,#652,.T.);
#652 = LINE('',#653,#654);
#653 = CARTESIAN_POINT('',(-40.76923076923,-33.86546651805,-10.));
#654 = VECTOR('',#655,1.);
#655 = DIRECTION('',(0.,0.,1.));
#656 = CYLINDRICAL_SURFACE('',#657,53.);
#657 = AXIS2_PLACEMENT_3D('',#658,#659,#660);
#658 = CARTESIAN_POINT('',(-0.,-2.22E-15,-10.));
#659 = DIRECTION('',(0.,0.,-1.));
#660 = DIRECTION('',(1.,0.,0.));
#661 = ADVANCED_FACE('',(#662),#681,.F.);
#662 = FACE_BOUND('',#663,.F.);
#663 = EDGE_LOOP('',(#664,#665,#673,#680));
#664 = ORIENTED_EDGE('',*,*,#237,.F.);
#665 = ORIENTED_EDGE('',*,*,#666,.T.);
#666 = EDGE_CURVE('',#229,#667,#669,.T.);
#667 = VERTEX_POINT('',#668);
#668 = CARTESIAN_POINT('',(-59.23076923076,-49.20077211113,-3.));
#669 = LINE('',#670,#671);
#670 = CARTESIAN_POINT('',(-59.23076923076,-49.20077211113,-10.));
#671 = VECTOR('',#672,1.);
#672 = DIRECTION('',(0.,0.,1.));
#673 = ORIENTED_EDGE('',*,*,#674,.T.);
#674 = EDGE_CURVE('',#667,#643,#675,.T.);
#675 = CIRCLE('',#676,12.);
#676 = AXIS2_PLACEMENT_3D('',#677,#678,#679);
#677 = CARTESIAN_POINT('',(-50.,-41.53311931459,-3.));
#678 = DIRECTION('',(0.,0.,-1.));
#679 = DIRECTION('',(1.,0.,0.));
#680 = ORIENTED_EDGE('',*,*,#651,.F.);
#681 = CYLINDRICAL_SURFACE('',#682,12.);
#682 = AXIS2_PLACEMENT_3D('',#683,#684,#685);
#683 = CARTESIAN_POINT('',(-50.,-41.53311931459,-10.));
#684 = DIRECTION('',(0.,0.,-1.));
#685 = DIRECTION('',(1.,0.,0.));
#686 = ADVANCED_FACE('',(#687),#699,.F.);
#687 = FACE_BOUND('',#688,.F.);
#688 = EDGE_LOOP('',(#689,#690,#691,#698));
#689 = ORIENTED_EDGE('',*,*,#228,.F.);
#690 = ORIENTED_EDGE('',*,*,#626,.T.);
#691 = ORIENTED_EDGE('',*,*,#692,.T.);
#692 = EDGE_CURVE('',#618,#667,#693,.T.);
#693 = CIRCLE('',#694,77.);
#694 = AXIS2_PLACEMENT_3D('',#695,#696,#697);
#695 = CARTESIAN_POINT('',(-0.,-2.22E-15,-3.));
#696 = DIRECTION('',(0.,0.,-1.));
#697 = DIRECTION('',(1.,0.,0.));
#698 = ORIENTED_EDGE('',*,*,#666,.F.);
#699 = CYLINDRICAL_SURFACE('',#700,77.);
#700 = AXIS2_PLACEMENT_3D('',#701,#702,#703);
#701 = CARTESIAN_POINT('',(-0.,-2.22E-15,-10.));
#702 = DIRECTION('',(0.,0.,-1.));
#703 = DIRECTION('',(1.,0.,0.));
#704 = ADVANCED_FACE('',(#705),#724,.F.);
#705 = FACE_BOUND('',#706,.T.);
#706 = EDGE_LOOP('',(#707,#715,#722,#723));
#707 = ORIENTED_EDGE('',*,*,#708,.F.);
#708 = EDGE_CURVE('',#709,#256,#711,.T.);
#709 = VERTEX_POINT('',#710);
#710 = CARTESIAN_POINT('',(-60.85,-105.3952916405,-6.4));
#711 = LINE('',#712,#713);
#712 = CARTESIAN_POINT('',(-60.85,-105.3952916405,-6.4));
#713 = VECTOR('',#714,1.);
#714 = DIRECTION('',(3.E-17,5.196152422707E-17,-1.));
#715 = ORIENTED_EDGE('',*,*,#716,.T.);
#716 = EDGE_CURVE('',#709,#709,#717,.T.);
#717 = CIRCLE('',#718,1.7);
#718 = AXIS2_PLACEMENT_3D('',#719,#720,#721);
#719 = CARTESIAN_POINT('',(-60.,-103.9230484541,-6.4));
#720 = DIRECTION('',(0.,0.,1.));
#721 = DIRECTION('',(-0.5,-0.866025403784,0.));
#722 = ORIENTED_EDGE('',*,*,#708,.T.);
#723 = ORIENTED_EDGE('',*,*,#255,.T.);
#724 = CYLINDRICAL_SURFACE('',#725,1.7);
#725 = AXIS2_PLACEMENT_3D('',#726,#727,#728);
#726 = CARTESIAN_POINT('',(-60.,-103.9230484541,-6.4));
#727 = DIRECTION('',(0.,0.,-1.));
#728 = DIRECTION('',(-0.5,-0.866025403784,0.));
#729 = ADVANCED_FACE('',(#730),#749,.F.);
#730 = FACE_BOUND('',#731,.T.);
#731 = EDGE_LOOP('',(#732,#740,#741,#742));
#732 = ORIENTED_EDGE('',*,*,#733,.F.);
#733 = EDGE_CURVE('',#276,#734,#736,.T.);
#734 = VERTEX_POINT('',#735);
#735 = CARTESIAN_POINT('',(-61.5,106.52112466548,-6.4));
#736 = LINE('',#737,#738);
#737 = CARTESIAN_POINT('',(-61.5,106.52112466548,-3.));
#738 = VECTOR('',#739,1.);
#739 = DIRECTION('',(-0.,0.,-1.));
#740 = ORIENTED_EDGE('',*,*,#275,.T.);
#741 = ORIENTED_EDGE('',*,*,#733,.T.);
#742 = ORIENTED_EDGE('',*,*,#743,.F.);
#743 = EDGE_CURVE('',#734,#734,#744,.T.);
#744 = CIRCLE('',#745,3.);
#745 = AXIS2_PLACEMENT_3D('',#746,#747,#748);
#746 = CARTESIAN_POINT('',(-60.,103.92304845413,-6.4));
#747 = DIRECTION('',(0.,0.,1.));
#748 = DIRECTION('',(-0.5,0.866025403784,0.));
#749 = CYLINDRICAL_SURFACE('',#750,3.);
#750 = AXIS2_PLACEMENT_3D('',#751,#752,#753);
#751 = CARTESIAN_POINT('',(-60.,103.92304845413,-3.));
#752 = DIRECTION('',(0.,0.,-1.));
#753 = DIRECTION('',(-0.5,0.866025403784,0.));
#754 = ADVANCED_FACE('',(#755),#774,.F.);
#755 = FACE_BOUND('',#756,.T.);
#756 = EDGE_LOOP('',(#757,#765,#766,#767));
#757 = ORIENTED_EDGE('',*,*,#758,.F.);
#758 = EDGE_CURVE('',#287,#759,#761,.T.);
#759 = VERTEX_POINT('',#760);
#760 = CARTESIAN_POINT('',(-123.,1.4E-14,-6.4));
#761 = LINE('',#762,#763);
#762 = CARTESIAN_POINT('',(-123.,0.,-3.));
#763 = VECTOR('',#764,1.);
#764 = DIRECTION('',(0.,0.,-1.));
#765 = ORIENTED_EDGE('',*,*,#286,.T.);
#766 = ORIENTED_EDGE('',*,*,#758,.T.);
#767 = ORIENTED_EDGE('',*,*,#768,.F.);
#768 = EDGE_CURVE('',#759,#759,#769,.T.);
#769 = CIRCLE('',#770,3.);
#770 = AXIS2_PLACEMENT_3D('',#771,#772,#773);
#771 = CARTESIAN_POINT('',(-120.,0.,-6.4));
#772 = DIRECTION('',(0.,0.,1.));
#773 = DIRECTION('',(-1.,0.,0.));
#774 = CYLINDRICAL_SURFACE('',#775,3.);
#775 = AXIS2_PLACEMENT_3D('',#776,#777,#778);
#776 = CARTESIAN_POINT('',(-120.,0.,-3.));
#777 = DIRECTION('',(0.,0.,-1.));
#778 = DIRECTION('',(-1.,0.,0.));
#779 = ADVANCED_FACE('',(#780),#799,.F.);
#780 = FACE_BOUND('',#781,.T.);
#781 = EDGE_LOOP('',(#782,#790,#791,#792));
#782 = ORIENTED_EDGE('',*,*,#783,.F.);
#783 = EDGE_CURVE('',#298,#784,#786,.T.);
#784 = VERTEX_POINT('',#785);
#785 = CARTESIAN_POINT('',(61.5,106.52112466548,-6.4));
#786 = LINE('',#787,#788);
#787 = CARTESIAN_POINT('',(61.5,106.52112466548,-3.));
#788 = VECTOR('',#789,1.);
#789 = DIRECTION('',(0.,0.,-1.));
#790 = ORIENTED_EDGE('',*,*,#297,.T.);
#791 = ORIENTED_EDGE('',*,*,#783,.T.);
#792 = ORIENTED_EDGE('',*,*,#793,.F.);
#793 = EDGE_CURVE('',#784,#784,#794,.T.);
#794 = CIRCLE('',#795,3.);
#795 = AXIS2_PLACEMENT_3D('',#796,#797,#798);
#796 = CARTESIAN_POINT('',(60.,103.92304845413,-6.4));
#797 = DIRECTION('',(0.,-0.,1.));
#798 = DIRECTION('',(0.5,0.866025403784,0.));
#799 = CYLINDRICAL_SURFACE('',#800,3.);
#800 = AXIS2_PLACEMENT_3D('',#801,#802,#803);
#801 = CARTESIAN_POINT('',(60.,103.92304845413,-3.));
#802 = DIRECTION('',(0.,-0.,-1.));
#803 = DIRECTION('',(0.5,0.866025403784,0.));
#804 = ADVANCED_FACE('',(#805),#824,.T.);
#805 = FACE_BOUND('',#806,.F.);
#806 = EDGE_LOOP('',(#807,#815,#816,#817));
#807 = ORIENTED_EDGE('',*,*,#808,.F.);
#808 = EDGE_CURVE('',#309,#809,#811,.T.);
#809 = VERTEX_POINT('',#810);
#810 = CARTESIAN_POINT('',(106.5,0.,-1.));
#811 = LINE('',#812,#813);
#812 = CARTESIAN_POINT('',(106.5,0.,-3.));
#813 = VECTOR('',#814,1.);
#814 = DIRECTION('',(0.,0.,1.));
#815 = ORIENTED_EDGE('',*,*,#308,.T.);
#816 = ORIENTED_EDGE('',*,*,#808,.T.);
#817 = ORIENTED_EDGE('',*,*,#818,.F.);
#818 = EDGE_CURVE('',#809,#809,#819,.T.);
#819 = CIRCLE('',#820,106.5);
#820 = AXIS2_PLACEMENT_3D('',#821,#822,#823);
#821 = CARTESIAN_POINT('',(0.,-2.2E-16,-1.));
#822 = DIRECTION('',(0.,-2.2E-16,-1.));
#823 = DIRECTION('',(1.,0.,0.));
#824 = CYLINDRICAL_SURFACE('',#825,106.5);
#825 = AXIS2_PLACEMENT_3D('',#826,#827,#828);
#826 = CARTESIAN_POINT('',(0.,-6.7E-16,-3.));
#827 = DIRECTION('',(0.,2.2E-16,1.));
#828 = DIRECTION('',(1.,0.,0.));
#829 = ADVANCED_FACE('',(#830),#849,.F.);
#830 = FACE_BOUND('',#831,.T.);
#831 = EDGE_LOOP('',(#832,#840,#841,#842));
#832 = ORIENTED_EDGE('',*,*,#833,.F.);
#833 = EDGE_CURVE('',#320,#834,#836,.T.);
#834 = VERTEX_POINT('',#835);
#835 = CARTESIAN_POINT('',(123.,-1.E-15,-6.4));
#836 = LINE('',#837,#838);
#837 = CARTESIAN_POINT('',(123.,-1.E-15,-3.));
#838 = VECTOR('',#839,1.);
#839 = DIRECTION('',(0.,0.,-1.));
#840 = ORIENTED_EDGE('',*,*,#319,.T.);
#841 = ORIENTED_EDGE('',*,*,#833,.T.);
#842 = ORIENTED_EDGE('',*,*,#843,.F.);
#843 = EDGE_CURVE('',#834,#834,#844,.T.);
#844 = CIRCLE('',#845,3.);
#845 = AXIS2_PLACEMENT_3D('',#846,#847,#848);
#846 = CARTESIAN_POINT('',(120.,-1.E-15,-6.4));
#847 = DIRECTION('',(0.,0.,1.));
#848 = DIRECTION('',(1.,0.,0.));
#849 = CYLINDRICAL_SURFACE('',#850,3.);
#850 = AXIS2_PLACEMENT_3D('',#851,#852,#853);
#851 = CARTESIAN_POINT('',(120.,-1.E-15,-3.));
#852 = DIRECTION('',(-0.,-0.,-1.));
#853 = DIRECTION('',(1.,0.,0.));
#854 = ADVANCED_FACE('',(#855),#874,.F.);
#855 = FACE_BOUND('',#856,.T.);
#856 = EDGE_LOOP('',(#857,#865,#866,#867));
#857 = ORIENTED_EDGE('',*,*,#858,.F.);
#858 = EDGE_CURVE('',#331,#859,#861,.T.);
#859 = VERTEX_POINT('',#860);
#860 = CARTESIAN_POINT('',(-61.5,-106.5211246654,-6.4));
#861 = LINE('',#862,#863);
#862 = CARTESIAN_POINT('',(-61.5,-106.5211246654,-3.));
#863 = VECTOR('',#864,1.);
#864 = DIRECTION('',(0.,-0.,-1.));
#865 = ORIENTED_EDGE('',*,*,#330,.T.);
#866 = ORIENTED_EDGE('',*,*,#858,.T.);
#867 = ORIENTED_EDGE('',*,*,#868,.F.);
#868 = EDGE_CURVE('',#859,#859,#869,.T.);
#869 = CIRCLE('',#870,3.);
#870 = AXIS2_PLACEMENT_3D('',#871,#872,#873);
#871 = CARTESIAN_POINT('',(-60.,-103.9230484541,-6.4));
#872 = DIRECTION('',(0.,0.,1.));
#873 = DIRECTION('',(-0.5,-0.866025403784,0.));
#874 = CYLINDRICAL_SURFACE('',#875,3.);
#875 = AXIS2_PLACEMENT_3D('',#876,#877,#878);
#876 = CARTESIAN_POINT('',(-60.,-103.9230484541,-3.));
#877 = DIRECTION('',(0.,0.,-1.));
#878 = DIRECTION('',(-0.5,-0.866025403784,0.));
#879 = ADVANCED_FACE('',(#880),#899,.F.);
#880 = FACE_BOUND('',#881,.T.);
#881 = EDGE_LOOP('',(#882,#890,#891,#892));
#882 = ORIENTED_EDGE('',*,*,#883,.F.);
#883 = EDGE_CURVE('',#342,#884,#886,.T.);
#884 = VERTEX_POINT('',#885);
#885 = CARTESIAN_POINT('',(61.5,-106.5211246654,-6.4));
#886 = LINE('',#887,#888);
#887 = CARTESIAN_POINT('',(61.5,-106.5211246654,-3.));
#888 = VECTOR('',#889,1.);
#889 = DIRECTION('',(0.,0.,-1.));
#890 = ORIENTED_EDGE('',*,*,#341,.T.);
#891 = ORIENTED_EDGE('',*,*,#883,.T.);
#892 = ORIENTED_EDGE('',*,*,#893,.F.);
#893 = EDGE_CURVE('',#884,#884,#894,.T.);
#894 = CIRCLE('',#895,3.);
#895 = AXIS2_PLACEMENT_3D('',#896,#897,#898);
#896 = CARTESIAN_POINT('',(60.,-103.9230484541,-6.4));
#897 = DIRECTION('',(-0.,0.,1.));
#898 = DIRECTION('',(0.5,-0.866025403784,0.));
#899 = CYLINDRICAL_SURFACE('',#900,3.);
#900 = AXIS2_PLACEMENT_3D('',#901,#902,#903);
#901 = CARTESIAN_POINT('',(60.,-103.9230484541,-3.));
#902 = DIRECTION('',(-0.,0.,-1.));
#903 = DIRECTION('',(0.5,-0.866025403784,0.));
#904 = ADVANCED_FACE('',(#905,#908),#911,.T.);
#905 = FACE_BOUND('',#906,.T.);
#906 = EDGE_LOOP('',(#907));
#907 = ORIENTED_EDGE('',*,*,#793,.T.);
#908 = FACE_BOUND('',#909,.T.);
#909 = EDGE_LOOP('',(#910));
#910 = ORIENTED_EDGE('',*,*,#366,.F.);
#911 = PLANE('',#912);
#912 = AXIS2_PLACEMENT_3D('',#913,#914,#915);
#913 = CARTESIAN_POINT('',(60.,103.92304845413,-6.4));
#914 = DIRECTION('',(0.,0.,1.));
#915 = DIRECTION('',(0.5,0.866025403784,0.));
#916 = ADVANCED_FACE('',(#917,#920),#923,.T.);
#917 = FACE_BOUND('',#918,.T.);
#918 = EDGE_LOOP('',(#919));
#919 = ORIENTED_EDGE('',*,*,#843,.T.);
#920 = FACE_BOUND('',#921,.T.);
#921 = EDGE_LOOP('',(#922));
#922 = ORIENTED_EDGE('',*,*,#391,.F.);
#923 = PLANE('',#924);
#924 = AXIS2_PLACEMENT_3D('',#925,#926,#927);
#925 = CARTESIAN_POINT('',(120.,-1.E-15,-6.4));
#926 = DIRECTION('',(0.,0.,1.));
#927 = DIRECTION('',(1.,0.,0.));
#928 = ADVANCED_FACE('',(#929,#940),#943,.T.);
#929 = FACE_BOUND('',#930,.T.);
#930 = EDGE_LOOP('',(#931));
#931 = ORIENTED_EDGE('',*,*,#932,.T.);
#932 = EDGE_CURVE('',#933,#933,#935,.T.);
#933 = VERTEX_POINT('',#934);
#934 = CARTESIAN_POINT('',(18.5,15.5,-6.4));
#935 = CIRCLE('',#936,3.);
#936 = AXIS2_PLACEMENT_3D('',#937,#938,#939);
#937 = CARTESIAN_POINT('',(15.5,15.5,-6.4));
#938 = DIRECTION('',(0.,0.,1.));
#939 = DIRECTION('',(1.,0.,0.));
#940 = FACE_BOUND('',#941,.T.);
#941 = EDGE_LOOP('',(#942));
#942 = ORIENTED_EDGE('',*,*,#416,.F.);
#943 = PLANE('',#944);
#944 = AXIS2_PLACEMENT_3D('',#945,#946,#947);
#945 = CARTESIAN_POINT('',(15.5,15.5,-6.4));
#946 = DIRECTION('',(0.,0.,1.));
#947 = DIRECTION('',(1.,0.,0.));
#948 = ADVANCED_FACE('',(#949,#952),#955,.T.);
#949 = FACE_BOUND('',#950,.T.);
#950 = EDGE_LOOP('',(#951));
#951 = ORIENTED_EDGE('',*,*,#743,.T.);
#952 = FACE_BOUND('',#953,.T.);
#953 = EDGE_LOOP('',(#954));
#954 = ORIENTED_EDGE('',*,*,#441,.F.);
#955 = PLANE('',#956);
#956 = AXIS2_PLACEMENT_3D('',#957,#958,#959);
#957 = CARTESIAN_POINT('',(-60.,103.92304845413,-6.4));
#958 = DIRECTION('',(0.,0.,1.));
#959 = DIRECTION('',(-0.5,0.866025403784,0.));
#960 = ADVANCED_FACE('',(#961,#972),#975,.T.);
#961 = FACE_BOUND('',#962,.T.);
#962 = EDGE_LOOP('',(#963));
#963 = ORIENTED_EDGE('',*,*,#964,.T.);
#964 = EDGE_CURVE('',#965,#965,#967,.T.);
#965 = VERTEX_POINT('',#966);
#966 = CARTESIAN_POINT('',(-15.5,18.5,-6.4));
#967 = CIRCLE('',#968,3.);
#968 = AXIS2_PLACEMENT_3D('',#969,#970,#971);
#969 = CARTESIAN_POINT('',(-15.5,15.5,-6.4));
#970 = DIRECTION('',(0.,-0.,1.));
#971 = DIRECTION('',(0.,1.,0.));
#972 = FACE_BOUND('',#973,.T.);
#973 = EDGE_LOOP('',(#974));
#974 = ORIENTED_EDGE('',*,*,#466,.F.);
#975 = PLANE('',#976);
#976 = AXIS2_PLACEMENT_3D('',#977,#978,#979);
#977 = CARTESIAN_POINT('',(-15.5,15.5,-6.4));
#978 = DIRECTION('',(0.,0.,1.));
#979 = DIRECTION('',(0.,1.,0.));
#980 = ADVANCED_FACE('',(#981),#1000,.F.);
#981 = FACE_BOUND('',#982,.F.);
#982 = EDGE_LOOP('',(#983,#991,#998,#999));
#983 = ORIENTED_EDGE('',*,*,#984,.F.);
#984 = EDGE_CURVE('',#985,#484,#987,.T.);
#985 = VERTEX_POINT('',#986);
#986 = CARTESIAN_POINT('',(11.5,-1.E-15,-4.));
#987 = LINE('',#988,#989);
#988 = CARTESIAN_POINT('',(11.5,0.,-3.));
#989 = VECTOR('',#990,1.);
#990 = DIRECTION('',(0.,0.,-1.));
#991 = ORIENTED_EDGE('',*,*,#992,.T.);
#992 = EDGE_CURVE('',#985,#985,#993,.T.);
#993 = CIRCLE('',#994,11.5);
#994 = AXIS2_PLACEMENT_3D('',#995,#996,#997);
#995 = CARTESIAN_POINT('',(0.,-8.9E-16,-4.));
#996 = DIRECTION('',(0.,-2.2E-16,-1.));
#997 = DIRECTION('',(1.,0.,0.));
#998 = ORIENTED_EDGE('',*,*,#984,.T.);
#999 = ORIENTED_EDGE('',*,*,#493,.F.);
#1000 = CYLINDRICAL_SURFACE('',#1001,11.5);
#1001 = AXIS2_PLACEMENT_3D('',#1002,#1003,#1004);
#1002 = CARTESIAN_POINT('',(0.,-6.7E-16,-3.));
#1003 = DIRECTION('',(-0.,-2.2E-16,-1.));
#1004 = DIRECTION('',(1.,0.,0.));
#1005 = ADVANCED_FACE('',(#1006,#1009),#1012,.T.);
#1006 = FACE_BOUND('',#1007,.T.);
#1007 = EDGE_LOOP('',(#1008));
#1008 = ORIENTED_EDGE('',*,*,#768,.T.);
#1009 = FACE_BOUND('',#1010,.T.);
#1010 = EDGE_LOOP('',(#1011));
#1011 = ORIENTED_EDGE('',*,*,#516,.F.);
#1012 = PLANE('',#1013);
#1013 = AXIS2_PLACEMENT_3D('',#1014,#1015,#1016);
#1014 = CARTESIAN_POINT('',(-120.,0.,-6.4));
#1015 = DIRECTION('',(0.,0.,1.));
#1016 = DIRECTION('',(-1.,0.,0.));
#1017 = ADVANCED_FACE('',(#1018,#1029),#1032,.T.);
#1018 = FACE_BOUND('',#1019,.T.);
#1019 = EDGE_LOOP('',(#1020));
#1020 = ORIENTED_EDGE('',*,*,#1021,.T.);
#1021 = EDGE_CURVE('',#1022,#1022,#1024,.T.);
#1022 = VERTEX_POINT('',#1023);
#1023 = CARTESIAN_POINT('',(15.5,-18.5,-6.4));
#1024 = CIRCLE('',#1025,3.);
#1025 = AXIS2_PLACEMENT_3D('',#1026,#1027,#1028);
#1026 = CARTESIAN_POINT('',(15.5,-15.5,-6.4));
#1027 = DIRECTION('',(-0.,0.,1.));
#1028 = DIRECTION('',(0.,-1.,0.));
#1029 = FACE_BOUND('',#1030,.T.);
#1030 = EDGE_LOOP('',(#1031));
#1031 = ORIENTED_EDGE('',*,*,#541,.F.);
#1032 = PLANE('',#1033);
#1033 = AXIS2_PLACEMENT_3D('',#1034,#1035,#1036);
#1034 = CARTESIAN_POINT('',(15.5,-15.5,-6.4));
#1035 = DIRECTION('',(0.,0.,1.));
#1036 = DIRECTION('',(0.,-1.,0.));
#1037 = ADVANCED_FACE('',(#1038,#1041),#1044,.T.);
#1038 = FACE_BOUND('',#1039,.T.);
#1039 = EDGE_LOOP('',(#1040));
#1040 = ORIENTED_EDGE('',*,*,#893,.T.);
#1041 = FACE_BOUND('',#1042,.T.);
#1042 = EDGE_LOOP('',(#1043));
#1043 = ORIENTED_EDGE('',*,*,#566,.F.);
#1044 = PLANE('',#1045);
#1045 = AXIS2_PLACEMENT_3D('',#1046,#1047,#1048);
#1046 = CARTESIAN_POINT('',(60.,-103.9230484541,-6.4));
#1047 = DIRECTION('',(0.,0.,1.));
#1048 = DIRECTION('',(0.5,-0.866025403784,0.));
#1049 = ADVANCED_FACE('',(#1050,#1061),#1064,.T.);
#1050 = FACE_BOUND('',#1051,.T.);
#1051 = EDGE_LOOP('',(#1052));
#1052 = ORIENTED_EDGE('',*,*,#1053,.T.);
#1053 = EDGE_CURVE('',#1054,#1054,#1056,.T.);
#1054 = VERTEX_POINT('',#1055);
#1055 = CARTESIAN_POINT('',(-18.5,-15.5,-6.4));
#1056 = CIRCLE('',#1057,3.);
#1057 = AXIS2_PLACEMENT_3D('',#1058,#1059,#1060);
#1058 = CARTESIAN_POINT('',(-15.5,-15.5,-6.4));
#1059 = DIRECTION('',(0.,0.,1.));
#1060 = DIRECTION('',(-1.,0.,0.));
#1061 = FACE_BOUND('',#1062,.T.);
#1062 = EDGE_LOOP('',(#1063));
#1063 = ORIENTED_EDGE('',*,*,#591,.F.);
#1064 = PLANE('',#1065);
#1065 = AXIS2_PLACEMENT_3D('',#1066,#1067,#1068);
#1066 = CARTESIAN_POINT('',(-15.5,-15.5,-6.4));
#1067 = DIRECTION('',(0.,0.,1.));
#1068 = DIRECTION('',(-1.,0.,0.));
#1069 = ADVANCED_FACE('',(#1070,#1081,#1092,#1103,#1114,#1125,#1136),
  #1142,.F.);
#1070 = FACE_BOUND('',#1071,.F.);
#1071 = EDGE_LOOP('',(#1072));
#1072 = ORIENTED_EDGE('',*,*,#1073,.T.);
#1073 = EDGE_CURVE('',#1074,#1074,#1076,.T.);
#1074 = VERTEX_POINT('',#1075);
#1075 = CARTESIAN_POINT('',(101.5,-1.E-15,-3.));
#1076 = CIRCLE('',#1077,101.5);
#1077 = AXIS2_PLACEMENT_3D('',#1078,#1079,#1080);
#1078 = CARTESIAN_POINT('',(0.,-6.7E-16,-3.));
#1079 = DIRECTION('',(0.,-2.2E-16,-1.));
#1080 = DIRECTION('',(1.,0.,0.));
#1081 = FACE_BOUND('',#1082,.F.);
#1082 = EDGE_LOOP('',(#1083));
#1083 = ORIENTED_EDGE('',*,*,#1084,.T.);
#1084 = EDGE_CURVE('',#1085,#1085,#1087,.T.);
#1085 = VERTEX_POINT('',#1086);
#1086 = CARTESIAN_POINT('',(-15.5,18.5,-3.));
#1087 = CIRCLE('',#1088,3.);
#1088 = AXIS2_PLACEMENT_3D('',#1089,#1090,#1091);
#1089 = CARTESIAN_POINT('',(-15.5,15.5,-3.));
#1090 = DIRECTION('',(0.,-0.,1.));
#1091 = DIRECTION('',(0.,1.,0.));
#1092 = FACE_BOUND('',#1093,.F.);
#1093 = EDGE_LOOP('',(#1094));
#1094 = ORIENTED_EDGE('',*,*,#1095,.T.);
#1095 = EDGE_CURVE('',#1096,#1096,#1098,.T.);
#1096 = VERTEX_POINT('',#1097);
#1097 = CARTESIAN_POINT('',(-18.5,-15.5,-3.));
#1098 = CIRCLE('',#1099,3.);
#1099 = AXIS2_PLACEMENT_3D('',#1100,#1101,#1102);
#1100 = CARTESIAN_POINT('',(-15.5,-15.5,-3.));
#1101 = DIRECTION('',(0.,0.,1.));
#1102 = DIRECTION('',(-1.,0.,0.));
#1103 = FACE_BOUND('',#1104,.F.);
#1104 = EDGE_LOOP('',(#1105));
#1105 = ORIENTED_EDGE('',*,*,#1106,.T.);
#1106 = EDGE_CURVE('',#1107,#1107,#1109,.T.);
#1107 = VERTEX_POINT('',#1108);
#1108 = CARTESIAN_POINT('',(18.5,15.5,-3.));
#1109 = CIRCLE('',#1110,3.);
#1110 = AXIS2_PLACEMENT_3D('',#1111,#1112,#1113);
#1111 = CARTESIAN_POINT('',(15.5,15.5,-3.));
#1112 = DIRECTION('',(0.,0.,1.));
#1113 = DIRECTION('',(1.,0.,0.));
#1114 = FACE_BOUND('',#1115,.F.);
#1115 = EDGE_LOOP('',(#1116));
#1116 = ORIENTED_EDGE('',*,*,#1117,.F.);
#1117 = EDGE_CURVE('',#1118,#1118,#1120,.T.);
#1118 = VERTEX_POINT('',#1119);
#1119 = CARTESIAN_POINT('',(12.5,-1.E-15,-3.));
#1120 = CIRCLE('',#1121,12.5);
#1121 = AXIS2_PLACEMENT_3D('',#1122,#1123,#1124);
#1122 = CARTESIAN_POINT('',(0.,-6.7E-16,-3.));
#1123 = DIRECTION('',(0.,-2.2E-16,-1.));
#1124 = DIRECTION('',(1.,0.,0.));
#1125 = FACE_BOUND('',#1126,.F.);
#1126 = EDGE_LOOP('',(#1127));
#1127 = ORIENTED_EDGE('',*,*,#1128,.T.);
#1128 = EDGE_CURVE('',#1129,#1129,#1131,.T.);
#1129 = VERTEX_POINT('',#1130);
#1130 = CARTESIAN_POINT('',(15.5,-18.5,-3.));
#1131 = CIRCLE('',#1132,3.);
#1132 = AXIS2_PLACEMENT_3D('',#1133,#1134,#1135);
#1133 = CARTESIAN_POINT('',(15.5,-15.5,-3.));
#1134 = DIRECTION('',(-0.,0.,1.));
#1135 = DIRECTION('',(0.,-1.,0.));
#1136 = FACE_BOUND('',#1137,.F.);
#1137 = EDGE_LOOP('',(#1138,#1139,#1140,#1141));
#1138 = ORIENTED_EDGE('',*,*,#692,.F.);
#1139 = ORIENTED_EDGE('',*,*,#617,.F.);
#1140 = ORIENTED_EDGE('',*,*,#642,.T.);
#1141 = ORIENTED_EDGE('',*,*,#674,.F.);
#1142 = PLANE('',#1143);
#1143 = AXIS2_PLACEMENT_3D('',#1144,#1145,#1146);
#1144 = CARTESIAN_POINT('',(0.,-6.7E-16,-3.));
#1145 = DIRECTION('',(-0.,-2.2E-16,-1.));
#1146 = DIRECTION('',(1.,0.,0.));
#1147 = ADVANCED_FACE('',(#1148,#1151),#1154,.T.);
#1148 = FACE_BOUND('',#1149,.T.);
#1149 = EDGE_LOOP('',(#1150));
#1150 = ORIENTED_EDGE('',*,*,#868,.T.);
#1151 = FACE_BOUND('',#1152,.T.);
#1152 = EDGE_LOOP('',(#1153));
#1153 = ORIENTED_EDGE('',*,*,#716,.F.);
#1154 = PLANE('',#1155);
#1155 = AXIS2_PLACEMENT_3D('',#1156,#1157,#1158);
#1156 = CARTESIAN_POINT('',(-60.,-103.9230484541,-6.4));
#1157 = DIRECTION('',(0.,0.,1.));
#1158 = DIRECTION('',(-0.5,-0.866025403784,0.));
#1159 = ADVANCED_FACE('',(#1160),#1179,.T.);
#1160 = FACE_BOUND('',#1161,.F.);
#1161 = EDGE_LOOP('',(#1162,#1170,#1171,#1172));
#1162 = ORIENTED_EDGE('',*,*,#1163,.F.);
#1163 = EDGE_CURVE('',#809,#1164,#1166,.T.);
#1164 = VERTEX_POINT('',#1165);
#1165 = CARTESIAN_POINT('',(105.5,0.,0.));
#1166 = LINE('',#1167,#1168);
#1167 = CARTESIAN_POINT('',(106.5,-2.2E-16,-1.));
#1168 = VECTOR('',#1169,1.);
#1169 = DIRECTION('',(-0.707106781187,1.6E-16,0.707106781187));
#1170 = ORIENTED_EDGE('',*,*,#818,.T.);
#1171 = ORIENTED_EDGE('',*,*,#1163,.T.);
#1172 = ORIENTED_EDGE('',*,*,#1173,.F.);
#1173 = EDGE_CURVE('',#1164,#1164,#1174,.T.);
#1174 = CIRCLE('',#1175,105.5);
#1175 = AXIS2_PLACEMENT_3D('',#1176,#1177,#1178);
#1176 = CARTESIAN_POINT('',(0.,0.,0.));
#1177 = DIRECTION('',(0.,-2.2E-16,-1.));
#1178 = DIRECTION('',(1.,0.,0.));
#1179 = CONICAL_SURFACE('',#1180,106.5,0.785398163397);
#1180 = AXIS2_PLACEMENT_3D('',#1181,#1182,#1183);
#1181 = CARTESIAN_POINT('',(0.,-2.2E-16,-1.));
#1182 = DIRECTION('',(-0.,-2.2E-16,-1.));
#1183 = DIRECTION('',(1.,0.,0.));
#1184 = ADVANCED_FACE('',(#1185),#1196,.F.);
#1185 = FACE_BOUND('',#1186,.T.);
#1186 = EDGE_LOOP('',(#1187,#1193,#1194,#1195));
#1187 = ORIENTED_EDGE('',*,*,#1188,.F.);
#1188 = EDGE_CURVE('',#1107,#933,#1189,.T.);
#1189 = LINE('',#1190,#1191);
#1190 = CARTESIAN_POINT('',(18.5,15.5,-3.));
#1191 = VECTOR('',#1192,1.);
#1192 = DIRECTION('',(0.,0.,-1.));
#1193 = ORIENTED_EDGE('',*,*,#1106,.T.);
#1194 = ORIENTED_EDGE('',*,*,#1188,.T.);
#1195 = ORIENTED_EDGE('',*,*,#932,.F.);
#1196 = CYLINDRICAL_SURFACE('',#1197,3.);
#1197 = AXIS2_PLACEMENT_3D('',#1198,#1199,#1200);
#1198 = CARTESIAN_POINT('',(15.5,15.5,-3.));
#1199 = DIRECTION('',(-0.,-0.,-1.));
#1200 = DIRECTION('',(1.,0.,0.));
#1201 = ADVANCED_FACE('',(#1202),#1213,.F.);
#1202 = FACE_BOUND('',#1203,.T.);
#1203 = EDGE_LOOP('',(#1204,#1210,#1211,#1212));
#1204 = ORIENTED_EDGE('',*,*,#1205,.F.);
#1205 = EDGE_CURVE('',#1085,#965,#1206,.T.);
#1206 = LINE('',#1207,#1208);
#1207 = CARTESIAN_POINT('',(-15.5,18.5,-3.));
#1208 = VECTOR('',#1209,1.);
#1209 = DIRECTION('',(0.,0.,-1.));
#1210 = ORIENTED_EDGE('',*,*,#1084,.T.);
#1211 = ORIENTED_EDGE('',*,*,#1205,.T.);
#1212 = ORIENTED_EDGE('',*,*,#964,.F.);
#1213 = CYLINDRICAL_SURFACE('',#1214,3.);
#1214 = AXIS2_PLACEMENT_3D('',#1215,#1216,#1217);
#1215 = CARTESIAN_POINT('',(-15.5,15.5,-3.));
#1216 = DIRECTION('',(0.,-0.,-1.));
#1217 = DIRECTION('',(0.,1.,0.));
#1218 = ADVANCED_FACE('',(#1219),#1230,.F.);
#1219 = FACE_BOUND('',#1220,.T.);
#1220 = EDGE_LOOP('',(#1221,#1227,#1228,#1229));
#1221 = ORIENTED_EDGE('',*,*,#1222,.F.);
#1222 = EDGE_CURVE('',#985,#1118,#1223,.T.);
#1223 = LINE('',#1224,#1225);
#1224 = CARTESIAN_POINT('',(11.5,-8.9E-16,-4.));
#1225 = VECTOR('',#1226,1.);
#1226 = DIRECTION('',(0.707106781187,1.6E-16,0.707106781187));
#1227 = ORIENTED_EDGE('',*,*,#992,.T.);
#1228 = ORIENTED_EDGE('',*,*,#1222,.T.);
#1229 = ORIENTED_EDGE('',*,*,#1117,.F.);
#1230 = CONICAL_SURFACE('',#1231,11.5,0.785398163397);
#1231 = AXIS2_PLACEMENT_3D('',#1232,#1233,#1234);
#1232 = CARTESIAN_POINT('',(0.,-8.9E-16,-4.));
#1233 = DIRECTION('',(0.,2.2E-16,1.));
#1234 = DIRECTION('',(1.,0.,0.));
#1235 = ADVANCED_FACE('',(#1236),#1247,.F.);
#1236 = FACE_BOUND('',#1237,.T.);
#1237 = EDGE_LOOP('',(#1238,#1244,#1245,#1246));
#1238 = ORIENTED_EDGE('',*,*,#1239,.F.);
#1239 = EDGE_CURVE('',#1129,#1022,#1240,.T.);
#1240 = LINE('',#1241,#1242);
#1241 = CARTESIAN_POINT('',(15.5,-18.5,-3.));
#1242 = VECTOR('',#1243,1.);
#1243 = DIRECTION('',(0.,0.,-1.));
#1244 = ORIENTED_EDGE('',*,*,#1128,.T.);
#1245 = ORIENTED_EDGE('',*,*,#1239,.T.);
#1246 = ORIENTED_EDGE('',*,*,#1021,.F.);
#1247 = CYLINDRICAL_SURFACE('',#1248,3.);
#1248 = AXIS2_PLACEMENT_3D('',#1249,#1250,#1251);
#1249 = CARTESIAN_POINT('',(15.5,-15.5,-3.));
#1250 = DIRECTION('',(-0.,0.,-1.));
#1251 = DIRECTION('',(0.,-1.,0.));
#1252 = ADVANCED_FACE('',(#1253),#1264,.F.);
#1253 = FACE_BOUND('',#1254,.T.);
#1254 = EDGE_LOOP('',(#1255,#1261,#1262,#1263));
#1255 = ORIENTED_EDGE('',*,*,#1256,.F.);
#1256 = EDGE_CURVE('',#1096,#1054,#1257,.T.);
#1257 = LINE('',#1258,#1259);
#1258 = CARTESIAN_POINT('',(-18.5,-15.5,-3.));
#1259 = VECTOR('',#1260,1.);
#1260 = DIRECTION('',(0.,0.,-1.));
#1261 = ORIENTED_EDGE('',*,*,#1095,.T.);
#1262 = ORIENTED_EDGE('',*,*,#1256,.T.);
#1263 = ORIENTED_EDGE('',*,*,#1053,.F.);
#1264 = CYLINDRICAL_SURFACE('',#1265,3.);
#1265 = AXIS2_PLACEMENT_3D('',#1266,#1267,#1268);
#1266 = CARTESIAN_POINT('',(-15.5,-15.5,-3.));
#1267 = DIRECTION('',(0.,0.,-1.));
#1268 = DIRECTION('',(-1.,0.,0.));
#1269 = ADVANCED_FACE('',(#1270),#1289,.F.);
#1270 = FACE_BOUND('',#1271,.F.);
#1271 = EDGE_LOOP('',(#1272,#1280,#1287,#1288));
#1272 = ORIENTED_EDGE('',*,*,#1273,.F.);
#1273 = EDGE_CURVE('',#1274,#1074,#1276,.T.);
#1274 = VERTEX_POINT('',#1275);
#1275 = CARTESIAN_POINT('',(101.5,0.,-1.));
#1276 = LINE('',#1277,#1278);
#1277 = CARTESIAN_POINT('',(101.5,0.,0.));
#1278 = VECTOR('',#1279,1.);
#1279 = DIRECTION('',(0.,0.,-1.));
#1280 = ORIENTED_EDGE('',*,*,#1281,.T.);
#1281 = EDGE_CURVE('',#1274,#1274,#1282,.T.);
#1282 = CIRCLE('',#1283,101.5);
#1283 = AXIS2_PLACEMENT_3D('',#1284,#1285,#1286);
#1284 = CARTESIAN_POINT('',(0.,-2.2E-16,-1.));
#1285 = DIRECTION('',(0.,-2.2E-16,-1.));
#1286 = DIRECTION('',(1.,0.,0.));
#1287 = ORIENTED_EDGE('',*,*,#1273,.T.);
#1288 = ORIENTED_EDGE('',*,*,#1073,.F.);
#1289 = CYLINDRICAL_SURFACE('',#1290,101.5);
#1290 = AXIS2_PLACEMENT_3D('',#1291,#1292,#1293);
#1291 = CARTESIAN_POINT('',(0.,0.,0.));
#1292 = DIRECTION('',(-0.,-2.2E-16,-1.));
#1293 = DIRECTION('',(1.,0.,0.));
#1294 = ADVANCED_FACE('',(#1295,#1298),#1309,.F.);
#1295 = FACE_BOUND('',#1296,.F.);
#1296 = EDGE_LOOP('',(#1297));
#1297 = ORIENTED_EDGE('',*,*,#1173,.T.);
#1298 = FACE_BOUND('',#1299,.F.);
#1299 = EDGE_LOOP('',(#1300));
#1300 = ORIENTED_EDGE('',*,*,#1301,.F.);
#1301 = EDGE_CURVE('',#1302,#1302,#1304,.T.);
#1302 = VERTEX_POINT('',#1303);
#1303 = CARTESIAN_POINT('',(102.5,0.,0.));
#1304 = CIRCLE('',#1305,102.5);
#1305 = AXIS2_PLACEMENT_3D('',#1306,#1307,#1308);
#1306 = CARTESIAN_POINT('',(0.,0.,0.));
#1307 = DIRECTION('',(0.,-2.2E-16,-1.));
#1308 = DIRECTION('',(1.,0.,0.));
#1309 = PLANE('',#1310);
#1310 = AXIS2_PLACEMENT_3D('',#1311,#1312,#1313);
#1311 = CARTESIAN_POINT('',(0.,0.,0.));
#1312 = DIRECTION('',(-0.,-2.2E-16,-1.));
#1313 = DIRECTION('',(1.,0.,0.));
#1314 = ADVANCED_FACE('',(#1315),#1326,.F.);
#1315 = FACE_BOUND('',#1316,.F.);
#1316 = EDGE_LOOP('',(#1317,#1323,#1324,#1325));
#1317 = ORIENTED_EDGE('',*,*,#1318,.F.);
#1318 = EDGE_CURVE('',#1302,#1274,#1319,.T.);
#1319 = LINE('',#1320,#1321);
#1320 = CARTESIAN_POINT('',(101.5,-2.2E-16,-1.));
#1321 = VECTOR('',#1322,1.);
#1322 = DIRECTION('',(-0.707106781187,-1.6E-16,-0.707106781187));
#1323 = ORIENTED_EDGE('',*,*,#1301,.T.);
#1324 = ORIENTED_EDGE('',*,*,#1318,.T.);
#1325 = ORIENTED_EDGE('',*,*,#1281,.F.);
#1326 = CONICAL_SURFACE('',#1327,101.5,0.785398163397);
#1327 = AXIS2_PLACEMENT_3D('',#1328,#1329,#1330);
#1328 = CARTESIAN_POINT('',(0.,-2.2E-16,-1.));
#1329 = DIRECTION('',(0.,2.2E-16,1.));
#1330 = DIRECTION('',(1.,0.,0.));
#1331 = ( GEOMETRIC_REPRESENTATION_CONTEXT(3) 
GLOBAL_UNCERTAINTY_ASSIGNED_CONTEXT((#1335)) 
GLOBAL_UNIT_ASSIGNED_CONTEXT((#1332,#1333,#1334)) REPRESENTATION_CONTEXT
('Context #1','3D Context with UNIT and UNCERTAINTY') );
#1332 = ( LENGTH_UNIT() NAMED_UNIT(*) SI_UNIT(.MILLI.,.METRE.) );
#1333 = ( NAMED_UNIT(*) PLANE_ANGLE_UNIT() SI_UNIT($,.RADIAN.) );
#1334 = ( NAMED_UNIT(*) SI_UNIT($,.STERADIAN.) SOLID_ANGLE_UNIT() );
#1335 = UNCERTAINTY_MEASURE_WITH_UNIT(LENGTH_MEASURE(1.E-07),#1332,
  'distance_accuracy_value','confusion accuracy');
#1336 = PRODUCT_RELATED_PRODUCT_CATEGORY('part',$,(#7));
#1337 = MECHANICAL_DESIGN_GEOMETRIC_PRESENTATION_REPRESENTATION('',(
    #1338),#1331);
#1338 = STYLED_ITEM('color',(#1339),#15);
#1339 = PRESENTATION_STYLE_ASSIGNMENT((#1340,#1346));
#1340 = SURFACE_STYLE_USAGE(.BOTH.,#1341);
#1341 = SURFACE_SIDE_STYLE('',(#1342));
#1342 = SURFACE_STYLE_FILL_AREA(#1343);
#1343 = FILL_AREA_STYLE('',(#1344));
#1344 = FILL_AREA_STYLE_COLOUR('',#1345);
#1345 = COLOUR_RGB('',0.274509816483,0.635294146748,0.156862749342);
#1346 = CURVE_STYLE('',#1347,POSITIVE_LENGTH_MEASURE(0.1),#1348);
#1347 = DRAUGHTING_PRE_DEFINED_CURVE_FONT('continuous');
#1348 = COLOUR_RGB('',9.803921802644E-02,9.803921802644E-02,
  9.803921802644E-02);
ENDSEC;
END-ISO-10303-21;
