ISO-10303-21;
HEADER;
FILE_DESCRIPTION(('FreeCAD Model'),'2;1');
FILE_NAME('Open CASCADE Shape Model','2026-07-21T18:51:53',(''),(''),
  'Open CASCADE STEP processor 7.9','FreeCAD','Unknown');
FILE_SCHEMA(('AUTOMOTIVE_DESIGN { 1 0 10303 214 1 1 1 1 }'));
ENDSEC;
DATA;
#1 = APPLICATION_PROTOCOL_DEFINITION('international standard',
  'automotive_design',2000,#2);
#2 = APPLICATION_CONTEXT(
  'core data for automotive mechanical design processes');
#3 = SHAPE_DEFINITION_REPRESENTATION(#4,#10);
#4 = PRODUCT_DEFINITION_SHAPE('','',#5);
#5 = PRODUCT_DEFINITION('design','',#6,#9);
#6 = PRODUCT_DEFINITION_FORMATION('','',#7);
#7 = PRODUCT('VisorPlane','VisorPlane','',(#8));
#8 = PRODUCT_CONTEXT('',#2,'mechanical');
#9 = PRODUCT_DEFINITION_CONTEXT('part definition',#2,'design');
#10 = ADVANCED_BREP_SHAPE_REPRESENTATION('',(#11,#15),#563);
#11 = AXIS2_PLACEMENT_3D('',#12,#13,#14);
#12 = CARTESIAN_POINT('',(0.,0.,0.));
#13 = DIRECTION('',(0.,0.,1.));
#14 = DIRECTION('',(1.,0.,-0.));
#15 = MANIFOLD_SOLID_BREP('',#16);
#16 = CLOSED_SHELL('',(#17,#59,#90,#122,#191,#215,#239,#257,#326,#343,
    #368,#385,#410,#427,#439,#464,#489,#509,#529,#546));
#17 = ADVANCED_FACE('',(#18),#54,.T.);
#18 = FACE_BOUND('',#19,.T.);
#19 = EDGE_LOOP('',(#20,#30,#39,#47));
#20 = ORIENTED_EDGE('',*,*,#21,.T.);
#21 = EDGE_CURVE('',#22,#24,#26,.T.);
#22 = VERTEX_POINT('',#23);
#23 = CARTESIAN_POINT('',(-70.,57.,205.));
#24 = VERTEX_POINT('',#25);
#25 = CARTESIAN_POINT('',(-70.,62.,205.));
#26 = LINE('',#27,#28);
#27 = CARTESIAN_POINT('',(-70.,56.,205.));
#28 = VECTOR('',#29,1.);
#29 = DIRECTION('',(0.,1.,-2.2E-16));
#30 = ORIENTED_EDGE('',*,*,#31,.T.);
#31 = EDGE_CURVE('',#24,#32,#34,.T.);
#32 = VERTEX_POINT('',#33);
#33 = CARTESIAN_POINT('',(-70.,62.,140.00000000001));
#34 = CIRCLE('',#35,32.499999999991);
#35 = AXIS2_PLACEMENT_3D('',#36,#37,#38);
#36 = CARTESIAN_POINT('',(-70.,62.,172.5));
#37 = DIRECTION('',(0.,-1.,0.));
#38 = DIRECTION('',(1.,0.,0.));
#39 = ORIENTED_EDGE('',*,*,#40,.F.);
#40 = EDGE_CURVE('',#41,#32,#43,.T.);
#41 = VERTEX_POINT('',#42);
#42 = CARTESIAN_POINT('',(-70.,57.,140.00000000001));
#43 = LINE('',#44,#45);
#44 = CARTESIAN_POINT('',(-70.,56.,140.00000000001));
#45 = VECTOR('',#46,1.);
#46 = DIRECTION('',(0.,1.,-2.2E-16));
#47 = ORIENTED_EDGE('',*,*,#48,.F.);
#48 = EDGE_CURVE('',#22,#41,#49,.T.);
#49 = CIRCLE('',#50,32.499999999991);
#50 = AXIS2_PLACEMENT_3D('',#51,#52,#53);
#51 = CARTESIAN_POINT('',(-70.,57.,172.5));
#52 = DIRECTION('',(-0.,-1.,0.));
#53 = DIRECTION('',(-6.603E-14,0.,1.));
#54 = CYLINDRICAL_SURFACE('',#55,32.499999999991);
#55 = AXIS2_PLACEMENT_3D('',#56,#57,#58);
#56 = CARTESIAN_POINT('',(-70.,56.,172.5));
#57 = DIRECTION('',(0.,-1.,2.2E-16));
#58 = DIRECTION('',(1.,0.,0.));
#59 = ADVANCED_FACE('',(#60),#85,.F.);
#60 = FACE_BOUND('',#61,.F.);
#61 = EDGE_LOOP('',(#62,#63,#71,#79));
#62 = ORIENTED_EDGE('',*,*,#21,.T.);
#63 = ORIENTED_EDGE('',*,*,#64,.T.);
#64 = EDGE_CURVE('',#24,#65,#67,.T.);
#65 = VERTEX_POINT('',#66);
#66 = CARTESIAN_POINT('',(69.999999999965,62.,205.));
#67 = LINE('',#68,#69);
#68 = CARTESIAN_POINT('',(-70.,62.,205.));
#69 = VECTOR('',#70,1.);
#70 = DIRECTION('',(1.,0.,2.84E-15));
#71 = ORIENTED_EDGE('',*,*,#72,.F.);
#72 = EDGE_CURVE('',#73,#65,#75,.T.);
#73 = VERTEX_POINT('',#74);
#74 = CARTESIAN_POINT('',(69.999999999965,57.,205.));
#75 = LINE('',#76,#77);
#76 = CARTESIAN_POINT('',(69.999999999965,56.,205.));
#77 = VECTOR('',#78,1.);
#78 = DIRECTION('',(0.,1.,-2.2E-16));
#79 = ORIENTED_EDGE('',*,*,#80,.T.);
#80 = EDGE_CURVE('',#73,#22,#81,.T.);
#81 = LINE('',#82,#83);
#82 = CARTESIAN_POINT('',(69.999999999965,57.,205.));
#83 = VECTOR('',#84,1.);
#84 = DIRECTION('',(-1.,-0.,-2.84E-15));
#85 = PLANE('',#86);
#86 = AXIS2_PLACEMENT_3D('',#87,#88,#89);
#87 = CARTESIAN_POINT('',(-70.,56.,205.));
#88 = DIRECTION('',(2.84E-15,-2.2E-16,-1.));
#89 = DIRECTION('',(1.,0.,2.84E-15));
#90 = ADVANCED_FACE('',(#91),#117,.T.);
#91 = FACE_BOUND('',#92,.T.);
#92 = EDGE_LOOP('',(#93,#101,#102,#110));
#93 = ORIENTED_EDGE('',*,*,#94,.F.);
#94 = EDGE_CURVE('',#22,#95,#97,.T.);
#95 = VERTEX_POINT('',#96);
#96 = CARTESIAN_POINT('',(-70.,56.,204.));
#97 = LINE('',#98,#99);
#98 = CARTESIAN_POINT('',(-70.,57.,205.));
#99 = VECTOR('',#100,1.);
#100 = DIRECTION('',(4.653E-14,-0.707106781187,-0.707106781187));
#101 = ORIENTED_EDGE('',*,*,#48,.T.);
#102 = ORIENTED_EDGE('',*,*,#103,.T.);
#103 = EDGE_CURVE('',#41,#104,#106,.T.);
#104 = VERTEX_POINT('',#105);
#105 = CARTESIAN_POINT('',(-70.,56.,141.00000000001));
#106 = LINE('',#107,#108);
#107 = CARTESIAN_POINT('',(-70.,57.,140.00000000001));
#108 = VECTOR('',#109,1.);
#109 = DIRECTION('',(1.7604E-13,-0.707106781187,0.707106781187));
#110 = ORIENTED_EDGE('',*,*,#111,.F.);
#111 = EDGE_CURVE('',#95,#104,#112,.T.);
#112 = CIRCLE('',#113,31.499999999991);
#113 = AXIS2_PLACEMENT_3D('',#114,#115,#116);
#114 = CARTESIAN_POINT('',(-70.,56.,172.5));
#115 = DIRECTION('',(-0.,-1.,0.));
#116 = DIRECTION('',(-6.603E-14,0.,1.));
#117 = CONICAL_SURFACE('',#118,32.499999999991,0.785398163397);
#118 = AXIS2_PLACEMENT_3D('',#119,#120,#121);
#119 = CARTESIAN_POINT('',(-70.,57.,172.5));
#120 = DIRECTION('',(0.,1.,0.));
#121 = DIRECTION('',(-6.603E-14,0.,1.));
#122 = ADVANCED_FACE('',(#123,#142,#153,#164,#175),#186,.T.);
#123 = FACE_BOUND('',#124,.T.);
#124 = EDGE_LOOP('',(#125,#126,#127,#136));
#125 = ORIENTED_EDGE('',*,*,#31,.F.);
#126 = ORIENTED_EDGE('',*,*,#64,.T.);
#127 = ORIENTED_EDGE('',*,*,#128,.F.);
#128 = EDGE_CURVE('',#129,#65,#131,.T.);
#129 = VERTEX_POINT('',#130);
#130 = CARTESIAN_POINT('',(69.999999999964,62.,140.00000000001));
#131 = CIRCLE('',#132,32.499999999991);
#132 = AXIS2_PLACEMENT_3D('',#133,#134,#135);
#133 = CARTESIAN_POINT('',(69.999999999965,62.,172.5));
#134 = DIRECTION('',(0.,-1.,0.));
#135 = DIRECTION('',(1.,0.,0.));
#136 = ORIENTED_EDGE('',*,*,#137,.F.);
#137 = EDGE_CURVE('',#32,#129,#138,.T.);
#138 = LINE('',#139,#140);
#139 = CARTESIAN_POINT('',(-70.,62.,140.00000000001));
#140 = VECTOR('',#141,1.);
#141 = DIRECTION('',(1.,0.,-1.83E-15));
#142 = FACE_BOUND('',#143,.T.);
#143 = EDGE_LOOP('',(#144));
#144 = ORIENTED_EDGE('',*,*,#145,.F.);
#145 = EDGE_CURVE('',#146,#146,#148,.T.);
#146 = VERTEX_POINT('',#147);
#147 = CARTESIAN_POINT('',(-93.5,62.,172.5));
#148 = CIRCLE('',#149,3.);
#149 = AXIS2_PLACEMENT_3D('',#150,#151,#152);
#150 = CARTESIAN_POINT('',(-96.5,62.,172.5));
#151 = DIRECTION('',(0.,1.,-2.2E-16));
#152 = DIRECTION('',(1.,0.,0.));
#153 = FACE_BOUND('',#154,.T.);
#154 = EDGE_LOOP('',(#155));
#155 = ORIENTED_EDGE('',*,*,#156,.F.);
#156 = EDGE_CURVE('',#157,#157,#159,.T.);
#157 = VERTEX_POINT('',#158);
#158 = CARTESIAN_POINT('',(-80.5,62.,172.5));
#159 = CIRCLE('',#160,30.5);
#160 = AXIS2_PLACEMENT_3D('',#161,#162,#163);
#161 = CARTESIAN_POINT('',(-50.,62.,172.5));
#162 = DIRECTION('',(0.,1.,-0.));
#163 = DIRECTION('',(-1.,0.,0.));
#164 = FACE_BOUND('',#165,.T.);
#165 = EDGE_LOOP('',(#166));
#166 = ORIENTED_EDGE('',*,*,#167,.F.);
#167 = EDGE_CURVE('',#168,#168,#170,.T.);
#168 = VERTEX_POINT('',#169);
#169 = CARTESIAN_POINT('',(99.5,62.,172.5));
#170 = CIRCLE('',#171,3.);
#171 = AXIS2_PLACEMENT_3D('',#172,#173,#174);
#172 = CARTESIAN_POINT('',(96.5,62.,172.5));
#173 = DIRECTION('',(0.,1.,-2.2E-16));
#174 = DIRECTION('',(1.,0.,0.));
#175 = FACE_BOUND('',#176,.T.);
#176 = EDGE_LOOP('',(#177));
#177 = ORIENTED_EDGE('',*,*,#178,.F.);
#178 = EDGE_CURVE('',#179,#179,#181,.T.);
#179 = VERTEX_POINT('',#180);
#180 = CARTESIAN_POINT('',(19.5,62.,172.5));
#181 = CIRCLE('',#182,30.5);
#182 = AXIS2_PLACEMENT_3D('',#183,#184,#185);
#183 = CARTESIAN_POINT('',(50.,62.,172.5));
#184 = DIRECTION('',(0.,1.,-0.));
#185 = DIRECTION('',(-1.,0.,0.));
#186 = PLANE('',#187);
#187 = AXIS2_PLACEMENT_3D('',#188,#189,#190);
#188 = CARTESIAN_POINT('',(-1.769589E-11,62.,172.5));
#189 = DIRECTION('',(0.,1.,0.));
#190 = DIRECTION('',(0.,0.,1.));
#191 = ADVANCED_FACE('',(#192),#210,.T.);
#192 = FACE_BOUND('',#193,.T.);
#193 = EDGE_LOOP('',(#194,#195,#196,#204));
#194 = ORIENTED_EDGE('',*,*,#40,.T.);
#195 = ORIENTED_EDGE('',*,*,#137,.T.);
#196 = ORIENTED_EDGE('',*,*,#197,.F.);
#197 = EDGE_CURVE('',#198,#129,#200,.T.);
#198 = VERTEX_POINT('',#199);
#199 = CARTESIAN_POINT('',(69.999999999964,57.,140.00000000001));
#200 = LINE('',#201,#202);
#201 = CARTESIAN_POINT('',(69.999999999964,56.,140.00000000001));
#202 = VECTOR('',#203,1.);
#203 = DIRECTION('',(0.,1.,-2.2E-16));
#204 = ORIENTED_EDGE('',*,*,#205,.F.);
#205 = EDGE_CURVE('',#41,#198,#206,.T.);
#206 = LINE('',#207,#208);
#207 = CARTESIAN_POINT('',(-70.,57.,140.00000000001));
#208 = VECTOR('',#209,1.);
#209 = DIRECTION('',(1.,0.,-1.83E-15));
#210 = PLANE('',#211);
#211 = AXIS2_PLACEMENT_3D('',#212,#213,#214);
#212 = CARTESIAN_POINT('',(-70.,56.,140.00000000001));
#213 = DIRECTION('',(-1.83E-15,-2.2E-16,-1.));
#214 = DIRECTION('',(1.,0.,-1.83E-15));
#215 = ADVANCED_FACE('',(#216),#234,.T.);
#216 = FACE_BOUND('',#217,.T.);
#217 = EDGE_LOOP('',(#218,#226,#227,#228));
#218 = ORIENTED_EDGE('',*,*,#219,.F.);
#219 = EDGE_CURVE('',#73,#220,#222,.T.);
#220 = VERTEX_POINT('',#221);
#221 = CARTESIAN_POINT('',(69.999999999965,56.,204.));
#222 = LINE('',#223,#224);
#223 = CARTESIAN_POINT('',(69.999999999965,57.,205.));
#224 = VECTOR('',#225,1.);
#225 = DIRECTION('',(7.33E-15,-0.707106781187,-0.707106781187));
#226 = ORIENTED_EDGE('',*,*,#80,.T.);
#227 = ORIENTED_EDGE('',*,*,#94,.T.);
#228 = ORIENTED_EDGE('',*,*,#229,.F.);
#229 = EDGE_CURVE('',#220,#95,#230,.T.);
#230 = LINE('',#231,#232);
#231 = CARTESIAN_POINT('',(69.999999999965,56.,204.));
#232 = VECTOR('',#233,1.);
#233 = DIRECTION('',(-1.,-0.,-2.84E-15));
#234 = PLANE('',#235);
#235 = AXIS2_PLACEMENT_3D('',#236,#237,#238);
#236 = CARTESIAN_POINT('',(69.999999999965,56.5,204.5));
#237 = DIRECTION('',(-4.02E-15,-0.707106781187,0.707106781187));
#238 = DIRECTION('',(-1.,1.41756926037E-15,-4.26756926037E-15));
#239 = ADVANCED_FACE('',(#240),#252,.T.);
#240 = FACE_BOUND('',#241,.T.);
#241 = EDGE_LOOP('',(#242,#243,#244,#245));
#242 = ORIENTED_EDGE('',*,*,#197,.T.);
#243 = ORIENTED_EDGE('',*,*,#128,.T.);
#244 = ORIENTED_EDGE('',*,*,#72,.F.);
#245 = ORIENTED_EDGE('',*,*,#246,.F.);
#246 = EDGE_CURVE('',#198,#73,#247,.T.);
#247 = CIRCLE('',#248,32.499999999991);
#248 = AXIS2_PLACEMENT_3D('',#249,#250,#251);
#249 = CARTESIAN_POINT('',(69.999999999965,57.,172.5));
#250 = DIRECTION('',(0.,-1.,-0.));
#251 = DIRECTION('',(-1.0319E-13,0.,-1.));
#252 = CYLINDRICAL_SURFACE('',#253,32.499999999991);
#253 = AXIS2_PLACEMENT_3D('',#254,#255,#256);
#254 = CARTESIAN_POINT('',(69.999999999965,56.,172.5));
#255 = DIRECTION('',(0.,-1.,2.2E-16));
#256 = DIRECTION('',(1.,0.,0.));
#257 = ADVANCED_FACE('',(#258,#277,#288,#299,#310),#321,.F.);
#258 = FACE_BOUND('',#259,.F.);
#259 = EDGE_LOOP('',(#260,#261,#262,#271));
#260 = ORIENTED_EDGE('',*,*,#111,.F.);
#261 = ORIENTED_EDGE('',*,*,#229,.F.);
#262 = ORIENTED_EDGE('',*,*,#263,.F.);
#263 = EDGE_CURVE('',#264,#220,#266,.T.);
#264 = VERTEX_POINT('',#265);
#265 = CARTESIAN_POINT('',(69.999999999964,56.,141.00000000001));
#266 = CIRCLE('',#267,31.499999999991);
#267 = AXIS2_PLACEMENT_3D('',#268,#269,#270);
#268 = CARTESIAN_POINT('',(69.999999999965,56.,172.5));
#269 = DIRECTION('',(0.,-1.,-0.));
#270 = DIRECTION('',(-1.0319E-13,0.,-1.));
#271 = ORIENTED_EDGE('',*,*,#272,.F.);
#272 = EDGE_CURVE('',#104,#264,#273,.T.);
#273 = LINE('',#274,#275);
#274 = CARTESIAN_POINT('',(-70.,56.,141.00000000001));
#275 = VECTOR('',#276,1.);
#276 = DIRECTION('',(1.,0.,-1.83E-15));
#277 = FACE_BOUND('',#278,.F.);
#278 = EDGE_LOOP('',(#279));
#279 = ORIENTED_EDGE('',*,*,#280,.T.);
#280 = EDGE_CURVE('',#281,#281,#283,.T.);
#281 = VERTEX_POINT('',#282);
#282 = CARTESIAN_POINT('',(-93.8,56.,172.5));
#283 = CIRCLE('',#284,2.7);
#284 = AXIS2_PLACEMENT_3D('',#285,#286,#287);
#285 = CARTESIAN_POINT('',(-96.5,56.,172.5));
#286 = DIRECTION('',(0.,-1.,0.));
#287 = DIRECTION('',(1.,0.,0.));
#288 = FACE_BOUND('',#289,.F.);
#289 = EDGE_LOOP('',(#290));
#290 = ORIENTED_EDGE('',*,*,#291,.F.);
#291 = EDGE_CURVE('',#292,#292,#294,.T.);
#292 = VERTEX_POINT('',#293);
#293 = CARTESIAN_POINT('',(-80.5,56.,172.5));
#294 = CIRCLE('',#295,30.5);
#295 = AXIS2_PLACEMENT_3D('',#296,#297,#298);
#296 = CARTESIAN_POINT('',(-50.,56.,172.5));
#297 = DIRECTION('',(0.,1.,-2.2E-16));
#298 = DIRECTION('',(-1.,0.,0.));
#299 = FACE_BOUND('',#300,.F.);
#300 = EDGE_LOOP('',(#301));
#301 = ORIENTED_EDGE('',*,*,#302,.T.);
#302 = EDGE_CURVE('',#303,#303,#305,.T.);
#303 = VERTEX_POINT('',#304);
#304 = CARTESIAN_POINT('',(99.2,56.,172.5));
#305 = CIRCLE('',#306,2.7);
#306 = AXIS2_PLACEMENT_3D('',#307,#308,#309);
#307 = CARTESIAN_POINT('',(96.5,56.,172.5));
#308 = DIRECTION('',(0.,-1.,0.));
#309 = DIRECTION('',(1.,0.,0.));
#310 = FACE_BOUND('',#311,.F.);
#311 = EDGE_LOOP('',(#312));
#312 = ORIENTED_EDGE('',*,*,#313,.F.);
#313 = EDGE_CURVE('',#314,#314,#316,.T.);
#314 = VERTEX_POINT('',#315);
#315 = CARTESIAN_POINT('',(19.5,56.,172.5));
#316 = CIRCLE('',#317,30.5);
#317 = AXIS2_PLACEMENT_3D('',#318,#319,#320);
#318 = CARTESIAN_POINT('',(50.,56.,172.5));
#319 = DIRECTION('',(0.,1.,-2.2E-16));
#320 = DIRECTION('',(-1.,0.,0.));
#321 = PLANE('',#322);
#322 = AXIS2_PLACEMENT_3D('',#323,#324,#325);
#323 = CARTESIAN_POINT('',(-1.769589E-11,56.,172.5));
#324 = DIRECTION('',(0.,1.,0.));
#325 = DIRECTION('',(0.,0.,1.));
#326 = ADVANCED_FACE('',(#327),#338,.F.);
#327 = FACE_BOUND('',#328,.T.);
#328 = EDGE_LOOP('',(#329,#330,#331,#337));
#329 = ORIENTED_EDGE('',*,*,#103,.F.);
#330 = ORIENTED_EDGE('',*,*,#205,.T.);
#331 = ORIENTED_EDGE('',*,*,#332,.T.);
#332 = EDGE_CURVE('',#198,#264,#333,.T.);
#333 = LINE('',#334,#335);
#334 = CARTESIAN_POINT('',(69.999999999964,56.5,140.50000000001));
#335 = VECTOR('',#336,1.);
#336 = DIRECTION('',(1.29E-15,-0.707106781187,0.707106781187));
#337 = ORIENTED_EDGE('',*,*,#272,.F.);
#338 = PLANE('',#339);
#339 = AXIS2_PLACEMENT_3D('',#340,#341,#342);
#340 = CARTESIAN_POINT('',(-70.,56.5,140.50000000001));
#341 = DIRECTION('',(0.,0.707106781187,0.707106781187));
#342 = DIRECTION('',(-1.,-9.1E-16,9.1E-16));
#343 = ADVANCED_FACE('',(#344),#363,.F.);
#344 = FACE_BOUND('',#345,.T.);
#345 = EDGE_LOOP('',(#346,#354,#355,#356));
#346 = ORIENTED_EDGE('',*,*,#347,.F.);
#347 = EDGE_CURVE('',#146,#348,#350,.T.);
#348 = VERTEX_POINT('',#349);
#349 = CARTESIAN_POINT('',(-93.5,58.6,172.5));
#350 = LINE('',#351,#352);
#351 = CARTESIAN_POINT('',(-93.5,62.,172.5));
#352 = VECTOR('',#353,1.);
#353 = DIRECTION('',(0.,-1.,2.2E-16));
#354 = ORIENTED_EDGE('',*,*,#145,.T.);
#355 = ORIENTED_EDGE('',*,*,#347,.T.);
#356 = ORIENTED_EDGE('',*,*,#357,.F.);
#357 = EDGE_CURVE('',#348,#348,#358,.T.);
#358 = CIRCLE('',#359,3.);
#359 = AXIS2_PLACEMENT_3D('',#360,#361,#362);
#360 = CARTESIAN_POINT('',(-96.5,58.6,172.5));
#361 = DIRECTION('',(0.,1.,-2.2E-16));
#362 = DIRECTION('',(1.,0.,0.));
#363 = CYLINDRICAL_SURFACE('',#364,3.);
#364 = AXIS2_PLACEMENT_3D('',#365,#366,#367);
#365 = CARTESIAN_POINT('',(-96.5,62.,172.5));
#366 = DIRECTION('',(0.,-1.,2.2E-16));
#367 = DIRECTION('',(1.,0.,0.));
#368 = ADVANCED_FACE('',(#369),#380,.F.);
#369 = FACE_BOUND('',#370,.F.);
#370 = EDGE_LOOP('',(#371,#372,#378,#379));
#371 = ORIENTED_EDGE('',*,*,#156,.F.);
#372 = ORIENTED_EDGE('',*,*,#373,.T.);
#373 = EDGE_CURVE('',#157,#292,#374,.T.);
#374 = LINE('',#375,#376);
#375 = CARTESIAN_POINT('',(-80.5,62.,172.5));
#376 = VECTOR('',#377,1.);
#377 = DIRECTION('',(0.,-1.,2.2E-16));
#378 = ORIENTED_EDGE('',*,*,#291,.T.);
#379 = ORIENTED_EDGE('',*,*,#373,.F.);
#380 = CYLINDRICAL_SURFACE('',#381,30.5);
#381 = AXIS2_PLACEMENT_3D('',#382,#383,#384);
#382 = CARTESIAN_POINT('',(-50.,62.,172.5));
#383 = DIRECTION('',(0.,1.,-2.2E-16));
#384 = DIRECTION('',(-1.,0.,0.));
#385 = ADVANCED_FACE('',(#386),#405,.F.);
#386 = FACE_BOUND('',#387,.T.);
#387 = EDGE_LOOP('',(#388,#396,#397,#398));
#388 = ORIENTED_EDGE('',*,*,#389,.F.);
#389 = EDGE_CURVE('',#168,#390,#392,.T.);
#390 = VERTEX_POINT('',#391);
#391 = CARTESIAN_POINT('',(99.5,58.6,172.5));
#392 = LINE('',#393,#394);
#393 = CARTESIAN_POINT('',(99.5,62.,172.5));
#394 = VECTOR('',#395,1.);
#395 = DIRECTION('',(0.,-1.,2.2E-16));
#396 = ORIENTED_EDGE('',*,*,#167,.T.);
#397 = ORIENTED_EDGE('',*,*,#389,.T.);
#398 = ORIENTED_EDGE('',*,*,#399,.F.);
#399 = EDGE_CURVE('',#390,#390,#400,.T.);
#400 = CIRCLE('',#401,3.);
#401 = AXIS2_PLACEMENT_3D('',#402,#403,#404);
#402 = CARTESIAN_POINT('',(96.5,58.6,172.5));
#403 = DIRECTION('',(0.,1.,-2.2E-16));
#404 = DIRECTION('',(1.,0.,0.));
#405 = CYLINDRICAL_SURFACE('',#406,3.);
#406 = AXIS2_PLACEMENT_3D('',#407,#408,#409);
#407 = CARTESIAN_POINT('',(96.5,62.,172.5));
#408 = DIRECTION('',(0.,-1.,2.2E-16));
#409 = DIRECTION('',(1.,0.,0.));
#410 = ADVANCED_FACE('',(#411),#422,.F.);
#411 = FACE_BOUND('',#412,.F.);
#412 = EDGE_LOOP('',(#413,#414,#420,#421));
#413 = ORIENTED_EDGE('',*,*,#178,.F.);
#414 = ORIENTED_EDGE('',*,*,#415,.T.);
#415 = EDGE_CURVE('',#179,#314,#416,.T.);
#416 = LINE('',#417,#418);
#417 = CARTESIAN_POINT('',(19.5,62.,172.5));
#418 = VECTOR('',#419,1.);
#419 = DIRECTION('',(0.,-1.,2.2E-16));
#420 = ORIENTED_EDGE('',*,*,#313,.T.);
#421 = ORIENTED_EDGE('',*,*,#415,.F.);
#422 = CYLINDRICAL_SURFACE('',#423,30.5);
#423 = AXIS2_PLACEMENT_3D('',#424,#425,#426);
#424 = CARTESIAN_POINT('',(50.,62.,172.5));
#425 = DIRECTION('',(0.,1.,-2.2E-16));
#426 = DIRECTION('',(-1.,0.,0.));
#427 = ADVANCED_FACE('',(#428),#434,.T.);
#428 = FACE_BOUND('',#429,.T.);
#429 = EDGE_LOOP('',(#430,#431,#432,#433));
#430 = ORIENTED_EDGE('',*,*,#332,.F.);
#431 = ORIENTED_EDGE('',*,*,#246,.T.);
#432 = ORIENTED_EDGE('',*,*,#219,.T.);
#433 = ORIENTED_EDGE('',*,*,#263,.F.);
#434 = CONICAL_SURFACE('',#435,32.499999999991,0.785398163397);
#435 = AXIS2_PLACEMENT_3D('',#436,#437,#438);
#436 = CARTESIAN_POINT('',(69.999999999965,57.,172.5));
#437 = DIRECTION('',(0.,1.,0.));
#438 = DIRECTION('',(-1.0319E-13,0.,-1.));
#439 = ADVANCED_FACE('',(#440),#459,.F.);
#440 = FACE_BOUND('',#441,.T.);
#441 = EDGE_LOOP('',(#442,#450,#451,#452));
#442 = ORIENTED_EDGE('',*,*,#443,.F.);
#443 = EDGE_CURVE('',#281,#444,#446,.T.);
#444 = VERTEX_POINT('',#445);
#445 = CARTESIAN_POINT('',(-94.8,57.,172.5));
#446 = LINE('',#447,#448);
#447 = CARTESIAN_POINT('',(-94.8,57.,172.5));
#448 = VECTOR('',#449,1.);
#449 = DIRECTION('',(-0.707106781187,0.707106781187,0.));
#450 = ORIENTED_EDGE('',*,*,#280,.T.);
#451 = ORIENTED_EDGE('',*,*,#443,.T.);
#452 = ORIENTED_EDGE('',*,*,#453,.F.);
#453 = EDGE_CURVE('',#444,#444,#454,.T.);
#454 = CIRCLE('',#455,1.7);
#455 = AXIS2_PLACEMENT_3D('',#456,#457,#458);
#456 = CARTESIAN_POINT('',(-96.5,57.,172.5));
#457 = DIRECTION('',(0.,-1.,0.));
#458 = DIRECTION('',(1.,0.,0.));
#459 = CONICAL_SURFACE('',#460,1.7,0.785398163397);
#460 = AXIS2_PLACEMENT_3D('',#461,#462,#463);
#461 = CARTESIAN_POINT('',(-96.5,57.,172.5));
#462 = DIRECTION('',(-0.,-1.,-0.));
#463 = DIRECTION('',(1.,0.,0.));
#464 = ADVANCED_FACE('',(#465),#484,.F.);
#465 = FACE_BOUND('',#466,.T.);
#466 = EDGE_LOOP('',(#467,#475,#476,#477));
#467 = ORIENTED_EDGE('',*,*,#468,.F.);
#468 = EDGE_CURVE('',#303,#469,#471,.T.);
#469 = VERTEX_POINT('',#470);
#470 = CARTESIAN_POINT('',(98.2,57.,172.5));
#471 = LINE('',#472,#473);
#472 = CARTESIAN_POINT('',(98.2,57.,172.5));
#473 = VECTOR('',#474,1.);
#474 = DIRECTION('',(-0.707106781187,0.707106781187,0.));
#475 = ORIENTED_EDGE('',*,*,#302,.T.);
#476 = ORIENTED_EDGE('',*,*,#468,.T.);
#477 = ORIENTED_EDGE('',*,*,#478,.F.);
#478 = EDGE_CURVE('',#469,#469,#479,.T.);
#479 = CIRCLE('',#480,1.7);
#480 = AXIS2_PLACEMENT_3D('',#481,#482,#483);
#481 = CARTESIAN_POINT('',(96.5,57.,172.5));
#482 = DIRECTION('',(0.,-1.,0.));
#483 = DIRECTION('',(1.,0.,0.));
#484 = CONICAL_SURFACE('',#485,1.7,0.785398163397);
#485 = AXIS2_PLACEMENT_3D('',#486,#487,#488);
#486 = CARTESIAN_POINT('',(96.5,57.,172.5));
#487 = DIRECTION('',(-0.,-1.,-0.));
#488 = DIRECTION('',(1.,0.,0.));
#489 = ADVANCED_FACE('',(#490,#493),#504,.T.);
#490 = FACE_BOUND('',#491,.T.);
#491 = EDGE_LOOP('',(#492));
#492 = ORIENTED_EDGE('',*,*,#357,.T.);
#493 = FACE_BOUND('',#494,.T.);
#494 = EDGE_LOOP('',(#495));
#495 = ORIENTED_EDGE('',*,*,#496,.F.);
#496 = EDGE_CURVE('',#497,#497,#499,.T.);
#497 = VERTEX_POINT('',#498);
#498 = CARTESIAN_POINT('',(-94.8,58.6,172.5));
#499 = CIRCLE('',#500,1.7);
#500 = AXIS2_PLACEMENT_3D('',#501,#502,#503);
#501 = CARTESIAN_POINT('',(-96.5,58.6,172.5));
#502 = DIRECTION('',(0.,1.,-2.2E-16));
#503 = DIRECTION('',(1.,0.,0.));
#504 = PLANE('',#505);
#505 = AXIS2_PLACEMENT_3D('',#506,#507,#508);
#506 = CARTESIAN_POINT('',(-96.5,58.6,172.5));
#507 = DIRECTION('',(0.,1.,-2.2E-16));
#508 = DIRECTION('',(1.,0.,0.));
#509 = ADVANCED_FACE('',(#510,#513),#524,.T.);
#510 = FACE_BOUND('',#511,.T.);
#511 = EDGE_LOOP('',(#512));
#512 = ORIENTED_EDGE('',*,*,#399,.T.);
#513 = FACE_BOUND('',#514,.T.);
#514 = EDGE_LOOP('',(#515));
#515 = ORIENTED_EDGE('',*,*,#516,.F.);
#516 = EDGE_CURVE('',#517,#517,#519,.T.);
#517 = VERTEX_POINT('',#518);
#518 = CARTESIAN_POINT('',(98.2,58.6,172.5));
#519 = CIRCLE('',#520,1.7);
#520 = AXIS2_PLACEMENT_3D('',#521,#522,#523);
#521 = CARTESIAN_POINT('',(96.5,58.6,172.5));
#522 = DIRECTION('',(0.,1.,-2.2E-16));
#523 = DIRECTION('',(1.,0.,0.));
#524 = PLANE('',#525);
#525 = AXIS2_PLACEMENT_3D('',#526,#527,#528);
#526 = CARTESIAN_POINT('',(96.5,58.6,172.5));
#527 = DIRECTION('',(0.,1.,-2.2E-16));
#528 = DIRECTION('',(1.,0.,0.));
#529 = ADVANCED_FACE('',(#530),#541,.F.);
#530 = FACE_BOUND('',#531,.T.);
#531 = EDGE_LOOP('',(#532,#538,#539,#540));
#532 = ORIENTED_EDGE('',*,*,#533,.F.);
#533 = EDGE_CURVE('',#497,#444,#534,.T.);
#534 = LINE('',#535,#536);
#535 = CARTESIAN_POINT('',(-94.8,58.6,172.5));
#536 = VECTOR('',#537,1.);
#537 = DIRECTION('',(-6.E-17,-1.,2.2E-16));
#538 = ORIENTED_EDGE('',*,*,#496,.T.);
#539 = ORIENTED_EDGE('',*,*,#533,.T.);
#540 = ORIENTED_EDGE('',*,*,#453,.T.);
#541 = CYLINDRICAL_SURFACE('',#542,1.7);
#542 = AXIS2_PLACEMENT_3D('',#543,#544,#545);
#543 = CARTESIAN_POINT('',(-96.5,58.6,172.5));
#544 = DIRECTION('',(0.,-1.,2.2E-16));
#545 = DIRECTION('',(1.,0.,0.));
#546 = ADVANCED_FACE('',(#547),#558,.F.);
#547 = FACE_BOUND('',#548,.T.);
#548 = EDGE_LOOP('',(#549,#555,#556,#557));
#549 = ORIENTED_EDGE('',*,*,#550,.F.);
#550 = EDGE_CURVE('',#517,#469,#551,.T.);
#551 = LINE('',#552,#553);
#552 = CARTESIAN_POINT('',(98.2,58.6,172.5));
#553 = VECTOR('',#554,1.);
#554 = DIRECTION('',(-6.E-17,-1.,2.2E-16));
#555 = ORIENTED_EDGE('',*,*,#516,.T.);
#556 = ORIENTED_EDGE('',*,*,#550,.T.);
#557 = ORIENTED_EDGE('',*,*,#478,.T.);
#558 = CYLINDRICAL_SURFACE('',#559,1.7);
#559 = AXIS2_PLACEMENT_3D('',#560,#561,#562);
#560 = CARTESIAN_POINT('',(96.5,58.6,172.5));
#561 = DIRECTION('',(0.,-1.,2.2E-16));
#562 = DIRECTION('',(1.,0.,0.));
#563 = ( GEOMETRIC_REPRESENTATION_CONTEXT(3) 
GLOBAL_UNCERTAINTY_ASSIGNED_CONTEXT((#567)) GLOBAL_UNIT_ASSIGNED_CONTEXT
((#564,#565,#566)) REPRESENTATION_CONTEXT('Context #1',
  '3D Context with UNIT and UNCERTAINTY') );
#564 = ( LENGTH_UNIT() NAMED_UNIT(*) SI_UNIT(.MILLI.,.METRE.) );
#565 = ( NAMED_UNIT(*) PLANE_ANGLE_UNIT() SI_UNIT($,.RADIAN.) );
#566 = ( NAMED_UNIT(*) SI_UNIT($,.STERADIAN.) SOLID_ANGLE_UNIT() );
#567 = UNCERTAINTY_MEASURE_WITH_UNIT(LENGTH_MEASURE(1.E-07),#564,
  'distance_accuracy_value','confusion accuracy');
#568 = PRODUCT_RELATED_PRODUCT_CATEGORY('part',$,(#7));
#569 = MECHANICAL_DESIGN_GEOMETRIC_PRESENTATION_REPRESENTATION('',(#570)
  ,#563);
#570 = STYLED_ITEM('color',(#571),#15);
#571 = PRESENTATION_STYLE_ASSIGNMENT((#572,#578));
#572 = SURFACE_STYLE_USAGE(.BOTH.,#573);
#573 = SURFACE_SIDE_STYLE('',(#574));
#574 = SURFACE_STYLE_FILL_AREA(#575);
#575 = FILL_AREA_STYLE('',(#576));
#576 = FILL_AREA_STYLE_COLOUR('',#577);
#577 = COLOUR_RGB('',0.258823539696,0.611764719091,0.219607846375);
#578 = CURVE_STYLE('',#579,POSITIVE_LENGTH_MEASURE(0.1),#580);
#579 = DRAUGHTING_PRE_DEFINED_CURVE_FONT('continuous');
#580 = COLOUR_RGB('',9.803921802644E-02,9.803921802644E-02,
  9.803921802644E-02);
ENDSEC;
END-ISO-10303-21;
