ISO-10303-21;
HEADER;
FILE_DESCRIPTION(('FreeCAD Model'),'2;1');
FILE_NAME('Open CASCADE Shape Model','2026-07-21T14:17:08',(''),(''),
  'Open CASCADE STEP processor 7.9','FreeCAD','Unknown');
FILE_SCHEMA(('AUTOMOTIVE_DESIGN { 1 0 10303 214 1 1 1 1 }'));
ENDSEC;
DATA;
#1 = APPLICATION_PROTOCOL_DEFINITION('international standard',
  'automotive_design',2000,#2);
#2 = APPLICATION_CONTEXT(
  'core data for automotive mechanical design processes');
#3 = SHAPE_DEFINITION_REPRESENTATION(#4,#10);
#4 = PRODUCT_DEFINITION_SHAPE('','',#5);
#5 = PRODUCT_DEFINITION('design','',#6,#9);
#6 = PRODUCT_DEFINITION_FORMATION('','',#7);
#7 = PRODUCT('Feet','Feet','',(#8));
#8 = PRODUCT_CONTEXT('',#2,'mechanical');
#9 = PRODUCT_DEFINITION_CONTEXT('part definition',#2,'design');
#10 = ADVANCED_BREP_SHAPE_REPRESENTATION('',(#11,#15),#203);
#11 = AXIS2_PLACEMENT_3D('',#12,#13,#14);
#12 = CARTESIAN_POINT('',(0.,0.,0.));
#13 = DIRECTION('',(0.,0.,1.));
#14 = DIRECTION('',(1.,0.,-0.));
#15 = MANIFOLD_SOLID_BREP('',#16);
#16 = CLOSED_SHELL('',(#17,#45,#70,#95,#121,#141,#166,#186));
#17 = ADVANCED_FACE('',(#18,#29),#40,.F.);
#18 = FACE_BOUND('',#19,.T.);
#19 = EDGE_LOOP('',(#20));
#20 = ORIENTED_EDGE('',*,*,#21,.T.);
#21 = EDGE_CURVE('',#22,#22,#24,.T.);
#22 = VERTEX_POINT('',#23);
#23 = CARTESIAN_POINT('',(1.6,0.,0.));
#24 = CIRCLE('',#25,1.6);
#25 = AXIS2_PLACEMENT_3D('',#26,#27,#28);
#26 = CARTESIAN_POINT('',(0.,0.,0.));
#27 = DIRECTION('',(0.,-2.22044604925E-16,-1.));
#28 = DIRECTION('',(1.,0.,0.));
#29 = FACE_BOUND('',#30,.T.);
#30 = EDGE_LOOP('',(#31));
#31 = ORIENTED_EDGE('',*,*,#32,.F.);
#32 = EDGE_CURVE('',#33,#33,#35,.T.);
#33 = VERTEX_POINT('',#34);
#34 = CARTESIAN_POINT('',(4.25,0.,0.));
#35 = CIRCLE('',#36,4.25);
#36 = AXIS2_PLACEMENT_3D('',#37,#38,#39);
#37 = CARTESIAN_POINT('',(0.,0.,0.));
#38 = DIRECTION('',(0.,-2.22044604925E-16,-1.));
#39 = DIRECTION('',(1.,0.,0.));
#40 = PLANE('',#41);
#41 = AXIS2_PLACEMENT_3D('',#42,#43,#44);
#42 = CARTESIAN_POINT('',(0.,0.,0.));
#43 = DIRECTION('',(-0.,-2.22044604925E-16,-1.));
#44 = DIRECTION('',(1.,-0.,-0.));
#45 = ADVANCED_FACE('',(#46),#65,.T.);
#46 = FACE_BOUND('',#47,.T.);
#47 = EDGE_LOOP('',(#48,#49,#57,#64));
#48 = ORIENTED_EDGE('',*,*,#32,.T.);
#49 = ORIENTED_EDGE('',*,*,#50,.T.);
#50 = EDGE_CURVE('',#33,#51,#53,.T.);
#51 = VERTEX_POINT('',#52);
#52 = CARTESIAN_POINT('',(5.75,-3.33066580854E-16,-1.499998529424));
#53 = LINE('',#54,#55);
#54 = CARTESIAN_POINT('',(4.25,0.,0.));
#55 = VECTOR('',#56,1.);
#56 = DIRECTION('',(0.707107127805,-1.570091689036E-16,-0.707106434568)
  );
#57 = ORIENTED_EDGE('',*,*,#58,.F.);
#58 = EDGE_CURVE('',#51,#51,#59,.T.);
#59 = CIRCLE('',#60,5.75);
#60 = AXIS2_PLACEMENT_3D('',#61,#62,#63);
#61 = CARTESIAN_POINT('',(0.,-3.33066580854E-16,-1.499998529424));
#62 = DIRECTION('',(0.,-2.22044604925E-16,-1.));
#63 = DIRECTION('',(1.,0.,0.));
#64 = ORIENTED_EDGE('',*,*,#50,.F.);
#65 = CONICAL_SURFACE('',#66,4.25,0.78539865359);
#66 = AXIS2_PLACEMENT_3D('',#67,#68,#69);
#67 = CARTESIAN_POINT('',(0.,0.,0.));
#68 = DIRECTION('',(-0.,-2.22044604925E-16,-1.));
#69 = DIRECTION('',(1.,0.,0.));
#70 = ADVANCED_FACE('',(#71),#90,.T.);
#71 = FACE_BOUND('',#72,.T.);
#72 = EDGE_LOOP('',(#73,#74,#82,#89));
#73 = ORIENTED_EDGE('',*,*,#58,.T.);
#74 = ORIENTED_EDGE('',*,*,#75,.T.);
#75 = EDGE_CURVE('',#51,#76,#78,.T.);
#76 = VERTEX_POINT('',#77);
#77 = CARTESIAN_POINT('',(5.75,-1.443289932013E-15,-6.5));
#78 = LINE('',#79,#80);
#79 = CARTESIAN_POINT('',(5.75,-3.33066580854E-16,-1.499998529424));
#80 = VECTOR('',#81,1.);
#81 = DIRECTION('',(0.,-2.22044604925E-16,-1.));
#82 = ORIENTED_EDGE('',*,*,#83,.F.);
#83 = EDGE_CURVE('',#76,#76,#84,.T.);
#84 = CIRCLE('',#85,5.75);
#85 = AXIS2_PLACEMENT_3D('',#86,#87,#88);
#86 = CARTESIAN_POINT('',(0.,-1.443289932013E-15,-6.5));
#87 = DIRECTION('',(0.,-2.22044604925E-16,-1.));
#88 = DIRECTION('',(1.,0.,0.));
#89 = ORIENTED_EDGE('',*,*,#75,.F.);
#90 = CYLINDRICAL_SURFACE('',#91,5.75);
#91 = AXIS2_PLACEMENT_3D('',#92,#93,#94);
#92 = CARTESIAN_POINT('',(0.,-3.33066580854E-16,-1.499998529424));
#93 = DIRECTION('',(-0.,-2.22044604925E-16,-1.));
#94 = DIRECTION('',(1.,0.,0.));
#95 = ADVANCED_FACE('',(#96),#116,.T.);
#96 = FACE_BOUND('',#97,.F.);
#97 = EDGE_LOOP('',(#98,#107,#114,#115));
#98 = ORIENTED_EDGE('',*,*,#99,.T.);
#99 = EDGE_CURVE('',#100,#100,#102,.T.);
#100 = VERTEX_POINT('',#101);
#101 = CARTESIAN_POINT('',(4.25,-1.7763568394E-15,-8.));
#102 = CIRCLE('',#103,4.25);
#103 = AXIS2_PLACEMENT_3D('',#104,#105,#106);
#104 = CARTESIAN_POINT('',(0.,-1.7763568394E-15,-8.));
#105 = DIRECTION('',(0.,-2.22044604925E-16,-1.));
#106 = DIRECTION('',(1.,0.,0.));
#107 = ORIENTED_EDGE('',*,*,#108,.T.);
#108 = EDGE_CURVE('',#100,#76,#109,.T.);
#109 = CIRCLE('',#110,1.5);
#110 = AXIS2_PLACEMENT_3D('',#111,#112,#113);
#111 = CARTESIAN_POINT('',(4.25,-1.443289932013E-15,-6.5));
#112 = DIRECTION('',(0.,-1.,2.22044604925E-16));
#113 = DIRECTION('',(1.,0.,0.));
#114 = ORIENTED_EDGE('',*,*,#83,.F.);
#115 = ORIENTED_EDGE('',*,*,#108,.F.);
#116 = TOROIDAL_SURFACE('',#117,4.25,1.5);
#117 = AXIS2_PLACEMENT_3D('',#118,#119,#120);
#118 = CARTESIAN_POINT('',(0.,-1.443289932013E-15,-6.5));
#119 = DIRECTION('',(0.,2.22044604925E-16,1.));
#120 = DIRECTION('',(1.,0.,0.));
#121 = ADVANCED_FACE('',(#122,#125),#136,.T.);
#122 = FACE_BOUND('',#123,.T.);
#123 = EDGE_LOOP('',(#124));
#124 = ORIENTED_EDGE('',*,*,#99,.T.);
#125 = FACE_BOUND('',#126,.T.);
#126 = EDGE_LOOP('',(#127));
#127 = ORIENTED_EDGE('',*,*,#128,.F.);
#128 = EDGE_CURVE('',#129,#129,#131,.T.);
#129 = VERTEX_POINT('',#130);
#130 = CARTESIAN_POINT('',(3.5,-1.7763568394E-15,-8.));
#131 = CIRCLE('',#132,3.5);
#132 = AXIS2_PLACEMENT_3D('',#133,#134,#135);
#133 = CARTESIAN_POINT('',(0.,-1.7763568394E-15,-8.));
#134 = DIRECTION('',(0.,-2.22044604925E-16,-1.));
#135 = DIRECTION('',(1.,0.,0.));
#136 = PLANE('',#137);
#137 = AXIS2_PLACEMENT_3D('',#138,#139,#140);
#138 = CARTESIAN_POINT('',(0.,-1.7763568394E-15,-8.));
#139 = DIRECTION('',(-0.,-2.22044604925E-16,-1.));
#140 = DIRECTION('',(1.,0.,0.));
#141 = ADVANCED_FACE('',(#142),#161,.F.);
#142 = FACE_BOUND('',#143,.T.);
#143 = EDGE_LOOP('',(#144,#145,#153,#160));
#144 = ORIENTED_EDGE('',*,*,#128,.T.);
#145 = ORIENTED_EDGE('',*,*,#146,.T.);
#146 = EDGE_CURVE('',#129,#147,#149,.T.);
#147 = VERTEX_POINT('',#148);
#148 = CARTESIAN_POINT('',(3.5,-8.881784197001E-16,-4.));
#149 = LINE('',#150,#151);
#150 = CARTESIAN_POINT('',(3.5,-1.7763568394E-15,-8.));
#151 = VECTOR('',#152,1.);
#152 = DIRECTION('',(0.,2.22044604925E-16,1.));
#153 = ORIENTED_EDGE('',*,*,#154,.F.);
#154 = EDGE_CURVE('',#147,#147,#155,.T.);
#155 = CIRCLE('',#156,3.5);
#156 = AXIS2_PLACEMENT_3D('',#157,#158,#159);
#157 = CARTESIAN_POINT('',(0.,-8.881784197001E-16,-4.));
#158 = DIRECTION('',(0.,-2.22044604925E-16,-1.));
#159 = DIRECTION('',(1.,0.,0.));
#160 = ORIENTED_EDGE('',*,*,#146,.F.);
#161 = CYLINDRICAL_SURFACE('',#162,3.5);
#162 = AXIS2_PLACEMENT_3D('',#163,#164,#165);
#163 = CARTESIAN_POINT('',(0.,-1.7763568394E-15,-8.));
#164 = DIRECTION('',(0.,2.22044604925E-16,1.));
#165 = DIRECTION('',(1.,0.,0.));
#166 = ADVANCED_FACE('',(#167,#170),#181,.T.);
#167 = FACE_BOUND('',#168,.T.);
#168 = EDGE_LOOP('',(#169));
#169 = ORIENTED_EDGE('',*,*,#154,.T.);
#170 = FACE_BOUND('',#171,.T.);
#171 = EDGE_LOOP('',(#172));
#172 = ORIENTED_EDGE('',*,*,#173,.F.);
#173 = EDGE_CURVE('',#174,#174,#176,.T.);
#174 = VERTEX_POINT('',#175);
#175 = CARTESIAN_POINT('',(1.6,-8.881784197001E-16,-4.));
#176 = CIRCLE('',#177,1.6);
#177 = AXIS2_PLACEMENT_3D('',#178,#179,#180);
#178 = CARTESIAN_POINT('',(0.,-8.881784197001E-16,-4.));
#179 = DIRECTION('',(0.,-2.22044604925E-16,-1.));
#180 = DIRECTION('',(1.,0.,0.));
#181 = PLANE('',#182);
#182 = AXIS2_PLACEMENT_3D('',#183,#184,#185);
#183 = CARTESIAN_POINT('',(0.,-8.881784197001E-16,-4.));
#184 = DIRECTION('',(-0.,-2.22044604925E-16,-1.));
#185 = DIRECTION('',(1.,0.,0.));
#186 = ADVANCED_FACE('',(#187),#198,.F.);
#187 = FACE_BOUND('',#188,.T.);
#188 = EDGE_LOOP('',(#189,#190,#196,#197));
#189 = ORIENTED_EDGE('',*,*,#173,.T.);
#190 = ORIENTED_EDGE('',*,*,#191,.T.);
#191 = EDGE_CURVE('',#174,#22,#192,.T.);
#192 = LINE('',#193,#194);
#193 = CARTESIAN_POINT('',(1.6,-8.881784197001E-16,-4.));
#194 = VECTOR('',#195,1.);
#195 = DIRECTION('',(0.,2.22044604925E-16,1.));
#196 = ORIENTED_EDGE('',*,*,#21,.F.);
#197 = ORIENTED_EDGE('',*,*,#191,.F.);
#198 = CYLINDRICAL_SURFACE('',#199,1.6);
#199 = AXIS2_PLACEMENT_3D('',#200,#201,#202);
#200 = CARTESIAN_POINT('',(0.,-8.881784197001E-16,-4.));
#201 = DIRECTION('',(0.,2.22044604925E-16,1.));
#202 = DIRECTION('',(1.,0.,0.));
#203 = ( GEOMETRIC_REPRESENTATION_CONTEXT(3) 
GLOBAL_UNCERTAINTY_ASSIGNED_CONTEXT((#207)) GLOBAL_UNIT_ASSIGNED_CONTEXT
((#204,#205,#206)) REPRESENTATION_CONTEXT('Context #1',
  '3D Context with UNIT and UNCERTAINTY') );
#204 = ( LENGTH_UNIT() NAMED_UNIT(*) SI_UNIT(.MILLI.,.METRE.) );
#205 = ( NAMED_UNIT(*) PLANE_ANGLE_UNIT() SI_UNIT($,.RADIAN.) );
#206 = ( NAMED_UNIT(*) SI_UNIT($,.STERADIAN.) SOLID_ANGLE_UNIT() );
#207 = UNCERTAINTY_MEASURE_WITH_UNIT(LENGTH_MEASURE(1.E-07),#204,
  'distance_accuracy_value','confusion accuracy');
#208 = PRODUCT_RELATED_PRODUCT_CATEGORY('part',$,(#7));
#209 = MECHANICAL_DESIGN_GEOMETRIC_PRESENTATION_REPRESENTATION('',(#210)
  ,#203);
#210 = STYLED_ITEM('color',(#211),#15);
#211 = PRESENTATION_STYLE_ASSIGNMENT((#212,#218));
#212 = SURFACE_STYLE_USAGE(.BOTH.,#213);
#213 = SURFACE_SIDE_STYLE('',(#214));
#214 = SURFACE_STYLE_FILL_AREA(#215);
#215 = FILL_AREA_STYLE('',(#216));
#216 = FILL_AREA_STYLE_COLOUR('',#217);
#217 = COLOUR_RGB('',0.447058818107,0.474509808674,0.501960817233);
#218 = CURVE_STYLE('',#219,POSITIVE_LENGTH_MEASURE(0.1),#220);
#219 = DRAUGHTING_PRE_DEFINED_CURVE_FONT('continuous');
#220 = COLOUR_RGB('',9.803921802644E-02,9.803921802644E-02,
  9.803921802644E-02);
ENDSEC;
END-ISO-10303-21;
