ISO-10303-21;
HEADER;
FILE_DESCRIPTION(('FreeCAD Model'),'2;1');
FILE_NAME('Open CASCADE Shape Model','2026-07-18T18:29:28',(''),(''),
  'Open CASCADE STEP processor 7.9','FreeCAD','Unknown');
FILE_SCHEMA(('AUTOMOTIVE_DESIGN { 1 0 10303 214 1 1 1 1 }'));
ENDSEC;
DATA;
#1 = APPLICATION_PROTOCOL_DEFINITION('international standard',
  'automotive_design',2000,#2);
#2 = APPLICATION_CONTEXT(
  'core data for automotive mechanical design processes');
#3 = SHAPE_DEFINITION_REPRESENTATION(#4,#10);
#4 = PRODUCT_DEFINITION_SHAPE('','',#5);
#5 = PRODUCT_DEFINITION('design','',#6,#9);
#6 = PRODUCT_DEFINITION_FORMATION('','',#7);
#7 = PRODUCT('Revolution003','Revolution003','',(#8));
#8 = PRODUCT_CONTEXT('',#2,'mechanical');
#9 = PRODUCT_DEFINITION_CONTEXT('part definition',#2,'design');
#10 = ADVANCED_BREP_SHAPE_REPRESENTATION('',(#11,#15),#339);
#11 = AXIS2_PLACEMENT_3D('',#12,#13,#14);
#12 = CARTESIAN_POINT('',(0.,0.,0.));
#13 = DIRECTION('',(0.,0.,1.));
#14 = DIRECTION('',(1.,0.,-0.));
#15 = MANIFOLD_SOLID_BREP('',#16);
#16 = CLOSED_SHELL('',(#17,#59,#91,#123,#155,#187,#219,#251,#283,#305,
    #322));
#17 = ADVANCED_FACE('',(#18),#54,.F.);
#18 = FACE_BOUND('',#19,.T.);
#19 = EDGE_LOOP('',(#20,#31,#39,#48));
#20 = ORIENTED_EDGE('',*,*,#21,.T.);
#21 = EDGE_CURVE('',#22,#24,#26,.T.);
#22 = VERTEX_POINT('',#23);
#23 = CARTESIAN_POINT('',(96.5,-2.22044604925E-15,-10.));
#24 = VERTEX_POINT('',#25);
#25 = CARTESIAN_POINT('',(-48.25,-83.57145146519,-10.));
#26 = CIRCLE('',#27,96.5);
#27 = AXIS2_PLACEMENT_3D('',#28,#29,#30);
#28 = CARTESIAN_POINT('',(0.,-2.22044604925E-15,-10.));
#29 = DIRECTION('',(0.,-2.22044604925E-16,-1.));
#30 = DIRECTION('',(1.,-0.,0.));
#31 = ORIENTED_EDGE('',*,*,#32,.T.);
#32 = EDGE_CURVE('',#24,#33,#35,.T.);
#33 = VERTEX_POINT('',#34);
#34 = CARTESIAN_POINT('',(-65.5,-113.4493278957,-10.));
#35 = LINE('',#36,#37);
#36 = CARTESIAN_POINT('',(-48.25,-83.57145146519,-10.));
#37 = VECTOR('',#38,1.);
#38 = DIRECTION('',(-0.5,-0.866025403784,1.922962686384E-16));
#39 = ORIENTED_EDGE('',*,*,#40,.F.);
#40 = EDGE_CURVE('',#41,#33,#43,.T.);
#41 = VERTEX_POINT('',#42);
#42 = CARTESIAN_POINT('',(131.,-2.22044604925E-15,-10.));
#43 = CIRCLE('',#44,131.);
#44 = AXIS2_PLACEMENT_3D('',#45,#46,#47);
#45 = CARTESIAN_POINT('',(0.,-2.22044604925E-15,-10.));
#46 = DIRECTION('',(0.,-2.22044604925E-16,-1.));
#47 = DIRECTION('',(1.,-0.,0.));
#48 = ORIENTED_EDGE('',*,*,#49,.F.);
#49 = EDGE_CURVE('',#22,#41,#50,.T.);
#50 = LINE('',#51,#52);
#51 = CARTESIAN_POINT('',(96.5,-2.22044604925E-15,-10.));
#52 = VECTOR('',#53,1.);
#53 = DIRECTION('',(1.,0.,0.));
#54 = PLANE('',#55);
#55 = AXIS2_PLACEMENT_3D('',#56,#57,#58);
#56 = CARTESIAN_POINT('',(0.,-2.22044604925E-15,-10.));
#57 = DIRECTION('',(-0.,-2.22044604925E-16,-1.));
#58 = DIRECTION('',(1.,-0.,0.));
#59 = ADVANCED_FACE('',(#60),#86,.F.);
#60 = FACE_BOUND('',#61,.T.);
#61 = EDGE_LOOP('',(#62,#63,#71,#80));
#62 = ORIENTED_EDGE('',*,*,#40,.T.);
#63 = ORIENTED_EDGE('',*,*,#64,.T.);
#64 = EDGE_CURVE('',#33,#65,#67,.T.);
#65 = VERTEX_POINT('',#66);
#66 = CARTESIAN_POINT('',(-65.5,-113.4493278957,3.5));
#67 = LINE('',#68,#69);
#68 = CARTESIAN_POINT('',(-65.5,-113.4493278957,-10.));
#69 = VECTOR('',#70,1.);
#70 = DIRECTION('',(0.,2.22044604925E-16,1.));
#71 = ORIENTED_EDGE('',*,*,#72,.F.);
#72 = EDGE_CURVE('',#73,#65,#75,.T.);
#73 = VERTEX_POINT('',#74);
#74 = CARTESIAN_POINT('',(131.,7.771561172376E-16,3.5));
#75 = CIRCLE('',#76,131.);
#76 = AXIS2_PLACEMENT_3D('',#77,#78,#79);
#77 = CARTESIAN_POINT('',(0.,7.771561172376E-16,3.5));
#78 = DIRECTION('',(0.,-2.22044604925E-16,-1.));
#79 = DIRECTION('',(1.,-0.,0.));
#80 = ORIENTED_EDGE('',*,*,#81,.F.);
#81 = EDGE_CURVE('',#41,#73,#82,.T.);
#82 = LINE('',#83,#84);
#83 = CARTESIAN_POINT('',(131.,-2.22044604925E-15,-10.));
#84 = VECTOR('',#85,1.);
#85 = DIRECTION('',(0.,2.22044604925E-16,1.));
#86 = CYLINDRICAL_SURFACE('',#87,131.);
#87 = AXIS2_PLACEMENT_3D('',#88,#89,#90);
#88 = CARTESIAN_POINT('',(0.,-2.22044604925E-15,-10.));
#89 = DIRECTION('',(0.,2.22044604925E-16,1.));
#90 = DIRECTION('',(1.,0.,-0.));
#91 = ADVANCED_FACE('',(#92),#118,.F.);
#92 = FACE_BOUND('',#93,.T.);
#93 = EDGE_LOOP('',(#94,#95,#103,#112));
#94 = ORIENTED_EDGE('',*,*,#72,.T.);
#95 = ORIENTED_EDGE('',*,*,#96,.T.);
#96 = EDGE_CURVE('',#65,#97,#99,.T.);
#97 = VERTEX_POINT('',#98);
#98 = CARTESIAN_POINT('',(-66.25,-114.7483660014,3.5));
#99 = LINE('',#100,#101);
#100 = CARTESIAN_POINT('',(-65.5,-113.4493278957,3.5));
#101 = VECTOR('',#102,1.);
#102 = DIRECTION('',(-0.5,-0.866025403784,1.922962686384E-16));
#103 = ORIENTED_EDGE('',*,*,#104,.F.);
#104 = EDGE_CURVE('',#105,#97,#107,.T.);
#105 = VERTEX_POINT('',#106);
#106 = CARTESIAN_POINT('',(132.5,7.771561172376E-16,3.5));
#107 = CIRCLE('',#108,132.5);
#108 = AXIS2_PLACEMENT_3D('',#109,#110,#111);
#109 = CARTESIAN_POINT('',(0.,7.771561172376E-16,3.5));
#110 = DIRECTION('',(0.,-2.22044604925E-16,-1.));
#111 = DIRECTION('',(1.,-0.,0.));
#112 = ORIENTED_EDGE('',*,*,#113,.F.);
#113 = EDGE_CURVE('',#73,#105,#114,.T.);
#114 = LINE('',#115,#116);
#115 = CARTESIAN_POINT('',(131.,7.771561172376E-16,3.5));
#116 = VECTOR('',#117,1.);
#117 = DIRECTION('',(1.,0.,0.));
#118 = PLANE('',#119);
#119 = AXIS2_PLACEMENT_3D('',#120,#121,#122);
#120 = CARTESIAN_POINT('',(0.,7.771561172376E-16,3.5));
#121 = DIRECTION('',(-0.,-2.22044604925E-16,-1.));
#122 = DIRECTION('',(1.,-0.,0.));
#123 = ADVANCED_FACE('',(#124),#150,.T.);
#124 = FACE_BOUND('',#125,.T.);
#125 = EDGE_LOOP('',(#126,#127,#135,#144));
#126 = ORIENTED_EDGE('',*,*,#104,.T.);
#127 = ORIENTED_EDGE('',*,*,#128,.T.);
#128 = EDGE_CURVE('',#97,#129,#131,.T.);
#129 = VERTEX_POINT('',#130);
#130 = CARTESIAN_POINT('',(-67.5,-116.9134295108,1.));
#131 = LINE('',#132,#133);
#132 = CARTESIAN_POINT('',(-66.25,-114.7483660014,3.5));
#133 = VECTOR('',#134,1.);
#134 = DIRECTION('',(-0.353553390593,-0.612372435696,-0.707106781187));
#135 = ORIENTED_EDGE('',*,*,#136,.F.);
#136 = EDGE_CURVE('',#137,#129,#139,.T.);
#137 = VERTEX_POINT('',#138);
#138 = CARTESIAN_POINT('',(135.,2.22044604925E-16,1.));
#139 = CIRCLE('',#140,135.);
#140 = AXIS2_PLACEMENT_3D('',#141,#142,#143);
#141 = CARTESIAN_POINT('',(0.,2.22044604925E-16,1.));
#142 = DIRECTION('',(0.,-2.22044604925E-16,-1.));
#143 = DIRECTION('',(1.,-0.,0.));
#144 = ORIENTED_EDGE('',*,*,#145,.F.);
#145 = EDGE_CURVE('',#105,#137,#146,.T.);
#146 = LINE('',#147,#148);
#147 = CARTESIAN_POINT('',(132.5,7.771561172376E-16,3.5));
#148 = VECTOR('',#149,1.);
#149 = DIRECTION('',(0.707106781187,-1.570092458684E-16,-0.707106781187)
  );
#150 = CONICAL_SURFACE('',#151,132.5,0.785398163397);
#151 = AXIS2_PLACEMENT_3D('',#152,#153,#154);
#152 = CARTESIAN_POINT('',(0.,7.771561172376E-16,3.5));
#153 = DIRECTION('',(-0.,-2.22044604925E-16,-1.));
#154 = DIRECTION('',(1.,-0.,0.));
#155 = ADVANCED_FACE('',(#156),#182,.T.);
#156 = FACE_BOUND('',#157,.T.);
#157 = EDGE_LOOP('',(#158,#159,#167,#176));
#158 = ORIENTED_EDGE('',*,*,#136,.T.);
#159 = ORIENTED_EDGE('',*,*,#160,.T.);
#160 = EDGE_CURVE('',#129,#161,#163,.T.);
#161 = VERTEX_POINT('',#162);
#162 = CARTESIAN_POINT('',(-67.5,-116.9134295108,-8.5));
#163 = LINE('',#164,#165);
#164 = CARTESIAN_POINT('',(-67.5,-116.9134295108,1.));
#165 = VECTOR('',#166,1.);
#166 = DIRECTION('',(-0.,-2.22044604925E-16,-1.));
#167 = ORIENTED_EDGE('',*,*,#168,.F.);
#168 = EDGE_CURVE('',#169,#161,#171,.T.);
#169 = VERTEX_POINT('',#170);
#170 = CARTESIAN_POINT('',(135.,-1.887379141863E-15,-8.5));
#171 = CIRCLE('',#172,135.);
#172 = AXIS2_PLACEMENT_3D('',#173,#174,#175);
#173 = CARTESIAN_POINT('',(0.,-1.887379141863E-15,-8.5));
#174 = DIRECTION('',(0.,-2.22044604925E-16,-1.));
#175 = DIRECTION('',(1.,-0.,0.));
#176 = ORIENTED_EDGE('',*,*,#177,.F.);
#177 = EDGE_CURVE('',#137,#169,#178,.T.);
#178 = LINE('',#179,#180);
#179 = CARTESIAN_POINT('',(135.,2.22044604925E-16,1.));
#180 = VECTOR('',#181,1.);
#181 = DIRECTION('',(0.,-2.22044604925E-16,-1.));
#182 = CYLINDRICAL_SURFACE('',#183,135.);
#183 = AXIS2_PLACEMENT_3D('',#184,#185,#186);
#184 = CARTESIAN_POINT('',(0.,2.22044604925E-16,1.));
#185 = DIRECTION('',(-0.,-2.22044604925E-16,-1.));
#186 = DIRECTION('',(1.,-0.,0.));
#187 = ADVANCED_FACE('',(#188),#214,.T.);
#188 = FACE_BOUND('',#189,.T.);
#189 = EDGE_LOOP('',(#190,#191,#199,#208));
#190 = ORIENTED_EDGE('',*,*,#168,.T.);
#191 = ORIENTED_EDGE('',*,*,#192,.T.);
#192 = EDGE_CURVE('',#161,#193,#195,.T.);
#193 = VERTEX_POINT('',#194);
#194 = CARTESIAN_POINT('',(-80.,-138.5640646055,-33.5));
#195 = LINE('',#196,#197);
#196 = CARTESIAN_POINT('',(-67.5,-116.9134295108,-8.5));
#197 = VECTOR('',#198,1.);
#198 = DIRECTION('',(-0.353553390593,-0.612372435696,-0.707106781187));
#199 = ORIENTED_EDGE('',*,*,#200,.F.);
#200 = EDGE_CURVE('',#201,#193,#203,.T.);
#201 = VERTEX_POINT('',#202);
#202 = CARTESIAN_POINT('',(160.,-7.438494264989E-15,-33.5));
#203 = CIRCLE('',#204,160.);
#204 = AXIS2_PLACEMENT_3D('',#205,#206,#207);
#205 = CARTESIAN_POINT('',(0.,-7.438494264989E-15,-33.5));
#206 = DIRECTION('',(0.,-2.22044604925E-16,-1.));
#207 = DIRECTION('',(1.,-0.,0.));
#208 = ORIENTED_EDGE('',*,*,#209,.F.);
#209 = EDGE_CURVE('',#169,#201,#210,.T.);
#210 = LINE('',#211,#212);
#211 = CARTESIAN_POINT('',(135.,-1.887379141863E-15,-8.5));
#212 = VECTOR('',#213,1.);
#213 = DIRECTION('',(0.707106781187,-1.570092458684E-16,-0.707106781187)
  );
#214 = CONICAL_SURFACE('',#215,135.,0.785398163397);
#215 = AXIS2_PLACEMENT_3D('',#216,#217,#218);
#216 = CARTESIAN_POINT('',(0.,-1.887379141863E-15,-8.5));
#217 = DIRECTION('',(-0.,-2.22044604925E-16,-1.));
#218 = DIRECTION('',(1.,-0.,0.));
#219 = ADVANCED_FACE('',(#220),#246,.T.);
#220 = FACE_BOUND('',#221,.T.);
#221 = EDGE_LOOP('',(#222,#223,#231,#240));
#222 = ORIENTED_EDGE('',*,*,#200,.T.);
#223 = ORIENTED_EDGE('',*,*,#224,.T.);
#224 = EDGE_CURVE('',#193,#225,#227,.T.);
#225 = VERTEX_POINT('',#226);
#226 = CARTESIAN_POINT('',(-56.25,-97.42785792574,-33.5));
#227 = LINE('',#228,#229);
#228 = CARTESIAN_POINT('',(-80.,-138.5640646055,-33.5));
#229 = VECTOR('',#230,1.);
#230 = DIRECTION('',(0.5,0.866025403784,-1.922962686384E-16));
#231 = ORIENTED_EDGE('',*,*,#232,.F.);
#232 = EDGE_CURVE('',#233,#225,#235,.T.);
#233 = VERTEX_POINT('',#234);
#234 = CARTESIAN_POINT('',(112.5,-7.438494264989E-15,-33.5));
#235 = CIRCLE('',#236,112.5);
#236 = AXIS2_PLACEMENT_3D('',#237,#238,#239);
#237 = CARTESIAN_POINT('',(0.,-7.438494264989E-15,-33.5));
#238 = DIRECTION('',(0.,-2.22044604925E-16,-1.));
#239 = DIRECTION('',(1.,-0.,0.));
#240 = ORIENTED_EDGE('',*,*,#241,.F.);
#241 = EDGE_CURVE('',#201,#233,#242,.T.);
#242 = LINE('',#243,#244);
#243 = CARTESIAN_POINT('',(160.,-7.438494264989E-15,-33.5));
#244 = VECTOR('',#245,1.);
#245 = DIRECTION('',(-1.,0.,0.));
#246 = PLANE('',#247);
#247 = AXIS2_PLACEMENT_3D('',#248,#249,#250);
#248 = CARTESIAN_POINT('',(0.,-7.438494264989E-15,-33.5));
#249 = DIRECTION('',(-0.,-2.22044604925E-16,-1.));
#250 = DIRECTION('',(1.,-0.,0.));
#251 = ADVANCED_FACE('',(#252),#278,.F.);
#252 = FACE_BOUND('',#253,.T.);
#253 = EDGE_LOOP('',(#254,#255,#263,#272));
#254 = ORIENTED_EDGE('',*,*,#232,.T.);
#255 = ORIENTED_EDGE('',*,*,#256,.T.);
#256 = EDGE_CURVE('',#225,#257,#259,.T.);
#257 = VERTEX_POINT('',#258);
#258 = CARTESIAN_POINT('',(-56.25,-97.42785792574,-26.));
#259 = LINE('',#260,#261);
#260 = CARTESIAN_POINT('',(-56.25,-97.42785792574,-33.5));
#261 = VECTOR('',#262,1.);
#262 = DIRECTION('',(0.,2.22044604925E-16,1.));
#263 = ORIENTED_EDGE('',*,*,#264,.F.);
#264 = EDGE_CURVE('',#265,#257,#267,.T.);
#265 = VERTEX_POINT('',#266);
#266 = CARTESIAN_POINT('',(112.5,-5.773159728051E-15,-26.));
#267 = CIRCLE('',#268,112.5);
#268 = AXIS2_PLACEMENT_3D('',#269,#270,#271);
#269 = CARTESIAN_POINT('',(0.,-5.773159728051E-15,-26.));
#270 = DIRECTION('',(0.,-2.22044604925E-16,-1.));
#271 = DIRECTION('',(1.,-0.,0.));
#272 = ORIENTED_EDGE('',*,*,#273,.F.);
#273 = EDGE_CURVE('',#233,#265,#274,.T.);
#274 = LINE('',#275,#276);
#275 = CARTESIAN_POINT('',(112.5,-7.438494264989E-15,-33.5));
#276 = VECTOR('',#277,1.);
#277 = DIRECTION('',(0.,2.22044604925E-16,1.));
#278 = CYLINDRICAL_SURFACE('',#279,112.5);
#279 = AXIS2_PLACEMENT_3D('',#280,#281,#282);
#280 = CARTESIAN_POINT('',(0.,-7.438494264989E-15,-33.5));
#281 = DIRECTION('',(0.,2.22044604925E-16,1.));
#282 = DIRECTION('',(1.,0.,-0.));
#283 = ADVANCED_FACE('',(#284),#300,.F.);
#284 = FACE_BOUND('',#285,.T.);
#285 = EDGE_LOOP('',(#286,#287,#293,#294));
#286 = ORIENTED_EDGE('',*,*,#264,.T.);
#287 = ORIENTED_EDGE('',*,*,#288,.T.);
#288 = EDGE_CURVE('',#257,#24,#289,.T.);
#289 = LINE('',#290,#291);
#290 = CARTESIAN_POINT('',(-56.25,-97.42785792574,-26.));
#291 = VECTOR('',#292,1.);
#292 = DIRECTION('',(0.353553390593,0.612372435696,0.707106781187));
#293 = ORIENTED_EDGE('',*,*,#21,.F.);
#294 = ORIENTED_EDGE('',*,*,#295,.F.);
#295 = EDGE_CURVE('',#265,#22,#296,.T.);
#296 = LINE('',#297,#298);
#297 = CARTESIAN_POINT('',(112.5,-5.773159728051E-15,-26.));
#298 = VECTOR('',#299,1.);
#299 = DIRECTION('',(-0.707106781187,1.570092458684E-16,0.707106781187)
  );
#300 = CONICAL_SURFACE('',#301,112.5,0.785398163397);
#301 = AXIS2_PLACEMENT_3D('',#302,#303,#304);
#302 = CARTESIAN_POINT('',(0.,-5.773159728051E-15,-26.));
#303 = DIRECTION('',(-0.,-2.22044604925E-16,-1.));
#304 = DIRECTION('',(1.,0.,-0.));
#305 = ADVANCED_FACE('',(#306),#317,.T.);
#306 = FACE_BOUND('',#307,.T.);
#307 = EDGE_LOOP('',(#308,#309,#310,#311,#312,#313,#314,#315,#316));
#308 = ORIENTED_EDGE('',*,*,#49,.T.);
#309 = ORIENTED_EDGE('',*,*,#81,.T.);
#310 = ORIENTED_EDGE('',*,*,#113,.T.);
#311 = ORIENTED_EDGE('',*,*,#145,.T.);
#312 = ORIENTED_EDGE('',*,*,#177,.T.);
#313 = ORIENTED_EDGE('',*,*,#209,.T.);
#314 = ORIENTED_EDGE('',*,*,#241,.T.);
#315 = ORIENTED_EDGE('',*,*,#273,.T.);
#316 = ORIENTED_EDGE('',*,*,#295,.T.);
#317 = PLANE('',#318);
#318 = AXIS2_PLACEMENT_3D('',#319,#320,#321);
#319 = CARTESIAN_POINT('',(128.42524988238,-4.270182102382E-15,
    -19.23119052509));
#320 = DIRECTION('',(0.,1.,0.));
#321 = DIRECTION('',(0.,0.,1.));
#322 = ADVANCED_FACE('',(#323),#334,.F.);
#323 = FACE_BOUND('',#324,.F.);
#324 = EDGE_LOOP('',(#325,#326,#327,#328,#329,#330,#331,#332,#333));
#325 = ORIENTED_EDGE('',*,*,#32,.T.);
#326 = ORIENTED_EDGE('',*,*,#64,.T.);
#327 = ORIENTED_EDGE('',*,*,#96,.T.);
#328 = ORIENTED_EDGE('',*,*,#128,.T.);
#329 = ORIENTED_EDGE('',*,*,#160,.T.);
#330 = ORIENTED_EDGE('',*,*,#192,.T.);
#331 = ORIENTED_EDGE('',*,*,#224,.T.);
#332 = ORIENTED_EDGE('',*,*,#256,.T.);
#333 = ORIENTED_EDGE('',*,*,#288,.T.);
#334 = PLANE('',#335);
#335 = AXIS2_PLACEMENT_3D('',#336,#337,#338);
#336 = CARTESIAN_POINT('',(-64.21262494119,-111.2195288855,
    -19.23119052509));
#337 = DIRECTION('',(0.866025403784,-0.5,3.330669073875E-16));
#338 = DIRECTION('',(-1.922962686384E-16,3.330669073875E-16,1.));
#339 = ( GEOMETRIC_REPRESENTATION_CONTEXT(3) 
GLOBAL_UNCERTAINTY_ASSIGNED_CONTEXT((#343)) GLOBAL_UNIT_ASSIGNED_CONTEXT
((#340,#341,#342)) REPRESENTATION_CONTEXT('Context #1',
  '3D Context with UNIT and UNCERTAINTY') );
#340 = ( LENGTH_UNIT() NAMED_UNIT(*) SI_UNIT(.MILLI.,.METRE.) );
#341 = ( NAMED_UNIT(*) PLANE_ANGLE_UNIT() SI_UNIT($,.RADIAN.) );
#342 = ( NAMED_UNIT(*) SI_UNIT($,.STERADIAN.) SOLID_ANGLE_UNIT() );
#343 = UNCERTAINTY_MEASURE_WITH_UNIT(LENGTH_MEASURE(1.E-07),#340,
  'distance_accuracy_value','confusion accuracy');
#344 = PRODUCT_RELATED_PRODUCT_CATEGORY('part',$,(#7));
#345 = MECHANICAL_DESIGN_GEOMETRIC_PRESENTATION_REPRESENTATION('',(#346)
  ,#339);
#346 = STYLED_ITEM('color',(#347),#15);
#347 = PRESENTATION_STYLE_ASSIGNMENT((#348,#354));
#348 = SURFACE_STYLE_USAGE(.BOTH.,#349);
#349 = SURFACE_SIDE_STYLE('',(#350));
#350 = SURFACE_STYLE_FILL_AREA(#351);
#351 = FILL_AREA_STYLE('',(#352));
#352 = FILL_AREA_STYLE_COLOUR('',#353);
#353 = COLOUR_RGB('',0.447058818107,0.474509808674,0.501960817233);
#354 = CURVE_STYLE('',#355,POSITIVE_LENGTH_MEASURE(0.1),#356);
#355 = DRAUGHTING_PRE_DEFINED_CURVE_FONT('continuous');
#356 = COLOUR_RGB('',9.803921802644E-02,9.803921802644E-02,
  9.803921802644E-02);
ENDSEC;
END-ISO-10303-21;
