ISO-10303-21;
HEADER;
FILE_DESCRIPTION(('FreeCAD Model'),'2;1');
FILE_NAME('Open CASCADE Shape Model','2026-07-22T13:44:23',(''),(''),
  'Open CASCADE STEP processor 7.9','FreeCAD','Unknown');
FILE_SCHEMA(('AUTOMOTIVE_DESIGN { 1 0 10303 214 1 1 1 1 }'));
ENDSEC;
DATA;
#1 = APPLICATION_PROTOCOL_DEFINITION('international standard',
  'automotive_design',2000,#2);
#2 = APPLICATION_CONTEXT(
  'core data for automotive mechanical design processes');
#3 = SHAPE_DEFINITION_REPRESENTATION(#4,#10);
#4 = PRODUCT_DEFINITION_SHAPE('','',#5);
#5 = PRODUCT_DEFINITION('design','',#6,#9);
#6 = PRODUCT_DEFINITION_FORMATION('','',#7);
#7 = PRODUCT('base-bottom','base-bottom','',(#8));
#8 = PRODUCT_CONTEXT('',#2,'mechanical');
#9 = PRODUCT_DEFINITION_CONTEXT('part definition',#2,'design');
#10 = ADVANCED_BREP_SHAPE_REPRESENTATION('',(#11,#15),#2046);
#11 = AXIS2_PLACEMENT_3D('',#12,#13,#14);
#12 = CARTESIAN_POINT('',(0.,0.,0.));
#13 = DIRECTION('',(0.,0.,1.));
#14 = DIRECTION('',(1.,0.,-0.));
#15 = MANIFOLD_SOLID_BREP('',#16);
#16 = CLOSED_SHELL('',(#17,#361,#408,#432,#472,#497,#522,#554,#578,#602,
    #620,#652,#676,#700,#718,#750,#774,#798,#816,#848,#872,#896,#914,
    #946,#970,#994,#1012,#1044,#1068,#1092,#1110,#1141,#1165,#1189,#1206
    ,#1231,#1256,#1298,#1475,#1489,#1514,#1539,#1564,#1595,#1619,#1644,
    #1661,#1692,#1716,#1741,#1758,#1789,#1813,#1838,#1855,#1875,#1895,
    #1915,#1938,#1961,#1984,#2000,#2016,#2032));
#17 = ADVANCED_FACE('',(#18,#62,#73,#84,#120,#156,#192,#228,#264,#300,
    #334,#345),#356,.T.);
#18 = FACE_BOUND('',#19,.T.);
#19 = EDGE_LOOP('',(#20,#31,#39,#47,#55));
#20 = ORIENTED_EDGE('',*,*,#21,.T.);
#21 = EDGE_CURVE('',#22,#24,#26,.T.);
#22 = VERTEX_POINT('',#23);
#23 = CARTESIAN_POINT('',(130.,0.,-43.5));
#24 = VERTEX_POINT('',#25);
#25 = CARTESIAN_POINT('',(40.440867999996,-123.5497316686,-43.5));
#26 = CIRCLE('',#27,130.);
#27 = AXIS2_PLACEMENT_3D('',#28,#29,#30);
#28 = CARTESIAN_POINT('',(0.,0.,-43.5));
#29 = DIRECTION('',(0.,0.,-1.));
#30 = DIRECTION('',(1.,0.,0.));
#31 = ORIENTED_EDGE('',*,*,#32,.F.);
#32 = EDGE_CURVE('',#33,#24,#35,.T.);
#33 = VERTEX_POINT('',#34);
#34 = CARTESIAN_POINT('',(40.440868,-110.5692655,-43.5));
#35 = LINE('',#36,#37);
#36 = CARTESIAN_POINT('',(40.440868,-110.5692655,-43.5));
#37 = VECTOR('',#38,1.);
#38 = DIRECTION('',(0.,-1.,0.));
#39 = ORIENTED_EDGE('',*,*,#40,.F.);
#40 = EDGE_CURVE('',#41,#33,#43,.T.);
#41 = VERTEX_POINT('',#42);
#42 = CARTESIAN_POINT('',(-40.440868,-110.5692655,-43.5));
#43 = LINE('',#44,#45);
#44 = CARTESIAN_POINT('',(-40.440868,-110.5692655,-43.5));
#45 = VECTOR('',#46,1.);
#46 = DIRECTION('',(1.,0.,0.));
#47 = ORIENTED_EDGE('',*,*,#48,.F.);
#48 = EDGE_CURVE('',#49,#41,#51,.T.);
#49 = VERTEX_POINT('',#50);
#50 = CARTESIAN_POINT('',(-40.44086799999,-123.5497316686,-43.5));
#51 = LINE('',#52,#53);
#52 = CARTESIAN_POINT('',(-40.440868,-135.1321745,-43.5));
#53 = VECTOR('',#54,1.);
#54 = DIRECTION('',(0.,1.,0.));
#55 = ORIENTED_EDGE('',*,*,#56,.T.);
#56 = EDGE_CURVE('',#49,#22,#57,.T.);
#57 = CIRCLE('',#58,130.);
#58 = AXIS2_PLACEMENT_3D('',#59,#60,#61);
#59 = CARTESIAN_POINT('',(0.,0.,-43.5));
#60 = DIRECTION('',(0.,0.,-1.));
#61 = DIRECTION('',(1.,0.,0.));
#62 = FACE_BOUND('',#63,.T.);
#63 = EDGE_LOOP('',(#64));
#64 = ORIENTED_EDGE('',*,*,#65,.F.);
#65 = EDGE_CURVE('',#66,#66,#68,.T.);
#66 = VERTEX_POINT('',#67);
#67 = CARTESIAN_POINT('',(62.25,-95.69580711818,-43.5));
#68 = CIRCLE('',#69,7.);
#69 = AXIS2_PLACEMENT_3D('',#70,#71,#72);
#70 = CARTESIAN_POINT('',(58.75,-101.7579849446,-43.5));
#71 = DIRECTION('',(0.,0.,-1.));
#72 = DIRECTION('',(0.5,0.866025403784,0.));
#73 = FACE_BOUND('',#74,.T.);
#74 = EDGE_LOOP('',(#75));
#75 = ORIENTED_EDGE('',*,*,#76,.F.);
#76 = EDGE_CURVE('',#77,#77,#79,.T.);
#77 = VERTEX_POINT('',#78);
#78 = CARTESIAN_POINT('',(-114.,-6.062177826491,-43.5));
#79 = CIRCLE('',#80,7.);
#80 = AXIS2_PLACEMENT_3D('',#81,#82,#83);
#81 = CARTESIAN_POINT('',(-117.5,-4.973799150321E-14,-43.5));
#82 = DIRECTION('',(0.,-0.,-1.));
#83 = DIRECTION('',(0.5,-0.866025403784,0.));
#84 = FACE_BOUND('',#85,.T.);
#85 = EDGE_LOOP('',(#86,#97,#105,#114));
#86 = ORIENTED_EDGE('',*,*,#87,.F.);
#87 = EDGE_CURVE('',#88,#90,#92,.T.);
#88 = VERTEX_POINT('',#89);
#89 = CARTESIAN_POINT('',(88.8311,18.2955,-43.5));
#90 = VERTEX_POINT('',#91);
#91 = CARTESIAN_POINT('',(81.8311,18.2955,-43.5));
#92 = CIRCLE('',#93,3.5);
#93 = AXIS2_PLACEMENT_3D('',#94,#95,#96);
#94 = CARTESIAN_POINT('',(85.3311,18.2955,-43.5));
#95 = DIRECTION('',(0.,0.,-1.));
#96 = DIRECTION('',(1.,0.,0.));
#97 = ORIENTED_EDGE('',*,*,#98,.T.);
#98 = EDGE_CURVE('',#88,#99,#101,.T.);
#99 = VERTEX_POINT('',#100);
#100 = CARTESIAN_POINT('',(88.8311,68.2955,-43.5));
#101 = LINE('',#102,#103);
#102 = CARTESIAN_POINT('',(88.8311,18.2955,-43.5));
#103 = VECTOR('',#104,1.);
#104 = DIRECTION('',(0.,1.,0.));
#105 = ORIENTED_EDGE('',*,*,#106,.F.);
#106 = EDGE_CURVE('',#107,#99,#109,.T.);
#107 = VERTEX_POINT('',#108);
#108 = CARTESIAN_POINT('',(81.8311,68.2955,-43.5));
#109 = CIRCLE('',#110,3.5);
#110 = AXIS2_PLACEMENT_3D('',#111,#112,#113);
#111 = CARTESIAN_POINT('',(85.3311,68.2955,-43.5));
#112 = DIRECTION('',(0.,0.,-1.));
#113 = DIRECTION('',(1.,0.,0.));
#114 = ORIENTED_EDGE('',*,*,#115,.F.);
#115 = EDGE_CURVE('',#90,#107,#116,.T.);
#116 = LINE('',#117,#118);
#117 = CARTESIAN_POINT('',(81.8311,18.2955,-43.5));
#118 = VECTOR('',#119,1.);
#119 = DIRECTION('',(0.,1.,0.));
#120 = FACE_BOUND('',#121,.T.);
#121 = EDGE_LOOP('',(#122,#133,#141,#150));
#122 = ORIENTED_EDGE('',*,*,#123,.F.);
#123 = EDGE_CURVE('',#124,#126,#128,.T.);
#124 = VERTEX_POINT('',#125);
#125 = CARTESIAN_POINT('',(79.8311,18.2955,-43.5));
#126 = VERTEX_POINT('',#127);
#127 = CARTESIAN_POINT('',(72.8311,18.2955,-43.5));
#128 = CIRCLE('',#129,3.5);
#129 = AXIS2_PLACEMENT_3D('',#130,#131,#132);
#130 = CARTESIAN_POINT('',(76.3311,18.2955,-43.5));
#131 = DIRECTION('',(0.,0.,-1.));
#132 = DIRECTION('',(1.,0.,0.));
#133 = ORIENTED_EDGE('',*,*,#134,.T.);
#134 = EDGE_CURVE('',#124,#135,#137,.T.);
#135 = VERTEX_POINT('',#136);
#136 = CARTESIAN_POINT('',(79.8311,68.2955,-43.5));
#137 = LINE('',#138,#139);
#138 = CARTESIAN_POINT('',(79.8311,18.2955,-43.5));
#139 = VECTOR('',#140,1.);
#140 = DIRECTION('',(0.,1.,0.));
#141 = ORIENTED_EDGE('',*,*,#142,.F.);
#142 = EDGE_CURVE('',#143,#135,#145,.T.);
#143 = VERTEX_POINT('',#144);
#144 = CARTESIAN_POINT('',(72.8311,68.2955,-43.5));
#145 = CIRCLE('',#146,3.5);
#146 = AXIS2_PLACEMENT_3D('',#147,#148,#149);
#147 = CARTESIAN_POINT('',(76.3311,68.2955,-43.5));
#148 = DIRECTION('',(0.,0.,-1.));
#149 = DIRECTION('',(1.,0.,0.));
#150 = ORIENTED_EDGE('',*,*,#151,.F.);
#151 = EDGE_CURVE('',#126,#143,#152,.T.);
#152 = LINE('',#153,#154);
#153 = CARTESIAN_POINT('',(72.8311,18.2955,-43.5));
#154 = VECTOR('',#155,1.);
#155 = DIRECTION('',(0.,1.,0.));
#156 = FACE_BOUND('',#157,.T.);
#157 = EDGE_LOOP('',(#158,#169,#177,#186));
#158 = ORIENTED_EDGE('',*,*,#159,.F.);
#159 = EDGE_CURVE('',#160,#162,#164,.T.);
#160 = VERTEX_POINT('',#161);
#161 = CARTESIAN_POINT('',(70.8311,18.2955,-43.5));
#162 = VERTEX_POINT('',#163);
#163 = CARTESIAN_POINT('',(63.8311,18.2955,-43.5));
#164 = CIRCLE('',#165,3.5);
#165 = AXIS2_PLACEMENT_3D('',#166,#167,#168);
#166 = CARTESIAN_POINT('',(67.3311,18.2955,-43.5));
#167 = DIRECTION('',(0.,0.,-1.));
#168 = DIRECTION('',(1.,0.,0.));
#169 = ORIENTED_EDGE('',*,*,#170,.T.);
#170 = EDGE_CURVE('',#160,#171,#173,.T.);
#171 = VERTEX_POINT('',#172);
#172 = CARTESIAN_POINT('',(70.8311,68.2955,-43.5));
#173 = LINE('',#174,#175);
#174 = CARTESIAN_POINT('',(70.8311,18.2955,-43.5));
#175 = VECTOR('',#176,1.);
#176 = DIRECTION('',(0.,1.,0.));
#177 = ORIENTED_EDGE('',*,*,#178,.F.);
#178 = EDGE_CURVE('',#179,#171,#181,.T.);
#179 = VERTEX_POINT('',#180);
#180 = CARTESIAN_POINT('',(63.8311,68.2955,-43.5));
#181 = CIRCLE('',#182,3.5);
#182 = AXIS2_PLACEMENT_3D('',#183,#184,#185);
#183 = CARTESIAN_POINT('',(67.3311,68.2955,-43.5));
#184 = DIRECTION('',(0.,0.,-1.));
#185 = DIRECTION('',(1.,0.,0.));
#186 = ORIENTED_EDGE('',*,*,#187,.F.);
#187 = EDGE_CURVE('',#162,#179,#188,.T.);
#188 = LINE('',#189,#190);
#189 = CARTESIAN_POINT('',(63.8311,18.2955,-43.5));
#190 = VECTOR('',#191,1.);
#191 = DIRECTION('',(0.,1.,0.));
#192 = FACE_BOUND('',#193,.T.);
#193 = EDGE_LOOP('',(#194,#205,#213,#222));
#194 = ORIENTED_EDGE('',*,*,#195,.F.);
#195 = EDGE_CURVE('',#196,#198,#200,.T.);
#196 = VERTEX_POINT('',#197);
#197 = CARTESIAN_POINT('',(61.8311,18.2955,-43.5));
#198 = VERTEX_POINT('',#199);
#199 = CARTESIAN_POINT('',(54.8311,18.2955,-43.5));
#200 = CIRCLE('',#201,3.5);
#201 = AXIS2_PLACEMENT_3D('',#202,#203,#204);
#202 = CARTESIAN_POINT('',(58.3311,18.2955,-43.5));
#203 = DIRECTION('',(0.,0.,-1.));
#204 = DIRECTION('',(1.,0.,0.));
#205 = ORIENTED_EDGE('',*,*,#206,.T.);
#206 = EDGE_CURVE('',#196,#207,#209,.T.);
#207 = VERTEX_POINT('',#208);
#208 = CARTESIAN_POINT('',(61.8311,68.2955,-43.5));
#209 = LINE('',#210,#211);
#210 = CARTESIAN_POINT('',(61.8311,18.2955,-43.5));
#211 = VECTOR('',#212,1.);
#212 = DIRECTION('',(0.,1.,0.));
#213 = ORIENTED_EDGE('',*,*,#214,.F.);
#214 = EDGE_CURVE('',#215,#207,#217,.T.);
#215 = VERTEX_POINT('',#216);
#216 = CARTESIAN_POINT('',(54.8311,68.2955,-43.5));
#217 = CIRCLE('',#218,3.5);
#218 = AXIS2_PLACEMENT_3D('',#219,#220,#221);
#219 = CARTESIAN_POINT('',(58.3311,68.2955,-43.5));
#220 = DIRECTION('',(0.,0.,-1.));
#221 = DIRECTION('',(1.,0.,0.));
#222 = ORIENTED_EDGE('',*,*,#223,.F.);
#223 = EDGE_CURVE('',#198,#215,#224,.T.);
#224 = LINE('',#225,#226);
#225 = CARTESIAN_POINT('',(54.8311,18.2955,-43.5));
#226 = VECTOR('',#227,1.);
#227 = DIRECTION('',(0.,1.,0.));
#228 = FACE_BOUND('',#229,.T.);
#229 = EDGE_LOOP('',(#230,#241,#249,#258));
#230 = ORIENTED_EDGE('',*,*,#231,.F.);
#231 = EDGE_CURVE('',#232,#234,#236,.T.);
#232 = VERTEX_POINT('',#233);
#233 = CARTESIAN_POINT('',(52.8311,18.2955,-43.5));
#234 = VERTEX_POINT('',#235);
#235 = CARTESIAN_POINT('',(45.8311,18.2955,-43.5));
#236 = CIRCLE('',#237,3.5);
#237 = AXIS2_PLACEMENT_3D('',#238,#239,#240);
#238 = CARTESIAN_POINT('',(49.3311,18.2955,-43.5));
#239 = DIRECTION('',(0.,0.,-1.));
#240 = DIRECTION('',(1.,0.,0.));
#241 = ORIENTED_EDGE('',*,*,#242,.T.);
#242 = EDGE_CURVE('',#232,#243,#245,.T.);
#243 = VERTEX_POINT('',#244);
#244 = CARTESIAN_POINT('',(52.8311,68.2955,-43.5));
#245 = LINE('',#246,#247);
#246 = CARTESIAN_POINT('',(52.8311,18.2955,-43.5));
#247 = VECTOR('',#248,1.);
#248 = DIRECTION('',(0.,1.,0.));
#249 = ORIENTED_EDGE('',*,*,#250,.F.);
#250 = EDGE_CURVE('',#251,#243,#253,.T.);
#251 = VERTEX_POINT('',#252);
#252 = CARTESIAN_POINT('',(45.8311,68.2955,-43.5));
#253 = CIRCLE('',#254,3.5);
#254 = AXIS2_PLACEMENT_3D('',#255,#256,#257);
#255 = CARTESIAN_POINT('',(49.3311,68.2955,-43.5));
#256 = DIRECTION('',(0.,0.,-1.));
#257 = DIRECTION('',(1.,0.,0.));
#258 = ORIENTED_EDGE('',*,*,#259,.F.);
#259 = EDGE_CURVE('',#234,#251,#260,.T.);
#260 = LINE('',#261,#262);
#261 = CARTESIAN_POINT('',(45.8311,18.2955,-43.5));
#262 = VECTOR('',#263,1.);
#263 = DIRECTION('',(0.,1.,0.));
#264 = FACE_BOUND('',#265,.T.);
#265 = EDGE_LOOP('',(#266,#277,#285,#294));
#266 = ORIENTED_EDGE('',*,*,#267,.F.);
#267 = EDGE_CURVE('',#268,#270,#272,.T.);
#268 = VERTEX_POINT('',#269);
#269 = CARTESIAN_POINT('',(43.8311,18.2955,-43.5));
#270 = VERTEX_POINT('',#271);
#271 = CARTESIAN_POINT('',(36.8311,18.2955,-43.5));
#272 = CIRCLE('',#273,3.5);
#273 = AXIS2_PLACEMENT_3D('',#274,#275,#276);
#274 = CARTESIAN_POINT('',(40.3311,18.2955,-43.5));
#275 = DIRECTION('',(0.,0.,-1.));
#276 = DIRECTION('',(1.,0.,0.));
#277 = ORIENTED_EDGE('',*,*,#278,.T.);
#278 = EDGE_CURVE('',#268,#279,#281,.T.);
#279 = VERTEX_POINT('',#280);
#280 = CARTESIAN_POINT('',(43.8311,68.2955,-43.5));
#281 = LINE('',#282,#283);
#282 = CARTESIAN_POINT('',(43.8311,18.2955,-43.5));
#283 = VECTOR('',#284,1.);
#284 = DIRECTION('',(0.,1.,0.));
#285 = ORIENTED_EDGE('',*,*,#286,.F.);
#286 = EDGE_CURVE('',#287,#279,#289,.T.);
#287 = VERTEX_POINT('',#288);
#288 = CARTESIAN_POINT('',(36.8311,68.2955,-43.5));
#289 = CIRCLE('',#290,3.5);
#290 = AXIS2_PLACEMENT_3D('',#291,#292,#293);
#291 = CARTESIAN_POINT('',(40.3311,68.2955,-43.5));
#292 = DIRECTION('',(0.,0.,-1.));
#293 = DIRECTION('',(1.,0.,0.));
#294 = ORIENTED_EDGE('',*,*,#295,.F.);
#295 = EDGE_CURVE('',#270,#287,#296,.T.);
#296 = LINE('',#297,#298);
#297 = CARTESIAN_POINT('',(36.8311,18.2955,-43.5));
#298 = VECTOR('',#299,1.);
#299 = DIRECTION('',(0.,1.,0.));
#300 = FACE_BOUND('',#301,.T.);
#301 = EDGE_LOOP('',(#302,#312,#320,#328));
#302 = ORIENTED_EDGE('',*,*,#303,.F.);
#303 = EDGE_CURVE('',#304,#306,#308,.T.);
#304 = VERTEX_POINT('',#305);
#305 = CARTESIAN_POINT('',(25.,40.,-43.5));
#306 = VERTEX_POINT('',#307);
#307 = CARTESIAN_POINT('',(25.,-40.,-43.5));
#308 = LINE('',#309,#310);
#309 = CARTESIAN_POINT('',(25.,40.,-43.5));
#310 = VECTOR('',#311,1.);
#311 = DIRECTION('',(0.,-1.,0.));
#312 = ORIENTED_EDGE('',*,*,#313,.F.);
#313 = EDGE_CURVE('',#314,#304,#316,.T.);
#314 = VERTEX_POINT('',#315);
#315 = CARTESIAN_POINT('',(-25.,40.,-43.5));
#316 = LINE('',#317,#318);
#317 = CARTESIAN_POINT('',(-25.,40.,-43.5));
#318 = VECTOR('',#319,1.);
#319 = DIRECTION('',(1.,0.,0.));
#320 = ORIENTED_EDGE('',*,*,#321,.F.);
#321 = EDGE_CURVE('',#322,#314,#324,.T.);
#322 = VERTEX_POINT('',#323);
#323 = CARTESIAN_POINT('',(-25.,-40.,-43.5));
#324 = LINE('',#325,#326);
#325 = CARTESIAN_POINT('',(-25.,-40.,-43.5));
#326 = VECTOR('',#327,1.);
#327 = DIRECTION('',(0.,1.,0.));
#328 = ORIENTED_EDGE('',*,*,#329,.F.);
#329 = EDGE_CURVE('',#306,#322,#330,.T.);
#330 = LINE('',#331,#332);
#331 = CARTESIAN_POINT('',(25.,-40.,-43.5));
#332 = VECTOR('',#333,1.);
#333 = DIRECTION('',(-1.,0.,0.));
#334 = FACE_BOUND('',#335,.T.);
#335 = EDGE_LOOP('',(#336));
#336 = ORIENTED_EDGE('',*,*,#337,.F.);
#337 = EDGE_CURVE('',#338,#338,#340,.T.);
#338 = VERTEX_POINT('',#339);
#339 = CARTESIAN_POINT('',(51.75,101.75798494467,-43.5));
#340 = CIRCLE('',#341,7.);
#341 = AXIS2_PLACEMENT_3D('',#342,#343,#344);
#342 = CARTESIAN_POINT('',(58.75,101.75798494467,-43.5));
#343 = DIRECTION('',(0.,0.,-1.));
#344 = DIRECTION('',(-1.,0.,0.));
#345 = FACE_BOUND('',#346,.T.);
#346 = EDGE_LOOP('',(#347));
#347 = ORIENTED_EDGE('',*,*,#348,.F.);
#348 = EDGE_CURVE('',#349,#349,#351,.T.);
#349 = VERTEX_POINT('',#350);
#350 = CARTESIAN_POINT('',(-31.31066422138,93.2036,-43.5));
#351 = CIRCLE('',#352,9.871835778618);
#352 = AXIS2_PLACEMENT_3D('',#353,#354,#355);
#353 = CARTESIAN_POINT('',(-41.1825,93.2036,-43.5));
#354 = DIRECTION('',(0.,0.,-1.));
#355 = DIRECTION('',(1.,0.,0.));
#356 = PLANE('',#357);
#357 = AXIS2_PLACEMENT_3D('',#358,#359,#360);
#358 = CARTESIAN_POINT('',(4.796793412178,-8.906245411467,-43.5));
#359 = DIRECTION('',(-0.,-0.,-1.));
#360 = DIRECTION('',(-1.,0.,0.));
#361 = ADVANCED_FACE('',(#362),#403,.F.);
#362 = FACE_BOUND('',#363,.F.);
#363 = EDGE_LOOP('',(#364,#365,#373,#381,#389,#397));
#364 = ORIENTED_EDGE('',*,*,#48,.F.);
#365 = ORIENTED_EDGE('',*,*,#366,.F.);
#366 = EDGE_CURVE('',#367,#49,#369,.T.);
#367 = VERTEX_POINT('',#368);
#368 = CARTESIAN_POINT('',(-40.440868,-123.5497316686,-33.5));
#369 = LINE('',#370,#371);
#370 = CARTESIAN_POINT('',(-40.440868,-123.5497316686,-43.5));
#371 = VECTOR('',#372,1.);
#372 = DIRECTION('',(0.,0.,-1.));
#373 = ORIENTED_EDGE('',*,*,#374,.F.);
#374 = EDGE_CURVE('',#375,#367,#377,.T.);
#375 = VERTEX_POINT('',#376);
#376 = CARTESIAN_POINT('',(-40.440868,-119.0697219926,-33.5));
#377 = LINE('',#378,#379);
#378 = CARTESIAN_POINT('',(-40.440868,-67.56608725,-33.5));
#379 = VECTOR('',#380,1.);
#380 = DIRECTION('',(0.,-1.,0.));
#381 = ORIENTED_EDGE('',*,*,#382,.F.);
#382 = EDGE_CURVE('',#383,#375,#385,.T.);
#383 = VERTEX_POINT('',#384);
#384 = CARTESIAN_POINT('',(-40.440868,-119.0697219926,-39.5));
#385 = LINE('',#386,#387);
#386 = CARTESIAN_POINT('',(-40.440868,-119.0697219926,-33.5));
#387 = VECTOR('',#388,1.);
#388 = DIRECTION('',(0.,0.,1.));
#389 = ORIENTED_EDGE('',*,*,#390,.F.);
#390 = EDGE_CURVE('',#391,#383,#393,.T.);
#391 = VERTEX_POINT('',#392);
#392 = CARTESIAN_POINT('',(-40.440868,-110.5692655,-39.5));
#393 = LINE('',#394,#395);
#394 = CARTESIAN_POINT('',(-40.440868,-67.56608725,-39.5));
#395 = VECTOR('',#396,1.);
#396 = DIRECTION('',(0.,-1.,0.));
#397 = ORIENTED_EDGE('',*,*,#398,.F.);
#398 = EDGE_CURVE('',#41,#391,#399,.T.);
#399 = LINE('',#400,#401);
#400 = CARTESIAN_POINT('',(-40.440868,-110.5692655,-43.5));
#401 = VECTOR('',#402,1.);
#402 = DIRECTION('',(0.,0.,1.));
#403 = PLANE('',#404);
#404 = AXIS2_PLACEMENT_3D('',#405,#406,#407);
#405 = CARTESIAN_POINT('',(-40.440868,-135.1321745,-43.5));
#406 = DIRECTION('',(-1.,0.,0.));
#407 = DIRECTION('',(0.,1.,0.));
#408 = ADVANCED_FACE('',(#409),#427,.F.);
#409 = FACE_BOUND('',#410,.F.);
#410 = EDGE_LOOP('',(#411,#412,#413,#421));
#411 = ORIENTED_EDGE('',*,*,#40,.F.);
#412 = ORIENTED_EDGE('',*,*,#398,.T.);
#413 = ORIENTED_EDGE('',*,*,#414,.F.);
#414 = EDGE_CURVE('',#415,#391,#417,.T.);
#415 = VERTEX_POINT('',#416);
#416 = CARTESIAN_POINT('',(40.440868,-110.5692655,-39.5));
#417 = LINE('',#418,#419);
#418 = CARTESIAN_POINT('',(-20.220434,-110.5692655,-39.5));
#419 = VECTOR('',#420,1.);
#420 = DIRECTION('',(-1.,0.,0.));
#421 = ORIENTED_EDGE('',*,*,#422,.F.);
#422 = EDGE_CURVE('',#33,#415,#423,.T.);
#423 = LINE('',#424,#425);
#424 = CARTESIAN_POINT('',(40.440868,-110.5692655,-43.5));
#425 = VECTOR('',#426,1.);
#426 = DIRECTION('',(0.,0.,1.));
#427 = PLANE('',#428);
#428 = AXIS2_PLACEMENT_3D('',#429,#430,#431);
#429 = CARTESIAN_POINT('',(-40.440868,-110.5692655,-43.5));
#430 = DIRECTION('',(0.,1.,0.));
#431 = DIRECTION('',(1.,0.,0.));
#432 = ADVANCED_FACE('',(#433),#467,.F.);
#433 = FACE_BOUND('',#434,.F.);
#434 = EDGE_LOOP('',(#435,#436,#437,#445,#453,#461));
#435 = ORIENTED_EDGE('',*,*,#32,.F.);
#436 = ORIENTED_EDGE('',*,*,#422,.T.);
#437 = ORIENTED_EDGE('',*,*,#438,.F.);
#438 = EDGE_CURVE('',#439,#415,#441,.T.);
#439 = VERTEX_POINT('',#440);
#440 = CARTESIAN_POINT('',(40.440868,-119.0697219926,-39.5));
#441 = LINE('',#442,#443);
#442 = CARTESIAN_POINT('',(40.440868,-55.28463275,-39.5));
#443 = VECTOR('',#444,1.);
#444 = DIRECTION('',(0.,1.,0.));
#445 = ORIENTED_EDGE('',*,*,#446,.T.);
#446 = EDGE_CURVE('',#439,#447,#449,.T.);
#447 = VERTEX_POINT('',#448);
#448 = CARTESIAN_POINT('',(40.440868,-119.0697219926,-33.5));
#449 = LINE('',#450,#451);
#450 = CARTESIAN_POINT('',(40.440868,-119.0697219926,-33.5));
#451 = VECTOR('',#452,1.);
#452 = DIRECTION('',(0.,0.,1.));
#453 = ORIENTED_EDGE('',*,*,#454,.F.);
#454 = EDGE_CURVE('',#455,#447,#457,.T.);
#455 = VERTEX_POINT('',#456);
#456 = CARTESIAN_POINT('',(40.440868,-123.5497316686,-33.5));
#457 = LINE('',#458,#459);
#458 = CARTESIAN_POINT('',(40.440868,-55.28463275,-33.5));
#459 = VECTOR('',#460,1.);
#460 = DIRECTION('',(0.,1.,0.));
#461 = ORIENTED_EDGE('',*,*,#462,.T.);
#462 = EDGE_CURVE('',#455,#24,#463,.T.);
#463 = LINE('',#464,#465);
#464 = CARTESIAN_POINT('',(40.440868,-123.5497316686,-43.5));
#465 = VECTOR('',#466,1.);
#466 = DIRECTION('',(0.,0.,-1.));
#467 = PLANE('',#468);
#468 = AXIS2_PLACEMENT_3D('',#469,#470,#471);
#469 = CARTESIAN_POINT('',(40.440868,-110.5692655,-43.5));
#470 = DIRECTION('',(1.,0.,0.));
#471 = DIRECTION('',(0.,-1.,0.));
#472 = ADVANCED_FACE('',(#473),#492,.F.);
#473 = FACE_BOUND('',#474,.T.);
#474 = EDGE_LOOP('',(#475,#483,#484,#485));
#475 = ORIENTED_EDGE('',*,*,#476,.F.);
#476 = EDGE_CURVE('',#66,#477,#479,.T.);
#477 = VERTEX_POINT('',#478);
#478 = CARTESIAN_POINT('',(61.75,-96.56183252196,-42.5));
#479 = LINE('',#480,#481);
#480 = CARTESIAN_POINT('',(61.75,-96.56183252196,-42.5));
#481 = VECTOR('',#482,1.);
#482 = DIRECTION('',(-0.353553390593,-0.612372435696,0.707106781187));
#483 = ORIENTED_EDGE('',*,*,#65,.T.);
#484 = ORIENTED_EDGE('',*,*,#476,.T.);
#485 = ORIENTED_EDGE('',*,*,#486,.F.);
#486 = EDGE_CURVE('',#477,#477,#487,.T.);
#487 = CIRCLE('',#488,6.);
#488 = AXIS2_PLACEMENT_3D('',#489,#490,#491);
#489 = CARTESIAN_POINT('',(58.75,-101.7579849446,-42.5));
#490 = DIRECTION('',(0.,0.,-1.));
#491 = DIRECTION('',(0.5,0.866025403784,0.));
#492 = CONICAL_SURFACE('',#493,6.,0.785398163397);
#493 = AXIS2_PLACEMENT_3D('',#494,#495,#496);
#494 = CARTESIAN_POINT('',(58.75,-101.7579849446,-42.5));
#495 = DIRECTION('',(0.,0.,-1.));
#496 = DIRECTION('',(0.5,0.866025403784,0.));
#497 = ADVANCED_FACE('',(#498),#517,.F.);
#498 = FACE_BOUND('',#499,.T.);
#499 = EDGE_LOOP('',(#500,#508,#509,#510));
#500 = ORIENTED_EDGE('',*,*,#501,.F.);
#501 = EDGE_CURVE('',#77,#502,#504,.T.);
#502 = VERTEX_POINT('',#503);
#503 = CARTESIAN_POINT('',(-114.5,-5.196152422707,-42.5));
#504 = LINE('',#505,#506);
#505 = CARTESIAN_POINT('',(-114.5,-5.196152422707,-42.5));
#506 = VECTOR('',#507,1.);
#507 = DIRECTION('',(-0.353553390593,0.612372435696,0.707106781187));
#508 = ORIENTED_EDGE('',*,*,#76,.T.);
#509 = ORIENTED_EDGE('',*,*,#501,.T.);
#510 = ORIENTED_EDGE('',*,*,#511,.F.);
#511 = EDGE_CURVE('',#502,#502,#512,.T.);
#512 = CIRCLE('',#513,6.);
#513 = AXIS2_PLACEMENT_3D('',#514,#515,#516);
#514 = CARTESIAN_POINT('',(-117.5,-4.973799150321E-14,-42.5));
#515 = DIRECTION('',(0.,-0.,-1.));
#516 = DIRECTION('',(0.5,-0.866025403784,0.));
#517 = CONICAL_SURFACE('',#518,6.,0.785398163397);
#518 = AXIS2_PLACEMENT_3D('',#519,#520,#521);
#519 = CARTESIAN_POINT('',(-117.5,-4.973799150321E-14,-42.5));
#520 = DIRECTION('',(0.,0.,-1.));
#521 = DIRECTION('',(0.5,-0.866025403784,0.));
#522 = ADVANCED_FACE('',(#523),#549,.F.);
#523 = FACE_BOUND('',#524,.F.);
#524 = EDGE_LOOP('',(#525,#526,#534,#543));
#525 = ORIENTED_EDGE('',*,*,#87,.F.);
#526 = ORIENTED_EDGE('',*,*,#527,.T.);
#527 = EDGE_CURVE('',#88,#528,#530,.T.);
#528 = VERTEX_POINT('',#529);
#529 = CARTESIAN_POINT('',(88.8311,18.2955,-39.5));
#530 = LINE('',#531,#532);
#531 = CARTESIAN_POINT('',(88.8311,18.2955,-43.5));
#532 = VECTOR('',#533,1.);
#533 = DIRECTION('',(0.,0.,1.));
#534 = ORIENTED_EDGE('',*,*,#535,.T.);
#535 = EDGE_CURVE('',#528,#536,#538,.T.);
#536 = VERTEX_POINT('',#537);
#537 = CARTESIAN_POINT('',(81.8311,18.2955,-39.5));
#538 = CIRCLE('',#539,3.5);
#539 = AXIS2_PLACEMENT_3D('',#540,#541,#542);
#540 = CARTESIAN_POINT('',(85.3311,18.2955,-39.5));
#541 = DIRECTION('',(0.,0.,-1.));
#542 = DIRECTION('',(1.,0.,0.));
#543 = ORIENTED_EDGE('',*,*,#544,.F.);
#544 = EDGE_CURVE('',#90,#536,#545,.T.);
#545 = LINE('',#546,#547);
#546 = CARTESIAN_POINT('',(81.8311,18.2955,-43.5));
#547 = VECTOR('',#548,1.);
#548 = DIRECTION('',(0.,0.,1.));
#549 = CYLINDRICAL_SURFACE('',#550,3.5);
#550 = AXIS2_PLACEMENT_3D('',#551,#552,#553);
#551 = CARTESIAN_POINT('',(85.3311,18.2955,-43.5));
#552 = DIRECTION('',(0.,0.,-1.));
#553 = DIRECTION('',(1.,0.,0.));
#554 = ADVANCED_FACE('',(#555),#573,.T.);
#555 = FACE_BOUND('',#556,.T.);
#556 = EDGE_LOOP('',(#557,#558,#559,#567));
#557 = ORIENTED_EDGE('',*,*,#98,.F.);
#558 = ORIENTED_EDGE('',*,*,#527,.T.);
#559 = ORIENTED_EDGE('',*,*,#560,.F.);
#560 = EDGE_CURVE('',#561,#528,#563,.T.);
#561 = VERTEX_POINT('',#562);
#562 = CARTESIAN_POINT('',(88.8311,68.2955,-39.5));
#563 = LINE('',#564,#565);
#564 = CARTESIAN_POINT('',(88.8311,9.14775,-39.5));
#565 = VECTOR('',#566,1.);
#566 = DIRECTION('',(0.,-1.,0.));
#567 = ORIENTED_EDGE('',*,*,#568,.F.);
#568 = EDGE_CURVE('',#99,#561,#569,.T.);
#569 = LINE('',#570,#571);
#570 = CARTESIAN_POINT('',(88.8311,68.2955,-43.5));
#571 = VECTOR('',#572,1.);
#572 = DIRECTION('',(0.,0.,1.));
#573 = PLANE('',#574);
#574 = AXIS2_PLACEMENT_3D('',#575,#576,#577);
#575 = CARTESIAN_POINT('',(88.8311,18.2955,-43.5));
#576 = DIRECTION('',(-1.,0.,0.));
#577 = DIRECTION('',(0.,1.,0.));
#578 = ADVANCED_FACE('',(#579),#597,.F.);
#579 = FACE_BOUND('',#580,.F.);
#580 = EDGE_LOOP('',(#581,#582,#583,#591));
#581 = ORIENTED_EDGE('',*,*,#115,.F.);
#582 = ORIENTED_EDGE('',*,*,#544,.T.);
#583 = ORIENTED_EDGE('',*,*,#584,.F.);
#584 = EDGE_CURVE('',#585,#536,#587,.T.);
#585 = VERTEX_POINT('',#586);
#586 = CARTESIAN_POINT('',(81.8311,68.2955,-39.5));
#587 = LINE('',#588,#589);
#588 = CARTESIAN_POINT('',(81.8311,9.14775,-39.5));
#589 = VECTOR('',#590,1.);
#590 = DIRECTION('',(0.,-1.,0.));
#591 = ORIENTED_EDGE('',*,*,#592,.F.);
#592 = EDGE_CURVE('',#107,#585,#593,.T.);
#593 = LINE('',#594,#595);
#594 = CARTESIAN_POINT('',(81.8311,68.2955,-43.5));
#595 = VECTOR('',#596,1.);
#596 = DIRECTION('',(0.,0.,1.));
#597 = PLANE('',#598);
#598 = AXIS2_PLACEMENT_3D('',#599,#600,#601);
#599 = CARTESIAN_POINT('',(81.8311,18.2955,-43.5));
#600 = DIRECTION('',(-1.,0.,0.));
#601 = DIRECTION('',(0.,1.,0.));
#602 = ADVANCED_FACE('',(#603),#615,.F.);
#603 = FACE_BOUND('',#604,.F.);
#604 = EDGE_LOOP('',(#605,#606,#607,#614));
#605 = ORIENTED_EDGE('',*,*,#106,.F.);
#606 = ORIENTED_EDGE('',*,*,#592,.T.);
#607 = ORIENTED_EDGE('',*,*,#608,.T.);
#608 = EDGE_CURVE('',#585,#561,#609,.T.);
#609 = CIRCLE('',#610,3.5);
#610 = AXIS2_PLACEMENT_3D('',#611,#612,#613);
#611 = CARTESIAN_POINT('',(85.3311,68.2955,-39.5));
#612 = DIRECTION('',(0.,0.,-1.));
#613 = DIRECTION('',(1.,0.,0.));
#614 = ORIENTED_EDGE('',*,*,#568,.F.);
#615 = CYLINDRICAL_SURFACE('',#616,3.5);
#616 = AXIS2_PLACEMENT_3D('',#617,#618,#619);
#617 = CARTESIAN_POINT('',(85.3311,68.2955,-43.5));
#618 = DIRECTION('',(0.,0.,-1.));
#619 = DIRECTION('',(1.,0.,0.));
#620 = ADVANCED_FACE('',(#621),#647,.F.);
#621 = FACE_BOUND('',#622,.F.);
#622 = EDGE_LOOP('',(#623,#624,#632,#641));
#623 = ORIENTED_EDGE('',*,*,#123,.F.);
#624 = ORIENTED_EDGE('',*,*,#625,.T.);
#625 = EDGE_CURVE('',#124,#626,#628,.T.);
#626 = VERTEX_POINT('',#627);
#627 = CARTESIAN_POINT('',(79.8311,18.2955,-39.5));
#628 = LINE('',#629,#630);
#629 = CARTESIAN_POINT('',(79.8311,18.2955,-43.5));
#630 = VECTOR('',#631,1.);
#631 = DIRECTION('',(0.,0.,1.));
#632 = ORIENTED_EDGE('',*,*,#633,.T.);
#633 = EDGE_CURVE('',#626,#634,#636,.T.);
#634 = VERTEX_POINT('',#635);
#635 = CARTESIAN_POINT('',(72.8311,18.2955,-39.5));
#636 = CIRCLE('',#637,3.5);
#637 = AXIS2_PLACEMENT_3D('',#638,#639,#640);
#638 = CARTESIAN_POINT('',(76.3311,18.2955,-39.5));
#639 = DIRECTION('',(0.,0.,-1.));
#640 = DIRECTION('',(1.,0.,0.));
#641 = ORIENTED_EDGE('',*,*,#642,.F.);
#642 = EDGE_CURVE('',#126,#634,#643,.T.);
#643 = LINE('',#644,#645);
#644 = CARTESIAN_POINT('',(72.8311,18.2955,-43.5));
#645 = VECTOR('',#646,1.);
#646 = DIRECTION('',(0.,0.,1.));
#647 = CYLINDRICAL_SURFACE('',#648,3.5);
#648 = AXIS2_PLACEMENT_3D('',#649,#650,#651);
#649 = CARTESIAN_POINT('',(76.3311,18.2955,-43.5));
#650 = DIRECTION('',(0.,0.,-1.));
#651 = DIRECTION('',(1.,0.,0.));
#652 = ADVANCED_FACE('',(#653),#671,.T.);
#653 = FACE_BOUND('',#654,.T.);
#654 = EDGE_LOOP('',(#655,#656,#657,#665));
#655 = ORIENTED_EDGE('',*,*,#134,.F.);
#656 = ORIENTED_EDGE('',*,*,#625,.T.);
#657 = ORIENTED_EDGE('',*,*,#658,.F.);
#658 = EDGE_CURVE('',#659,#626,#661,.T.);
#659 = VERTEX_POINT('',#660);
#660 = CARTESIAN_POINT('',(79.8311,68.2955,-39.5));
#661 = LINE('',#662,#663);
#662 = CARTESIAN_POINT('',(79.8311,9.14775,-39.5));
#663 = VECTOR('',#664,1.);
#664 = DIRECTION('',(0.,-1.,0.));
#665 = ORIENTED_EDGE('',*,*,#666,.F.);
#666 = EDGE_CURVE('',#135,#659,#667,.T.);
#667 = LINE('',#668,#669);
#668 = CARTESIAN_POINT('',(79.8311,68.2955,-43.5));
#669 = VECTOR('',#670,1.);
#670 = DIRECTION('',(0.,0.,1.));
#671 = PLANE('',#672);
#672 = AXIS2_PLACEMENT_3D('',#673,#674,#675);
#673 = CARTESIAN_POINT('',(79.8311,18.2955,-43.5));
#674 = DIRECTION('',(-1.,0.,0.));
#675 = DIRECTION('',(0.,1.,0.));
#676 = ADVANCED_FACE('',(#677),#695,.F.);
#677 = FACE_BOUND('',#678,.F.);
#678 = EDGE_LOOP('',(#679,#680,#681,#689));
#679 = ORIENTED_EDGE('',*,*,#151,.F.);
#680 = ORIENTED_EDGE('',*,*,#642,.T.);
#681 = ORIENTED_EDGE('',*,*,#682,.F.);
#682 = EDGE_CURVE('',#683,#634,#685,.T.);
#683 = VERTEX_POINT('',#684);
#684 = CARTESIAN_POINT('',(72.8311,68.2955,-39.5));
#685 = LINE('',#686,#687);
#686 = CARTESIAN_POINT('',(72.8311,9.14775,-39.5));
#687 = VECTOR('',#688,1.);
#688 = DIRECTION('',(0.,-1.,0.));
#689 = ORIENTED_EDGE('',*,*,#690,.F.);
#690 = EDGE_CURVE('',#143,#683,#691,.T.);
#691 = LINE('',#692,#693);
#692 = CARTESIAN_POINT('',(72.8311,68.2955,-43.5));
#693 = VECTOR('',#694,1.);
#694 = DIRECTION('',(0.,0.,1.));
#695 = PLANE('',#696);
#696 = AXIS2_PLACEMENT_3D('',#697,#698,#699);
#697 = CARTESIAN_POINT('',(72.8311,18.2955,-43.5));
#698 = DIRECTION('',(-1.,0.,0.));
#699 = DIRECTION('',(0.,1.,0.));
#700 = ADVANCED_FACE('',(#701),#713,.F.);
#701 = FACE_BOUND('',#702,.F.);
#702 = EDGE_LOOP('',(#703,#704,#705,#712));
#703 = ORIENTED_EDGE('',*,*,#142,.F.);
#704 = ORIENTED_EDGE('',*,*,#690,.T.);
#705 = ORIENTED_EDGE('',*,*,#706,.T.);
#706 = EDGE_CURVE('',#683,#659,#707,.T.);
#707 = CIRCLE('',#708,3.5);
#708 = AXIS2_PLACEMENT_3D('',#709,#710,#711);
#709 = CARTESIAN_POINT('',(76.3311,68.2955,-39.5));
#710 = DIRECTION('',(0.,0.,-1.));
#711 = DIRECTION('',(1.,0.,0.));
#712 = ORIENTED_EDGE('',*,*,#666,.F.);
#713 = CYLINDRICAL_SURFACE('',#714,3.5);
#714 = AXIS2_PLACEMENT_3D('',#715,#716,#717);
#715 = CARTESIAN_POINT('',(76.3311,68.2955,-43.5));
#716 = DIRECTION('',(0.,0.,-1.));
#717 = DIRECTION('',(1.,0.,0.));
#718 = ADVANCED_FACE('',(#719),#745,.F.);
#719 = FACE_BOUND('',#720,.F.);
#720 = EDGE_LOOP('',(#721,#722,#730,#739));
#721 = ORIENTED_EDGE('',*,*,#159,.F.);
#722 = ORIENTED_EDGE('',*,*,#723,.T.);
#723 = EDGE_CURVE('',#160,#724,#726,.T.);
#724 = VERTEX_POINT('',#725);
#725 = CARTESIAN_POINT('',(70.8311,18.2955,-39.5));
#726 = LINE('',#727,#728);
#727 = CARTESIAN_POINT('',(70.8311,18.2955,-43.5));
#728 = VECTOR('',#729,1.);
#729 = DIRECTION('',(0.,0.,1.));
#730 = ORIENTED_EDGE('',*,*,#731,.T.);
#731 = EDGE_CURVE('',#724,#732,#734,.T.);
#732 = VERTEX_POINT('',#733);
#733 = CARTESIAN_POINT('',(63.8311,18.2955,-39.5));
#734 = CIRCLE('',#735,3.5);
#735 = AXIS2_PLACEMENT_3D('',#736,#737,#738);
#736 = CARTESIAN_POINT('',(67.3311,18.2955,-39.5));
#737 = DIRECTION('',(0.,0.,-1.));
#738 = DIRECTION('',(1.,0.,0.));
#739 = ORIENTED_EDGE('',*,*,#740,.F.);
#740 = EDGE_CURVE('',#162,#732,#741,.T.);
#741 = LINE('',#742,#743);
#742 = CARTESIAN_POINT('',(63.8311,18.2955,-43.5));
#743 = VECTOR('',#744,1.);
#744 = DIRECTION('',(0.,0.,1.));
#745 = CYLINDRICAL_SURFACE('',#746,3.5);
#746 = AXIS2_PLACEMENT_3D('',#747,#748,#749);
#747 = CARTESIAN_POINT('',(67.3311,18.2955,-43.5));
#748 = DIRECTION('',(0.,0.,-1.));
#749 = DIRECTION('',(1.,0.,0.));
#750 = ADVANCED_FACE('',(#751),#769,.T.);
#751 = FACE_BOUND('',#752,.T.);
#752 = EDGE_LOOP('',(#753,#754,#755,#763));
#753 = ORIENTED_EDGE('',*,*,#170,.F.);
#754 = ORIENTED_EDGE('',*,*,#723,.T.);
#755 = ORIENTED_EDGE('',*,*,#756,.F.);
#756 = EDGE_CURVE('',#757,#724,#759,.T.);
#757 = VERTEX_POINT('',#758);
#758 = CARTESIAN_POINT('',(70.8311,68.2955,-39.5));
#759 = LINE('',#760,#761);
#760 = CARTESIAN_POINT('',(70.8311,9.14775,-39.5));
#761 = VECTOR('',#762,1.);
#762 = DIRECTION('',(0.,-1.,0.));
#763 = ORIENTED_EDGE('',*,*,#764,.F.);
#764 = EDGE_CURVE('',#171,#757,#765,.T.);
#765 = LINE('',#766,#767);
#766 = CARTESIAN_POINT('',(70.8311,68.2955,-43.5));
#767 = VECTOR('',#768,1.);
#768 = DIRECTION('',(0.,0.,1.));
#769 = PLANE('',#770);
#770 = AXIS2_PLACEMENT_3D('',#771,#772,#773);
#771 = CARTESIAN_POINT('',(70.8311,18.2955,-43.5));
#772 = DIRECTION('',(-1.,0.,0.));
#773 = DIRECTION('',(0.,1.,0.));
#774 = ADVANCED_FACE('',(#775),#793,.F.);
#775 = FACE_BOUND('',#776,.F.);
#776 = EDGE_LOOP('',(#777,#778,#779,#787));
#777 = ORIENTED_EDGE('',*,*,#187,.F.);
#778 = ORIENTED_EDGE('',*,*,#740,.T.);
#779 = ORIENTED_EDGE('',*,*,#780,.F.);
#780 = EDGE_CURVE('',#781,#732,#783,.T.);
#781 = VERTEX_POINT('',#782);
#782 = CARTESIAN_POINT('',(63.8311,68.2955,-39.5));
#783 = LINE('',#784,#785);
#784 = CARTESIAN_POINT('',(63.8311,9.14775,-39.5));
#785 = VECTOR('',#786,1.);
#786 = DIRECTION('',(0.,-1.,0.));
#787 = ORIENTED_EDGE('',*,*,#788,.F.);
#788 = EDGE_CURVE('',#179,#781,#789,.T.);
#789 = LINE('',#790,#791);
#790 = CARTESIAN_POINT('',(63.8311,68.2955,-43.5));
#791 = VECTOR('',#792,1.);
#792 = DIRECTION('',(0.,0.,1.));
#793 = PLANE('',#794);
#794 = AXIS2_PLACEMENT_3D('',#795,#796,#797);
#795 = CARTESIAN_POINT('',(63.8311,18.2955,-43.5));
#796 = DIRECTION('',(-1.,0.,0.));
#797 = DIRECTION('',(0.,1.,0.));
#798 = ADVANCED_FACE('',(#799),#811,.F.);
#799 = FACE_BOUND('',#800,.F.);
#800 = EDGE_LOOP('',(#801,#802,#803,#810));
#801 = ORIENTED_EDGE('',*,*,#178,.F.);
#802 = ORIENTED_EDGE('',*,*,#788,.T.);
#803 = ORIENTED_EDGE('',*,*,#804,.T.);
#804 = EDGE_CURVE('',#781,#757,#805,.T.);
#805 = CIRCLE('',#806,3.5);
#806 = AXIS2_PLACEMENT_3D('',#807,#808,#809);
#807 = CARTESIAN_POINT('',(67.3311,68.2955,-39.5));
#808 = DIRECTION('',(0.,0.,-1.));
#809 = DIRECTION('',(1.,0.,0.));
#810 = ORIENTED_EDGE('',*,*,#764,.F.);
#811 = CYLINDRICAL_SURFACE('',#812,3.5);
#812 = AXIS2_PLACEMENT_3D('',#813,#814,#815);
#813 = CARTESIAN_POINT('',(67.3311,68.2955,-43.5));
#814 = DIRECTION('',(0.,0.,-1.));
#815 = DIRECTION('',(1.,0.,0.));
#816 = ADVANCED_FACE('',(#817),#843,.F.);
#817 = FACE_BOUND('',#818,.F.);
#818 = EDGE_LOOP('',(#819,#820,#828,#837));
#819 = ORIENTED_EDGE('',*,*,#195,.F.);
#820 = ORIENTED_EDGE('',*,*,#821,.T.);
#821 = EDGE_CURVE('',#196,#822,#824,.T.);
#822 = VERTEX_POINT('',#823);
#823 = CARTESIAN_POINT('',(61.8311,18.2955,-39.5));
#824 = LINE('',#825,#826);
#825 = CARTESIAN_POINT('',(61.8311,18.2955,-43.5));
#826 = VECTOR('',#827,1.);
#827 = DIRECTION('',(0.,0.,1.));
#828 = ORIENTED_EDGE('',*,*,#829,.T.);
#829 = EDGE_CURVE('',#822,#830,#832,.T.);
#830 = VERTEX_POINT('',#831);
#831 = CARTESIAN_POINT('',(54.8311,18.2955,-39.5));
#832 = CIRCLE('',#833,3.5);
#833 = AXIS2_PLACEMENT_3D('',#834,#835,#836);
#834 = CARTESIAN_POINT('',(58.3311,18.2955,-39.5));
#835 = DIRECTION('',(0.,0.,-1.));
#836 = DIRECTION('',(1.,0.,0.));
#837 = ORIENTED_EDGE('',*,*,#838,.F.);
#838 = EDGE_CURVE('',#198,#830,#839,.T.);
#839 = LINE('',#840,#841);
#840 = CARTESIAN_POINT('',(54.8311,18.2955,-43.5));
#841 = VECTOR('',#842,1.);
#842 = DIRECTION('',(0.,0.,1.));
#843 = CYLINDRICAL_SURFACE('',#844,3.5);
#844 = AXIS2_PLACEMENT_3D('',#845,#846,#847);
#845 = CARTESIAN_POINT('',(58.3311,18.2955,-43.5));
#846 = DIRECTION('',(0.,0.,-1.));
#847 = DIRECTION('',(1.,0.,0.));
#848 = ADVANCED_FACE('',(#849),#867,.T.);
#849 = FACE_BOUND('',#850,.T.);
#850 = EDGE_LOOP('',(#851,#852,#853,#861));
#851 = ORIENTED_EDGE('',*,*,#206,.F.);
#852 = ORIENTED_EDGE('',*,*,#821,.T.);
#853 = ORIENTED_EDGE('',*,*,#854,.F.);
#854 = EDGE_CURVE('',#855,#822,#857,.T.);
#855 = VERTEX_POINT('',#856);
#856 = CARTESIAN_POINT('',(61.8311,68.2955,-39.5));
#857 = LINE('',#858,#859);
#858 = CARTESIAN_POINT('',(61.8311,9.14775,-39.5));
#859 = VECTOR('',#860,1.);
#860 = DIRECTION('',(0.,-1.,0.));
#861 = ORIENTED_EDGE('',*,*,#862,.F.);
#862 = EDGE_CURVE('',#207,#855,#863,.T.);
#863 = LINE('',#864,#865);
#864 = CARTESIAN_POINT('',(61.8311,68.2955,-43.5));
#865 = VECTOR('',#866,1.);
#866 = DIRECTION('',(0.,0.,1.));
#867 = PLANE('',#868);
#868 = AXIS2_PLACEMENT_3D('',#869,#870,#871);
#869 = CARTESIAN_POINT('',(61.8311,18.2955,-43.5));
#870 = DIRECTION('',(-1.,0.,0.));
#871 = DIRECTION('',(0.,1.,0.));
#872 = ADVANCED_FACE('',(#873),#891,.F.);
#873 = FACE_BOUND('',#874,.F.);
#874 = EDGE_LOOP('',(#875,#876,#877,#885));
#875 = ORIENTED_EDGE('',*,*,#223,.F.);
#876 = ORIENTED_EDGE('',*,*,#838,.T.);
#877 = ORIENTED_EDGE('',*,*,#878,.F.);
#878 = EDGE_CURVE('',#879,#830,#881,.T.);
#879 = VERTEX_POINT('',#880);
#880 = CARTESIAN_POINT('',(54.8311,68.2955,-39.5));
#881 = LINE('',#882,#883);
#882 = CARTESIAN_POINT('',(54.8311,9.14775,-39.5));
#883 = VECTOR('',#884,1.);
#884 = DIRECTION('',(0.,-1.,0.));
#885 = ORIENTED_EDGE('',*,*,#886,.F.);
#886 = EDGE_CURVE('',#215,#879,#887,.T.);
#887 = LINE('',#888,#889);
#888 = CARTESIAN_POINT('',(54.8311,68.2955,-43.5));
#889 = VECTOR('',#890,1.);
#890 = DIRECTION('',(0.,0.,1.));
#891 = PLANE('',#892);
#892 = AXIS2_PLACEMENT_3D('',#893,#894,#895);
#893 = CARTESIAN_POINT('',(54.8311,18.2955,-43.5));
#894 = DIRECTION('',(-1.,0.,0.));
#895 = DIRECTION('',(0.,1.,0.));
#896 = ADVANCED_FACE('',(#897),#909,.F.);
#897 = FACE_BOUND('',#898,.F.);
#898 = EDGE_LOOP('',(#899,#900,#901,#908));
#899 = ORIENTED_EDGE('',*,*,#214,.F.);
#900 = ORIENTED_EDGE('',*,*,#886,.T.);
#901 = ORIENTED_EDGE('',*,*,#902,.T.);
#902 = EDGE_CURVE('',#879,#855,#903,.T.);
#903 = CIRCLE('',#904,3.5);
#904 = AXIS2_PLACEMENT_3D('',#905,#906,#907);
#905 = CARTESIAN_POINT('',(58.3311,68.2955,-39.5));
#906 = DIRECTION('',(0.,0.,-1.));
#907 = DIRECTION('',(1.,0.,0.));
#908 = ORIENTED_EDGE('',*,*,#862,.F.);
#909 = CYLINDRICAL_SURFACE('',#910,3.5);
#910 = AXIS2_PLACEMENT_3D('',#911,#912,#913);
#911 = CARTESIAN_POINT('',(58.3311,68.2955,-43.5));
#912 = DIRECTION('',(0.,0.,-1.));
#913 = DIRECTION('',(1.,0.,0.));
#914 = ADVANCED_FACE('',(#915),#941,.F.);
#915 = FACE_BOUND('',#916,.F.);
#916 = EDGE_LOOP('',(#917,#918,#926,#935));
#917 = ORIENTED_EDGE('',*,*,#231,.F.);
#918 = ORIENTED_EDGE('',*,*,#919,.T.);
#919 = EDGE_CURVE('',#232,#920,#922,.T.);
#920 = VERTEX_POINT('',#921);
#921 = CARTESIAN_POINT('',(52.8311,18.2955,-39.5));
#922 = LINE('',#923,#924);
#923 = CARTESIAN_POINT('',(52.8311,18.2955,-43.5));
#924 = VECTOR('',#925,1.);
#925 = DIRECTION('',(0.,0.,1.));
#926 = ORIENTED_EDGE('',*,*,#927,.T.);
#927 = EDGE_CURVE('',#920,#928,#930,.T.);
#928 = VERTEX_POINT('',#929);
#929 = CARTESIAN_POINT('',(45.8311,18.2955,-39.5));
#930 = CIRCLE('',#931,3.5);
#931 = AXIS2_PLACEMENT_3D('',#932,#933,#934);
#932 = CARTESIAN_POINT('',(49.3311,18.2955,-39.5));
#933 = DIRECTION('',(0.,0.,-1.));
#934 = DIRECTION('',(1.,0.,0.));
#935 = ORIENTED_EDGE('',*,*,#936,.F.);
#936 = EDGE_CURVE('',#234,#928,#937,.T.);
#937 = LINE('',#938,#939);
#938 = CARTESIAN_POINT('',(45.8311,18.2955,-43.5));
#939 = VECTOR('',#940,1.);
#940 = DIRECTION('',(0.,0.,1.));
#941 = CYLINDRICAL_SURFACE('',#942,3.5);
#942 = AXIS2_PLACEMENT_3D('',#943,#944,#945);
#943 = CARTESIAN_POINT('',(49.3311,18.2955,-43.5));
#944 = DIRECTION('',(0.,0.,-1.));
#945 = DIRECTION('',(1.,0.,0.));
#946 = ADVANCED_FACE('',(#947),#965,.T.);
#947 = FACE_BOUND('',#948,.T.);
#948 = EDGE_LOOP('',(#949,#950,#951,#959));
#949 = ORIENTED_EDGE('',*,*,#242,.F.);
#950 = ORIENTED_EDGE('',*,*,#919,.T.);
#951 = ORIENTED_EDGE('',*,*,#952,.F.);
#952 = EDGE_CURVE('',#953,#920,#955,.T.);
#953 = VERTEX_POINT('',#954);
#954 = CARTESIAN_POINT('',(52.8311,68.2955,-39.5));
#955 = LINE('',#956,#957);
#956 = CARTESIAN_POINT('',(52.8311,9.14775,-39.5));
#957 = VECTOR('',#958,1.);
#958 = DIRECTION('',(0.,-1.,0.));
#959 = ORIENTED_EDGE('',*,*,#960,.F.);
#960 = EDGE_CURVE('',#243,#953,#961,.T.);
#961 = LINE('',#962,#963);
#962 = CARTESIAN_POINT('',(52.8311,68.2955,-43.5));
#963 = VECTOR('',#964,1.);
#964 = DIRECTION('',(0.,0.,1.));
#965 = PLANE('',#966);
#966 = AXIS2_PLACEMENT_3D('',#967,#968,#969);
#967 = CARTESIAN_POINT('',(52.8311,18.2955,-43.5));
#968 = DIRECTION('',(-1.,0.,0.));
#969 = DIRECTION('',(0.,1.,0.));
#970 = ADVANCED_FACE('',(#971),#989,.F.);
#971 = FACE_BOUND('',#972,.F.);
#972 = EDGE_LOOP('',(#973,#974,#975,#983));
#973 = ORIENTED_EDGE('',*,*,#259,.F.);
#974 = ORIENTED_EDGE('',*,*,#936,.T.);
#975 = ORIENTED_EDGE('',*,*,#976,.F.);
#976 = EDGE_CURVE('',#977,#928,#979,.T.);
#977 = VERTEX_POINT('',#978);
#978 = CARTESIAN_POINT('',(45.8311,68.2955,-39.5));
#979 = LINE('',#980,#981);
#980 = CARTESIAN_POINT('',(45.8311,9.14775,-39.5));
#981 = VECTOR('',#982,1.);
#982 = DIRECTION('',(0.,-1.,0.));
#983 = ORIENTED_EDGE('',*,*,#984,.F.);
#984 = EDGE_CURVE('',#251,#977,#985,.T.);
#985 = LINE('',#986,#987);
#986 = CARTESIAN_POINT('',(45.8311,68.2955,-43.5));
#987 = VECTOR('',#988,1.);
#988 = DIRECTION('',(0.,0.,1.));
#989 = PLANE('',#990);
#990 = AXIS2_PLACEMENT_3D('',#991,#992,#993);
#991 = CARTESIAN_POINT('',(45.8311,18.2955,-43.5));
#992 = DIRECTION('',(-1.,0.,0.));
#993 = DIRECTION('',(0.,1.,0.));
#994 = ADVANCED_FACE('',(#995),#1007,.F.);
#995 = FACE_BOUND('',#996,.F.);
#996 = EDGE_LOOP('',(#997,#998,#999,#1006));
#997 = ORIENTED_EDGE('',*,*,#250,.F.);
#998 = ORIENTED_EDGE('',*,*,#984,.T.);
#999 = ORIENTED_EDGE('',*,*,#1000,.T.);
#1000 = EDGE_CURVE('',#977,#953,#1001,.T.);
#1001 = CIRCLE('',#1002,3.5);
#1002 = AXIS2_PLACEMENT_3D('',#1003,#1004,#1005);
#1003 = CARTESIAN_POINT('',(49.3311,68.2955,-39.5));
#1004 = DIRECTION('',(0.,0.,-1.));
#1005 = DIRECTION('',(1.,0.,0.));
#1006 = ORIENTED_EDGE('',*,*,#960,.F.);
#1007 = CYLINDRICAL_SURFACE('',#1008,3.5);
#1008 = AXIS2_PLACEMENT_3D('',#1009,#1010,#1011);
#1009 = CARTESIAN_POINT('',(49.3311,68.2955,-43.5));
#1010 = DIRECTION('',(0.,0.,-1.));
#1011 = DIRECTION('',(1.,0.,0.));
#1012 = ADVANCED_FACE('',(#1013),#1039,.F.);
#1013 = FACE_BOUND('',#1014,.F.);
#1014 = EDGE_LOOP('',(#1015,#1016,#1024,#1033));
#1015 = ORIENTED_EDGE('',*,*,#267,.F.);
#1016 = ORIENTED_EDGE('',*,*,#1017,.T.);
#1017 = EDGE_CURVE('',#268,#1018,#1020,.T.);
#1018 = VERTEX_POINT('',#1019);
#1019 = CARTESIAN_POINT('',(43.8311,18.2955,-39.5));
#1020 = LINE('',#1021,#1022);
#1021 = CARTESIAN_POINT('',(43.8311,18.2955,-43.5));
#1022 = VECTOR('',#1023,1.);
#1023 = DIRECTION('',(0.,0.,1.));
#1024 = ORIENTED_EDGE('',*,*,#1025,.T.);
#1025 = EDGE_CURVE('',#1018,#1026,#1028,.T.);
#1026 = VERTEX_POINT('',#1027);
#1027 = CARTESIAN_POINT('',(36.8311,18.2955,-39.5));
#1028 = CIRCLE('',#1029,3.5);
#1029 = AXIS2_PLACEMENT_3D('',#1030,#1031,#1032);
#1030 = CARTESIAN_POINT('',(40.3311,18.2955,-39.5));
#1031 = DIRECTION('',(0.,0.,-1.));
#1032 = DIRECTION('',(1.,0.,0.));
#1033 = ORIENTED_EDGE('',*,*,#1034,.F.);
#1034 = EDGE_CURVE('',#270,#1026,#1035,.T.);
#1035 = LINE('',#1036,#1037);
#1036 = CARTESIAN_POINT('',(36.8311,18.2955,-43.5));
#1037 = VECTOR('',#1038,1.);
#1038 = DIRECTION('',(0.,0.,1.));
#1039 = CYLINDRICAL_SURFACE('',#1040,3.5);
#1040 = AXIS2_PLACEMENT_3D('',#1041,#1042,#1043);
#1041 = CARTESIAN_POINT('',(40.3311,18.2955,-43.5));
#1042 = DIRECTION('',(0.,0.,-1.));
#1043 = DIRECTION('',(1.,0.,0.));
#1044 = ADVANCED_FACE('',(#1045),#1063,.T.);
#1045 = FACE_BOUND('',#1046,.T.);
#1046 = EDGE_LOOP('',(#1047,#1048,#1049,#1057));
#1047 = ORIENTED_EDGE('',*,*,#278,.F.);
#1048 = ORIENTED_EDGE('',*,*,#1017,.T.);
#1049 = ORIENTED_EDGE('',*,*,#1050,.F.);
#1050 = EDGE_CURVE('',#1051,#1018,#1053,.T.);
#1051 = VERTEX_POINT('',#1052);
#1052 = CARTESIAN_POINT('',(43.8311,68.2955,-39.5));
#1053 = LINE('',#1054,#1055);
#1054 = CARTESIAN_POINT('',(43.8311,9.14775,-39.5));
#1055 = VECTOR('',#1056,1.);
#1056 = DIRECTION('',(0.,-1.,0.));
#1057 = ORIENTED_EDGE('',*,*,#1058,.F.);
#1058 = EDGE_CURVE('',#279,#1051,#1059,.T.);
#1059 = LINE('',#1060,#1061);
#1060 = CARTESIAN_POINT('',(43.8311,68.2955,-43.5));
#1061 = VECTOR('',#1062,1.);
#1062 = DIRECTION('',(0.,0.,1.));
#1063 = PLANE('',#1064);
#1064 = AXIS2_PLACEMENT_3D('',#1065,#1066,#1067);
#1065 = CARTESIAN_POINT('',(43.8311,18.2955,-43.5));
#1066 = DIRECTION('',(-1.,0.,0.));
#1067 = DIRECTION('',(0.,1.,0.));
#1068 = ADVANCED_FACE('',(#1069),#1087,.F.);
#1069 = FACE_BOUND('',#1070,.F.);
#1070 = EDGE_LOOP('',(#1071,#1072,#1073,#1081));
#1071 = ORIENTED_EDGE('',*,*,#295,.F.);
#1072 = ORIENTED_EDGE('',*,*,#1034,.T.);
#1073 = ORIENTED_EDGE('',*,*,#1074,.F.);
#1074 = EDGE_CURVE('',#1075,#1026,#1077,.T.);
#1075 = VERTEX_POINT('',#1076);
#1076 = CARTESIAN_POINT('',(36.8311,68.2955,-39.5));
#1077 = LINE('',#1078,#1079);
#1078 = CARTESIAN_POINT('',(36.8311,9.14775,-39.5));
#1079 = VECTOR('',#1080,1.);
#1080 = DIRECTION('',(0.,-1.,0.));
#1081 = ORIENTED_EDGE('',*,*,#1082,.F.);
#1082 = EDGE_CURVE('',#287,#1075,#1083,.T.);
#1083 = LINE('',#1084,#1085);
#1084 = CARTESIAN_POINT('',(36.8311,68.2955,-43.5));
#1085 = VECTOR('',#1086,1.);
#1086 = DIRECTION('',(0.,0.,1.));
#1087 = PLANE('',#1088);
#1088 = AXIS2_PLACEMENT_3D('',#1089,#1090,#1091);
#1089 = CARTESIAN_POINT('',(36.8311,18.2955,-43.5));
#1090 = DIRECTION('',(-1.,0.,0.));
#1091 = DIRECTION('',(0.,1.,0.));
#1092 = ADVANCED_FACE('',(#1093),#1105,.F.);
#1093 = FACE_BOUND('',#1094,.F.);
#1094 = EDGE_LOOP('',(#1095,#1096,#1097,#1104));
#1095 = ORIENTED_EDGE('',*,*,#286,.F.);
#1096 = ORIENTED_EDGE('',*,*,#1082,.T.);
#1097 = ORIENTED_EDGE('',*,*,#1098,.T.);
#1098 = EDGE_CURVE('',#1075,#1051,#1099,.T.);
#1099 = CIRCLE('',#1100,3.5);
#1100 = AXIS2_PLACEMENT_3D('',#1101,#1102,#1103);
#1101 = CARTESIAN_POINT('',(40.3311,68.2955,-39.5));
#1102 = DIRECTION('',(0.,0.,-1.));
#1103 = DIRECTION('',(1.,0.,0.));
#1104 = ORIENTED_EDGE('',*,*,#1058,.F.);
#1105 = CYLINDRICAL_SURFACE('',#1106,3.5);
#1106 = AXIS2_PLACEMENT_3D('',#1107,#1108,#1109);
#1107 = CARTESIAN_POINT('',(40.3311,68.2955,-43.5));
#1108 = DIRECTION('',(0.,0.,-1.));
#1109 = DIRECTION('',(1.,0.,0.));
#1110 = ADVANCED_FACE('',(#1111),#1136,.F.);
#1111 = FACE_BOUND('',#1112,.F.);
#1112 = EDGE_LOOP('',(#1113,#1121,#1129,#1135));
#1113 = ORIENTED_EDGE('',*,*,#1114,.T.);
#1114 = EDGE_CURVE('',#304,#1115,#1117,.T.);
#1115 = VERTEX_POINT('',#1116);
#1116 = CARTESIAN_POINT('',(25.,40.,-39.5));
#1117 = LINE('',#1118,#1119);
#1118 = CARTESIAN_POINT('',(25.,40.,-43.5));
#1119 = VECTOR('',#1120,1.);
#1120 = DIRECTION('',(0.,0.,1.));
#1121 = ORIENTED_EDGE('',*,*,#1122,.T.);
#1122 = EDGE_CURVE('',#1115,#1123,#1125,.T.);
#1123 = VERTEX_POINT('',#1124);
#1124 = CARTESIAN_POINT('',(25.,-40.,-39.5));
#1125 = LINE('',#1126,#1127);
#1126 = CARTESIAN_POINT('',(25.,40.,-39.5));
#1127 = VECTOR('',#1128,1.);
#1128 = DIRECTION('',(0.,-1.,0.));
#1129 = ORIENTED_EDGE('',*,*,#1130,.F.);
#1130 = EDGE_CURVE('',#306,#1123,#1131,.T.);
#1131 = LINE('',#1132,#1133);
#1132 = CARTESIAN_POINT('',(25.,-40.,-43.5));
#1133 = VECTOR('',#1134,1.);
#1134 = DIRECTION('',(0.,0.,1.));
#1135 = ORIENTED_EDGE('',*,*,#303,.F.);
#1136 = PLANE('',#1137);
#1137 = AXIS2_PLACEMENT_3D('',#1138,#1139,#1140);
#1138 = CARTESIAN_POINT('',(25.,40.,-43.5));
#1139 = DIRECTION('',(1.,0.,0.));
#1140 = DIRECTION('',(0.,-1.,0.));
#1141 = ADVANCED_FACE('',(#1142),#1160,.F.);
#1142 = FACE_BOUND('',#1143,.F.);
#1143 = EDGE_LOOP('',(#1144,#1152,#1158,#1159));
#1144 = ORIENTED_EDGE('',*,*,#1145,.T.);
#1145 = EDGE_CURVE('',#314,#1146,#1148,.T.);
#1146 = VERTEX_POINT('',#1147);
#1147 = CARTESIAN_POINT('',(-25.,40.,-39.5));
#1148 = LINE('',#1149,#1150);
#1149 = CARTESIAN_POINT('',(-25.,40.,-43.5));
#1150 = VECTOR('',#1151,1.);
#1151 = DIRECTION('',(0.,0.,1.));
#1152 = ORIENTED_EDGE('',*,*,#1153,.T.);
#1153 = EDGE_CURVE('',#1146,#1115,#1154,.T.);
#1154 = LINE('',#1155,#1156);
#1155 = CARTESIAN_POINT('',(-25.,40.,-39.5));
#1156 = VECTOR('',#1157,1.);
#1157 = DIRECTION('',(1.,0.,0.));
#1158 = ORIENTED_EDGE('',*,*,#1114,.F.);
#1159 = ORIENTED_EDGE('',*,*,#313,.F.);
#1160 = PLANE('',#1161);
#1161 = AXIS2_PLACEMENT_3D('',#1162,#1163,#1164);
#1162 = CARTESIAN_POINT('',(-25.,40.,-43.5));
#1163 = DIRECTION('',(0.,1.,0.));
#1164 = DIRECTION('',(1.,0.,0.));
#1165 = ADVANCED_FACE('',(#1166),#1184,.F.);
#1166 = FACE_BOUND('',#1167,.F.);
#1167 = EDGE_LOOP('',(#1168,#1169,#1177,#1183));
#1168 = ORIENTED_EDGE('',*,*,#1130,.T.);
#1169 = ORIENTED_EDGE('',*,*,#1170,.T.);
#1170 = EDGE_CURVE('',#1123,#1171,#1173,.T.);
#1171 = VERTEX_POINT('',#1172);
#1172 = CARTESIAN_POINT('',(-25.,-40.,-39.5));
#1173 = LINE('',#1174,#1175);
#1174 = CARTESIAN_POINT('',(25.,-40.,-39.5));
#1175 = VECTOR('',#1176,1.);
#1176 = DIRECTION('',(-1.,0.,0.));
#1177 = ORIENTED_EDGE('',*,*,#1178,.F.);
#1178 = EDGE_CURVE('',#322,#1171,#1179,.T.);
#1179 = LINE('',#1180,#1181);
#1180 = CARTESIAN_POINT('',(-25.,-40.,-43.5));
#1181 = VECTOR('',#1182,1.);
#1182 = DIRECTION('',(0.,0.,1.));
#1183 = ORIENTED_EDGE('',*,*,#329,.F.);
#1184 = PLANE('',#1185);
#1185 = AXIS2_PLACEMENT_3D('',#1186,#1187,#1188);
#1186 = CARTESIAN_POINT('',(25.,-40.,-43.5));
#1187 = DIRECTION('',(-0.,-1.,-0.));
#1188 = DIRECTION('',(-1.,0.,0.));
#1189 = ADVANCED_FACE('',(#1190),#1201,.F.);
#1190 = FACE_BOUND('',#1191,.F.);
#1191 = EDGE_LOOP('',(#1192,#1193,#1199,#1200));
#1192 = ORIENTED_EDGE('',*,*,#1178,.T.);
#1193 = ORIENTED_EDGE('',*,*,#1194,.T.);
#1194 = EDGE_CURVE('',#1171,#1146,#1195,.T.);
#1195 = LINE('',#1196,#1197);
#1196 = CARTESIAN_POINT('',(-25.,-40.,-39.5));
#1197 = VECTOR('',#1198,1.);
#1198 = DIRECTION('',(0.,1.,0.));
#1199 = ORIENTED_EDGE('',*,*,#1145,.F.);
#1200 = ORIENTED_EDGE('',*,*,#321,.F.);
#1201 = PLANE('',#1202);
#1202 = AXIS2_PLACEMENT_3D('',#1203,#1204,#1205);
#1203 = CARTESIAN_POINT('',(-25.,-40.,-43.5));
#1204 = DIRECTION('',(-1.,0.,0.));
#1205 = DIRECTION('',(0.,1.,0.));
#1206 = ADVANCED_FACE('',(#1207),#1226,.F.);
#1207 = FACE_BOUND('',#1208,.T.);
#1208 = EDGE_LOOP('',(#1209,#1217,#1218,#1219));
#1209 = ORIENTED_EDGE('',*,*,#1210,.F.);
#1210 = EDGE_CURVE('',#338,#1211,#1213,.T.);
#1211 = VERTEX_POINT('',#1212);
#1212 = CARTESIAN_POINT('',(52.75,101.75798494467,-42.5));
#1213 = LINE('',#1214,#1215);
#1214 = CARTESIAN_POINT('',(52.75,101.75798494467,-42.5));
#1215 = VECTOR('',#1216,1.);
#1216 = DIRECTION('',(0.707106781187,0.,0.707106781187));
#1217 = ORIENTED_EDGE('',*,*,#337,.T.);
#1218 = ORIENTED_EDGE('',*,*,#1210,.T.);
#1219 = ORIENTED_EDGE('',*,*,#1220,.F.);
#1220 = EDGE_CURVE('',#1211,#1211,#1221,.T.);
#1221 = CIRCLE('',#1222,6.);
#1222 = AXIS2_PLACEMENT_3D('',#1223,#1224,#1225);
#1223 = CARTESIAN_POINT('',(58.75,101.75798494467,-42.5));
#1224 = DIRECTION('',(0.,0.,-1.));
#1225 = DIRECTION('',(-1.,0.,0.));
#1226 = CONICAL_SURFACE('',#1227,6.,0.785398163397);
#1227 = AXIS2_PLACEMENT_3D('',#1228,#1229,#1230);
#1228 = CARTESIAN_POINT('',(58.75,101.75798494467,-42.5));
#1229 = DIRECTION('',(-0.,-0.,-1.));
#1230 = DIRECTION('',(-1.,0.,0.));
#1231 = ADVANCED_FACE('',(#1232),#1251,.F.);
#1232 = FACE_BOUND('',#1233,.F.);
#1233 = EDGE_LOOP('',(#1234,#1235,#1243,#1250));
#1234 = ORIENTED_EDGE('',*,*,#348,.F.);
#1235 = ORIENTED_EDGE('',*,*,#1236,.T.);
#1236 = EDGE_CURVE('',#349,#1237,#1239,.T.);
#1237 = VERTEX_POINT('',#1238);
#1238 = CARTESIAN_POINT('',(-31.31066422138,93.2036,-39.5));
#1239 = LINE('',#1240,#1241);
#1240 = CARTESIAN_POINT('',(-31.31066422138,93.2036,-43.5));
#1241 = VECTOR('',#1242,1.);
#1242 = DIRECTION('',(0.,0.,1.));
#1243 = ORIENTED_EDGE('',*,*,#1244,.T.);
#1244 = EDGE_CURVE('',#1237,#1237,#1245,.T.);
#1245 = CIRCLE('',#1246,9.871835778618);
#1246 = AXIS2_PLACEMENT_3D('',#1247,#1248,#1249);
#1247 = CARTESIAN_POINT('',(-41.1825,93.2036,-39.5));
#1248 = DIRECTION('',(0.,0.,-1.));
#1249 = DIRECTION('',(1.,0.,0.));
#1250 = ORIENTED_EDGE('',*,*,#1236,.F.);
#1251 = CYLINDRICAL_SURFACE('',#1252,9.871835778618);
#1252 = AXIS2_PLACEMENT_3D('',#1253,#1254,#1255);
#1253 = CARTESIAN_POINT('',(-41.1825,93.2036,-43.5));
#1254 = DIRECTION('',(0.,0.,-1.));
#1255 = DIRECTION('',(1.,0.,0.));
#1256 = ADVANCED_FACE('',(#1257),#1293,.T.);
#1257 = FACE_BOUND('',#1258,.T.);
#1258 = EDGE_LOOP('',(#1259,#1260,#1269,#1276,#1277,#1286));
#1259 = ORIENTED_EDGE('',*,*,#454,.F.);
#1260 = ORIENTED_EDGE('',*,*,#1261,.F.);
#1261 = EDGE_CURVE('',#1262,#455,#1264,.T.);
#1262 = VERTEX_POINT('',#1263);
#1263 = CARTESIAN_POINT('',(130.,0.,-33.5));
#1264 = CIRCLE('',#1265,130.);
#1265 = AXIS2_PLACEMENT_3D('',#1266,#1267,#1268);
#1266 = CARTESIAN_POINT('',(0.,0.,-33.5));
#1267 = DIRECTION('',(0.,0.,-1.));
#1268 = DIRECTION('',(1.,0.,0.));
#1269 = ORIENTED_EDGE('',*,*,#1270,.F.);
#1270 = EDGE_CURVE('',#367,#1262,#1271,.T.);
#1271 = CIRCLE('',#1272,130.);
#1272 = AXIS2_PLACEMENT_3D('',#1273,#1274,#1275);
#1273 = CARTESIAN_POINT('',(0.,0.,-33.5));
#1274 = DIRECTION('',(0.,0.,-1.));
#1275 = DIRECTION('',(1.,0.,0.));
#1276 = ORIENTED_EDGE('',*,*,#374,.F.);
#1277 = ORIENTED_EDGE('',*,*,#1278,.T.);
#1278 = EDGE_CURVE('',#375,#1279,#1281,.T.);
#1279 = VERTEX_POINT('',#1280);
#1280 = CARTESIAN_POINT('',(125.75,4.E-15,-33.5));
#1281 = CIRCLE('',#1282,125.75);
#1282 = AXIS2_PLACEMENT_3D('',#1283,#1284,#1285);
#1283 = CARTESIAN_POINT('',(6.E-15,4.E-15,-33.5));
#1284 = DIRECTION('',(0.,0.,-1.));
#1285 = DIRECTION('',(1.,0.,0.));
#1286 = ORIENTED_EDGE('',*,*,#1287,.T.);
#1287 = EDGE_CURVE('',#1279,#447,#1288,.T.);
#1288 = CIRCLE('',#1289,125.75);
#1289 = AXIS2_PLACEMENT_3D('',#1290,#1291,#1292);
#1290 = CARTESIAN_POINT('',(6.E-15,4.E-15,-33.5));
#1291 = DIRECTION('',(0.,0.,-1.));
#1292 = DIRECTION('',(1.,0.,0.));
#1293 = PLANE('',#1294);
#1294 = AXIS2_PLACEMENT_3D('',#1295,#1296,#1297);
#1295 = CARTESIAN_POINT('',(-4.09E-15,-5.37E-15,-33.5));
#1296 = DIRECTION('',(0.,0.,1.));
#1297 = DIRECTION('',(1.,0.,0.));
#1298 = ADVANCED_FACE('',(#1299,#1320,#1355,#1390,#1396,#1399,#1405,
    #1411,#1417,#1423,#1429,#1435),#1470,.T.);
#1299 = FACE_BOUND('',#1300,.T.);
#1300 = EDGE_LOOP('',(#1301,#1310,#1317,#1318,#1319));
#1301 = ORIENTED_EDGE('',*,*,#1302,.F.);
#1302 = EDGE_CURVE('',#1303,#439,#1305,.T.);
#1303 = VERTEX_POINT('',#1304);
#1304 = CARTESIAN_POINT('',(125.75,4.E-15,-39.5));
#1305 = CIRCLE('',#1306,125.75);
#1306 = AXIS2_PLACEMENT_3D('',#1307,#1308,#1309);
#1307 = CARTESIAN_POINT('',(6.28E-15,3.43E-15,-39.5));
#1308 = DIRECTION('',(0.,0.,-1.));
#1309 = DIRECTION('',(1.,0.,0.));
#1310 = ORIENTED_EDGE('',*,*,#1311,.F.);
#1311 = EDGE_CURVE('',#383,#1303,#1312,.T.);
#1312 = CIRCLE('',#1313,125.75);
#1313 = AXIS2_PLACEMENT_3D('',#1314,#1315,#1316);
#1314 = CARTESIAN_POINT('',(6.28E-15,3.43E-15,-39.5));
#1315 = DIRECTION('',(0.,0.,-1.));
#1316 = DIRECTION('',(1.,0.,0.));
#1317 = ORIENTED_EDGE('',*,*,#390,.F.);
#1318 = ORIENTED_EDGE('',*,*,#414,.F.);
#1319 = ORIENTED_EDGE('',*,*,#438,.F.);
#1320 = FACE_BOUND('',#1321,.T.);
#1321 = EDGE_LOOP('',(#1322,#1332,#1340,#1348));
#1322 = ORIENTED_EDGE('',*,*,#1323,.F.);
#1323 = EDGE_CURVE('',#1324,#1326,#1328,.T.);
#1324 = VERTEX_POINT('',#1325);
#1325 = CARTESIAN_POINT('',(-113.3898143573,5.,-39.5));
#1326 = VERTEX_POINT('',#1327);
#1327 = CARTESIAN_POINT('',(-117.5,5.,-39.5));
#1328 = LINE('',#1329,#1330);
#1329 = CARTESIAN_POINT('',(-58.75,5.,-39.5));
#1330 = VECTOR('',#1331,1.);
#1331 = DIRECTION('',(-1.,2.E-15,0.));
#1332 = ORIENTED_EDGE('',*,*,#1333,.T.);
#1333 = EDGE_CURVE('',#1324,#1334,#1336,.T.);
#1334 = VERTEX_POINT('',#1335);
#1335 = CARTESIAN_POINT('',(-113.3898143573,-5.,-39.5));
#1336 = LINE('',#1337,#1338);
#1337 = CARTESIAN_POINT('',(-113.3898143573,-2.5,-39.5));
#1338 = VECTOR('',#1339,1.);
#1339 = DIRECTION('',(6.7E-16,-1.,0.));
#1340 = ORIENTED_EDGE('',*,*,#1341,.F.);
#1341 = EDGE_CURVE('',#1342,#1334,#1344,.T.);
#1342 = VERTEX_POINT('',#1343);
#1343 = CARTESIAN_POINT('',(-117.5,-5.,-39.5));
#1344 = LINE('',#1345,#1346);
#1345 = CARTESIAN_POINT('',(-56.69490717868,-5.,-39.5));
#1346 = VECTOR('',#1347,1.);
#1347 = DIRECTION('',(1.,-6.1E-16,0.));
#1348 = ORIENTED_EDGE('',*,*,#1349,.T.);
#1349 = EDGE_CURVE('',#1342,#1326,#1350,.T.);
#1350 = CIRCLE('',#1351,5.);
#1351 = AXIS2_PLACEMENT_3D('',#1352,#1353,#1354);
#1352 = CARTESIAN_POINT('',(-117.5,-3.553E-14,-39.5));
#1353 = DIRECTION('',(-0.,0.,-1.));
#1354 = DIRECTION('',(-0.5,-0.866025403784,0.));
#1355 = FACE_BOUND('',#1356,.T.);
#1356 = EDGE_LOOP('',(#1357,#1367,#1375,#1383));
#1357 = ORIENTED_EDGE('',*,*,#1358,.F.);
#1358 = EDGE_CURVE('',#1359,#1361,#1363,.T.);
#1359 = VERTEX_POINT('',#1360);
#1360 = CARTESIAN_POINT('',(52.364780159765,-100.6984597638,-39.5));
#1361 = VERTEX_POINT('',#1362);
#1362 = CARTESIAN_POINT('',(54.419872981078,-104.2579849446,-39.5));
#1363 = LINE('',#1364,#1365);
#1364 = CARTESIAN_POINT('',(25.044872981078,-53.37899247233,-39.5));
#1365 = VECTOR('',#1366,1.);
#1366 = DIRECTION('',(0.5,-0.866025403784,0.));
#1367 = ORIENTED_EDGE('',*,*,#1368,.T.);
#1368 = EDGE_CURVE('',#1359,#1369,#1371,.T.);
#1369 = VERTEX_POINT('',#1370);
#1370 = CARTESIAN_POINT('',(61.02503419761,-95.69845976388,-39.5));
#1371 = LINE('',#1372,#1373);
#1372 = CARTESIAN_POINT('',(58.859970688149,-96.94845976388,-39.5));
#1373 = VECTOR('',#1374,1.);
#1374 = DIRECTION('',(0.866025403784,0.5,0.));
#1375 = ORIENTED_EDGE('',*,*,#1376,.F.);
#1376 = EDGE_CURVE('',#1377,#1369,#1379,.T.);
#1377 = VERTEX_POINT('',#1378);
#1378 = CARTESIAN_POINT('',(63.080127018922,-99.25798494467,-39.5));
#1379 = LINE('',#1380,#1381);
#1380 = CARTESIAN_POINT('',(32.677580608266,-46.59922988194,-39.5));
#1381 = VECTOR('',#1382,1.);
#1382 = DIRECTION('',(-0.5,0.866025403784,0.));
#1383 = ORIENTED_EDGE('',*,*,#1384,.T.);
#1384 = EDGE_CURVE('',#1377,#1361,#1385,.T.);
#1385 = CIRCLE('',#1386,5.);
#1386 = AXIS2_PLACEMENT_3D('',#1387,#1388,#1389);
#1387 = CARTESIAN_POINT('',(58.75,-101.7579849446,-39.5));
#1388 = DIRECTION('',(0.,-0.,-1.));
#1389 = DIRECTION('',(1.,-6.E-17,0.));
#1390 = FACE_BOUND('',#1391,.T.);
#1391 = EDGE_LOOP('',(#1392,#1393,#1394,#1395));
#1392 = ORIENTED_EDGE('',*,*,#1153,.T.);
#1393 = ORIENTED_EDGE('',*,*,#1122,.T.);
#1394 = ORIENTED_EDGE('',*,*,#1170,.T.);
#1395 = ORIENTED_EDGE('',*,*,#1194,.T.);
#1396 = FACE_BOUND('',#1397,.T.);
#1397 = EDGE_LOOP('',(#1398));
#1398 = ORIENTED_EDGE('',*,*,#1244,.T.);
#1399 = FACE_BOUND('',#1400,.T.);
#1400 = EDGE_LOOP('',(#1401,#1402,#1403,#1404));
#1401 = ORIENTED_EDGE('',*,*,#1050,.T.);
#1402 = ORIENTED_EDGE('',*,*,#1025,.T.);
#1403 = ORIENTED_EDGE('',*,*,#1074,.F.);
#1404 = ORIENTED_EDGE('',*,*,#1098,.T.);
#1405 = FACE_BOUND('',#1406,.T.);
#1406 = EDGE_LOOP('',(#1407,#1408,#1409,#1410));
#1407 = ORIENTED_EDGE('',*,*,#952,.T.);
#1408 = ORIENTED_EDGE('',*,*,#927,.T.);
#1409 = ORIENTED_EDGE('',*,*,#976,.F.);
#1410 = ORIENTED_EDGE('',*,*,#1000,.T.);
#1411 = FACE_BOUND('',#1412,.T.);
#1412 = EDGE_LOOP('',(#1413,#1414,#1415,#1416));
#1413 = ORIENTED_EDGE('',*,*,#854,.T.);
#1414 = ORIENTED_EDGE('',*,*,#829,.T.);
#1415 = ORIENTED_EDGE('',*,*,#878,.F.);
#1416 = ORIENTED_EDGE('',*,*,#902,.T.);
#1417 = FACE_BOUND('',#1418,.T.);
#1418 = EDGE_LOOP('',(#1419,#1420,#1421,#1422));
#1419 = ORIENTED_EDGE('',*,*,#756,.T.);
#1420 = ORIENTED_EDGE('',*,*,#731,.T.);
#1421 = ORIENTED_EDGE('',*,*,#780,.F.);
#1422 = ORIENTED_EDGE('',*,*,#804,.T.);
#1423 = FACE_BOUND('',#1424,.T.);
#1424 = EDGE_LOOP('',(#1425,#1426,#1427,#1428));
#1425 = ORIENTED_EDGE('',*,*,#658,.T.);
#1426 = ORIENTED_EDGE('',*,*,#633,.T.);
#1427 = ORIENTED_EDGE('',*,*,#682,.F.);
#1428 = ORIENTED_EDGE('',*,*,#706,.T.);
#1429 = FACE_BOUND('',#1430,.T.);
#1430 = EDGE_LOOP('',(#1431,#1432,#1433,#1434));
#1431 = ORIENTED_EDGE('',*,*,#560,.T.);
#1432 = ORIENTED_EDGE('',*,*,#535,.T.);
#1433 = ORIENTED_EDGE('',*,*,#584,.F.);
#1434 = ORIENTED_EDGE('',*,*,#608,.T.);
#1435 = FACE_BOUND('',#1436,.T.);
#1436 = EDGE_LOOP('',(#1437,#1447,#1455,#1463));
#1437 = ORIENTED_EDGE('',*,*,#1438,.F.);
#1438 = EDGE_CURVE('',#1439,#1441,#1443,.T.);
#1439 = VERTEX_POINT('',#1440);
#1440 = CARTESIAN_POINT('',(61.02503419761,95.698459763888,-39.5));
#1441 = VERTEX_POINT('',#1442);
#1442 = CARTESIAN_POINT('',(63.080127018922,99.257984944672,-39.5));
#1443 = LINE('',#1444,#1445);
#1444 = CARTESIAN_POINT('',(33.705127018922,48.378992472336,-39.5));
#1445 = VECTOR('',#1446,1.);
#1446 = DIRECTION('',(0.5,0.866025403784,0.));
#1447 = ORIENTED_EDGE('',*,*,#1448,.T.);
#1448 = EDGE_CURVE('',#1439,#1449,#1451,.T.);
#1449 = VERTEX_POINT('',#1450);
#1450 = CARTESIAN_POINT('',(52.364780159765,100.69845976388,-39.5));
#1451 = LINE('',#1452,#1453);
#1452 = CARTESIAN_POINT('',(54.529843669226,99.448459763888,-39.5));
#1453 = VECTOR('',#1454,1.);
#1454 = DIRECTION('',(-0.866025403784,0.5,0.));
#1455 = ORIENTED_EDGE('',*,*,#1456,.F.);
#1456 = EDGE_CURVE('',#1457,#1449,#1459,.T.);
#1457 = VERTEX_POINT('',#1458);
#1458 = CARTESIAN_POINT('',(54.419872981078,104.25798494467,-39.5));
#1459 = LINE('',#1460,#1461);
#1460 = CARTESIAN_POINT('',(24.017326570422,51.599229881944,-39.5));
#1461 = VECTOR('',#1462,1.);
#1462 = DIRECTION('',(-0.5,-0.866025403784,0.));
#1463 = ORIENTED_EDGE('',*,*,#1464,.T.);
#1464 = EDGE_CURVE('',#1457,#1441,#1465,.T.);
#1465 = CIRCLE('',#1466,5.);
#1466 = AXIS2_PLACEMENT_3D('',#1467,#1468,#1469);
#1467 = CARTESIAN_POINT('',(58.75,101.75798494467,-39.5));
#1468 = DIRECTION('',(0.,0.,-1.));
#1469 = DIRECTION('',(-0.5,0.866025403784,0.));
#1470 = PLANE('',#1471);
#1471 = AXIS2_PLACEMENT_3D('',#1472,#1473,#1474);
#1472 = CARTESIAN_POINT('',(5.97E-15,4.12E-15,-39.5));
#1473 = DIRECTION('',(0.,0.,1.));
#1474 = DIRECTION('',(1.,0.,0.));
#1475 = ADVANCED_FACE('',(#1476),#1484,.F.);
#1476 = FACE_BOUND('',#1477,.T.);
#1477 = EDGE_LOOP('',(#1478,#1479,#1480,#1481,#1482,#1483));
#1478 = ORIENTED_EDGE('',*,*,#1302,.T.);
#1479 = ORIENTED_EDGE('',*,*,#446,.T.);
#1480 = ORIENTED_EDGE('',*,*,#1287,.F.);
#1481 = ORIENTED_EDGE('',*,*,#1278,.F.);
#1482 = ORIENTED_EDGE('',*,*,#382,.F.);
#1483 = ORIENTED_EDGE('',*,*,#1311,.T.);
#1484 = CYLINDRICAL_SURFACE('',#1485,125.75);
#1485 = AXIS2_PLACEMENT_3D('',#1486,#1487,#1488);
#1486 = CARTESIAN_POINT('',(6.44E-15,3.72E-15,-33.5));
#1487 = DIRECTION('',(0.,0.,1.));
#1488 = DIRECTION('',(1.,0.,0.));
#1489 = ADVANCED_FACE('',(#1490),#1509,.F.);
#1490 = FACE_BOUND('',#1491,.T.);
#1491 = EDGE_LOOP('',(#1492,#1493,#1501,#1508));
#1492 = ORIENTED_EDGE('',*,*,#486,.T.);
#1493 = ORIENTED_EDGE('',*,*,#1494,.T.);
#1494 = EDGE_CURVE('',#477,#1495,#1497,.T.);
#1495 = VERTEX_POINT('',#1496);
#1496 = CARTESIAN_POINT('',(61.75,-96.56183252196,-40.5));
#1497 = LINE('',#1498,#1499);
#1498 = CARTESIAN_POINT('',(61.75,-96.56183252196,-43.5));
#1499 = VECTOR('',#1500,1.);
#1500 = DIRECTION('',(0.,0.,1.));
#1501 = ORIENTED_EDGE('',*,*,#1502,.F.);
#1502 = EDGE_CURVE('',#1495,#1495,#1503,.T.);
#1503 = CIRCLE('',#1504,6.);
#1504 = AXIS2_PLACEMENT_3D('',#1505,#1506,#1507);
#1505 = CARTESIAN_POINT('',(58.75,-101.7579849446,-40.5));
#1506 = DIRECTION('',(0.,0.,-1.));
#1507 = DIRECTION('',(0.5,0.866025403784,0.));
#1508 = ORIENTED_EDGE('',*,*,#1494,.F.);
#1509 = CYLINDRICAL_SURFACE('',#1510,6.);
#1510 = AXIS2_PLACEMENT_3D('',#1511,#1512,#1513);
#1511 = CARTESIAN_POINT('',(58.75,-101.7579849446,-43.5));
#1512 = DIRECTION('',(0.,0.,1.));
#1513 = DIRECTION('',(0.5,0.866025403784,0.));
#1514 = ADVANCED_FACE('',(#1515),#1534,.F.);
#1515 = FACE_BOUND('',#1516,.T.);
#1516 = EDGE_LOOP('',(#1517,#1518,#1526,#1533));
#1517 = ORIENTED_EDGE('',*,*,#511,.T.);
#1518 = ORIENTED_EDGE('',*,*,#1519,.T.);
#1519 = EDGE_CURVE('',#502,#1520,#1522,.T.);
#1520 = VERTEX_POINT('',#1521);
#1521 = CARTESIAN_POINT('',(-114.5,-5.196152422707,-40.5));
#1522 = LINE('',#1523,#1524);
#1523 = CARTESIAN_POINT('',(-114.5,-5.196152422707,-43.5));
#1524 = VECTOR('',#1525,1.);
#1525 = DIRECTION('',(0.,0.,1.));
#1526 = ORIENTED_EDGE('',*,*,#1527,.F.);
#1527 = EDGE_CURVE('',#1520,#1520,#1528,.T.);
#1528 = CIRCLE('',#1529,6.);
#1529 = AXIS2_PLACEMENT_3D('',#1530,#1531,#1532);
#1530 = CARTESIAN_POINT('',(-117.5,-4.973799150321E-14,-40.5));
#1531 = DIRECTION('',(0.,-0.,-1.));
#1532 = DIRECTION('',(0.5,-0.866025403784,0.));
#1533 = ORIENTED_EDGE('',*,*,#1519,.F.);
#1534 = CYLINDRICAL_SURFACE('',#1535,6.);
#1535 = AXIS2_PLACEMENT_3D('',#1536,#1537,#1538);
#1536 = CARTESIAN_POINT('',(-117.5,-4.973799150321E-14,-43.5));
#1537 = DIRECTION('',(0.,0.,1.));
#1538 = DIRECTION('',(0.5,-0.866025403784,0.));
#1539 = ADVANCED_FACE('',(#1540),#1559,.F.);
#1540 = FACE_BOUND('',#1541,.T.);
#1541 = EDGE_LOOP('',(#1542,#1550,#1551,#1552));
#1542 = ORIENTED_EDGE('',*,*,#1543,.F.);
#1543 = EDGE_CURVE('',#1211,#1544,#1546,.T.);
#1544 = VERTEX_POINT('',#1545);
#1545 = CARTESIAN_POINT('',(52.75,101.75798494467,-40.5));
#1546 = LINE('',#1547,#1548);
#1547 = CARTESIAN_POINT('',(52.75,101.75798494467,-43.5));
#1548 = VECTOR('',#1549,1.);
#1549 = DIRECTION('',(0.,0.,1.));
#1550 = ORIENTED_EDGE('',*,*,#1220,.T.);
#1551 = ORIENTED_EDGE('',*,*,#1543,.T.);
#1552 = ORIENTED_EDGE('',*,*,#1553,.F.);
#1553 = EDGE_CURVE('',#1544,#1544,#1554,.T.);
#1554 = CIRCLE('',#1555,6.);
#1555 = AXIS2_PLACEMENT_3D('',#1556,#1557,#1558);
#1556 = CARTESIAN_POINT('',(58.75,101.75798494467,-40.5));
#1557 = DIRECTION('',(0.,0.,-1.));
#1558 = DIRECTION('',(-1.,0.,0.));
#1559 = CYLINDRICAL_SURFACE('',#1560,6.);
#1560 = AXIS2_PLACEMENT_3D('',#1561,#1562,#1563);
#1561 = CARTESIAN_POINT('',(58.75,101.75798494467,-43.5));
#1562 = DIRECTION('',(0.,0.,1.));
#1563 = DIRECTION('',(-1.,0.,0.));
#1564 = ADVANCED_FACE('',(#1565),#1590,.T.);
#1565 = FACE_BOUND('',#1566,.T.);
#1566 = EDGE_LOOP('',(#1567,#1568,#1576,#1584));
#1567 = ORIENTED_EDGE('',*,*,#1323,.T.);
#1568 = ORIENTED_EDGE('',*,*,#1569,.T.);
#1569 = EDGE_CURVE('',#1326,#1570,#1572,.T.);
#1570 = VERTEX_POINT('',#1571);
#1571 = CARTESIAN_POINT('',(-117.5,5.,-28.7));
#1572 = LINE('',#1573,#1574);
#1573 = CARTESIAN_POINT('',(-117.5,5.,-43.5));
#1574 = VECTOR('',#1575,1.);
#1575 = DIRECTION('',(0.,0.,1.));
#1576 = ORIENTED_EDGE('',*,*,#1577,.T.);
#1577 = EDGE_CURVE('',#1570,#1578,#1580,.T.);
#1578 = VERTEX_POINT('',#1579);
#1579 = CARTESIAN_POINT('',(-113.3898143573,5.,-28.7));
#1580 = LINE('',#1581,#1582);
#1581 = CARTESIAN_POINT('',(-117.0182827711,5.,-28.7));
#1582 = VECTOR('',#1583,1.);
#1583 = DIRECTION('',(1.,-2.164934898019E-15,0.));
#1584 = ORIENTED_EDGE('',*,*,#1585,.F.);
#1585 = EDGE_CURVE('',#1324,#1578,#1586,.T.);
#1586 = LINE('',#1587,#1588);
#1587 = CARTESIAN_POINT('',(-113.3898143573,5.,-43.5));
#1588 = VECTOR('',#1589,1.);
#1589 = DIRECTION('',(0.,0.,1.));
#1590 = PLANE('',#1591);
#1591 = AXIS2_PLACEMENT_3D('',#1592,#1593,#1594);
#1592 = CARTESIAN_POINT('',(-117.5,5.,-43.5));
#1593 = DIRECTION('',(2.164934898019E-15,1.,0.));
#1594 = DIRECTION('',(1.,-2.164934898019E-15,0.));
#1595 = ADVANCED_FACE('',(#1596),#1614,.F.);
#1596 = FACE_BOUND('',#1597,.F.);
#1597 = EDGE_LOOP('',(#1598,#1599,#1607,#1613));
#1598 = ORIENTED_EDGE('',*,*,#1333,.T.);
#1599 = ORIENTED_EDGE('',*,*,#1600,.T.);
#1600 = EDGE_CURVE('',#1334,#1601,#1603,.T.);
#1601 = VERTEX_POINT('',#1602);
#1602 = CARTESIAN_POINT('',(-113.3898143573,-5.,-28.7));
#1603 = LINE('',#1604,#1605);
#1604 = CARTESIAN_POINT('',(-113.3898143573,-5.,-43.5));
#1605 = VECTOR('',#1606,1.);
#1606 = DIRECTION('',(0.,0.,1.));
#1607 = ORIENTED_EDGE('',*,*,#1608,.T.);
#1608 = EDGE_CURVE('',#1601,#1578,#1609,.T.);
#1609 = LINE('',#1610,#1611);
#1610 = CARTESIAN_POINT('',(-113.3898143573,-2.5,-28.7));
#1611 = VECTOR('',#1612,1.);
#1612 = DIRECTION('',(-4.996003610813E-16,1.,0.));
#1613 = ORIENTED_EDGE('',*,*,#1585,.F.);
#1614 = PLANE('',#1615);
#1615 = AXIS2_PLACEMENT_3D('',#1616,#1617,#1618);
#1616 = CARTESIAN_POINT('',(-113.3898143573,-5.,-43.5));
#1617 = DIRECTION('',(-1.,-4.996003610813E-16,0.));
#1618 = DIRECTION('',(-4.996003610813E-16,1.,0.));
#1619 = ADVANCED_FACE('',(#1620),#1639,.T.);
#1620 = FACE_BOUND('',#1621,.T.);
#1621 = EDGE_LOOP('',(#1622,#1623,#1631,#1638));
#1622 = ORIENTED_EDGE('',*,*,#1349,.F.);
#1623 = ORIENTED_EDGE('',*,*,#1624,.T.);
#1624 = EDGE_CURVE('',#1342,#1625,#1627,.T.);
#1625 = VERTEX_POINT('',#1626);
#1626 = CARTESIAN_POINT('',(-117.5,-5.,-28.7));
#1627 = LINE('',#1628,#1629);
#1628 = CARTESIAN_POINT('',(-117.5,-5.,-43.5));
#1629 = VECTOR('',#1630,1.);
#1630 = DIRECTION('',(0.,0.,1.));
#1631 = ORIENTED_EDGE('',*,*,#1632,.T.);
#1632 = EDGE_CURVE('',#1625,#1570,#1633,.T.);
#1633 = CIRCLE('',#1634,5.);
#1634 = AXIS2_PLACEMENT_3D('',#1635,#1636,#1637);
#1635 = CARTESIAN_POINT('',(-117.5,-2.84217094304E-14,-28.7));
#1636 = DIRECTION('',(-0.,0.,-1.));
#1637 = DIRECTION('',(-0.5,-0.866025403784,0.));
#1638 = ORIENTED_EDGE('',*,*,#1569,.F.);
#1639 = CYLINDRICAL_SURFACE('',#1640,5.);
#1640 = AXIS2_PLACEMENT_3D('',#1641,#1642,#1643);
#1641 = CARTESIAN_POINT('',(-117.5,-2.84217094304E-14,-43.5));
#1642 = DIRECTION('',(-0.,0.,-1.));
#1643 = DIRECTION('',(-0.5,-0.866025403784,0.));
#1644 = ADVANCED_FACE('',(#1645),#1656,.T.);
#1645 = FACE_BOUND('',#1646,.T.);
#1646 = EDGE_LOOP('',(#1647,#1648,#1649,#1655));
#1647 = ORIENTED_EDGE('',*,*,#1341,.T.);
#1648 = ORIENTED_EDGE('',*,*,#1600,.T.);
#1649 = ORIENTED_EDGE('',*,*,#1650,.T.);
#1650 = EDGE_CURVE('',#1601,#1625,#1651,.T.);
#1651 = LINE('',#1652,#1653);
#1652 = CARTESIAN_POINT('',(-114.9631899498,-5.,-28.7));
#1653 = VECTOR('',#1654,1.);
#1654 = DIRECTION('',(-1.,7.771561172376E-16,0.));
#1655 = ORIENTED_EDGE('',*,*,#1624,.F.);
#1656 = PLANE('',#1657);
#1657 = AXIS2_PLACEMENT_3D('',#1658,#1659,#1660);
#1658 = CARTESIAN_POINT('',(-113.3898143573,-5.,-43.5));
#1659 = DIRECTION('',(-7.771561172376E-16,-1.,0.));
#1660 = DIRECTION('',(-1.,7.771561172376E-16,0.));
#1661 = ADVANCED_FACE('',(#1662),#1687,.T.);
#1662 = FACE_BOUND('',#1663,.T.);
#1663 = EDGE_LOOP('',(#1664,#1665,#1673,#1681));
#1664 = ORIENTED_EDGE('',*,*,#1358,.T.);
#1665 = ORIENTED_EDGE('',*,*,#1666,.T.);
#1666 = EDGE_CURVE('',#1361,#1667,#1669,.T.);
#1667 = VERTEX_POINT('',#1668);
#1668 = CARTESIAN_POINT('',(54.419872981078,-104.2579849446,-28.7));
#1669 = LINE('',#1670,#1671);
#1670 = CARTESIAN_POINT('',(54.419872981078,-104.2579849446,-43.5));
#1671 = VECTOR('',#1672,1.);
#1672 = DIRECTION('',(0.,0.,1.));
#1673 = ORIENTED_EDGE('',*,*,#1674,.T.);
#1674 = EDGE_CURVE('',#1667,#1675,#1677,.T.);
#1675 = VERTEX_POINT('',#1676);
#1676 = CARTESIAN_POINT('',(52.364780159765,-100.6984597638,-28.7));
#1677 = LINE('',#1678,#1679);
#1678 = CARTESIAN_POINT('',(54.179014366636,-103.840805587,-28.7));
#1679 = VECTOR('',#1680,1.);
#1680 = DIRECTION('',(-0.5,0.866025403784,0.));
#1681 = ORIENTED_EDGE('',*,*,#1682,.F.);
#1682 = EDGE_CURVE('',#1359,#1675,#1683,.T.);
#1683 = LINE('',#1684,#1685);
#1684 = CARTESIAN_POINT('',(52.364780159765,-100.6984597638,-43.5));
#1685 = VECTOR('',#1686,1.);
#1686 = DIRECTION('',(0.,0.,1.));
#1687 = PLANE('',#1688);
#1688 = AXIS2_PLACEMENT_3D('',#1689,#1690,#1691);
#1689 = CARTESIAN_POINT('',(54.419872981078,-104.2579849446,-43.5));
#1690 = DIRECTION('',(-0.866025403784,-0.5,0.));
#1691 = DIRECTION('',(-0.5,0.866025403784,0.));
#1692 = ADVANCED_FACE('',(#1693),#1711,.F.);
#1693 = FACE_BOUND('',#1694,.F.);
#1694 = EDGE_LOOP('',(#1695,#1696,#1704,#1710));
#1695 = ORIENTED_EDGE('',*,*,#1368,.T.);
#1696 = ORIENTED_EDGE('',*,*,#1697,.T.);
#1697 = EDGE_CURVE('',#1369,#1698,#1700,.T.);
#1698 = VERTEX_POINT('',#1699);
#1699 = CARTESIAN_POINT('',(61.02503419761,-95.69845976388,-28.7));
#1700 = LINE('',#1701,#1702);
#1701 = CARTESIAN_POINT('',(61.02503419761,-95.69845976388,-43.5));
#1702 = VECTOR('',#1703,1.);
#1703 = DIRECTION('',(0.,0.,1.));
#1704 = ORIENTED_EDGE('',*,*,#1705,.T.);
#1705 = EDGE_CURVE('',#1698,#1675,#1706,.T.);
#1706 = LINE('',#1707,#1708);
#1707 = CARTESIAN_POINT('',(58.859970688149,-96.94845976388,-28.7));
#1708 = VECTOR('',#1709,1.);
#1709 = DIRECTION('',(-0.866025403784,-0.5,0.));
#1710 = ORIENTED_EDGE('',*,*,#1682,.F.);
#1711 = PLANE('',#1712);
#1712 = AXIS2_PLACEMENT_3D('',#1713,#1714,#1715);
#1713 = CARTESIAN_POINT('',(61.02503419761,-95.69845976388,-43.5));
#1714 = DIRECTION('',(0.5,-0.866025403784,0.));
#1715 = DIRECTION('',(-0.866025403784,-0.5,0.));
#1716 = ADVANCED_FACE('',(#1717),#1736,.T.);
#1717 = FACE_BOUND('',#1718,.T.);
#1718 = EDGE_LOOP('',(#1719,#1720,#1728,#1735));
#1719 = ORIENTED_EDGE('',*,*,#1384,.F.);
#1720 = ORIENTED_EDGE('',*,*,#1721,.T.);
#1721 = EDGE_CURVE('',#1377,#1722,#1724,.T.);
#1722 = VERTEX_POINT('',#1723);
#1723 = CARTESIAN_POINT('',(63.080127018922,-99.25798494467,-28.7));
#1724 = LINE('',#1725,#1726);
#1725 = CARTESIAN_POINT('',(63.080127018922,-99.25798494467,-43.5));
#1726 = VECTOR('',#1727,1.);
#1727 = DIRECTION('',(0.,0.,1.));
#1728 = ORIENTED_EDGE('',*,*,#1729,.T.);
#1729 = EDGE_CURVE('',#1722,#1667,#1730,.T.);
#1730 = CIRCLE('',#1731,5.);
#1731 = AXIS2_PLACEMENT_3D('',#1732,#1733,#1734);
#1732 = CARTESIAN_POINT('',(58.75,-101.7579849446,-28.7));
#1733 = DIRECTION('',(0.,-0.,-1.));
#1734 = DIRECTION('',(1.,-5.551115123126E-17,0.));
#1735 = ORIENTED_EDGE('',*,*,#1666,.F.);
#1736 = CYLINDRICAL_SURFACE('',#1737,5.);
#1737 = AXIS2_PLACEMENT_3D('',#1738,#1739,#1740);
#1738 = CARTESIAN_POINT('',(58.75,-101.7579849446,-43.5));
#1739 = DIRECTION('',(0.,-0.,-1.));
#1740 = DIRECTION('',(1.,-5.551115123126E-17,0.));
#1741 = ADVANCED_FACE('',(#1742),#1753,.T.);
#1742 = FACE_BOUND('',#1743,.T.);
#1743 = EDGE_LOOP('',(#1744,#1745,#1746,#1752));
#1744 = ORIENTED_EDGE('',*,*,#1376,.T.);
#1745 = ORIENTED_EDGE('',*,*,#1697,.T.);
#1746 = ORIENTED_EDGE('',*,*,#1747,.T.);
#1747 = EDGE_CURVE('',#1698,#1722,#1748,.T.);
#1748 = LINE('',#1749,#1750);
#1749 = CARTESIAN_POINT('',(61.811721993825,-97.06104299662,-28.7));
#1750 = VECTOR('',#1751,1.);
#1751 = DIRECTION('',(0.5,-0.866025403784,0.));
#1752 = ORIENTED_EDGE('',*,*,#1721,.F.);
#1753 = PLANE('',#1754);
#1754 = AXIS2_PLACEMENT_3D('',#1755,#1756,#1757);
#1755 = CARTESIAN_POINT('',(61.02503419761,-95.69845976388,-43.5));
#1756 = DIRECTION('',(0.866025403784,0.5,0.));
#1757 = DIRECTION('',(0.5,-0.866025403784,0.));
#1758 = ADVANCED_FACE('',(#1759),#1784,.T.);
#1759 = FACE_BOUND('',#1760,.T.);
#1760 = EDGE_LOOP('',(#1761,#1762,#1770,#1778));
#1761 = ORIENTED_EDGE('',*,*,#1438,.T.);
#1762 = ORIENTED_EDGE('',*,*,#1763,.T.);
#1763 = EDGE_CURVE('',#1441,#1764,#1766,.T.);
#1764 = VERTEX_POINT('',#1765);
#1765 = CARTESIAN_POINT('',(63.080127018922,99.257984944672,-28.7));
#1766 = LINE('',#1767,#1768);
#1767 = CARTESIAN_POINT('',(63.080127018922,99.257984944672,-43.5));
#1768 = VECTOR('',#1769,1.);
#1769 = DIRECTION('',(0.,0.,1.));
#1770 = ORIENTED_EDGE('',*,*,#1771,.T.);
#1771 = EDGE_CURVE('',#1764,#1772,#1774,.T.);
#1772 = VERTEX_POINT('',#1773);
#1773 = CARTESIAN_POINT('',(61.02503419761,95.698459763888,-28.7));
#1774 = LINE('',#1775,#1776);
#1775 = CARTESIAN_POINT('',(62.839268404481,98.840805587018,-28.7));
#1776 = VECTOR('',#1777,1.);
#1777 = DIRECTION('',(-0.5,-0.866025403784,0.));
#1778 = ORIENTED_EDGE('',*,*,#1779,.F.);
#1779 = EDGE_CURVE('',#1439,#1772,#1780,.T.);
#1780 = LINE('',#1781,#1782);
#1781 = CARTESIAN_POINT('',(61.02503419761,95.698459763888,-43.5));
#1782 = VECTOR('',#1783,1.);
#1783 = DIRECTION('',(0.,0.,1.));
#1784 = PLANE('',#1785);
#1785 = AXIS2_PLACEMENT_3D('',#1786,#1787,#1788);
#1786 = CARTESIAN_POINT('',(63.080127018922,99.257984944672,-43.5));
#1787 = DIRECTION('',(0.866025403784,-0.5,0.));
#1788 = DIRECTION('',(-0.5,-0.866025403784,0.));
#1789 = ADVANCED_FACE('',(#1790),#1808,.F.);
#1790 = FACE_BOUND('',#1791,.F.);
#1791 = EDGE_LOOP('',(#1792,#1793,#1801,#1807));
#1792 = ORIENTED_EDGE('',*,*,#1448,.T.);
#1793 = ORIENTED_EDGE('',*,*,#1794,.T.);
#1794 = EDGE_CURVE('',#1449,#1795,#1797,.T.);
#1795 = VERTEX_POINT('',#1796);
#1796 = CARTESIAN_POINT('',(52.364780159765,100.69845976388,-28.7));
#1797 = LINE('',#1798,#1799);
#1798 = CARTESIAN_POINT('',(52.364780159765,100.69845976388,-43.5));
#1799 = VECTOR('',#1800,1.);
#1800 = DIRECTION('',(0.,0.,1.));
#1801 = ORIENTED_EDGE('',*,*,#1802,.T.);
#1802 = EDGE_CURVE('',#1795,#1772,#1803,.T.);
#1803 = LINE('',#1804,#1805);
#1804 = CARTESIAN_POINT('',(54.529843669226,99.448459763888,-28.7));
#1805 = VECTOR('',#1806,1.);
#1806 = DIRECTION('',(0.866025403784,-0.5,0.));
#1807 = ORIENTED_EDGE('',*,*,#1779,.F.);
#1808 = PLANE('',#1809);
#1809 = AXIS2_PLACEMENT_3D('',#1810,#1811,#1812);
#1810 = CARTESIAN_POINT('',(52.364780159765,100.69845976388,-43.5));
#1811 = DIRECTION('',(0.5,0.866025403784,0.));
#1812 = DIRECTION('',(0.866025403784,-0.5,0.));
#1813 = ADVANCED_FACE('',(#1814),#1833,.T.);
#1814 = FACE_BOUND('',#1815,.T.);
#1815 = EDGE_LOOP('',(#1816,#1817,#1825,#1832));
#1816 = ORIENTED_EDGE('',*,*,#1464,.F.);
#1817 = ORIENTED_EDGE('',*,*,#1818,.T.);
#1818 = EDGE_CURVE('',#1457,#1819,#1821,.T.);
#1819 = VERTEX_POINT('',#1820);
#1820 = CARTESIAN_POINT('',(54.419872981078,104.25798494467,-28.7));
#1821 = LINE('',#1822,#1823);
#1822 = CARTESIAN_POINT('',(54.419872981078,104.25798494467,-43.5));
#1823 = VECTOR('',#1824,1.);
#1824 = DIRECTION('',(0.,0.,1.));
#1825 = ORIENTED_EDGE('',*,*,#1826,.T.);
#1826 = EDGE_CURVE('',#1819,#1764,#1827,.T.);
#1827 = CIRCLE('',#1828,5.);
#1828 = AXIS2_PLACEMENT_3D('',#1829,#1830,#1831);
#1829 = CARTESIAN_POINT('',(58.75,101.75798494467,-28.7));
#1830 = DIRECTION('',(0.,0.,-1.));
#1831 = DIRECTION('',(-0.5,0.866025403784,0.));
#1832 = ORIENTED_EDGE('',*,*,#1763,.F.);
#1833 = CYLINDRICAL_SURFACE('',#1834,5.);
#1834 = AXIS2_PLACEMENT_3D('',#1835,#1836,#1837);
#1835 = CARTESIAN_POINT('',(58.75,101.75798494467,-43.5));
#1836 = DIRECTION('',(0.,0.,-1.));
#1837 = DIRECTION('',(-0.5,0.866025403784,0.));
#1838 = ADVANCED_FACE('',(#1839),#1850,.T.);
#1839 = FACE_BOUND('',#1840,.T.);
#1840 = EDGE_LOOP('',(#1841,#1842,#1843,#1849));
#1841 = ORIENTED_EDGE('',*,*,#1456,.T.);
#1842 = ORIENTED_EDGE('',*,*,#1794,.T.);
#1843 = ORIENTED_EDGE('',*,*,#1844,.T.);
#1844 = EDGE_CURVE('',#1795,#1819,#1845,.T.);
#1845 = LINE('',#1846,#1847);
#1846 = CARTESIAN_POINT('',(53.15146795598,102.06104299662,-28.7));
#1847 = VECTOR('',#1848,1.);
#1848 = DIRECTION('',(0.5,0.866025403784,0.));
#1849 = ORIENTED_EDGE('',*,*,#1818,.F.);
#1850 = PLANE('',#1851);
#1851 = AXIS2_PLACEMENT_3D('',#1852,#1853,#1854);
#1852 = CARTESIAN_POINT('',(52.364780159765,100.69845976388,-43.5));
#1853 = DIRECTION('',(-0.866025403784,0.5,0.));
#1854 = DIRECTION('',(0.5,0.866025403784,0.));
#1855 = ADVANCED_FACE('',(#1856,#1859),#1870,.T.);
#1856 = FACE_BOUND('',#1857,.T.);
#1857 = EDGE_LOOP('',(#1858));
#1858 = ORIENTED_EDGE('',*,*,#1502,.T.);
#1859 = FACE_BOUND('',#1860,.T.);
#1860 = EDGE_LOOP('',(#1861));
#1861 = ORIENTED_EDGE('',*,*,#1862,.T.);
#1862 = EDGE_CURVE('',#1863,#1863,#1865,.T.);
#1863 = VERTEX_POINT('',#1864);
#1864 = CARTESIAN_POINT('',(57.95,-103.1436255907,-40.5));
#1865 = CIRCLE('',#1866,1.6);
#1866 = AXIS2_PLACEMENT_3D('',#1867,#1868,#1869);
#1867 = CARTESIAN_POINT('',(58.75,-101.7579849446,-40.5));
#1868 = DIRECTION('',(0.,0.,1.));
#1869 = DIRECTION('',(-0.5,-0.866025403784,0.));
#1870 = PLANE('',#1871);
#1871 = AXIS2_PLACEMENT_3D('',#1872,#1873,#1874);
#1872 = CARTESIAN_POINT('',(58.75,-101.7579849446,-40.5));
#1873 = DIRECTION('',(0.,0.,-1.));
#1874 = DIRECTION('',(0.5,0.866025403784,0.));
#1875 = ADVANCED_FACE('',(#1876,#1879),#1890,.T.);
#1876 = FACE_BOUND('',#1877,.T.);
#1877 = EDGE_LOOP('',(#1878));
#1878 = ORIENTED_EDGE('',*,*,#1527,.T.);
#1879 = FACE_BOUND('',#1880,.T.);
#1880 = EDGE_LOOP('',(#1881));
#1881 = ORIENTED_EDGE('',*,*,#1882,.T.);
#1882 = EDGE_CURVE('',#1883,#1883,#1885,.T.);
#1883 = VERTEX_POINT('',#1884);
#1884 = CARTESIAN_POINT('',(-118.3,1.385640646055,-40.5));
#1885 = CIRCLE('',#1886,1.6);
#1886 = AXIS2_PLACEMENT_3D('',#1887,#1888,#1889);
#1887 = CARTESIAN_POINT('',(-117.5,-6.395E-14,-40.5));
#1888 = DIRECTION('',(0.,0.,1.));
#1889 = DIRECTION('',(-0.5,0.866025403784,0.));
#1890 = PLANE('',#1891);
#1891 = AXIS2_PLACEMENT_3D('',#1892,#1893,#1894);
#1892 = CARTESIAN_POINT('',(-117.5,-4.973799150321E-14,-40.5));
#1893 = DIRECTION('',(0.,0.,-1.));
#1894 = DIRECTION('',(0.5,-0.866025403784,0.));
#1895 = ADVANCED_FACE('',(#1896,#1899),#1910,.T.);
#1896 = FACE_BOUND('',#1897,.T.);
#1897 = EDGE_LOOP('',(#1898));
#1898 = ORIENTED_EDGE('',*,*,#1553,.T.);
#1899 = FACE_BOUND('',#1900,.T.);
#1900 = EDGE_LOOP('',(#1901));
#1901 = ORIENTED_EDGE('',*,*,#1902,.T.);
#1902 = EDGE_CURVE('',#1903,#1903,#1905,.T.);
#1903 = VERTEX_POINT('',#1904);
#1904 = CARTESIAN_POINT('',(60.35,101.75798494467,-40.5));
#1905 = CIRCLE('',#1906,1.6);
#1906 = AXIS2_PLACEMENT_3D('',#1907,#1908,#1909);
#1907 = CARTESIAN_POINT('',(58.75,101.75798494467,-40.5));
#1908 = DIRECTION('',(0.,0.,1.));
#1909 = DIRECTION('',(1.,0.,0.));
#1910 = PLANE('',#1911);
#1911 = AXIS2_PLACEMENT_3D('',#1912,#1913,#1914);
#1912 = CARTESIAN_POINT('',(58.75,101.75798494467,-40.5));
#1913 = DIRECTION('',(-0.,-0.,-1.));
#1914 = DIRECTION('',(-1.,0.,0.));
#1915 = ADVANCED_FACE('',(#1916,#1922),#1933,.T.);
#1916 = FACE_BOUND('',#1917,.T.);
#1917 = EDGE_LOOP('',(#1918,#1919,#1920,#1921));
#1918 = ORIENTED_EDGE('',*,*,#1650,.F.);
#1919 = ORIENTED_EDGE('',*,*,#1608,.T.);
#1920 = ORIENTED_EDGE('',*,*,#1577,.F.);
#1921 = ORIENTED_EDGE('',*,*,#1632,.F.);
#1922 = FACE_BOUND('',#1923,.T.);
#1923 = EDGE_LOOP('',(#1924));
#1924 = ORIENTED_EDGE('',*,*,#1925,.T.);
#1925 = EDGE_CURVE('',#1926,#1926,#1928,.T.);
#1926 = VERTEX_POINT('',#1927);
#1927 = CARTESIAN_POINT('',(-118.3,1.385640646055,-28.7));
#1928 = CIRCLE('',#1929,1.6);
#1929 = AXIS2_PLACEMENT_3D('',#1930,#1931,#1932);
#1930 = CARTESIAN_POINT('',(-117.5,-6.395E-14,-28.7));
#1931 = DIRECTION('',(0.,0.,-1.));
#1932 = DIRECTION('',(-0.5,0.866025403784,0.));
#1933 = PLANE('',#1934);
#1934 = AXIS2_PLACEMENT_3D('',#1935,#1936,#1937);
#1935 = CARTESIAN_POINT('',(-116.5365655422,-2.13162820728E-14,-28.7));
#1936 = DIRECTION('',(0.,0.,1.));
#1937 = DIRECTION('',(-0.5,-0.866025403784,0.));
#1938 = ADVANCED_FACE('',(#1939,#1945),#1956,.T.);
#1939 = FACE_BOUND('',#1940,.T.);
#1940 = EDGE_LOOP('',(#1941,#1942,#1943,#1944));
#1941 = ORIENTED_EDGE('',*,*,#1747,.F.);
#1942 = ORIENTED_EDGE('',*,*,#1705,.T.);
#1943 = ORIENTED_EDGE('',*,*,#1674,.F.);
#1944 = ORIENTED_EDGE('',*,*,#1729,.F.);
#1945 = FACE_BOUND('',#1946,.T.);
#1946 = EDGE_LOOP('',(#1947));
#1947 = ORIENTED_EDGE('',*,*,#1948,.T.);
#1948 = EDGE_CURVE('',#1949,#1949,#1951,.T.);
#1949 = VERTEX_POINT('',#1950);
#1950 = CARTESIAN_POINT('',(57.95,-103.1436255907,-28.7));
#1951 = CIRCLE('',#1952,1.6);
#1952 = AXIS2_PLACEMENT_3D('',#1953,#1954,#1955);
#1953 = CARTESIAN_POINT('',(58.75,-101.7579849446,-28.7));
#1954 = DIRECTION('',(-0.,0.,-1.));
#1955 = DIRECTION('',(-0.5,-0.866025403784,0.));
#1956 = PLANE('',#1957);
#1957 = AXIS2_PLACEMENT_3D('',#1958,#1959,#1960);
#1958 = CARTESIAN_POINT('',(58.268282771117,-100.9236262293,-28.7));
#1959 = DIRECTION('',(0.,0.,1.));
#1960 = DIRECTION('',(1.,-5.551115123126E-17,0.));
#1961 = ADVANCED_FACE('',(#1962,#1968),#1979,.T.);
#1962 = FACE_BOUND('',#1963,.T.);
#1963 = EDGE_LOOP('',(#1964,#1965,#1966,#1967));
#1964 = ORIENTED_EDGE('',*,*,#1844,.F.);
#1965 = ORIENTED_EDGE('',*,*,#1802,.T.);
#1966 = ORIENTED_EDGE('',*,*,#1771,.F.);
#1967 = ORIENTED_EDGE('',*,*,#1826,.F.);
#1968 = FACE_BOUND('',#1969,.T.);
#1969 = EDGE_LOOP('',(#1970));
#1970 = ORIENTED_EDGE('',*,*,#1971,.T.);
#1971 = EDGE_CURVE('',#1972,#1972,#1974,.T.);
#1972 = VERTEX_POINT('',#1973);
#1973 = CARTESIAN_POINT('',(60.35,101.75798494467,-28.7));
#1974 = CIRCLE('',#1975,1.6);
#1975 = AXIS2_PLACEMENT_3D('',#1976,#1977,#1978);
#1976 = CARTESIAN_POINT('',(58.75,101.75798494467,-28.7));
#1977 = DIRECTION('',(0.,0.,-1.));
#1978 = DIRECTION('',(1.,0.,0.));
#1979 = PLANE('',#1980);
#1980 = AXIS2_PLACEMENT_3D('',#1981,#1982,#1983);
#1981 = CARTESIAN_POINT('',(58.268282771117,100.92362622936,-28.7));
#1982 = DIRECTION('',(0.,0.,1.));
#1983 = DIRECTION('',(-0.5,0.866025403784,0.));
#1984 = ADVANCED_FACE('',(#1985),#1995,.F.);
#1985 = FACE_BOUND('',#1986,.T.);
#1986 = EDGE_LOOP('',(#1987,#1988,#1993,#1994));
#1987 = ORIENTED_EDGE('',*,*,#1948,.F.);
#1988 = ORIENTED_EDGE('',*,*,#1989,.F.);
#1989 = EDGE_CURVE('',#1863,#1949,#1990,.T.);
#1990 = B_SPLINE_CURVE_WITH_KNOTS('',1,(#1991,#1992),.UNSPECIFIED.,.F.,
  .F.,(2,2),(-11.8,0.),.PIECEWISE_BEZIER_KNOTS.);
#1991 = CARTESIAN_POINT('',(57.95,-103.1436255907,-40.5));
#1992 = CARTESIAN_POINT('',(57.95,-103.1436255907,-28.7));
#1993 = ORIENTED_EDGE('',*,*,#1862,.F.);
#1994 = ORIENTED_EDGE('',*,*,#1989,.T.);
#1995 = CYLINDRICAL_SURFACE('',#1996,1.6);
#1996 = AXIS2_PLACEMENT_3D('',#1997,#1998,#1999);
#1997 = CARTESIAN_POINT('',(58.75,-101.7579849446,-28.7));
#1998 = DIRECTION('',(0.,0.,1.));
#1999 = DIRECTION('',(-0.5,-0.866025403784,0.));
#2000 = ADVANCED_FACE('',(#2001),#2011,.F.);
#2001 = FACE_BOUND('',#2002,.T.);
#2002 = EDGE_LOOP('',(#2003,#2004,#2009,#2010));
#2003 = ORIENTED_EDGE('',*,*,#1925,.F.);
#2004 = ORIENTED_EDGE('',*,*,#2005,.F.);
#2005 = EDGE_CURVE('',#1883,#1926,#2006,.T.);
#2006 = B_SPLINE_CURVE_WITH_KNOTS('',1,(#2007,#2008),.UNSPECIFIED.,.F.,
  .F.,(2,2),(-11.8,0.),.PIECEWISE_BEZIER_KNOTS.);
#2007 = CARTESIAN_POINT('',(-118.3,1.385640646055,-40.5));
#2008 = CARTESIAN_POINT('',(-118.3,1.385640646055,-28.7));
#2009 = ORIENTED_EDGE('',*,*,#1882,.F.);
#2010 = ORIENTED_EDGE('',*,*,#2005,.T.);
#2011 = CYLINDRICAL_SURFACE('',#2012,1.6);
#2012 = AXIS2_PLACEMENT_3D('',#2013,#2014,#2015);
#2013 = CARTESIAN_POINT('',(-117.5,-6.395E-14,-28.7));
#2014 = DIRECTION('',(0.,0.,1.));
#2015 = DIRECTION('',(-0.5,0.866025403784,0.));
#2016 = ADVANCED_FACE('',(#2017),#2027,.F.);
#2017 = FACE_BOUND('',#2018,.T.);
#2018 = EDGE_LOOP('',(#2019,#2020,#2025,#2026));
#2019 = ORIENTED_EDGE('',*,*,#1902,.F.);
#2020 = ORIENTED_EDGE('',*,*,#2021,.T.);
#2021 = EDGE_CURVE('',#1903,#1972,#2022,.T.);
#2022 = B_SPLINE_CURVE_WITH_KNOTS('',1,(#2023,#2024),.UNSPECIFIED.,.F.,
  .F.,(2,2),(-14.8,0.),.PIECEWISE_BEZIER_KNOTS.);
#2023 = CARTESIAN_POINT('',(60.35,101.75798494467,-43.5));
#2024 = CARTESIAN_POINT('',(60.35,101.75798494467,-28.7));
#2025 = ORIENTED_EDGE('',*,*,#1971,.F.);
#2026 = ORIENTED_EDGE('',*,*,#2021,.F.);
#2027 = CYLINDRICAL_SURFACE('',#2028,1.6);
#2028 = AXIS2_PLACEMENT_3D('',#2029,#2030,#2031);
#2029 = CARTESIAN_POINT('',(58.75,101.75798494467,-28.7));
#2030 = DIRECTION('',(0.,0.,1.));
#2031 = DIRECTION('',(1.,0.,0.));
#2032 = ADVANCED_FACE('',(#2033),#2041,.T.);
#2033 = FACE_BOUND('',#2034,.T.);
#2034 = EDGE_LOOP('',(#2035,#2036,#2037,#2038,#2039,#2040));
#2035 = ORIENTED_EDGE('',*,*,#56,.F.);
#2036 = ORIENTED_EDGE('',*,*,#366,.F.);
#2037 = ORIENTED_EDGE('',*,*,#1270,.T.);
#2038 = ORIENTED_EDGE('',*,*,#1261,.T.);
#2039 = ORIENTED_EDGE('',*,*,#462,.T.);
#2040 = ORIENTED_EDGE('',*,*,#21,.F.);
#2041 = CYLINDRICAL_SURFACE('',#2042,130.);
#2042 = AXIS2_PLACEMENT_3D('',#2043,#2044,#2045);
#2043 = CARTESIAN_POINT('',(0.,0.,-43.5));
#2044 = DIRECTION('',(0.,0.,-1.));
#2045 = DIRECTION('',(1.,0.,0.));
#2046 = ( GEOMETRIC_REPRESENTATION_CONTEXT(3) 
GLOBAL_UNCERTAINTY_ASSIGNED_CONTEXT((#2050)) 
GLOBAL_UNIT_ASSIGNED_CONTEXT((#2047,#2048,#2049)) REPRESENTATION_CONTEXT
('Context #1','3D Context with UNIT and UNCERTAINTY') );
#2047 = ( LENGTH_UNIT() NAMED_UNIT(*) SI_UNIT(.MILLI.,.METRE.) );
#2048 = ( NAMED_UNIT(*) PLANE_ANGLE_UNIT() SI_UNIT($,.RADIAN.) );
#2049 = ( NAMED_UNIT(*) SI_UNIT($,.STERADIAN.) SOLID_ANGLE_UNIT() );
#2050 = UNCERTAINTY_MEASURE_WITH_UNIT(LENGTH_MEASURE(1.E-04),#2047,
  'distance_accuracy_value','confusion accuracy');
#2051 = PRODUCT_RELATED_PRODUCT_CATEGORY('part',$,(#7));
#2052 = MECHANICAL_DESIGN_GEOMETRIC_PRESENTATION_REPRESENTATION('',(
    #2053),#2046);
#2053 = STYLED_ITEM('color',(#2054),#15);
#2054 = PRESENTATION_STYLE_ASSIGNMENT((#2055,#2061));
#2055 = SURFACE_STYLE_USAGE(.BOTH.,#2056);
#2056 = SURFACE_SIDE_STYLE('',(#2057));
#2057 = SURFACE_STYLE_FILL_AREA(#2058);
#2058 = FILL_AREA_STYLE('',(#2059));
#2059 = FILL_AREA_STYLE_COLOUR('',#2060);
#2060 = COLOUR_RGB('',1.,0.533333357804,0.858823546443);
#2061 = CURVE_STYLE('',#2062,POSITIVE_LENGTH_MEASURE(0.1),#2063);
#2062 = DRAUGHTING_PRE_DEFINED_CURVE_FONT('continuous');
#2063 = COLOUR_RGB('',9.803921802644E-02,9.803921802644E-02,
  9.803921802644E-02);
ENDSEC;
END-ISO-10303-21;
