ISO-10303-21;
HEADER;
FILE_DESCRIPTION(('FreeCAD Model'),'2;1');
FILE_NAME('Open CASCADE Shape Model','2026-07-21T18:52:08',(''),(''),
  'Open CASCADE STEP processor 7.9','FreeCAD','Unknown');
FILE_SCHEMA(('AUTOMOTIVE_DESIGN { 1 0 10303 214 1 1 1 1 }'));
ENDSEC;
DATA;
#1 = APPLICATION_PROTOCOL_DEFINITION('international standard',
  'automotive_design',2000,#2);
#2 = APPLICATION_CONTEXT(
  'core data for automotive mechanical design processes');
#3 = SHAPE_DEFINITION_REPRESENTATION(#4,#10);
#4 = PRODUCT_DEFINITION_SHAPE('','',#5);
#5 = PRODUCT_DEFINITION('design','',#6,#9);
#6 = PRODUCT_DEFINITION_FORMATION('','',#7);
#7 = PRODUCT('base-mid-2','base-mid-2','',(#8));
#8 = PRODUCT_CONTEXT('',#2,'mechanical');
#9 = PRODUCT_DEFINITION_CONTEXT('part definition',#2,'design');
#10 = ADVANCED_BREP_SHAPE_REPRESENTATION('',(#11,#15),#1405);
#11 = AXIS2_PLACEMENT_3D('',#12,#13,#14);
#12 = CARTESIAN_POINT('',(0.,0.,0.));
#13 = DIRECTION('',(0.,0.,1.));
#14 = DIRECTION('',(1.,0.,-0.));
#15 = MANIFOLD_SOLID_BREP('',#16);
#16 = CLOSED_SHELL('',(#17,#93,#126,#158,#224,#278,#310,#342,#374,#416,
    #438,#478,#501,#527,#559,#576,#608,#640,#662,#685,#697,#722,#747,
    #765,#788,#813,#838,#863,#872,#881,#899,#954,#1001,#1025,#1065,#1082
    ,#1099,#1116,#1128,#1183,#1214,#1246,#1270,#1295,#1326,#1359,#1376,
    #1393));
#17 = ADVANCED_FACE('',(#18),#88,.F.);
#18 = FACE_BOUND('',#19,.T.);
#19 = EDGE_LOOP('',(#20,#30,#39,#47,#56,#64,#73,#81));
#20 = ORIENTED_EDGE('',*,*,#21,.F.);
#21 = EDGE_CURVE('',#22,#24,#26,.T.);
#22 = VERTEX_POINT('',#23);
#23 = CARTESIAN_POINT('',(112.5,-7.E-15,-32.5));
#24 = VERTEX_POINT('',#25);
#25 = CARTESIAN_POINT('',(112.5,-6.E-15,-26.));
#26 = LINE('',#27,#28);
#27 = CARTESIAN_POINT('',(112.5,0.,-33.5));
#28 = VECTOR('',#29,1.);
#29 = DIRECTION('',(0.,0.,1.));
#30 = ORIENTED_EDGE('',*,*,#31,.T.);
#31 = EDGE_CURVE('',#22,#32,#34,.T.);
#32 = VERTEX_POINT('',#33);
#33 = CARTESIAN_POINT('',(60.524544001395,-94.83158531535,-32.5));
#34 = CIRCLE('',#35,112.5);
#35 = AXIS2_PLACEMENT_3D('',#36,#37,#38);
#36 = CARTESIAN_POINT('',(0.,-7.22E-15,-32.5));
#37 = DIRECTION('',(0.,-2.2E-16,-1.));
#38 = DIRECTION('',(1.,0.,0.));
#39 = ORIENTED_EDGE('',*,*,#40,.T.);
#40 = EDGE_CURVE('',#32,#41,#43,.T.);
#41 = VERTEX_POINT('',#42);
#42 = CARTESIAN_POINT('',(60.524544001395,-94.83158531535,-27.5));
#43 = LINE('',#44,#45);
#44 = CARTESIAN_POINT('',(60.524544001395,-94.83158531535,-33.5));
#45 = VECTOR('',#46,1.);
#46 = DIRECTION('',(0.,0.,1.));
#47 = ORIENTED_EDGE('',*,*,#48,.F.);
#48 = EDGE_CURVE('',#49,#41,#51,.T.);
#49 = VERTEX_POINT('',#50);
#50 = CARTESIAN_POINT('',(51.86428996355,-99.83158531535,-27.5));
#51 = CIRCLE('',#52,112.5);
#52 = AXIS2_PLACEMENT_3D('',#53,#54,#55);
#53 = CARTESIAN_POINT('',(0.,-1.421E-14,-27.5));
#54 = DIRECTION('',(-0.,0.,1.));
#55 = DIRECTION('',(0.461015910787,-0.88739186947,0.));
#56 = ORIENTED_EDGE('',*,*,#57,.F.);
#57 = EDGE_CURVE('',#58,#49,#60,.T.);
#58 = VERTEX_POINT('',#59);
#59 = CARTESIAN_POINT('',(51.86428996355,-99.83158531535,-32.5));
#60 = LINE('',#61,#62);
#61 = CARTESIAN_POINT('',(51.86428996355,-99.83158531535,-33.5));
#62 = VECTOR('',#63,1.);
#63 = DIRECTION('',(0.,2.2E-16,1.));
#64 = ORIENTED_EDGE('',*,*,#65,.T.);
#65 = EDGE_CURVE('',#58,#66,#68,.T.);
#66 = VERTEX_POINT('',#67);
#67 = CARTESIAN_POINT('',(-56.25,-97.42785792574,-32.5));
#68 = CIRCLE('',#69,112.5);
#69 = AXIS2_PLACEMENT_3D('',#70,#71,#72);
#70 = CARTESIAN_POINT('',(0.,-7.22E-15,-32.5));
#71 = DIRECTION('',(1.232595164408E-32,-2.2E-16,-1.));
#72 = DIRECTION('',(0.461015910787,-0.88739186947,1.952262112834E-16));
#73 = ORIENTED_EDGE('',*,*,#74,.T.);
#74 = EDGE_CURVE('',#66,#75,#77,.T.);
#75 = VERTEX_POINT('',#76);
#76 = CARTESIAN_POINT('',(-56.25,-97.42785792574,-26.));
#77 = LINE('',#78,#79);
#78 = CARTESIAN_POINT('',(-56.25,-97.42785792574,-33.5));
#79 = VECTOR('',#80,1.);
#80 = DIRECTION('',(0.,0.,1.));
#81 = ORIENTED_EDGE('',*,*,#82,.F.);
#82 = EDGE_CURVE('',#24,#75,#83,.T.);
#83 = CIRCLE('',#84,112.5);
#84 = AXIS2_PLACEMENT_3D('',#85,#86,#87);
#85 = CARTESIAN_POINT('',(0.,-5.77E-15,-26.));
#86 = DIRECTION('',(0.,-2.2E-16,-1.));
#87 = DIRECTION('',(1.,0.,0.));
#88 = CYLINDRICAL_SURFACE('',#89,112.5);
#89 = AXIS2_PLACEMENT_3D('',#90,#91,#92);
#90 = CARTESIAN_POINT('',(0.,-7.44E-15,-33.5));
#91 = DIRECTION('',(0.,2.2E-16,1.));
#92 = DIRECTION('',(1.,0.,0.));
#93 = ADVANCED_FACE('',(#94),#121,.F.);
#94 = FACE_BOUND('',#95,.F.);
#95 = EDGE_LOOP('',(#96,#104,#105,#114));
#96 = ORIENTED_EDGE('',*,*,#97,.F.);
#97 = EDGE_CURVE('',#22,#98,#100,.T.);
#98 = VERTEX_POINT('',#99);
#99 = CARTESIAN_POINT('',(113.5,-7.E-15,-33.5));
#100 = LINE('',#101,#102);
#101 = CARTESIAN_POINT('',(0.,1.776E-14,80.));
#102 = VECTOR('',#103,1.);
#103 = DIRECTION('',(0.707106781187,-1.6E-16,-0.707106781187));
#104 = ORIENTED_EDGE('',*,*,#31,.T.);
#105 = ORIENTED_EDGE('',*,*,#106,.F.);
#106 = EDGE_CURVE('',#107,#32,#109,.T.);
#107 = VERTEX_POINT('',#108);
#108 = CARTESIAN_POINT('',(61.866801792552,-95.15644400649,-33.5));
#109 = PARABOLA('',#110,38.006989488777);
#110 = AXIS2_PLACEMENT_3D('',#111,#112,#113);
#111 = CARTESIAN_POINT('',(-46.54886545341,-26.875,26.25));
#112 = DIRECTION('',(0.612372435696,0.353553390593,0.707106781187));
#113 = DIRECTION('',(0.612372435696,0.353553390593,-0.707106781187));
#114 = ORIENTED_EDGE('',*,*,#115,.F.);
#115 = EDGE_CURVE('',#98,#107,#116,.T.);
#116 = CIRCLE('',#117,113.5);
#117 = AXIS2_PLACEMENT_3D('',#118,#119,#120);
#118 = CARTESIAN_POINT('',(0.,-7.44E-15,-33.5));
#119 = DIRECTION('',(0.,-2.2E-16,-1.));
#120 = DIRECTION('',(1.,0.,0.));
#121 = CONICAL_SURFACE('',#122,112.5,0.785398163397);
#122 = AXIS2_PLACEMENT_3D('',#123,#124,#125);
#123 = CARTESIAN_POINT('',(0.,-7.22E-15,-32.5));
#124 = DIRECTION('',(0.,-2.2E-16,-1.));
#125 = DIRECTION('',(1.,0.,0.));
#126 = ADVANCED_FACE('',(#127),#153,.F.);
#127 = FACE_BOUND('',#128,.T.);
#128 = EDGE_LOOP('',(#129,#130,#138,#147));
#129 = ORIENTED_EDGE('',*,*,#82,.T.);
#130 = ORIENTED_EDGE('',*,*,#131,.T.);
#131 = EDGE_CURVE('',#75,#132,#134,.T.);
#132 = VERTEX_POINT('',#133);
#133 = CARTESIAN_POINT('',(-48.25,-83.57145146519,-10.));
#134 = LINE('',#135,#136);
#135 = CARTESIAN_POINT('',(-56.25,-97.42785792574,-26.));
#136 = VECTOR('',#137,1.);
#137 = DIRECTION('',(0.353553390593,0.612372435696,0.707106781187));
#138 = ORIENTED_EDGE('',*,*,#139,.F.);
#139 = EDGE_CURVE('',#140,#132,#142,.T.);
#140 = VERTEX_POINT('',#141);
#141 = CARTESIAN_POINT('',(96.5,-2.E-15,-10.));
#142 = CIRCLE('',#143,96.5);
#143 = AXIS2_PLACEMENT_3D('',#144,#145,#146);
#144 = CARTESIAN_POINT('',(0.,-2.22E-15,-10.));
#145 = DIRECTION('',(0.,-2.2E-16,-1.));
#146 = DIRECTION('',(1.,0.,0.));
#147 = ORIENTED_EDGE('',*,*,#148,.F.);
#148 = EDGE_CURVE('',#24,#140,#149,.T.);
#149 = LINE('',#150,#151);
#150 = CARTESIAN_POINT('',(112.5,0.,-26.));
#151 = VECTOR('',#152,1.);
#152 = DIRECTION('',(-0.707106781187,0.,0.707106781187));
#153 = CONICAL_SURFACE('',#154,112.5,0.785398163397);
#154 = AXIS2_PLACEMENT_3D('',#155,#156,#157);
#155 = CARTESIAN_POINT('',(0.,-5.77E-15,-26.));
#156 = DIRECTION('',(-0.,-2.2E-16,-1.));
#157 = DIRECTION('',(1.,0.,0.));
#158 = ADVANCED_FACE('',(#159),#219,.T.);
#159 = FACE_BOUND('',#160,.T.);
#160 = EDGE_LOOP('',(#161,#169,#178,#186,#195,#203,#212,#218));
#161 = ORIENTED_EDGE('',*,*,#162,.F.);
#162 = EDGE_CURVE('',#163,#98,#165,.T.);
#163 = VERTEX_POINT('',#164);
#164 = CARTESIAN_POINT('',(131.,-7.E-15,-33.5));
#165 = LINE('',#166,#167);
#166 = CARTESIAN_POINT('',(160.,0.,-33.5));
#167 = VECTOR('',#168,1.);
#168 = DIRECTION('',(-1.,0.,0.));
#169 = ORIENTED_EDGE('',*,*,#170,.T.);
#170 = EDGE_CURVE('',#163,#171,#173,.T.);
#171 = VERTEX_POINT('',#172);
#172 = CARTESIAN_POINT('',(-65.5,-113.4493278957,-33.5));
#173 = CIRCLE('',#174,131.);
#174 = AXIS2_PLACEMENT_3D('',#175,#176,#177);
#175 = CARTESIAN_POINT('',(0.,-7.E-15,-33.5));
#176 = DIRECTION('',(0.,0.,-1.));
#177 = DIRECTION('',(1.,0.,0.));
#178 = ORIENTED_EDGE('',*,*,#179,.T.);
#179 = EDGE_CURVE('',#171,#180,#182,.T.);
#180 = VERTEX_POINT('',#181);
#181 = CARTESIAN_POINT('',(-56.75,-98.29388332953,-33.5));
#182 = LINE('',#183,#184);
#183 = CARTESIAN_POINT('',(-80.,-138.5640646055,-33.5));
#184 = VECTOR('',#185,1.);
#185 = DIRECTION('',(0.5,0.866025403784,0.));
#186 = ORIENTED_EDGE('',*,*,#187,.F.);
#187 = EDGE_CURVE('',#188,#180,#190,.T.);
#188 = VERTEX_POINT('',#189);
#189 = CARTESIAN_POINT('',(51.474496947139,-101.1564440064,-33.5));
#190 = CIRCLE('',#191,113.5);
#191 = AXIS2_PLACEMENT_3D('',#192,#193,#194);
#192 = CARTESIAN_POINT('',(0.,-7.44E-15,-33.5));
#193 = DIRECTION('',(1.232595164408E-32,-2.2E-16,-1.));
#194 = DIRECTION('',(0.461015910787,-0.88739186947,1.952262112834E-16));
#195 = ORIENTED_EDGE('',*,*,#196,.F.);
#196 = EDGE_CURVE('',#197,#188,#199,.T.);
#197 = VERTEX_POINT('',#198);
#198 = CARTESIAN_POINT('',(53.553847577293,-104.7579849446,-33.5));
#199 = LINE('',#200,#201);
#200 = CARTESIAN_POINT('',(53.553847577293,-104.7579849446,-33.5));
#201 = VECTOR('',#202,1.);
#202 = DIRECTION('',(-0.5,0.866025403784,0.));
#203 = ORIENTED_EDGE('',*,*,#204,.F.);
#204 = EDGE_CURVE('',#205,#197,#207,.T.);
#205 = VERTEX_POINT('',#206);
#206 = CARTESIAN_POINT('',(63.946152422707,-98.75798494467,-33.5));
#207 = CIRCLE('',#208,6.);
#208 = AXIS2_PLACEMENT_3D('',#209,#210,#211);
#209 = CARTESIAN_POINT('',(58.75,-101.7579849446,-33.5));
#210 = DIRECTION('',(0.,-2.2E-16,-1.));
#211 = DIRECTION('',(0.866025403784,0.5,-1.1E-16));
#212 = ORIENTED_EDGE('',*,*,#213,.F.);
#213 = EDGE_CURVE('',#107,#205,#214,.T.);
#214 = LINE('',#215,#216);
#215 = CARTESIAN_POINT('',(61.390569405179,-94.33158531535,-33.5));
#216 = VECTOR('',#217,1.);
#217 = DIRECTION('',(0.5,-0.866025403784,0.));
#218 = ORIENTED_EDGE('',*,*,#115,.F.);
#219 = PLANE('',#220);
#220 = AXIS2_PLACEMENT_3D('',#221,#222,#223);
#221 = CARTESIAN_POINT('',(0.,-7.44E-15,-33.5));
#222 = DIRECTION('',(-0.,-2.2E-16,-1.));
#223 = DIRECTION('',(1.,0.,0.));
#224 = ADVANCED_FACE('',(#225,#236,#262),#273,.F.);
#225 = FACE_BOUND('',#226,.T.);
#226 = EDGE_LOOP('',(#227));
#227 = ORIENTED_EDGE('',*,*,#228,.F.);
#228 = EDGE_CURVE('',#229,#229,#231,.T.);
#229 = VERTEX_POINT('',#230);
#230 = CARTESIAN_POINT('',(106.77304845413,-60.,-10.));
#231 = CIRCLE('',#232,2.85);
#232 = AXIS2_PLACEMENT_3D('',#233,#234,#235);
#233 = CARTESIAN_POINT('',(103.92304845413,-60.,-10.));
#234 = DIRECTION('',(-0.,2.2E-16,1.));
#235 = DIRECTION('',(1.,0.,0.));
#236 = FACE_BOUND('',#237,.T.);
#237 = EDGE_LOOP('',(#238,#239,#247,#256));
#238 = ORIENTED_EDGE('',*,*,#139,.T.);
#239 = ORIENTED_EDGE('',*,*,#240,.T.);
#240 = EDGE_CURVE('',#132,#241,#243,.T.);
#241 = VERTEX_POINT('',#242);
#242 = CARTESIAN_POINT('',(-65.5,-113.4493278957,-10.));
#243 = LINE('',#244,#245);
#244 = CARTESIAN_POINT('',(-48.25,-83.57145146519,-10.));
#245 = VECTOR('',#246,1.);
#246 = DIRECTION('',(-0.5,-0.866025403784,0.));
#247 = ORIENTED_EDGE('',*,*,#248,.F.);
#248 = EDGE_CURVE('',#249,#241,#251,.T.);
#249 = VERTEX_POINT('',#250);
#250 = CARTESIAN_POINT('',(131.,-2.E-15,-10.));
#251 = CIRCLE('',#252,131.);
#252 = AXIS2_PLACEMENT_3D('',#253,#254,#255);
#253 = CARTESIAN_POINT('',(0.,-2.22E-15,-10.));
#254 = DIRECTION('',(0.,-2.2E-16,-1.));
#255 = DIRECTION('',(1.,0.,0.));
#256 = ORIENTED_EDGE('',*,*,#257,.F.);
#257 = EDGE_CURVE('',#140,#249,#258,.T.);
#258 = LINE('',#259,#260);
#259 = CARTESIAN_POINT('',(96.5,0.,-10.));
#260 = VECTOR('',#261,1.);
#261 = DIRECTION('',(1.,0.,0.));
#262 = FACE_BOUND('',#263,.T.);
#263 = EDGE_LOOP('',(#264));
#264 = ORIENTED_EDGE('',*,*,#265,.F.);
#265 = EDGE_CURVE('',#266,#266,#268,.T.);
#266 = VERTEX_POINT('',#267);
#267 = CARTESIAN_POINT('',(2.85,-120.,-10.));
#268 = CIRCLE('',#269,2.85);
#269 = AXIS2_PLACEMENT_3D('',#270,#271,#272);
#270 = CARTESIAN_POINT('',(1.42E-14,-120.,-10.));
#271 = DIRECTION('',(-0.,2.2E-16,1.));
#272 = DIRECTION('',(1.,0.,0.));
#273 = PLANE('',#274);
#274 = AXIS2_PLACEMENT_3D('',#275,#276,#277);
#275 = CARTESIAN_POINT('',(0.,-2.22E-15,-10.));
#276 = DIRECTION('',(-0.,-2.2E-16,-1.));
#277 = DIRECTION('',(1.,0.,0.));
#278 = ADVANCED_FACE('',(#279),#305,.F.);
#279 = FACE_BOUND('',#280,.T.);
#280 = EDGE_LOOP('',(#281,#282,#290,#299));
#281 = ORIENTED_EDGE('',*,*,#248,.T.);
#282 = ORIENTED_EDGE('',*,*,#283,.T.);
#283 = EDGE_CURVE('',#241,#284,#286,.T.);
#284 = VERTEX_POINT('',#285);
#285 = CARTESIAN_POINT('',(-65.5,-113.4493278957,3.5));
#286 = LINE('',#287,#288);
#287 = CARTESIAN_POINT('',(-65.5,-113.4493278957,-10.));
#288 = VECTOR('',#289,1.);
#289 = DIRECTION('',(0.,0.,1.));
#290 = ORIENTED_EDGE('',*,*,#291,.F.);
#291 = EDGE_CURVE('',#292,#284,#294,.T.);
#292 = VERTEX_POINT('',#293);
#293 = CARTESIAN_POINT('',(131.,1.E-15,3.5));
#294 = CIRCLE('',#295,131.);
#295 = AXIS2_PLACEMENT_3D('',#296,#297,#298);
#296 = CARTESIAN_POINT('',(0.,7.8E-16,3.5));
#297 = DIRECTION('',(0.,-2.2E-16,-1.));
#298 = DIRECTION('',(1.,0.,0.));
#299 = ORIENTED_EDGE('',*,*,#300,.F.);
#300 = EDGE_CURVE('',#249,#292,#301,.T.);
#301 = LINE('',#302,#303);
#302 = CARTESIAN_POINT('',(131.,0.,-10.));
#303 = VECTOR('',#304,1.);
#304 = DIRECTION('',(0.,0.,1.));
#305 = CYLINDRICAL_SURFACE('',#306,131.);
#306 = AXIS2_PLACEMENT_3D('',#307,#308,#309);
#307 = CARTESIAN_POINT('',(0.,-2.22E-15,-10.));
#308 = DIRECTION('',(0.,2.2E-16,1.));
#309 = DIRECTION('',(1.,0.,0.));
#310 = ADVANCED_FACE('',(#311),#337,.F.);
#311 = FACE_BOUND('',#312,.T.);
#312 = EDGE_LOOP('',(#313,#314,#322,#331));
#313 = ORIENTED_EDGE('',*,*,#291,.T.);
#314 = ORIENTED_EDGE('',*,*,#315,.T.);
#315 = EDGE_CURVE('',#284,#316,#318,.T.);
#316 = VERTEX_POINT('',#317);
#317 = CARTESIAN_POINT('',(-66.25,-114.7483660014,3.5));
#318 = LINE('',#319,#320);
#319 = CARTESIAN_POINT('',(-65.5,-113.4493278957,3.5));
#320 = VECTOR('',#321,1.);
#321 = DIRECTION('',(-0.5,-0.866025403784,0.));
#322 = ORIENTED_EDGE('',*,*,#323,.F.);
#323 = EDGE_CURVE('',#324,#316,#326,.T.);
#324 = VERTEX_POINT('',#325);
#325 = CARTESIAN_POINT('',(132.5,1.E-15,3.5));
#326 = CIRCLE('',#327,132.5);
#327 = AXIS2_PLACEMENT_3D('',#328,#329,#330);
#328 = CARTESIAN_POINT('',(0.,7.8E-16,3.5));
#329 = DIRECTION('',(0.,-2.2E-16,-1.));
#330 = DIRECTION('',(1.,0.,0.));
#331 = ORIENTED_EDGE('',*,*,#332,.F.);
#332 = EDGE_CURVE('',#292,#324,#333,.T.);
#333 = LINE('',#334,#335);
#334 = CARTESIAN_POINT('',(131.,0.,3.5));
#335 = VECTOR('',#336,1.);
#336 = DIRECTION('',(1.,0.,0.));
#337 = PLANE('',#338);
#338 = AXIS2_PLACEMENT_3D('',#339,#340,#341);
#339 = CARTESIAN_POINT('',(0.,7.8E-16,3.5));
#340 = DIRECTION('',(-0.,-2.2E-16,-1.));
#341 = DIRECTION('',(1.,0.,0.));
#342 = ADVANCED_FACE('',(#343),#369,.T.);
#343 = FACE_BOUND('',#344,.T.);
#344 = EDGE_LOOP('',(#345,#346,#354,#363));
#345 = ORIENTED_EDGE('',*,*,#323,.T.);
#346 = ORIENTED_EDGE('',*,*,#347,.T.);
#347 = EDGE_CURVE('',#316,#348,#350,.T.);
#348 = VERTEX_POINT('',#349);
#349 = CARTESIAN_POINT('',(-67.5,-116.9134295108,1.));
#350 = LINE('',#351,#352);
#351 = CARTESIAN_POINT('',(-66.25,-114.7483660014,3.5));
#352 = VECTOR('',#353,1.);
#353 = DIRECTION('',(-0.353553390593,-0.612372435696,-0.707106781187));
#354 = ORIENTED_EDGE('',*,*,#355,.F.);
#355 = EDGE_CURVE('',#356,#348,#358,.T.);
#356 = VERTEX_POINT('',#357);
#357 = CARTESIAN_POINT('',(135.,0.,1.));
#358 = CIRCLE('',#359,135.);
#359 = AXIS2_PLACEMENT_3D('',#360,#361,#362);
#360 = CARTESIAN_POINT('',(0.,2.2E-16,1.));
#361 = DIRECTION('',(0.,-2.2E-16,-1.));
#362 = DIRECTION('',(1.,0.,0.));
#363 = ORIENTED_EDGE('',*,*,#364,.F.);
#364 = EDGE_CURVE('',#324,#356,#365,.T.);
#365 = LINE('',#366,#367);
#366 = CARTESIAN_POINT('',(132.5,0.,3.5));
#367 = VECTOR('',#368,1.);
#368 = DIRECTION('',(0.707106781187,0.,-0.707106781187));
#369 = CONICAL_SURFACE('',#370,132.5,0.785398163397);
#370 = AXIS2_PLACEMENT_3D('',#371,#372,#373);
#371 = CARTESIAN_POINT('',(0.,7.8E-16,3.5));
#372 = DIRECTION('',(-0.,-2.2E-16,-1.));
#373 = DIRECTION('',(1.,0.,0.));
#374 = ADVANCED_FACE('',(#375),#411,.T.);
#375 = FACE_BOUND('',#376,.T.);
#376 = EDGE_LOOP('',(#377,#388,#396,#405));
#377 = ORIENTED_EDGE('',*,*,#378,.T.);
#378 = EDGE_CURVE('',#379,#381,#383,.T.);
#379 = VERTEX_POINT('',#380);
#380 = CARTESIAN_POINT('',(135.,-2.E-15,-8.5));
#381 = VERTEX_POINT('',#382);
#382 = CARTESIAN_POINT('',(-67.5,-116.9134295108,-8.5));
#383 = CIRCLE('',#384,135.);
#384 = AXIS2_PLACEMENT_3D('',#385,#386,#387);
#385 = CARTESIAN_POINT('',(0.,-1.89E-15,-8.5));
#386 = DIRECTION('',(0.,-2.2E-16,-1.));
#387 = DIRECTION('',(1.,0.,0.));
#388 = ORIENTED_EDGE('',*,*,#389,.T.);
#389 = EDGE_CURVE('',#381,#390,#392,.T.);
#390 = VERTEX_POINT('',#391);
#391 = CARTESIAN_POINT('',(-80.,-138.5640646055,-33.5));
#392 = LINE('',#393,#394);
#393 = CARTESIAN_POINT('',(-67.5,-116.9134295108,-8.5));
#394 = VECTOR('',#395,1.);
#395 = DIRECTION('',(-0.353553390593,-0.612372435696,-0.707106781187));
#396 = ORIENTED_EDGE('',*,*,#397,.F.);
#397 = EDGE_CURVE('',#398,#390,#400,.T.);
#398 = VERTEX_POINT('',#399);
#399 = CARTESIAN_POINT('',(160.,-7.E-15,-33.5));
#400 = CIRCLE('',#401,160.);
#401 = AXIS2_PLACEMENT_3D('',#402,#403,#404);
#402 = CARTESIAN_POINT('',(0.,-7.44E-15,-33.5));
#403 = DIRECTION('',(0.,-2.2E-16,-1.));
#404 = DIRECTION('',(1.,0.,0.));
#405 = ORIENTED_EDGE('',*,*,#406,.F.);
#406 = EDGE_CURVE('',#379,#398,#407,.T.);
#407 = LINE('',#408,#409);
#408 = CARTESIAN_POINT('',(135.,0.,-8.5));
#409 = VECTOR('',#410,1.);
#410 = DIRECTION('',(0.707106781187,0.,-0.707106781187));
#411 = CONICAL_SURFACE('',#412,135.,0.785398163397);
#412 = AXIS2_PLACEMENT_3D('',#413,#414,#415);
#413 = CARTESIAN_POINT('',(0.,-1.89E-15,-8.5));
#414 = DIRECTION('',(-0.,-2.2E-16,-1.));
#415 = DIRECTION('',(1.,0.,0.));
#416 = ADVANCED_FACE('',(#417),#433,.T.);
#417 = FACE_BOUND('',#418,.T.);
#418 = EDGE_LOOP('',(#419,#420,#426,#427));
#419 = ORIENTED_EDGE('',*,*,#355,.T.);
#420 = ORIENTED_EDGE('',*,*,#421,.T.);
#421 = EDGE_CURVE('',#348,#381,#422,.T.);
#422 = LINE('',#423,#424);
#423 = CARTESIAN_POINT('',(-67.5,-116.9134295108,1.));
#424 = VECTOR('',#425,1.);
#425 = DIRECTION('',(-0.,0.,-1.));
#426 = ORIENTED_EDGE('',*,*,#378,.F.);
#427 = ORIENTED_EDGE('',*,*,#428,.F.);
#428 = EDGE_CURVE('',#356,#379,#429,.T.);
#429 = LINE('',#430,#431);
#430 = CARTESIAN_POINT('',(135.,0.,1.));
#431 = VECTOR('',#432,1.);
#432 = DIRECTION('',(0.,0.,-1.));
#433 = CYLINDRICAL_SURFACE('',#434,135.);
#434 = AXIS2_PLACEMENT_3D('',#435,#436,#437);
#435 = CARTESIAN_POINT('',(0.,2.2E-16,1.));
#436 = DIRECTION('',(-0.,-2.2E-16,-1.));
#437 = DIRECTION('',(1.,0.,0.));
#438 = ADVANCED_FACE('',(#439),#473,.F.);
#439 = FACE_BOUND('',#440,.F.);
#440 = EDGE_LOOP('',(#441,#442,#451,#459,#467));
#441 = ORIENTED_EDGE('',*,*,#40,.T.);
#442 = ORIENTED_EDGE('',*,*,#443,.T.);
#443 = EDGE_CURVE('',#41,#444,#446,.T.);
#444 = VERTEX_POINT('',#445);
#445 = CARTESIAN_POINT('',(61.02503419761,-95.69845976388,-28.5));
#446 = HYPERBOLA('',#447,5.,5.);
#447 = AXIS2_PLACEMENT_3D('',#448,#449,#450);
#448 = CARTESIAN_POINT('',(4.330127018922,2.5,85.));
#449 = DIRECTION('',(-0.866025403784,-0.5,-0.));
#450 = DIRECTION('',(0.,0.,-1.));
#451 = ORIENTED_EDGE('',*,*,#452,.T.);
#452 = EDGE_CURVE('',#444,#453,#455,.T.);
#453 = VERTEX_POINT('',#454);
#454 = CARTESIAN_POINT('',(63.080127018922,-99.25798494467,-28.5));
#455 = LINE('',#456,#457);
#456 = CARTESIAN_POINT('',(60.524544001395,-94.83158531535,-28.5));
#457 = VECTOR('',#458,1.);
#458 = DIRECTION('',(0.5,-0.866025403784,0.));
#459 = ORIENTED_EDGE('',*,*,#460,.F.);
#460 = EDGE_CURVE('',#461,#453,#463,.T.);
#461 = VERTEX_POINT('',#462);
#462 = CARTESIAN_POINT('',(63.080127018922,-99.25798494467,-32.5));
#463 = LINE('',#464,#465);
#464 = CARTESIAN_POINT('',(63.080127018922,-99.25798494467,-33.5));
#465 = VECTOR('',#466,1.);
#466 = DIRECTION('',(0.,0.,1.));
#467 = ORIENTED_EDGE('',*,*,#468,.F.);
#468 = EDGE_CURVE('',#32,#461,#469,.T.);
#469 = LINE('',#470,#471);
#470 = CARTESIAN_POINT('',(60.524544001395,-94.83158531535,-32.5));
#471 = VECTOR('',#472,1.);
#472 = DIRECTION('',(0.5,-0.866025403784,0.));
#473 = PLANE('',#474);
#474 = AXIS2_PLACEMENT_3D('',#475,#476,#477);
#475 = CARTESIAN_POINT('',(60.524544001395,-94.83158531535,-33.5));
#476 = DIRECTION('',(0.866025403784,0.5,0.));
#477 = DIRECTION('',(0.5,-0.866025403784,0.));
#478 = ADVANCED_FACE('',(#479),#496,.F.);
#479 = FACE_BOUND('',#480,.F.);
#480 = EDGE_LOOP('',(#481,#488,#489,#495));
#481 = ORIENTED_EDGE('',*,*,#482,.T.);
#482 = EDGE_CURVE('',#188,#58,#483,.T.);
#483 = PARABOLA('',#484,38.006989488777);
#484 = AXIS2_PLACEMENT_3D('',#485,#486,#487);
#485 = CARTESIAN_POINT('',(46.548865453414,26.875,26.25));
#486 = DIRECTION('',(0.612372435696,0.353553390593,-0.707106781187));
#487 = DIRECTION('',(-0.612372435696,-0.353553390593,-0.707106781187));
#488 = ORIENTED_EDGE('',*,*,#65,.T.);
#489 = ORIENTED_EDGE('',*,*,#490,.T.);
#490 = EDGE_CURVE('',#66,#180,#491,.T.);
#491 = LINE('',#492,#493);
#492 = CARTESIAN_POINT('',(0.,1.776E-14,80.));
#493 = VECTOR('',#494,1.);
#494 = DIRECTION('',(-0.353553390593,-0.612372435696,-0.707106781187));
#495 = ORIENTED_EDGE('',*,*,#187,.F.);
#496 = CONICAL_SURFACE('',#497,112.5,0.785398163397);
#497 = AXIS2_PLACEMENT_3D('',#498,#499,#500);
#498 = CARTESIAN_POINT('',(0.,-7.22E-15,-32.5));
#499 = DIRECTION('',(0.,-2.2E-16,-1.));
#500 = DIRECTION('',(0.461015910787,-0.88739186947,1.952262112834E-16));
#501 = ADVANCED_FACE('',(#502),#522,.F.);
#502 = FACE_BOUND('',#503,.T.);
#503 = EDGE_LOOP('',(#504,#513,#514,#515));
#504 = ORIENTED_EDGE('',*,*,#505,.F.);
#505 = EDGE_CURVE('',#49,#506,#508,.T.);
#506 = VERTEX_POINT('',#507);
#507 = CARTESIAN_POINT('',(52.364780159765,-100.6984597638,-28.5));
#508 = HYPERBOLA('',#509,5.,5.);
#509 = AXIS2_PLACEMENT_3D('',#510,#511,#512);
#510 = CARTESIAN_POINT('',(-4.330127018922,-2.5,85.));
#511 = DIRECTION('',(-0.866025403784,-0.5,-0.));
#512 = DIRECTION('',(0.,0.,-1.));
#513 = ORIENTED_EDGE('',*,*,#48,.T.);
#514 = ORIENTED_EDGE('',*,*,#443,.T.);
#515 = ORIENTED_EDGE('',*,*,#516,.F.);
#516 = EDGE_CURVE('',#506,#444,#517,.T.);
#517 = CIRCLE('',#518,113.5);
#518 = AXIS2_PLACEMENT_3D('',#519,#520,#521);
#519 = CARTESIAN_POINT('',(0.,-1.421E-14,-28.5));
#520 = DIRECTION('',(-0.,0.,1.));
#521 = DIRECTION('',(0.461015910787,-0.88739186947,0.));
#522 = CONICAL_SURFACE('',#523,112.5,0.785398163397);
#523 = AXIS2_PLACEMENT_3D('',#524,#525,#526);
#524 = CARTESIAN_POINT('',(0.,-1.421E-14,-27.5));
#525 = DIRECTION('',(-0.,-0.,-1.));
#526 = DIRECTION('',(0.461015910787,-0.88739186947,0.));
#527 = ADVANCED_FACE('',(#528),#554,.F.);
#528 = FACE_BOUND('',#529,.F.);
#529 = EDGE_LOOP('',(#530,#540,#546,#547,#548));
#530 = ORIENTED_EDGE('',*,*,#531,.T.);
#531 = EDGE_CURVE('',#532,#534,#536,.T.);
#532 = VERTEX_POINT('',#533);
#533 = CARTESIAN_POINT('',(54.419872981078,-104.2579849446,-32.5));
#534 = VERTEX_POINT('',#535);
#535 = CARTESIAN_POINT('',(54.419872981078,-104.2579849446,-28.5));
#536 = LINE('',#537,#538);
#537 = CARTESIAN_POINT('',(54.419872981078,-104.2579849446,-33.5));
#538 = VECTOR('',#539,1.);
#539 = DIRECTION('',(0.,0.,1.));
#540 = ORIENTED_EDGE('',*,*,#541,.T.);
#541 = EDGE_CURVE('',#534,#506,#542,.T.);
#542 = LINE('',#543,#544);
#543 = CARTESIAN_POINT('',(54.419872981078,-104.2579849446,-28.5));
#544 = VECTOR('',#545,1.);
#545 = DIRECTION('',(-0.5,0.866025403784,-0.));
#546 = ORIENTED_EDGE('',*,*,#505,.F.);
#547 = ORIENTED_EDGE('',*,*,#57,.F.);
#548 = ORIENTED_EDGE('',*,*,#549,.F.);
#549 = EDGE_CURVE('',#532,#58,#550,.T.);
#550 = LINE('',#551,#552);
#551 = CARTESIAN_POINT('',(54.419872981078,-104.2579849446,-32.5));
#552 = VECTOR('',#553,1.);
#553 = DIRECTION('',(-0.5,0.866025403784,0.));
#554 = PLANE('',#555);
#555 = AXIS2_PLACEMENT_3D('',#556,#557,#558);
#556 = CARTESIAN_POINT('',(54.419872981078,-104.2579849446,-33.5));
#557 = DIRECTION('',(-0.866025403784,-0.5,0.));
#558 = DIRECTION('',(-0.5,0.866025403784,0.));
#559 = ADVANCED_FACE('',(#560),#571,.F.);
#560 = FACE_BOUND('',#561,.T.);
#561 = EDGE_LOOP('',(#562,#563,#564,#570));
#562 = ORIENTED_EDGE('',*,*,#106,.F.);
#563 = ORIENTED_EDGE('',*,*,#213,.T.);
#564 = ORIENTED_EDGE('',*,*,#565,.T.);
#565 = EDGE_CURVE('',#205,#461,#566,.T.);
#566 = LINE('',#567,#568);
#567 = CARTESIAN_POINT('',(63.513139720814,-99.00798494467,-33.));
#568 = VECTOR('',#569,1.);
#569 = DIRECTION('',(-0.612372435696,-0.353553390593,0.707106781187));
#570 = ORIENTED_EDGE('',*,*,#468,.F.);
#571 = PLANE('',#572);
#572 = AXIS2_PLACEMENT_3D('',#573,#574,#575);
#573 = CARTESIAN_POINT('',(60.957556703287,-94.58158531535,-33.));
#574 = DIRECTION('',(0.612372435696,0.353553390593,0.707106781187));
#575 = DIRECTION('',(-0.5,0.866025403784,5.273559366969E-16));
#576 = ADVANCED_FACE('',(#577),#603,.F.);
#577 = FACE_BOUND('',#578,.T.);
#578 = EDGE_LOOP('',(#579,#587,#596,#602));
#579 = ORIENTED_EDGE('',*,*,#580,.T.);
#580 = EDGE_CURVE('',#163,#581,#583,.T.);
#581 = VERTEX_POINT('',#582);
#582 = CARTESIAN_POINT('',(131.,-7.E-15,-43.5));
#583 = LINE('',#584,#585);
#584 = CARTESIAN_POINT('',(131.,-7.44E-15,-33.5));
#585 = VECTOR('',#586,1.);
#586 = DIRECTION('',(0.,0.,-1.));
#587 = ORIENTED_EDGE('',*,*,#588,.T.);
#588 = EDGE_CURVE('',#581,#589,#591,.T.);
#589 = VERTEX_POINT('',#590);
#590 = CARTESIAN_POINT('',(-65.5,-113.4493278957,-43.5));
#591 = CIRCLE('',#592,131.);
#592 = AXIS2_PLACEMENT_3D('',#593,#594,#595);
#593 = CARTESIAN_POINT('',(0.,-7.E-15,-43.5));
#594 = DIRECTION('',(0.,0.,-1.));
#595 = DIRECTION('',(1.,0.,0.));
#596 = ORIENTED_EDGE('',*,*,#597,.F.);
#597 = EDGE_CURVE('',#171,#589,#598,.T.);
#598 = LINE('',#599,#600);
#599 = CARTESIAN_POINT('',(-65.5,-113.4493278957,-33.5));
#600 = VECTOR('',#601,1.);
#601 = DIRECTION('',(0.,0.,-1.));
#602 = ORIENTED_EDGE('',*,*,#170,.F.);
#603 = CYLINDRICAL_SURFACE('',#604,131.);
#604 = AXIS2_PLACEMENT_3D('',#605,#606,#607);
#605 = CARTESIAN_POINT('',(0.,-7.44E-15,-33.5));
#606 = DIRECTION('',(0.,0.,1.));
#607 = DIRECTION('',(1.,0.,-0.));
#608 = ADVANCED_FACE('',(#609),#635,.T.);
#609 = FACE_BOUND('',#610,.F.);
#610 = EDGE_LOOP('',(#611,#619,#628,#634));
#611 = ORIENTED_EDGE('',*,*,#612,.T.);
#612 = EDGE_CURVE('',#398,#613,#615,.T.);
#613 = VERTEX_POINT('',#614);
#614 = CARTESIAN_POINT('',(160.,-7.E-15,-43.5));
#615 = LINE('',#616,#617);
#616 = CARTESIAN_POINT('',(160.,-7.44E-15,-33.5));
#617 = VECTOR('',#618,1.);
#618 = DIRECTION('',(0.,0.,-1.));
#619 = ORIENTED_EDGE('',*,*,#620,.T.);
#620 = EDGE_CURVE('',#613,#621,#623,.T.);
#621 = VERTEX_POINT('',#622);
#622 = CARTESIAN_POINT('',(-80.,-138.5640646055,-43.5));
#623 = CIRCLE('',#624,160.);
#624 = AXIS2_PLACEMENT_3D('',#625,#626,#627);
#625 = CARTESIAN_POINT('',(0.,-7.E-15,-43.5));
#626 = DIRECTION('',(0.,-2.2E-16,-1.));
#627 = DIRECTION('',(1.,0.,0.));
#628 = ORIENTED_EDGE('',*,*,#629,.F.);
#629 = EDGE_CURVE('',#390,#621,#630,.T.);
#630 = LINE('',#631,#632);
#631 = CARTESIAN_POINT('',(-80.,-138.5640646055,-33.5));
#632 = VECTOR('',#633,1.);
#633 = DIRECTION('',(0.,0.,-1.));
#634 = ORIENTED_EDGE('',*,*,#397,.F.);
#635 = CYLINDRICAL_SURFACE('',#636,160.);
#636 = AXIS2_PLACEMENT_3D('',#637,#638,#639);
#637 = CARTESIAN_POINT('',(0.,-7.44E-15,-33.5));
#638 = DIRECTION('',(0.,2.2E-16,1.));
#639 = DIRECTION('',(1.,0.,-0.));
#640 = ADVANCED_FACE('',(#641),#657,.F.);
#641 = FACE_BOUND('',#642,.F.);
#642 = EDGE_LOOP('',(#643,#644,#650,#651));
#643 = ORIENTED_EDGE('',*,*,#588,.T.);
#644 = ORIENTED_EDGE('',*,*,#645,.F.);
#645 = EDGE_CURVE('',#621,#589,#646,.T.);
#646 = LINE('',#647,#648);
#647 = CARTESIAN_POINT('',(-80.,-138.5640646055,-43.5));
#648 = VECTOR('',#649,1.);
#649 = DIRECTION('',(0.5,0.866025403784,0.));
#650 = ORIENTED_EDGE('',*,*,#620,.F.);
#651 = ORIENTED_EDGE('',*,*,#652,.F.);
#652 = EDGE_CURVE('',#581,#613,#653,.T.);
#653 = LINE('',#654,#655);
#654 = CARTESIAN_POINT('',(131.,-7.E-15,-43.5));
#655 = VECTOR('',#656,1.);
#656 = DIRECTION('',(1.,0.,0.));
#657 = PLANE('',#658);
#658 = AXIS2_PLACEMENT_3D('',#659,#660,#661);
#659 = CARTESIAN_POINT('',(56.334557542448,-97.57431588543,-43.5));
#660 = DIRECTION('',(0.,2.4E-16,1.));
#661 = DIRECTION('',(0.,1.,-2.4E-16));
#662 = ADVANCED_FACE('',(#663),#680,.F.);
#663 = FACE_BOUND('',#664,.T.);
#664 = EDGE_LOOP('',(#665,#666,#667,#673));
#665 = ORIENTED_EDGE('',*,*,#565,.F.);
#666 = ORIENTED_EDGE('',*,*,#204,.T.);
#667 = ORIENTED_EDGE('',*,*,#668,.T.);
#668 = EDGE_CURVE('',#197,#532,#669,.T.);
#669 = LINE('',#670,#671);
#670 = CARTESIAN_POINT('',(54.419872981078,-104.2579849446,-32.5));
#671 = VECTOR('',#672,1.);
#672 = DIRECTION('',(0.612372435696,0.353553390593,0.707106781187));
#673 = ORIENTED_EDGE('',*,*,#674,.F.);
#674 = EDGE_CURVE('',#461,#532,#675,.T.);
#675 = CIRCLE('',#676,5.);
#676 = AXIS2_PLACEMENT_3D('',#677,#678,#679);
#677 = CARTESIAN_POINT('',(58.75,-101.7579849446,-32.5));
#678 = DIRECTION('',(0.,-2.2E-16,-1.));
#679 = DIRECTION('',(0.866025403784,0.5,-1.1E-16));
#680 = CONICAL_SURFACE('',#681,5.,0.785398163397);
#681 = AXIS2_PLACEMENT_3D('',#682,#683,#684);
#682 = CARTESIAN_POINT('',(58.75,-101.7579849446,-32.5));
#683 = DIRECTION('',(-0.,-2.2E-16,-1.));
#684 = DIRECTION('',(0.866025403784,0.5,-1.1E-16));
#685 = ADVANCED_FACE('',(#686),#692,.F.);
#686 = FACE_BOUND('',#687,.T.);
#687 = EDGE_LOOP('',(#688,#689,#690,#691));
#688 = ORIENTED_EDGE('',*,*,#668,.F.);
#689 = ORIENTED_EDGE('',*,*,#196,.T.);
#690 = ORIENTED_EDGE('',*,*,#482,.T.);
#691 = ORIENTED_EDGE('',*,*,#549,.F.);
#692 = PLANE('',#693);
#693 = AXIS2_PLACEMENT_3D('',#694,#695,#696);
#694 = CARTESIAN_POINT('',(53.986860279186,-104.5079849446,-33.));
#695 = DIRECTION('',(-0.612372435696,-0.353553390593,0.707106781187));
#696 = DIRECTION('',(0.5,-0.866025403784,4.163336342344E-16));
#697 = ADVANCED_FACE('',(#698),#717,.F.);
#698 = FACE_BOUND('',#699,.T.);
#699 = EDGE_LOOP('',(#700,#708,#709,#710));
#700 = ORIENTED_EDGE('',*,*,#701,.F.);
#701 = EDGE_CURVE('',#229,#702,#704,.T.);
#702 = VERTEX_POINT('',#703);
#703 = CARTESIAN_POINT('',(106.27304845413,-60.,-10.5));
#704 = LINE('',#705,#706);
#705 = CARTESIAN_POINT('',(106.27304845413,-60.,-10.5));
#706 = VECTOR('',#707,1.);
#707 = DIRECTION('',(-0.707106781187,-1.6E-16,-0.707106781187));
#708 = ORIENTED_EDGE('',*,*,#228,.T.);
#709 = ORIENTED_EDGE('',*,*,#701,.T.);
#710 = ORIENTED_EDGE('',*,*,#711,.F.);
#711 = EDGE_CURVE('',#702,#702,#712,.T.);
#712 = CIRCLE('',#713,2.35);
#713 = AXIS2_PLACEMENT_3D('',#714,#715,#716);
#714 = CARTESIAN_POINT('',(103.92304845413,-60.,-10.5));
#715 = DIRECTION('',(-0.,2.2E-16,1.));
#716 = DIRECTION('',(1.,0.,0.));
#717 = CONICAL_SURFACE('',#718,2.35,0.785398163397);
#718 = AXIS2_PLACEMENT_3D('',#719,#720,#721);
#719 = CARTESIAN_POINT('',(103.92304845413,-60.,-10.5));
#720 = DIRECTION('',(0.,2.2E-16,1.));
#721 = DIRECTION('',(1.,0.,0.));
#722 = ADVANCED_FACE('',(#723),#742,.F.);
#723 = FACE_BOUND('',#724,.T.);
#724 = EDGE_LOOP('',(#725,#733,#734,#735));
#725 = ORIENTED_EDGE('',*,*,#726,.F.);
#726 = EDGE_CURVE('',#266,#727,#729,.T.);
#727 = VERTEX_POINT('',#728);
#728 = CARTESIAN_POINT('',(2.35,-120.,-10.5));
#729 = LINE('',#730,#731);
#730 = CARTESIAN_POINT('',(2.35,-120.,-10.5));
#731 = VECTOR('',#732,1.);
#732 = DIRECTION('',(-0.707106781187,-1.6E-16,-0.707106781187));
#733 = ORIENTED_EDGE('',*,*,#265,.T.);
#734 = ORIENTED_EDGE('',*,*,#726,.T.);
#735 = ORIENTED_EDGE('',*,*,#736,.F.);
#736 = EDGE_CURVE('',#727,#727,#737,.T.);
#737 = CIRCLE('',#738,2.35);
#738 = AXIS2_PLACEMENT_3D('',#739,#740,#741);
#739 = CARTESIAN_POINT('',(1.42E-14,-120.,-10.5));
#740 = DIRECTION('',(-0.,2.2E-16,1.));
#741 = DIRECTION('',(1.,0.,0.));
#742 = CONICAL_SURFACE('',#743,2.35,0.785398163397);
#743 = AXIS2_PLACEMENT_3D('',#744,#745,#746);
#744 = CARTESIAN_POINT('',(1.42E-14,-120.,-10.5));
#745 = DIRECTION('',(0.,2.2E-16,1.));
#746 = DIRECTION('',(1.,0.,0.));
#747 = ADVANCED_FACE('',(#748),#760,.F.);
#748 = FACE_BOUND('',#749,.F.);
#749 = EDGE_LOOP('',(#750,#751,#758,#759));
#750 = ORIENTED_EDGE('',*,*,#460,.T.);
#751 = ORIENTED_EDGE('',*,*,#752,.T.);
#752 = EDGE_CURVE('',#453,#534,#753,.T.);
#753 = CIRCLE('',#754,5.);
#754 = AXIS2_PLACEMENT_3D('',#755,#756,#757);
#755 = CARTESIAN_POINT('',(58.75,-101.7579849446,-28.5));
#756 = DIRECTION('',(0.,0.,-1.));
#757 = DIRECTION('',(1.,0.,0.));
#758 = ORIENTED_EDGE('',*,*,#531,.F.);
#759 = ORIENTED_EDGE('',*,*,#674,.F.);
#760 = CYLINDRICAL_SURFACE('',#761,5.);
#761 = AXIS2_PLACEMENT_3D('',#762,#763,#764);
#762 = CARTESIAN_POINT('',(58.75,-101.7579849446,-33.5));
#763 = DIRECTION('',(0.,0.,-1.));
#764 = DIRECTION('',(1.,0.,0.));
#765 = ADVANCED_FACE('',(#766,#772),#783,.F.);
#766 = FACE_BOUND('',#767,.F.);
#767 = EDGE_LOOP('',(#768,#769,#770,#771));
#768 = ORIENTED_EDGE('',*,*,#452,.F.);
#769 = ORIENTED_EDGE('',*,*,#516,.F.);
#770 = ORIENTED_EDGE('',*,*,#541,.F.);
#771 = ORIENTED_EDGE('',*,*,#752,.F.);
#772 = FACE_BOUND('',#773,.F.);
#773 = EDGE_LOOP('',(#774));
#774 = ORIENTED_EDGE('',*,*,#775,.T.);
#775 = EDGE_CURVE('',#776,#776,#778,.T.);
#776 = VERTEX_POINT('',#777);
#777 = CARTESIAN_POINT('',(56.4,-101.7579849446,-28.5));
#778 = CIRCLE('',#779,2.35);
#779 = AXIS2_PLACEMENT_3D('',#780,#781,#782);
#780 = CARTESIAN_POINT('',(58.75,-101.7579849446,-28.5));
#781 = DIRECTION('',(0.,0.,-1.));
#782 = DIRECTION('',(-1.,0.,0.));
#783 = PLANE('',#784);
#784 = AXIS2_PLACEMENT_3D('',#785,#786,#787);
#785 = CARTESIAN_POINT('',(58.268282771117,-100.9236262293,-28.5));
#786 = DIRECTION('',(0.,0.,1.));
#787 = DIRECTION('',(1.,0.,0.));
#788 = ADVANCED_FACE('',(#789),#808,.F.);
#789 = FACE_BOUND('',#790,.F.);
#790 = EDGE_LOOP('',(#791,#799,#806,#807));
#791 = ORIENTED_EDGE('',*,*,#792,.T.);
#792 = EDGE_CURVE('',#702,#793,#795,.T.);
#793 = VERTEX_POINT('',#794);
#794 = CARTESIAN_POINT('',(106.27304845413,-60.,-16.));
#795 = LINE('',#796,#797);
#796 = CARTESIAN_POINT('',(106.27304845413,-60.,-10.));
#797 = VECTOR('',#798,1.);
#798 = DIRECTION('',(-0.,-0.,-1.));
#799 = ORIENTED_EDGE('',*,*,#800,.T.);
#800 = EDGE_CURVE('',#793,#793,#801,.T.);
#801 = CIRCLE('',#802,2.35);
#802 = AXIS2_PLACEMENT_3D('',#803,#804,#805);
#803 = CARTESIAN_POINT('',(103.92304845413,-60.,-16.));
#804 = DIRECTION('',(0.,0.,1.));
#805 = DIRECTION('',(1.,0.,0.));
#806 = ORIENTED_EDGE('',*,*,#792,.F.);
#807 = ORIENTED_EDGE('',*,*,#711,.F.);
#808 = CYLINDRICAL_SURFACE('',#809,2.35);
#809 = AXIS2_PLACEMENT_3D('',#810,#811,#812);
#810 = CARTESIAN_POINT('',(103.92304845413,-60.,-10.));
#811 = DIRECTION('',(0.,0.,1.));
#812 = DIRECTION('',(1.,0.,0.));
#813 = ADVANCED_FACE('',(#814),#833,.F.);
#814 = FACE_BOUND('',#815,.F.);
#815 = EDGE_LOOP('',(#816,#824,#831,#832));
#816 = ORIENTED_EDGE('',*,*,#817,.T.);
#817 = EDGE_CURVE('',#727,#818,#820,.T.);
#818 = VERTEX_POINT('',#819);
#819 = CARTESIAN_POINT('',(2.35,-120.,-16.));
#820 = LINE('',#821,#822);
#821 = CARTESIAN_POINT('',(2.35,-120.,-10.));
#822 = VECTOR('',#823,1.);
#823 = DIRECTION('',(-0.,-0.,-1.));
#824 = ORIENTED_EDGE('',*,*,#825,.T.);
#825 = EDGE_CURVE('',#818,#818,#826,.T.);
#826 = CIRCLE('',#827,2.35);
#827 = AXIS2_PLACEMENT_3D('',#828,#829,#830);
#828 = CARTESIAN_POINT('',(1.42E-14,-120.,-16.));
#829 = DIRECTION('',(0.,0.,1.));
#830 = DIRECTION('',(1.,0.,0.));
#831 = ORIENTED_EDGE('',*,*,#817,.F.);
#832 = ORIENTED_EDGE('',*,*,#736,.F.);
#833 = CYLINDRICAL_SURFACE('',#834,2.35);
#834 = AXIS2_PLACEMENT_3D('',#835,#836,#837);
#835 = CARTESIAN_POINT('',(1.42E-14,-120.,-10.));
#836 = DIRECTION('',(0.,0.,1.));
#837 = DIRECTION('',(1.,0.,0.));
#838 = ADVANCED_FACE('',(#839),#858,.F.);
#839 = FACE_BOUND('',#840,.T.);
#840 = EDGE_LOOP('',(#841,#849,#850,#851));
#841 = ORIENTED_EDGE('',*,*,#842,.F.);
#842 = EDGE_CURVE('',#776,#843,#845,.T.);
#843 = VERTEX_POINT('',#844);
#844 = CARTESIAN_POINT('',(56.4,-101.7579849446,-22.5));
#845 = LINE('',#846,#847);
#846 = CARTESIAN_POINT('',(56.4,-101.7579849446,-28.5));
#847 = VECTOR('',#848,1.);
#848 = DIRECTION('',(7.E-17,0.,1.));
#849 = ORIENTED_EDGE('',*,*,#775,.T.);
#850 = ORIENTED_EDGE('',*,*,#842,.T.);
#851 = ORIENTED_EDGE('',*,*,#852,.F.);
#852 = EDGE_CURVE('',#843,#843,#853,.T.);
#853 = CIRCLE('',#854,2.35);
#854 = AXIS2_PLACEMENT_3D('',#855,#856,#857);
#855 = CARTESIAN_POINT('',(58.75,-101.7579849446,-22.5));
#856 = DIRECTION('',(0.,0.,-1.));
#857 = DIRECTION('',(-1.,0.,0.));
#858 = CYLINDRICAL_SURFACE('',#859,2.35);
#859 = AXIS2_PLACEMENT_3D('',#860,#861,#862);
#860 = CARTESIAN_POINT('',(58.75,-101.7579849446,-28.5));
#861 = DIRECTION('',(0.,0.,1.));
#862 = DIRECTION('',(-1.,0.,0.));
#863 = ADVANCED_FACE('',(#864),#867,.T.);
#864 = FACE_BOUND('',#865,.T.);
#865 = EDGE_LOOP('',(#866));
#866 = ORIENTED_EDGE('',*,*,#800,.T.);
#867 = PLANE('',#868);
#868 = AXIS2_PLACEMENT_3D('',#869,#870,#871);
#869 = CARTESIAN_POINT('',(51.961524227066,-90.,-16.));
#870 = DIRECTION('',(0.,0.,1.));
#871 = DIRECTION('',(1.,0.,0.));
#872 = ADVANCED_FACE('',(#873),#876,.T.);
#873 = FACE_BOUND('',#874,.T.);
#874 = EDGE_LOOP('',(#875));
#875 = ORIENTED_EDGE('',*,*,#825,.T.);
#876 = PLANE('',#877);
#877 = AXIS2_PLACEMENT_3D('',#878,#879,#880);
#878 = CARTESIAN_POINT('',(51.961524227066,-90.,-16.));
#879 = DIRECTION('',(0.,0.,1.));
#880 = DIRECTION('',(1.,0.,0.));
#881 = ADVANCED_FACE('',(#882),#894,.F.);
#882 = FACE_BOUND('',#883,.T.);
#883 = EDGE_LOOP('',(#884,#885,#893));
#884 = ORIENTED_EDGE('',*,*,#852,.T.);
#885 = ORIENTED_EDGE('',*,*,#886,.T.);
#886 = EDGE_CURVE('',#843,#887,#889,.T.);
#887 = VERTEX_POINT('',#888);
#888 = CARTESIAN_POINT('',(58.75,-101.7579849446,-21.08797754528));
#889 = LINE('',#890,#891);
#890 = CARTESIAN_POINT('',(56.4,-101.7579849446,-22.5));
#891 = VECTOR('',#892,1.);
#892 = DIRECTION('',(0.857167300702,0.,0.51503807491));
#893 = ORIENTED_EDGE('',*,*,#886,.F.);
#894 = CONICAL_SURFACE('',#895,2.35,1.029744258677);
#895 = AXIS2_PLACEMENT_3D('',#896,#897,#898);
#896 = CARTESIAN_POINT('',(58.75,-101.7579849446,-22.5));
#897 = DIRECTION('',(-0.,-0.,-1.));
#898 = DIRECTION('',(-1.,0.,0.));
#899 = ADVANCED_FACE('',(#900,#915),#949,.T.);
#900 = FACE_BOUND('',#901,.T.);
#901 = EDGE_LOOP('',(#902,#903,#904,#905,#906,#907,#908,#909,#910,#911,
    #912,#913,#914));
#902 = ORIENTED_EDGE('',*,*,#21,.T.);
#903 = ORIENTED_EDGE('',*,*,#148,.T.);
#904 = ORIENTED_EDGE('',*,*,#257,.T.);
#905 = ORIENTED_EDGE('',*,*,#300,.T.);
#906 = ORIENTED_EDGE('',*,*,#332,.T.);
#907 = ORIENTED_EDGE('',*,*,#364,.T.);
#908 = ORIENTED_EDGE('',*,*,#428,.T.);
#909 = ORIENTED_EDGE('',*,*,#406,.T.);
#910 = ORIENTED_EDGE('',*,*,#612,.T.);
#911 = ORIENTED_EDGE('',*,*,#652,.F.);
#912 = ORIENTED_EDGE('',*,*,#580,.F.);
#913 = ORIENTED_EDGE('',*,*,#162,.T.);
#914 = ORIENTED_EDGE('',*,*,#97,.F.);
#915 = FACE_BOUND('',#916,.T.);
#916 = EDGE_LOOP('',(#917,#927,#935,#943));
#917 = ORIENTED_EDGE('',*,*,#918,.T.);
#918 = EDGE_CURVE('',#919,#921,#923,.T.);
#919 = VERTEX_POINT('',#920);
#920 = CARTESIAN_POINT('',(123.57106781186,-7.E-15,-30.));
#921 = VERTEX_POINT('',#922);
#922 = CARTESIAN_POINT('',(149.42893218813,-7.E-15,-30.));
#923 = LINE('',#924,#925);
#924 = CARTESIAN_POINT('',(122.07106781186,-6.66E-15,-30.));
#925 = VECTOR('',#926,1.);
#926 = DIRECTION('',(1.,0.,0.));
#927 = ORIENTED_EDGE('',*,*,#928,.F.);
#928 = EDGE_CURVE('',#929,#921,#931,.T.);
#929 = VERTEX_POINT('',#930);
#930 = CARTESIAN_POINT('',(130.42893218813,-2.E-15,-11.));
#931 = LINE('',#932,#933);
#932 = CARTESIAN_POINT('',(140.73580924297,-4.73E-15,-21.30687705483));
#933 = VECTOR('',#934,1.);
#934 = DIRECTION('',(0.707106781187,-1.6E-16,-0.707106781187));
#935 = ORIENTED_EDGE('',*,*,#936,.T.);
#936 = EDGE_CURVE('',#929,#937,#939,.T.);
#937 = VERTEX_POINT('',#938);
#938 = CARTESIAN_POINT('',(104.57106781186,-2.E-15,-11.));
#939 = LINE('',#940,#941);
#940 = CARTESIAN_POINT('',(134.42893218813,-2.44E-15,-11.));
#941 = VECTOR('',#942,1.);
#942 = DIRECTION('',(-1.,0.,0.));
#943 = ORIENTED_EDGE('',*,*,#944,.F.);
#944 = EDGE_CURVE('',#919,#937,#945,.T.);
#945 = LINE('',#946,#947);
#946 = CARTESIAN_POINT('',(114.59241096076,-4.67E-15,-21.0213431489));
#947 = VECTOR('',#948,1.);
#948 = DIRECTION('',(-0.707106781187,1.6E-16,0.707106781187));
#949 = PLANE('',#950);
#950 = AXIS2_PLACEMENT_3D('',#951,#952,#953);
#951 = CARTESIAN_POINT('',(130.22603168214,-4.59E-15,-22.65191613824));
#952 = DIRECTION('',(0.,1.,0.));
#953 = DIRECTION('',(0.,-0.,1.));
#954 = ADVANCED_FACE('',(#955),#996,.T.);
#955 = FACE_BOUND('',#956,.T.);
#956 = EDGE_LOOP('',(#957,#967,#973,#974,#982,#990));
#957 = ORIENTED_EDGE('',*,*,#958,.F.);
#958 = EDGE_CURVE('',#959,#961,#963,.T.);
#959 = VERTEX_POINT('',#960);
#960 = CARTESIAN_POINT('',(122.07106781186,-1.5,-28.5));
#961 = VERTEX_POINT('',#962);
#962 = CARTESIAN_POINT('',(122.07106781186,-5.,-28.5));
#963 = LINE('',#964,#965);
#964 = CARTESIAN_POINT('',(122.07106781186,-6.33E-15,-28.5));
#965 = VECTOR('',#966,1.);
#966 = DIRECTION('',(0.,-1.,2.2E-16));
#967 = ORIENTED_EDGE('',*,*,#968,.F.);
#968 = EDGE_CURVE('',#919,#959,#969,.T.);
#969 = LINE('',#970,#971);
#970 = CARTESIAN_POINT('',(118.07106781186,-5.5,-24.5));
#971 = VECTOR('',#972,1.);
#972 = DIRECTION('',(-0.57735026919,-0.57735026919,0.57735026919));
#973 = ORIENTED_EDGE('',*,*,#944,.T.);
#974 = ORIENTED_EDGE('',*,*,#975,.T.);
#975 = EDGE_CURVE('',#937,#976,#978,.T.);
#976 = VERTEX_POINT('',#977);
#977 = CARTESIAN_POINT('',(108.57106781186,-4.,-15.));
#978 = LINE('',#979,#980);
#979 = CARTESIAN_POINT('',(111.54737854124,-6.976310729378,
    -17.97631072937));
#980 = VECTOR('',#981,1.);
#981 = DIRECTION('',(0.57735026919,-0.57735026919,-0.57735026919));
#982 = ORIENTED_EDGE('',*,*,#983,.T.);
#983 = EDGE_CURVE('',#976,#984,#986,.T.);
#984 = VERTEX_POINT('',#985);
#985 = CARTESIAN_POINT('',(108.57106781186,-5.,-15.));
#986 = LINE('',#987,#988);
#987 = CARTESIAN_POINT('',(108.57106781186,-3.33E-15,-15.));
#988 = VECTOR('',#989,1.);
#989 = DIRECTION('',(0.,-1.,2.2E-16));
#990 = ORIENTED_EDGE('',*,*,#991,.T.);
#991 = EDGE_CURVE('',#984,#961,#992,.T.);
#992 = LINE('',#993,#994);
#993 = CARTESIAN_POINT('',(108.57106781186,-5.,-15.));
#994 = VECTOR('',#995,1.);
#995 = DIRECTION('',(0.707106781187,0.,-0.707106781187));
#996 = PLANE('',#997);
#997 = AXIS2_PLACEMENT_3D('',#998,#999,#1000);
#998 = CARTESIAN_POINT('',(108.57106781186,-3.33E-15,-15.));
#999 = DIRECTION('',(0.707106781187,1.6E-16,0.707106781187));
#1000 = DIRECTION('',(0.707106781187,-1.6E-16,-0.707106781187));
#1001 = ADVANCED_FACE('',(#1002),#1020,.T.);
#1002 = FACE_BOUND('',#1003,.F.);
#1003 = EDGE_LOOP('',(#1004,#1005,#1006,#1014));
#1004 = ORIENTED_EDGE('',*,*,#968,.F.);
#1005 = ORIENTED_EDGE('',*,*,#918,.T.);
#1006 = ORIENTED_EDGE('',*,*,#1007,.T.);
#1007 = EDGE_CURVE('',#921,#1008,#1010,.T.);
#1008 = VERTEX_POINT('',#1009);
#1009 = CARTESIAN_POINT('',(147.92893218813,-1.5,-28.5));
#1010 = LINE('',#1011,#1012);
#1011 = CARTESIAN_POINT('',(144.11928812542,-5.309644062712,
    -24.69035593728));
#1012 = VECTOR('',#1013,1.);
#1013 = DIRECTION('',(-0.57735026919,-0.57735026919,0.57735026919));
#1014 = ORIENTED_EDGE('',*,*,#1015,.F.);
#1015 = EDGE_CURVE('',#959,#1008,#1016,.T.);
#1016 = LINE('',#1017,#1018);
#1017 = CARTESIAN_POINT('',(122.07106781186,-1.5,-28.5));
#1018 = VECTOR('',#1019,1.);
#1019 = DIRECTION('',(1.,0.,0.));
#1020 = PLANE('',#1021);
#1021 = AXIS2_PLACEMENT_3D('',#1022,#1023,#1024);
#1022 = CARTESIAN_POINT('',(122.07106781186,-0.75,-29.25));
#1023 = DIRECTION('',(-1.E-17,0.707106781187,0.707106781187));
#1024 = DIRECTION('',(-1.,-7.071067811865E-18,-7.071067811865E-18));
#1025 = ADVANCED_FACE('',(#1026),#1060,.T.);
#1026 = FACE_BOUND('',#1027,.T.);
#1027 = EDGE_LOOP('',(#1028,#1036,#1044,#1052,#1058,#1059));
#1028 = ORIENTED_EDGE('',*,*,#1029,.T.);
#1029 = EDGE_CURVE('',#1008,#1030,#1032,.T.);
#1030 = VERTEX_POINT('',#1031);
#1031 = CARTESIAN_POINT('',(147.92893218813,-5.,-28.5));
#1032 = LINE('',#1033,#1034);
#1033 = CARTESIAN_POINT('',(147.92893218813,-6.33E-15,-28.5));
#1034 = VECTOR('',#1035,1.);
#1035 = DIRECTION('',(0.,-1.,2.2E-16));
#1036 = ORIENTED_EDGE('',*,*,#1037,.T.);
#1037 = EDGE_CURVE('',#1030,#1038,#1040,.T.);
#1038 = VERTEX_POINT('',#1039);
#1039 = CARTESIAN_POINT('',(134.42893218813,-5.,-15.));
#1040 = LINE('',#1041,#1042);
#1041 = CARTESIAN_POINT('',(147.92893218813,-5.,-28.5));
#1042 = VECTOR('',#1043,1.);
#1043 = DIRECTION('',(-0.707106781187,0.,0.707106781187));
#1044 = ORIENTED_EDGE('',*,*,#1045,.F.);
#1045 = EDGE_CURVE('',#1046,#1038,#1048,.T.);
#1046 = VERTEX_POINT('',#1047);
#1047 = CARTESIAN_POINT('',(134.42893218813,-4.,-15.));
#1048 = LINE('',#1049,#1050);
#1049 = CARTESIAN_POINT('',(134.42893218813,-3.33E-15,-15.));
#1050 = VECTOR('',#1051,1.);
#1051 = DIRECTION('',(0.,-1.,2.2E-16));
#1052 = ORIENTED_EDGE('',*,*,#1053,.F.);
#1053 = EDGE_CURVE('',#929,#1046,#1054,.T.);
#1054 = LINE('',#1055,#1056);
#1055 = CARTESIAN_POINT('',(137.5955988548,-7.166666666667,
    -18.16666666666));
#1056 = VECTOR('',#1057,1.);
#1057 = DIRECTION('',(0.57735026919,-0.57735026919,-0.57735026919));
#1058 = ORIENTED_EDGE('',*,*,#928,.T.);
#1059 = ORIENTED_EDGE('',*,*,#1007,.T.);
#1060 = PLANE('',#1061);
#1061 = AXIS2_PLACEMENT_3D('',#1062,#1063,#1064);
#1062 = CARTESIAN_POINT('',(147.92893218813,-6.33E-15,-28.5));
#1063 = DIRECTION('',(-0.707106781187,-1.6E-16,-0.707106781187));
#1064 = DIRECTION('',(-0.707106781187,1.6E-16,0.707106781187));
#1065 = ADVANCED_FACE('',(#1066),#1077,.T.);
#1066 = FACE_BOUND('',#1067,.F.);
#1067 = EDGE_LOOP('',(#1068,#1069,#1070,#1071));
#1068 = ORIENTED_EDGE('',*,*,#1053,.F.);
#1069 = ORIENTED_EDGE('',*,*,#936,.T.);
#1070 = ORIENTED_EDGE('',*,*,#975,.T.);
#1071 = ORIENTED_EDGE('',*,*,#1072,.F.);
#1072 = EDGE_CURVE('',#1046,#976,#1073,.T.);
#1073 = LINE('',#1074,#1075);
#1074 = CARTESIAN_POINT('',(134.42893218813,-4.,-15.));
#1075 = VECTOR('',#1076,1.);
#1076 = DIRECTION('',(-1.,0.,0.));
#1077 = PLANE('',#1078);
#1078 = AXIS2_PLACEMENT_3D('',#1079,#1080,#1081);
#1079 = CARTESIAN_POINT('',(134.42893218813,-2.,-13.));
#1080 = DIRECTION('',(3.E-17,0.707106781187,-0.707106781187));
#1081 = DIRECTION('',(1.,-2.12132034356E-17,2.12132034356E-17));
#1082 = ADVANCED_FACE('',(#1083),#1094,.T.);
#1083 = FACE_BOUND('',#1084,.T.);
#1084 = EDGE_LOOP('',(#1085,#1086,#1092,#1093));
#1085 = ORIENTED_EDGE('',*,*,#958,.T.);
#1086 = ORIENTED_EDGE('',*,*,#1087,.T.);
#1087 = EDGE_CURVE('',#961,#1030,#1088,.T.);
#1088 = LINE('',#1089,#1090);
#1089 = CARTESIAN_POINT('',(122.07106781186,-5.,-28.5));
#1090 = VECTOR('',#1091,1.);
#1091 = DIRECTION('',(1.,0.,0.));
#1092 = ORIENTED_EDGE('',*,*,#1029,.F.);
#1093 = ORIENTED_EDGE('',*,*,#1015,.F.);
#1094 = PLANE('',#1095);
#1095 = AXIS2_PLACEMENT_3D('',#1096,#1097,#1098);
#1096 = CARTESIAN_POINT('',(122.07106781186,-6.33E-15,-28.5));
#1097 = DIRECTION('',(0.,2.2E-16,1.));
#1098 = DIRECTION('',(1.,0.,0.));
#1099 = ADVANCED_FACE('',(#1100),#1111,.T.);
#1100 = FACE_BOUND('',#1101,.F.);
#1101 = EDGE_LOOP('',(#1102,#1108,#1109,#1110));
#1102 = ORIENTED_EDGE('',*,*,#1103,.T.);
#1103 = EDGE_CURVE('',#1038,#984,#1104,.T.);
#1104 = LINE('',#1105,#1106);
#1105 = CARTESIAN_POINT('',(134.42893218813,-5.,-15.));
#1106 = VECTOR('',#1107,1.);
#1107 = DIRECTION('',(-1.,0.,0.));
#1108 = ORIENTED_EDGE('',*,*,#991,.T.);
#1109 = ORIENTED_EDGE('',*,*,#1087,.T.);
#1110 = ORIENTED_EDGE('',*,*,#1037,.T.);
#1111 = PLANE('',#1112);
#1112 = AXIS2_PLACEMENT_3D('',#1113,#1114,#1115);
#1113 = CARTESIAN_POINT('',(128.25,-5.,-21.75));
#1114 = DIRECTION('',(0.,1.,0.));
#1115 = DIRECTION('',(0.,0.,1.));
#1116 = ADVANCED_FACE('',(#1117),#1123,.T.);
#1117 = FACE_BOUND('',#1118,.T.);
#1118 = EDGE_LOOP('',(#1119,#1120,#1121,#1122));
#1119 = ORIENTED_EDGE('',*,*,#1045,.T.);
#1120 = ORIENTED_EDGE('',*,*,#1103,.T.);
#1121 = ORIENTED_EDGE('',*,*,#983,.F.);
#1122 = ORIENTED_EDGE('',*,*,#1072,.F.);
#1123 = PLANE('',#1124);
#1124 = AXIS2_PLACEMENT_3D('',#1125,#1126,#1127);
#1125 = CARTESIAN_POINT('',(134.42893218813,-3.33E-15,-15.));
#1126 = DIRECTION('',(-0.,-2.2E-16,-1.));
#1127 = DIRECTION('',(-1.,0.,0.));
#1128 = ADVANCED_FACE('',(#1129,#1144),#1178,.T.);
#1129 = FACE_BOUND('',#1130,.T.);
#1130 = EDGE_LOOP('',(#1131,#1132,#1133,#1134,#1135,#1136,#1137,#1138,
    #1139,#1140,#1141,#1142,#1143));
#1131 = ORIENTED_EDGE('',*,*,#74,.F.);
#1132 = ORIENTED_EDGE('',*,*,#490,.T.);
#1133 = ORIENTED_EDGE('',*,*,#179,.F.);
#1134 = ORIENTED_EDGE('',*,*,#597,.T.);
#1135 = ORIENTED_EDGE('',*,*,#645,.F.);
#1136 = ORIENTED_EDGE('',*,*,#629,.F.);
#1137 = ORIENTED_EDGE('',*,*,#389,.F.);
#1138 = ORIENTED_EDGE('',*,*,#421,.F.);
#1139 = ORIENTED_EDGE('',*,*,#347,.F.);
#1140 = ORIENTED_EDGE('',*,*,#315,.F.);
#1141 = ORIENTED_EDGE('',*,*,#283,.F.);
#1142 = ORIENTED_EDGE('',*,*,#240,.F.);
#1143 = ORIENTED_EDGE('',*,*,#131,.F.);
#1144 = FACE_BOUND('',#1145,.T.);
#1145 = EDGE_LOOP('',(#1146,#1156,#1164,#1172));
#1146 = ORIENTED_EDGE('',*,*,#1147,.T.);
#1147 = EDGE_CURVE('',#1148,#1150,#1152,.T.);
#1148 = VERTEX_POINT('',#1149);
#1149 = CARTESIAN_POINT('',(-54.40624458409,-94.23437986866,-15.1));
#1150 = VERTEX_POINT('',#1151);
#1151 = CARTESIAN_POINT('',(-67.19375541597,-116.3829983318,-15.1));
#1152 = LINE('',#1153,#1154);
#1153 = CARTESIAN_POINT('',(-54.40624458409,-94.23437986866,-15.1));
#1154 = VECTOR('',#1155,1.);
#1155 = DIRECTION('',(-0.5,-0.866025403784,0.));
#1156 = ORIENTED_EDGE('',*,*,#1157,.T.);
#1157 = EDGE_CURVE('',#1150,#1158,#1160,.T.);
#1158 = VERTEX_POINT('',#1159);
#1159 = CARTESIAN_POINT('',(-73.8437554159,-127.901136202,-28.4));
#1160 = LINE('',#1161,#1162);
#1161 = CARTESIAN_POINT('',(-67.19375541597,-116.3829983318,-15.1));
#1162 = VECTOR('',#1163,1.);
#1163 = DIRECTION('',(-0.353553390591,-0.612372435692,-0.707106781191));
#1164 = ORIENTED_EDGE('',*,*,#1165,.T.);
#1165 = EDGE_CURVE('',#1158,#1166,#1168,.T.);
#1166 = VERTEX_POINT('',#1167);
#1167 = CARTESIAN_POINT('',(-61.05624458401,-105.7525177388,-28.4));
#1168 = LINE('',#1169,#1170);
#1169 = CARTESIAN_POINT('',(-73.8437554159,-127.901136202,-28.4));
#1170 = VECTOR('',#1171,1.);
#1171 = DIRECTION('',(0.5,0.866025403784,0.));
#1172 = ORIENTED_EDGE('',*,*,#1173,.T.);
#1173 = EDGE_CURVE('',#1166,#1148,#1174,.T.);
#1174 = LINE('',#1175,#1176);
#1175 = CARTESIAN_POINT('',(-61.05624458401,-105.7525177388,-28.4));
#1176 = VECTOR('',#1177,1.);
#1177 = DIRECTION('',(0.353553390591,0.612372435692,0.707106781191));
#1178 = PLANE('',#1179);
#1179 = AXIS2_PLACEMENT_3D('',#1180,#1181,#1182);
#1180 = CARTESIAN_POINT('',(-65.11301584107,-112.7790516707,
    -22.65191613824));
#1181 = DIRECTION('',(-0.866025403784,0.5,-1.65E-15));
#1182 = DIRECTION('',(-0.5,-0.866025403784,0.));
#1183 = ADVANCED_FACE('',(#1184),#1209,.T.);
#1184 = FACE_BOUND('',#1185,.T.);
#1185 = EDGE_LOOP('',(#1186,#1194,#1202,#1208));
#1186 = ORIENTED_EDGE('',*,*,#1187,.T.);
#1187 = EDGE_CURVE('',#1148,#1188,#1190,.T.);
#1188 = VERTEX_POINT('',#1189);
#1189 = CARTESIAN_POINT('',(-57.22082714639,-92.60937986866,-15.1));
#1190 = LINE('',#1191,#1192);
#1191 = CARTESIAN_POINT('',(-54.40624458409,-94.23437986866,-15.1));
#1192 = VECTOR('',#1193,1.);
#1193 = DIRECTION('',(-0.866025403784,0.5,0.));
#1194 = ORIENTED_EDGE('',*,*,#1195,.T.);
#1195 = EDGE_CURVE('',#1188,#1196,#1198,.T.);
#1196 = VERTEX_POINT('',#1197);
#1197 = CARTESIAN_POINT('',(-70.00833797827,-114.7579983318,-15.1));
#1198 = LINE('',#1199,#1200);
#1199 = CARTESIAN_POINT('',(-57.22082714639,-92.60937986866,-15.1));
#1200 = VECTOR('',#1201,1.);
#1201 = DIRECTION('',(-0.5,-0.866025403784,0.));
#1202 = ORIENTED_EDGE('',*,*,#1203,.F.);
#1203 = EDGE_CURVE('',#1150,#1196,#1204,.T.);
#1204 = LINE('',#1205,#1206);
#1205 = CARTESIAN_POINT('',(-67.19375541597,-116.3829983318,-15.1));
#1206 = VECTOR('',#1207,1.);
#1207 = DIRECTION('',(-0.866025403784,0.5,0.));
#1208 = ORIENTED_EDGE('',*,*,#1147,.F.);
#1209 = PLANE('',#1210);
#1210 = AXIS2_PLACEMENT_3D('',#1211,#1212,#1213);
#1211 = CARTESIAN_POINT('',(-54.40624458409,-94.23437986866,-15.1));
#1212 = DIRECTION('',(0.,0.,1.));
#1213 = DIRECTION('',(-0.5,-0.866025403784,0.));
#1214 = ADVANCED_FACE('',(#1215),#1241,.T.);
#1215 = FACE_BOUND('',#1216,.T.);
#1216 = EDGE_LOOP('',(#1217,#1227,#1233,#1234,#1235));
#1217 = ORIENTED_EDGE('',*,*,#1218,.F.);
#1218 = EDGE_CURVE('',#1219,#1221,#1223,.T.);
#1219 = VERTEX_POINT('',#1220);
#1220 = CARTESIAN_POINT('',(-74.06026176684,-127.776136202,-28.4));
#1221 = VERTEX_POINT('',#1222);
#1222 = CARTESIAN_POINT('',(-75.15833797821,-123.6780599907,-25.4));
#1223 = LINE('',#1224,#1225);
#1224 = CARTESIAN_POINT('',(-75.94224238466,-120.7524889176,
    -23.25833333334));
#1225 = VECTOR('',#1226,1.);
#1226 = DIRECTION('',(-0.211324865409,0.788675134592,0.577350269192));
#1227 = ORIENTED_EDGE('',*,*,#1228,.F.);
#1228 = EDGE_CURVE('',#1158,#1219,#1229,.T.);
#1229 = LINE('',#1230,#1231);
#1230 = CARTESIAN_POINT('',(-73.8437554159,-127.901136202,-28.4));
#1231 = VECTOR('',#1232,1.);
#1232 = DIRECTION('',(-0.866025403784,0.5,0.));
#1233 = ORIENTED_EDGE('',*,*,#1157,.F.);
#1234 = ORIENTED_EDGE('',*,*,#1203,.T.);
#1235 = ORIENTED_EDGE('',*,*,#1236,.T.);
#1236 = EDGE_CURVE('',#1196,#1221,#1237,.T.);
#1237 = LINE('',#1238,#1239);
#1238 = CARTESIAN_POINT('',(-70.00833797827,-114.7579983318,-15.1));
#1239 = VECTOR('',#1240,1.);
#1240 = DIRECTION('',(-0.353553390591,-0.612372435692,-0.707106781191));
#1241 = PLANE('',#1242);
#1242 = AXIS2_PLACEMENT_3D('',#1243,#1244,#1245);
#1243 = CARTESIAN_POINT('',(-67.19375541597,-116.3829983318,-15.1));
#1244 = DIRECTION('',(-0.353553390595,-0.612372435699,0.707106781182));
#1245 = DIRECTION('',(-0.353553390591,-0.612372435692,-0.707106781191));
#1246 = ADVANCED_FACE('',(#1247),#1265,.T.);
#1247 = FACE_BOUND('',#1248,.T.);
#1248 = EDGE_LOOP('',(#1249,#1250,#1258,#1264));
#1249 = ORIENTED_EDGE('',*,*,#1228,.T.);
#1250 = ORIENTED_EDGE('',*,*,#1251,.T.);
#1251 = EDGE_CURVE('',#1219,#1252,#1254,.T.);
#1252 = VERTEX_POINT('',#1253);
#1253 = CARTESIAN_POINT('',(-61.27275093496,-105.6275177388,-28.4));
#1254 = LINE('',#1255,#1256);
#1255 = CARTESIAN_POINT('',(-74.06026176684,-127.776136202,-28.4));
#1256 = VECTOR('',#1257,1.);
#1257 = DIRECTION('',(0.5,0.866025403784,0.));
#1258 = ORIENTED_EDGE('',*,*,#1259,.F.);
#1259 = EDGE_CURVE('',#1166,#1252,#1260,.T.);
#1260 = LINE('',#1261,#1262);
#1261 = CARTESIAN_POINT('',(-61.05624458401,-105.7525177388,-28.4));
#1262 = VECTOR('',#1263,1.);
#1263 = DIRECTION('',(-0.866025403784,0.5,0.));
#1264 = ORIENTED_EDGE('',*,*,#1165,.F.);
#1265 = PLANE('',#1266);
#1266 = AXIS2_PLACEMENT_3D('',#1267,#1268,#1269);
#1267 = CARTESIAN_POINT('',(-73.8437554159,-127.901136202,-28.4));
#1268 = DIRECTION('',(0.,0.,-1.));
#1269 = DIRECTION('',(0.5,0.866025403784,0.));
#1270 = ADVANCED_FACE('',(#1271),#1290,.T.);
#1271 = FACE_BOUND('',#1272,.T.);
#1272 = EDGE_LOOP('',(#1273,#1281,#1287,#1288,#1289));
#1273 = ORIENTED_EDGE('',*,*,#1274,.T.);
#1274 = EDGE_CURVE('',#1252,#1275,#1277,.T.);
#1275 = VERTEX_POINT('',#1276);
#1276 = CARTESIAN_POINT('',(-62.37082714633,-101.5294415275,-25.4));
#1277 = LINE('',#1278,#1279);
#1278 = CARTESIAN_POINT('',(-59.97183432408,-110.4826046269,
    -31.95417027727));
#1279 = VECTOR('',#1280,1.);
#1280 = DIRECTION('',(-0.211324865409,0.788675134592,0.577350269192));
#1281 = ORIENTED_EDGE('',*,*,#1282,.T.);
#1282 = EDGE_CURVE('',#1275,#1188,#1283,.T.);
#1283 = LINE('',#1284,#1285);
#1284 = CARTESIAN_POINT('',(-61.62082714634,-100.2304034218,-23.9));
#1285 = VECTOR('',#1286,1.);
#1286 = DIRECTION('',(0.353553390591,0.612372435692,0.707106781191));
#1287 = ORIENTED_EDGE('',*,*,#1187,.F.);
#1288 = ORIENTED_EDGE('',*,*,#1173,.F.);
#1289 = ORIENTED_EDGE('',*,*,#1259,.T.);
#1290 = PLANE('',#1291);
#1291 = AXIS2_PLACEMENT_3D('',#1292,#1293,#1294);
#1292 = CARTESIAN_POINT('',(-61.05624458401,-105.7525177388,-28.4));
#1293 = DIRECTION('',(0.353553390595,0.612372435699,-0.707106781182));
#1294 = DIRECTION('',(0.353553390591,0.612372435692,0.707106781191));
#1295 = ADVANCED_FACE('',(#1296),#1321,.F.);
#1296 = FACE_BOUND('',#1297,.F.);
#1297 = EDGE_LOOP('',(#1298,#1306,#1307,#1315));
#1298 = ORIENTED_EDGE('',*,*,#1299,.F.);
#1299 = EDGE_CURVE('',#1188,#1300,#1302,.T.);
#1300 = VERTEX_POINT('',#1301);
#1301 = CARTESIAN_POINT('',(-60.33052542383,-94.9955352814,-16.6));
#1302 = LINE('',#1303,#1304);
#1303 = CARTESIAN_POINT('',(-61.59634322778,-95.96683144423,
    -17.21058229337));
#1304 = VECTOR('',#1305,1.);
#1305 = DIRECTION('',(-0.740951424811,-0.568552025035,-0.357406744339));
#1306 = ORIENTED_EDGE('',*,*,#1195,.T.);
#1307 = ORIENTED_EDGE('',*,*,#1308,.T.);
#1308 = EDGE_CURVE('',#1196,#1309,#1311,.T.);
#1309 = VERTEX_POINT('',#1310);
#1310 = CARTESIAN_POINT('',(-70.99671591217,-113.4699191304,-16.6));
#1311 = LINE('',#1312,#1313);
#1312 = CARTESIAN_POINT('',(-72.07067356102,-112.070310273,
    -18.22987903516));
#1313 = VECTOR('',#1314,1.);
#1314 = DIRECTION('',(-0.447141086484,0.582725609149,-0.678598344545));
#1315 = ORIENTED_EDGE('',*,*,#1316,.F.);
#1316 = EDGE_CURVE('',#1300,#1309,#1317,.T.);
#1317 = LINE('',#1318,#1319);
#1318 = CARTESIAN_POINT('',(-58.51986525206,-91.85937986866,-16.6));
#1319 = VECTOR('',#1320,1.);
#1320 = DIRECTION('',(-0.5,-0.866025403784,0.));
#1321 = PLANE('',#1322);
#1322 = AXIS2_PLACEMENT_3D('',#1323,#1324,#1325);
#1323 = CARTESIAN_POINT('',(-57.87034619923,-92.23437986866,-15.85));
#1324 = DIRECTION('',(0.612372435696,-0.353553390593,-0.707106781187));
#1325 = DIRECTION('',(-0.5,-0.866025403784,3.885780586188E-16));
#1326 = ADVANCED_FACE('',(#1327),#1354,.F.);
#1327 = FACE_BOUND('',#1328,.F.);
#1328 = EDGE_LOOP('',(#1329,#1330,#1331,#1332,#1340,#1348));
#1329 = ORIENTED_EDGE('',*,*,#1218,.F.);
#1330 = ORIENTED_EDGE('',*,*,#1251,.T.);
#1331 = ORIENTED_EDGE('',*,*,#1274,.T.);
#1332 = ORIENTED_EDGE('',*,*,#1333,.T.);
#1333 = EDGE_CURVE('',#1275,#1334,#1336,.T.);
#1334 = VERTEX_POINT('',#1335);
#1335 = CARTESIAN_POINT('',(-63.98052542379,-101.3175207289,-23.9));
#1336 = LINE('',#1337,#1338);
#1337 = CARTESIAN_POINT('',(-65.51249129376,-101.1158335959,
    -22.47243507237));
#1338 = VECTOR('',#1339,1.);
#1339 = DIRECTION('',(-0.728225724201,9.587273539626E-02,0.678598344545)
  );
#1340 = ORIENTED_EDGE('',*,*,#1341,.F.);
#1341 = EDGE_CURVE('',#1342,#1334,#1344,.T.);
#1342 = VERTEX_POINT('',#1343);
#1343 = CARTESIAN_POINT('',(-74.64671591212,-119.7919045779,-23.9));
#1344 = LINE('',#1345,#1346);
#1345 = CARTESIAN_POINT('',(-77.95737608387,-125.526136202,-23.9));
#1346 = VECTOR('',#1347,1.);
#1347 = DIRECTION('',(0.5,0.866025403784,0.));
#1348 = ORIENTED_EDGE('',*,*,#1349,.F.);
#1349 = EDGE_CURVE('',#1221,#1342,#1350,.T.);
#1350 = LINE('',#1351,#1352);
#1351 = CARTESIAN_POINT('',(-74.55002458194,-119.057461009,
    -23.61651536379));
#1352 = VECTOR('',#1353,1.);
#1353 = DIRECTION('',(0.121904784648,0.925958769374,0.357406744339));
#1354 = PLANE('',#1355);
#1355 = AXIS2_PLACEMENT_3D('',#1356,#1357,#1358);
#1356 = CARTESIAN_POINT('',(-76.00881892536,-126.651136202,-26.15));
#1357 = DIRECTION('',(0.612372435696,-0.353553390593,0.707106781187));
#1358 = DIRECTION('',(0.5,0.866025403784,-8.326672684689E-17));
#1359 = ADVANCED_FACE('',(#1360),#1371,.F.);
#1360 = FACE_BOUND('',#1361,.F.);
#1361 = EDGE_LOOP('',(#1362,#1363,#1364,#1365));
#1362 = ORIENTED_EDGE('',*,*,#1308,.F.);
#1363 = ORIENTED_EDGE('',*,*,#1236,.T.);
#1364 = ORIENTED_EDGE('',*,*,#1349,.T.);
#1365 = ORIENTED_EDGE('',*,*,#1366,.F.);
#1366 = EDGE_CURVE('',#1309,#1342,#1367,.T.);
#1367 = LINE('',#1368,#1369);
#1368 = CARTESIAN_POINT('',(-70.77704599806,-113.0894396782,
    -16.16066017177));
#1369 = VECTOR('',#1370,1.);
#1370 = DIRECTION('',(-0.353553390591,-0.612372435692,-0.707106781191));
#1371 = PLANE('',#1372);
#1372 = AXIS2_PLACEMENT_3D('',#1373,#1374,#1375);
#1373 = CARTESIAN_POINT('',(-70.39269198816,-113.923719005,
    -15.63033008588));
#1374 = DIRECTION('',(0.862372435697,7.945931130148E-02,-0.499999999997)
  );
#1375 = DIRECTION('',(-0.353553390591,-0.612372435692,-0.707106781191));
#1376 = ADVANCED_FACE('',(#1377),#1388,.F.);
#1377 = FACE_BOUND('',#1378,.F.);
#1378 = EDGE_LOOP('',(#1379,#1380,#1381,#1382));
#1379 = ORIENTED_EDGE('',*,*,#1333,.F.);
#1380 = ORIENTED_EDGE('',*,*,#1282,.T.);
#1381 = ORIENTED_EDGE('',*,*,#1299,.T.);
#1382 = ORIENTED_EDGE('',*,*,#1383,.F.);
#1383 = EDGE_CURVE('',#1334,#1300,#1384,.T.);
#1384 = LINE('',#1385,#1386);
#1385 = CARTESIAN_POINT('',(-63.45019533791,-100.3989620754,
    -22.83933982822));
#1386 = VECTOR('',#1387,1.);
#1387 = DIRECTION('',(0.353553390591,0.612372435692,0.707106781191));
#1388 = PLANE('',#1389);
#1389 = AXIS2_PLACEMENT_3D('',#1390,#1391,#1392);
#1390 = CARTESIAN_POINT('',(-62.53551124212,-100.3146827486,
    -23.36966991411));
#1391 = DIRECTION('',(0.362372435694,-0.786566092488,0.499999999997));
#1392 = DIRECTION('',(0.353553390591,0.612372435692,0.707106781191));
#1393 = ADVANCED_FACE('',(#1394),#1400,.F.);
#1394 = FACE_BOUND('',#1395,.F.);
#1395 = EDGE_LOOP('',(#1396,#1397,#1398,#1399));
#1396 = ORIENTED_EDGE('',*,*,#1341,.T.);
#1397 = ORIENTED_EDGE('',*,*,#1383,.T.);
#1398 = ORIENTED_EDGE('',*,*,#1316,.T.);
#1399 = ORIENTED_EDGE('',*,*,#1366,.T.);
#1400 = PLANE('',#1401);
#1401 = AXIS2_PLACEMENT_3D('',#1402,#1403,#1404);
#1402 = CARTESIAN_POINT('',(-68.23862066797,-108.6927580353,-21.75));
#1403 = DIRECTION('',(0.866025403784,-0.5,-1.2E-16));
#1404 = DIRECTION('',(0.5,0.866025403784,0.));
#1405 = ( GEOMETRIC_REPRESENTATION_CONTEXT(3) 
GLOBAL_UNCERTAINTY_ASSIGNED_CONTEXT((#1409)) 
GLOBAL_UNIT_ASSIGNED_CONTEXT((#1406,#1407,#1408)) REPRESENTATION_CONTEXT
('Context #1','3D Context with UNIT and UNCERTAINTY') );
#1406 = ( LENGTH_UNIT() NAMED_UNIT(*) SI_UNIT(.MILLI.,.METRE.) );
#1407 = ( NAMED_UNIT(*) PLANE_ANGLE_UNIT() SI_UNIT($,.RADIAN.) );
#1408 = ( NAMED_UNIT(*) SI_UNIT($,.STERADIAN.) SOLID_ANGLE_UNIT() );
#1409 = UNCERTAINTY_MEASURE_WITH_UNIT(LENGTH_MEASURE(2.E-05),#1406,
  'distance_accuracy_value','confusion accuracy');
#1410 = PRODUCT_RELATED_PRODUCT_CATEGORY('part',$,(#7));
#1411 = MECHANICAL_DESIGN_GEOMETRIC_PRESENTATION_REPRESENTATION('',(
    #1412),#1405);
#1412 = STYLED_ITEM('color',(#1413),#15);
#1413 = PRESENTATION_STYLE_ASSIGNMENT((#1414,#1420));
#1414 = SURFACE_STYLE_USAGE(.BOTH.,#1415);
#1415 = SURFACE_SIDE_STYLE('',(#1416));
#1416 = SURFACE_STYLE_FILL_AREA(#1417);
#1417 = FILL_AREA_STYLE('',(#1418));
#1418 = FILL_AREA_STYLE_COLOUR('',#1419);
#1419 = COLOUR_RGB('',0.941176459967,0.376470596604,9.019607955318E-02);
#1420 = CURVE_STYLE('',#1421,POSITIVE_LENGTH_MEASURE(0.1),#1422);
#1421 = DRAUGHTING_PRE_DEFINED_CURVE_FONT('continuous');
#1422 = COLOUR_RGB('',9.803921802644E-02,9.803921802644E-02,
  9.803921802644E-02);
ENDSEC;
END-ISO-10303-21;
