ISO-10303-21;
HEADER;
FILE_DESCRIPTION(('FreeCAD Model'),'2;1');
FILE_NAME('Open CASCADE Shape Model','2026-07-21T18:51:58',(''),(''),
  'Open CASCADE STEP processor 7.9','FreeCAD','Unknown');
FILE_SCHEMA(('AUTOMOTIVE_DESIGN { 1 0 10303 214 1 1 1 1 }'));
ENDSEC;
DATA;
#1 = APPLICATION_PROTOCOL_DEFINITION('international standard',
  'automotive_design',2000,#2);
#2 = APPLICATION_CONTEXT(
  'core data for automotive mechanical design processes');
#3 = SHAPE_DEFINITION_REPRESENTATION(#4,#10);
#4 = PRODUCT_DEFINITION_SHAPE('','',#5);
#5 = PRODUCT_DEFINITION('design','',#6,#9);
#6 = PRODUCT_DEFINITION_FORMATION('','',#7);
#7 = PRODUCT('MotorJoint','MotorJoint','',(#8));
#8 = PRODUCT_CONTEXT('',#2,'mechanical');
#9 = PRODUCT_DEFINITION_CONTEXT('part definition',#2,'design');
#10 = ADVANCED_BREP_SHAPE_REPRESENTATION('',(#11,#15),#519);
#11 = AXIS2_PLACEMENT_3D('',#12,#13,#14);
#12 = CARTESIAN_POINT('',(0.,0.,0.));
#13 = DIRECTION('',(0.,0.,1.));
#14 = DIRECTION('',(1.,0.,-0.));
#15 = MANIFOLD_SOLID_BREP('',#16);
#16 = CLOSED_SHELL('',(#17,#68,#93,#159,#183,#242,#259,#412,#429,#446,
    #458,#495,#507));
#17 = ADVANCED_FACE('',(#18,#29),#63,.F.);
#18 = FACE_BOUND('',#19,.F.);
#19 = EDGE_LOOP('',(#20));
#20 = ORIENTED_EDGE('',*,*,#21,.T.);
#21 = EDGE_CURVE('',#22,#22,#24,.T.);
#22 = VERTEX_POINT('',#23);
#23 = CARTESIAN_POINT('',(2.85,-7.616952767655,5.425905));
#24 = CIRCLE('',#25,2.85);
#25 = AXIS2_PLACEMENT_3D('',#26,#27,#28);
#26 = CARTESIAN_POINT('',(0.,-7.616952767655,5.425905));
#27 = DIRECTION('',(0.,-1.,0.));
#28 = DIRECTION('',(1.,0.,0.));
#29 = FACE_BOUND('',#30,.F.);
#30 = EDGE_LOOP('',(#31,#41,#49,#57));
#31 = ORIENTED_EDGE('',*,*,#32,.F.);
#32 = EDGE_CURVE('',#33,#35,#37,.T.);
#33 = VERTEX_POINT('',#34);
#34 = CARTESIAN_POINT('',(5.55235026919,-7.616952767655,15.));
#35 = VERTEX_POINT('',#36);
#36 = CARTESIAN_POINT('',(-5.55235026919,-7.616952767655,15.));
#37 = LINE('',#38,#39);
#38 = CARTESIAN_POINT('',(-6.E-17,-7.616952767655,15.));
#39 = VECTOR('',#40,1.);
#40 = DIRECTION('',(-1.,0.,0.));
#41 = ORIENTED_EDGE('',*,*,#42,.T.);
#42 = EDGE_CURVE('',#33,#43,#45,.T.);
#43 = VERTEX_POINT('',#44);
#44 = CARTESIAN_POINT('',(5.55235026919,-7.616952767655,0.));
#45 = LINE('',#46,#47);
#46 = CARTESIAN_POINT('',(5.55235026919,-7.616952767655,-1.1E-16));
#47 = VECTOR('',#48,1.);
#48 = DIRECTION('',(0.,0.,-1.));
#49 = ORIENTED_EDGE('',*,*,#50,.T.);
#50 = EDGE_CURVE('',#43,#51,#53,.T.);
#51 = VERTEX_POINT('',#52);
#52 = CARTESIAN_POINT('',(-5.55235026919,-7.616952767655,0.));
#53 = LINE('',#54,#55);
#54 = CARTESIAN_POINT('',(-6.E-17,-7.616952767655,0.));
#55 = VECTOR('',#56,1.);
#56 = DIRECTION('',(-1.,0.,0.));
#57 = ORIENTED_EDGE('',*,*,#58,.T.);
#58 = EDGE_CURVE('',#51,#35,#59,.T.);
#59 = LINE('',#60,#61);
#60 = CARTESIAN_POINT('',(-5.55235026919,-7.616952767655,-1.1E-16));
#61 = VECTOR('',#62,1.);
#62 = DIRECTION('',(0.,0.,1.));
#63 = PLANE('',#64);
#64 = AXIS2_PLACEMENT_3D('',#65,#66,#67);
#65 = CARTESIAN_POINT('',(0.,-7.616952767655,0.));
#66 = DIRECTION('',(0.,1.,0.));
#67 = DIRECTION('',(0.,0.,1.));
#68 = ADVANCED_FACE('',(#69),#88,.F.);
#69 = FACE_BOUND('',#70,.T.);
#70 = EDGE_LOOP('',(#71,#79,#80,#81));
#71 = ORIENTED_EDGE('',*,*,#72,.F.);
#72 = EDGE_CURVE('',#22,#73,#75,.T.);
#73 = VERTEX_POINT('',#74);
#74 = CARTESIAN_POINT('',(2.35,-7.116952767655,5.425905));
#75 = LINE('',#76,#77);
#76 = CARTESIAN_POINT('',(2.35,-7.116952767655,5.425905));
#77 = VECTOR('',#78,1.);
#78 = DIRECTION('',(-0.707106781187,0.707106781187,0.));
#79 = ORIENTED_EDGE('',*,*,#21,.T.);
#80 = ORIENTED_EDGE('',*,*,#72,.T.);
#81 = ORIENTED_EDGE('',*,*,#82,.F.);
#82 = EDGE_CURVE('',#73,#73,#83,.T.);
#83 = CIRCLE('',#84,2.35);
#84 = AXIS2_PLACEMENT_3D('',#85,#86,#87);
#85 = CARTESIAN_POINT('',(0.,-7.116952767655,5.425905));
#86 = DIRECTION('',(0.,-1.,0.));
#87 = DIRECTION('',(1.,0.,0.));
#88 = CONICAL_SURFACE('',#89,2.35,0.785398163397);
#89 = AXIS2_PLACEMENT_3D('',#90,#91,#92);
#90 = CARTESIAN_POINT('',(0.,-7.116952767655,5.425905));
#91 = DIRECTION('',(-0.,-1.,-0.));
#92 = DIRECTION('',(1.,0.,0.));
#93 = ADVANCED_FACE('',(#94,#135),#154,.T.);
#94 = FACE_BOUND('',#95,.T.);
#95 = EDGE_LOOP('',(#96,#104,#112,#120,#128,#134));
#96 = ORIENTED_EDGE('',*,*,#97,.T.);
#97 = EDGE_CURVE('',#33,#98,#100,.T.);
#98 = VERTEX_POINT('',#99);
#99 = CARTESIAN_POINT('',(9.95,0.,15.));
#100 = LINE('',#101,#102);
#101 = CARTESIAN_POINT('',(4.975,-8.616952767655,15.));
#102 = VECTOR('',#103,1.);
#103 = DIRECTION('',(0.5,0.866025403784,0.));
#104 = ORIENTED_EDGE('',*,*,#105,.T.);
#105 = EDGE_CURVE('',#98,#106,#108,.T.);
#106 = VERTEX_POINT('',#107);
#107 = CARTESIAN_POINT('',(4.975,8.616952767655,15.));
#108 = LINE('',#109,#110);
#109 = CARTESIAN_POINT('',(9.95,0.,15.));
#110 = VECTOR('',#111,1.);
#111 = DIRECTION('',(-0.5,0.866025403784,0.));
#112 = ORIENTED_EDGE('',*,*,#113,.T.);
#113 = EDGE_CURVE('',#106,#114,#116,.T.);
#114 = VERTEX_POINT('',#115);
#115 = CARTESIAN_POINT('',(-4.975,8.616952767655,15.));
#116 = LINE('',#117,#118);
#117 = CARTESIAN_POINT('',(4.975,8.616952767655,15.));
#118 = VECTOR('',#119,1.);
#119 = DIRECTION('',(-1.,0.,0.));
#120 = ORIENTED_EDGE('',*,*,#121,.T.);
#121 = EDGE_CURVE('',#114,#122,#124,.T.);
#122 = VERTEX_POINT('',#123);
#123 = CARTESIAN_POINT('',(-9.95,0.,15.));
#124 = LINE('',#125,#126);
#125 = CARTESIAN_POINT('',(-4.975,8.616952767655,15.));
#126 = VECTOR('',#127,1.);
#127 = DIRECTION('',(-0.5,-0.866025403784,0.));
#128 = ORIENTED_EDGE('',*,*,#129,.T.);
#129 = EDGE_CURVE('',#122,#35,#130,.T.);
#130 = LINE('',#131,#132);
#131 = CARTESIAN_POINT('',(-9.95,0.,15.));
#132 = VECTOR('',#133,1.);
#133 = DIRECTION('',(0.5,-0.866025403784,0.));
#134 = ORIENTED_EDGE('',*,*,#32,.F.);
#135 = FACE_BOUND('',#136,.T.);
#136 = EDGE_LOOP('',(#137,#148));
#137 = ORIENTED_EDGE('',*,*,#138,.F.);
#138 = EDGE_CURVE('',#139,#141,#143,.T.);
#139 = VERTEX_POINT('',#140);
#140 = CARTESIAN_POINT('',(1.094303431412,-2.27,15.));
#141 = VERTEX_POINT('',#142);
#142 = CARTESIAN_POINT('',(-1.094303431412,-2.27,15.));
#143 = CIRCLE('',#144,2.52);
#144 = AXIS2_PLACEMENT_3D('',#145,#146,#147);
#145 = CARTESIAN_POINT('',(0.,0.,15.));
#146 = DIRECTION('',(0.,0.,1.));
#147 = DIRECTION('',(1.,0.,0.));
#148 = ORIENTED_EDGE('',*,*,#149,.T.);
#149 = EDGE_CURVE('',#139,#141,#150,.T.);
#150 = LINE('',#151,#152);
#151 = CARTESIAN_POINT('',(1.094303431412,-2.27,15.));
#152 = VECTOR('',#153,1.);
#153 = DIRECTION('',(-1.,0.,0.));
#154 = PLANE('',#155);
#155 = AXIS2_PLACEMENT_3D('',#156,#157,#158);
#156 = CARTESIAN_POINT('',(-1.3E-16,-2.074154368877E-02,15.));
#157 = DIRECTION('',(0.,0.,1.));
#158 = DIRECTION('',(1.,0.,0.));
#159 = ADVANCED_FACE('',(#160),#178,.F.);
#160 = FACE_BOUND('',#161,.F.);
#161 = EDGE_LOOP('',(#162,#170,#176,#177));
#162 = ORIENTED_EDGE('',*,*,#163,.F.);
#163 = EDGE_CURVE('',#164,#51,#166,.T.);
#164 = VERTEX_POINT('',#165);
#165 = CARTESIAN_POINT('',(-9.95,0.,0.));
#166 = LINE('',#167,#168);
#167 = CARTESIAN_POINT('',(-9.95,0.,0.));
#168 = VECTOR('',#169,1.);
#169 = DIRECTION('',(0.5,-0.866025403784,0.));
#170 = ORIENTED_EDGE('',*,*,#171,.T.);
#171 = EDGE_CURVE('',#164,#122,#172,.T.);
#172 = LINE('',#173,#174);
#173 = CARTESIAN_POINT('',(-9.95,0.,0.));
#174 = VECTOR('',#175,1.);
#175 = DIRECTION('',(0.,0.,1.));
#176 = ORIENTED_EDGE('',*,*,#129,.T.);
#177 = ORIENTED_EDGE('',*,*,#58,.F.);
#178 = PLANE('',#179);
#179 = AXIS2_PLACEMENT_3D('',#180,#181,#182);
#180 = CARTESIAN_POINT('',(-9.95,0.,0.));
#181 = DIRECTION('',(0.866025403784,0.5,0.));
#182 = DIRECTION('',(0.5,-0.866025403784,0.));
#183 = ADVANCED_FACE('',(#184,#218),#237,.F.);
#184 = FACE_BOUND('',#185,.F.);
#185 = EDGE_LOOP('',(#186,#194,#202,#210,#216,#217));
#186 = ORIENTED_EDGE('',*,*,#187,.T.);
#187 = EDGE_CURVE('',#43,#188,#190,.T.);
#188 = VERTEX_POINT('',#189);
#189 = CARTESIAN_POINT('',(9.95,0.,0.));
#190 = LINE('',#191,#192);
#191 = CARTESIAN_POINT('',(4.975,-8.616952767655,0.));
#192 = VECTOR('',#193,1.);
#193 = DIRECTION('',(0.5,0.866025403784,0.));
#194 = ORIENTED_EDGE('',*,*,#195,.T.);
#195 = EDGE_CURVE('',#188,#196,#198,.T.);
#196 = VERTEX_POINT('',#197);
#197 = CARTESIAN_POINT('',(4.975,8.616952767655,0.));
#198 = LINE('',#199,#200);
#199 = CARTESIAN_POINT('',(9.95,0.,0.));
#200 = VECTOR('',#201,1.);
#201 = DIRECTION('',(-0.5,0.866025403784,0.));
#202 = ORIENTED_EDGE('',*,*,#203,.T.);
#203 = EDGE_CURVE('',#196,#204,#206,.T.);
#204 = VERTEX_POINT('',#205);
#205 = CARTESIAN_POINT('',(-4.975,8.616952767655,0.));
#206 = LINE('',#207,#208);
#207 = CARTESIAN_POINT('',(4.975,8.616952767655,0.));
#208 = VECTOR('',#209,1.);
#209 = DIRECTION('',(-1.,0.,0.));
#210 = ORIENTED_EDGE('',*,*,#211,.T.);
#211 = EDGE_CURVE('',#204,#164,#212,.T.);
#212 = LINE('',#213,#214);
#213 = CARTESIAN_POINT('',(-4.975,8.616952767655,0.));
#214 = VECTOR('',#215,1.);
#215 = DIRECTION('',(-0.5,-0.866025403784,0.));
#216 = ORIENTED_EDGE('',*,*,#163,.T.);
#217 = ORIENTED_EDGE('',*,*,#50,.F.);
#218 = FACE_BOUND('',#219,.F.);
#219 = EDGE_LOOP('',(#220,#231));
#220 = ORIENTED_EDGE('',*,*,#221,.F.);
#221 = EDGE_CURVE('',#222,#224,#226,.T.);
#222 = VERTEX_POINT('',#223);
#223 = CARTESIAN_POINT('',(1.094303431412,-2.27,0.));
#224 = VERTEX_POINT('',#225);
#225 = CARTESIAN_POINT('',(-1.094303431412,-2.27,0.));
#226 = CIRCLE('',#227,2.52);
#227 = AXIS2_PLACEMENT_3D('',#228,#229,#230);
#228 = CARTESIAN_POINT('',(0.,0.,0.));
#229 = DIRECTION('',(0.,0.,1.));
#230 = DIRECTION('',(1.,0.,0.));
#231 = ORIENTED_EDGE('',*,*,#232,.T.);
#232 = EDGE_CURVE('',#222,#224,#233,.T.);
#233 = LINE('',#234,#235);
#234 = CARTESIAN_POINT('',(1.094303431412,-2.27,0.));
#235 = VECTOR('',#236,1.);
#236 = DIRECTION('',(-1.,0.,0.));
#237 = PLANE('',#238);
#238 = AXIS2_PLACEMENT_3D('',#239,#240,#241);
#239 = CARTESIAN_POINT('',(-1.3E-16,-2.074154368877E-02,0.));
#240 = DIRECTION('',(0.,0.,1.));
#241 = DIRECTION('',(1.,0.,0.));
#242 = ADVANCED_FACE('',(#243),#254,.F.);
#243 = FACE_BOUND('',#244,.F.);
#244 = EDGE_LOOP('',(#245,#246,#247,#248));
#245 = ORIENTED_EDGE('',*,*,#187,.F.);
#246 = ORIENTED_EDGE('',*,*,#42,.F.);
#247 = ORIENTED_EDGE('',*,*,#97,.T.);
#248 = ORIENTED_EDGE('',*,*,#249,.F.);
#249 = EDGE_CURVE('',#188,#98,#250,.T.);
#250 = LINE('',#251,#252);
#251 = CARTESIAN_POINT('',(9.95,0.,0.));
#252 = VECTOR('',#253,1.);
#253 = DIRECTION('',(0.,0.,1.));
#254 = PLANE('',#255);
#255 = AXIS2_PLACEMENT_3D('',#256,#257,#258);
#256 = CARTESIAN_POINT('',(4.975,-8.616952767655,0.));
#257 = DIRECTION('',(-0.866025403784,0.5,0.));
#258 = DIRECTION('',(0.5,0.866025403784,0.));
#259 = ADVANCED_FACE('',(#260),#407,.F.);
#260 = FACE_BOUND('',#261,.F.);
#261 = EDGE_LOOP('',(#262,#270,#271,#272,#307,#316,#372,#381));
#262 = ORIENTED_EDGE('',*,*,#263,.F.);
#263 = EDGE_CURVE('',#73,#264,#266,.T.);
#264 = VERTEX_POINT('',#265);
#265 = CARTESIAN_POINT('',(2.35,-0.909890103254,5.425905));
#266 = LINE('',#267,#268);
#267 = CARTESIAN_POINT('',(2.35,-8.616952767655,5.425905));
#268 = VECTOR('',#269,1.);
#269 = DIRECTION('',(0.,1.,-2.2E-16));
#270 = ORIENTED_EDGE('',*,*,#82,.F.);
#271 = ORIENTED_EDGE('',*,*,#263,.T.);
#272 = ORIENTED_EDGE('',*,*,#273,.T.);
#273 = EDGE_CURVE('',#264,#274,#276,.T.);
#274 = VERTEX_POINT('',#275);
#275 = CARTESIAN_POINT('',(1.094303431412,-2.27,7.505568434309));
#276 = B_SPLINE_CURVE_WITH_KNOTS('',8,(#277,#278,#279,#280,#281,#282,
    #283,#284,#285,#286,#287,#288,#289,#290,#291,#292,#293,#294,#295,
    #296,#297,#298,#299,#300,#301,#302,#303,#304,#305,#306),
  .UNSPECIFIED.,.F.,.F.,(9,7,7,7,9),(0.,0.152697867657,0.229750528124,
    0.50479725315,1.),.UNSPECIFIED.);
#277 = CARTESIAN_POINT('',(2.35,-0.909890103254,5.425905));
#278 = CARTESIAN_POINT('',(2.35,-0.909890103254,5.479217550104));
#279 = CARTESIAN_POINT('',(2.348617719994,-0.913459892758,5.532128450638
    ));
#280 = CARTESIAN_POINT('',(2.345889785993,-0.920506053982,5.584617758249
    ));
#281 = CARTESIAN_POINT('',(2.341850345958,-0.930848399597,5.636637634942
    ));
#282 = CARTESIAN_POINT('',(2.336538638775,-0.944217456229,5.688092151734
    ));
#283 = CARTESIAN_POINT('',(2.33001260245,-0.960253467966,5.738817891498)
  );
#284 = CARTESIAN_POINT('',(2.322368521518,-0.978506919866,5.788565351016
    ));
#285 = CARTESIAN_POINT('',(2.309426167274,-1.008499278953,5.861412167872
    ));
#286 = CARTESIAN_POINT('',(2.304821704296,-1.019032269787,5.8856169723)
  );
#287 = CARTESIAN_POINT('',(2.29995986996,-1.03000049246,5.909601149532)
  );
#288 = CARTESIAN_POINT('',(2.29484665305,-1.041367501947,5.933370309563)
  );
#289 = CARTESIAN_POINT('',(2.289487485909,-1.053099469703,5.956930078358
    ));
#290 = CARTESIAN_POINT('',(2.283887244442,-1.065165183662,5.980286097854
    ));
#291 = CARTESIAN_POINT('',(2.278050248113,-1.077536048233,6.00344402596)
  );
#292 = CARTESIAN_POINT('',(2.250312865771,-1.135341578914,6.108387088515
    ));
#293 = CARTESIAN_POINT('',(2.225543014437,-1.184333256131,6.188419274306
    ));
#294 = CARTESIAN_POINT('',(2.19784079769,-1.23592282959,6.266477214931)
  );
#295 = CARTESIAN_POINT('',(2.167353126017,-1.289151003776,6.342558705009
    ));
#296 = CARTESIAN_POINT('',(2.134176741306,-1.343392960459,6.41676862879)
  );
#297 = CARTESIAN_POINT('',(2.098291805867,-1.398332453813,6.489350981186
    ));
#298 = CARTESIAN_POINT('',(2.059502967988,-1.453883048416,6.560663280726
    ));
#299 = CARTESIAN_POINT('',(1.941693963166,-1.611272851754,6.757872122534
    ));
#300 = CARTESIAN_POINT('',(1.856465672929,-1.713044889435,6.87985823293)
  );
#301 = CARTESIAN_POINT('',(1.761088031897,-1.814226496452,6.997783165871
    ));
#302 = CARTESIAN_POINT('',(1.65457268947,-1.914029979946,7.111658995928)
  );
#303 = CARTESIAN_POINT('',(1.535766461187,-2.01133260052,7.220934362252)
  );
#304 = CARTESIAN_POINT('',(1.40348551589,-2.104606880955,7.32439371471)
  );
#305 = CARTESIAN_POINT('',(1.256610577159,-2.191756270249,7.420163621393
    ));
#306 = CARTESIAN_POINT('',(1.094303431412,-2.27,7.505568434309));
#307 = ORIENTED_EDGE('',*,*,#308,.T.);
#308 = EDGE_CURVE('',#274,#309,#311,.T.);
#309 = VERTEX_POINT('',#310);
#310 = CARTESIAN_POINT('',(-1.094303431412,-2.27,7.505568434309));
#311 = CIRCLE('',#312,2.35);
#312 = AXIS2_PLACEMENT_3D('',#313,#314,#315);
#313 = CARTESIAN_POINT('',(0.,-2.27,5.425905));
#314 = DIRECTION('',(0.,-1.,2.2E-16));
#315 = DIRECTION('',(1.,0.,0.));
#316 = ORIENTED_EDGE('',*,*,#317,.T.);
#317 = EDGE_CURVE('',#309,#318,#320,.T.);
#318 = VERTEX_POINT('',#319);
#319 = CARTESIAN_POINT('',(-1.094303431412,-2.27,3.346241565691));
#320 = B_SPLINE_CURVE_WITH_KNOTS('',8,(#321,#322,#323,#324,#325,#326,
    #327,#328,#329,#330,#331,#332,#333,#334,#335,#336,#337,#338,#339,
    #340,#341,#342,#343,#344,#345,#346,#347,#348,#349,#350,#351,#352,
    #353,#354,#355,#356,#357,#358,#359,#360,#361,#362,#363,#364,#365,
    #366,#367,#368,#369,#370,#371),.UNSPECIFIED.,.F.,.F.,(9,7,7,7,7,7,7,
    9),(0.,0.246515081031,0.422513058166,0.499304311111,0.547127116903,
    0.614953484886,0.752448915694,1.),.UNSPECIFIED.);
#321 = CARTESIAN_POINT('',(-1.094303431412,-2.27,7.505568434309));
#322 = CARTESIAN_POINT('',(-1.256377825318,-2.191868473394,
    7.420286093681));
#323 = CARTESIAN_POINT('',(-1.403064595594,-2.104856639952,
    7.324668180291));
#324 = CARTESIAN_POINT('',(-1.535197660266,-2.011733528643,
    7.221379060911));
#325 = CARTESIAN_POINT('',(-1.653891006442,-1.914587976805,
    7.112285626835));
#326 = CARTESIAN_POINT('',(-1.760323616253,-1.814942377721,
    6.998599946971));
#327 = CARTESIAN_POINT('',(-1.855643970619,-1.713916188823,
    6.880873579331));
#328 = CARTESIAN_POINT('',(-1.940837747079,-1.612295037391,
    6.759097347332));
#329 = CARTESIAN_POINT('',(-2.070634086853,-1.439097856283,
    6.542176620505));
#330 = CARTESIAN_POINT('',(-2.118869654215,-1.368586818538,6.45106170451
    ));
#331 = CARTESIAN_POINT('',(-2.162521227354,-1.299191116022,
    6.357923777572));
#332 = CARTESIAN_POINT('',(-2.202045488117,-1.230872736475,
    6.261696052886));
#333 = CARTESIAN_POINT('',(-2.237316250372,-1.164438650601,
    6.161799693786));
#334 = CARTESIAN_POINT('',(-2.267878134967,-1.101749536952,
    6.058200247078));
#335 = CARTESIAN_POINT('',(-2.293329987012,-1.045726020404,
    5.951094476537));
#336 = CARTESIAN_POINT('',(-2.321852530186,-0.979733525027,
    5.791850343793));
#337 = CARTESIAN_POINT('',(-2.329563087758,-0.961348736857,5.74213992419
    ));
#338 = CARTESIAN_POINT('',(-2.33615883581,-0.945163305392,5.691446109254
    ));
#339 = CARTESIAN_POINT('',(-2.341542878458,-0.931627751074,
    5.640017832432));
#340 = CARTESIAN_POINT('',(-2.345656771389,-0.921104000761,
    5.588017790281));
#341 = CARTESIAN_POINT('',(-2.348460833564,-0.91386500473,5.535540596618
    ));
#342 = CARTESIAN_POINT('',(-2.349920331606,-0.910095863537,
    5.482631752199));
#343 = CARTESIAN_POINT('',(-2.350045617568,-0.90977228639,5.396098976977
    ));
#344 = CARTESIAN_POINT('',(-2.349557137686,-0.911033367173,
    5.362936067814));
#345 = CARTESIAN_POINT('',(-2.348535225698,-0.913674106201,
    5.329857991328));
#346 = CARTESIAN_POINT('',(-2.346984854341,-0.917667657544,
    5.296906285692));
#347 = CARTESIAN_POINT('',(-2.344914342724,-0.922965736776,5.26412833878
    ));
#348 = CARTESIAN_POINT('',(-2.342336858407,-0.929498427525,
    5.231580988615));
#349 = CARTESIAN_POINT('',(-2.339271919474,-0.937173988019,
    5.199334123804));
#350 = CARTESIAN_POINT('',(-2.330747409565,-0.958224359971,
    5.122287951153));
#351 = CARTESIAN_POINT('',(-2.324820449229,-0.972646025517,
    5.077858857799));
#352 = CARTESIAN_POINT('',(-2.318010684234,-0.988905252796,
    5.034133256724));
#353 = CARTESIAN_POINT('',(-2.310355824018,-1.006771919112,
    4.991079113319));
#354 = CARTESIAN_POINT('',(-2.301890809368,-1.026027746595,
    4.948680836563));
#355 = CARTESIAN_POINT('',(-2.292650200875,-1.046469372082,
    4.906933980109));
#356 = CARTESIAN_POINT('',(-2.282668765315,-1.067910920868,
    4.865839913494));
#357 = CARTESIAN_POINT('',(-2.25031286577,-1.135341578914,4.743422911485
    ));
#358 = CARTESIAN_POINT('',(-2.225543014437,-1.184333256131,
    4.663390725695));
#359 = CARTESIAN_POINT('',(-2.197840797689,-1.23592282959,4.585332785068
    ));
#360 = CARTESIAN_POINT('',(-2.167353126017,-1.289151003776,
    4.509251294991));
#361 = CARTESIAN_POINT('',(-2.134176741306,-1.343392960458,4.43504137121
    ));
#362 = CARTESIAN_POINT('',(-2.098291805867,-1.398332453814,
    4.362459018813));
#363 = CARTESIAN_POINT('',(-2.059502967988,-1.453883048416,
    4.291146719274));
#364 = CARTESIAN_POINT('',(-1.941693963165,-1.611272851755,
    4.093937877465));
#365 = CARTESIAN_POINT('',(-1.856465672931,-1.713044889432,
    3.971951767073));
#366 = CARTESIAN_POINT('',(-1.761088031893,-1.814226496457,
    3.854026834123));
#367 = CARTESIAN_POINT('',(-1.654572689475,-1.91402997994,3.740151004079
    ));
#368 = CARTESIAN_POINT('',(-1.535766461183,-2.011332600525,
    3.630875637742));
#369 = CARTESIAN_POINT('',(-1.403485515892,-2.104606880953,
    3.527416285292));
#370 = CARTESIAN_POINT('',(-1.256610577158,-2.19175627025,3.431646378606
    ));
#371 = CARTESIAN_POINT('',(-1.094303431412,-2.27,3.346241565691));
#372 = ORIENTED_EDGE('',*,*,#373,.T.);
#373 = EDGE_CURVE('',#318,#374,#376,.T.);
#374 = VERTEX_POINT('',#375);
#375 = CARTESIAN_POINT('',(1.094303431412,-2.27,3.346241565691));
#376 = CIRCLE('',#377,2.35);
#377 = AXIS2_PLACEMENT_3D('',#378,#379,#380);
#378 = CARTESIAN_POINT('',(0.,-2.27,5.425905));
#379 = DIRECTION('',(0.,-1.,2.2E-16));
#380 = DIRECTION('',(1.,0.,0.));
#381 = ORIENTED_EDGE('',*,*,#382,.T.);
#382 = EDGE_CURVE('',#374,#264,#383,.T.);
#383 = B_SPLINE_CURVE_WITH_KNOTS('',8,(#384,#385,#386,#387,#388,#389,
    #390,#391,#392,#393,#394,#395,#396,#397,#398,#399,#400,#401,#402,
    #403,#404,#405,#406),.UNSPECIFIED.,.F.,.F.,(9,7,7,9),(0.,
    0.493123801169,0.845186608522,1.),.UNSPECIFIED.);
#384 = CARTESIAN_POINT('',(1.094303431412,-2.27,3.346241565691));
#385 = CARTESIAN_POINT('',(1.256377825318,-2.191868473394,3.431523906319
    ));
#386 = CARTESIAN_POINT('',(1.403064595596,-2.104856639951,3.527141819711
    ));
#387 = CARTESIAN_POINT('',(1.535197660262,-2.011733528645,3.630430939082
    ));
#388 = CARTESIAN_POINT('',(1.653891006448,-1.914587976802,3.739524373173
    ));
#389 = CARTESIAN_POINT('',(1.76032361625,-1.814942377722,3.853210053024)
  );
#390 = CARTESIAN_POINT('',(1.855643970619,-1.713916188823,3.970936420669
    ));
#391 = CARTESIAN_POINT('',(1.940837747079,-1.612295037391,4.092712652668
    ));
#392 = CARTESIAN_POINT('',(2.070634086853,-1.439097856282,4.309633379495
    ));
#393 = CARTESIAN_POINT('',(2.118869654215,-1.368586818537,4.400748295492
    ));
#394 = CARTESIAN_POINT('',(2.162521227353,-1.299191116023,4.493886222422
    ));
#395 = CARTESIAN_POINT('',(2.202045488119,-1.230872736472,4.590113947123
    ));
#396 = CARTESIAN_POINT('',(2.23731625037,-1.164438650602,4.690010306208)
  );
#397 = CARTESIAN_POINT('',(2.267878134967,-1.101749536951,4.793609752924
    ));
#398 = CARTESIAN_POINT('',(2.293329987012,-1.045726020404,4.900715523463
    ));
#399 = CARTESIAN_POINT('',(2.321920312933,-0.979576696353,5.060338093878
    ));
#400 = CARTESIAN_POINT('',(2.32968569534,-0.961056517913,5.110459217913)
  );
#401 = CARTESIAN_POINT('',(2.336317466885,-0.944774039336,5.161581879226
    ));
#402 = CARTESIAN_POINT('',(2.341715980078,-0.931192406688,5.213447696535
    ));
#403 = CARTESIAN_POINT('',(2.345821724365,-0.920681853425,5.265888063435
    ));
#404 = CARTESIAN_POINT('',(2.34859468096,-0.913519388207,5.318804813969)
  );
#405 = CARTESIAN_POINT('',(2.35,-0.909890103254,5.37215003137));
#406 = CARTESIAN_POINT('',(2.35,-0.909890103254,5.425905));
#407 = CYLINDRICAL_SURFACE('',#408,2.35);
#408 = AXIS2_PLACEMENT_3D('',#409,#410,#411);
#409 = CARTESIAN_POINT('',(0.,-8.616952767655,5.425905));
#410 = DIRECTION('',(0.,-1.,2.2E-16));
#411 = DIRECTION('',(1.,0.,0.));
#412 = ADVANCED_FACE('',(#413),#424,.F.);
#413 = FACE_BOUND('',#414,.F.);
#414 = EDGE_LOOP('',(#415,#421,#422,#423));
#415 = ORIENTED_EDGE('',*,*,#416,.T.);
#416 = EDGE_CURVE('',#204,#114,#417,.T.);
#417 = LINE('',#418,#419);
#418 = CARTESIAN_POINT('',(-4.975,8.616952767655,0.));
#419 = VECTOR('',#420,1.);
#420 = DIRECTION('',(0.,0.,1.));
#421 = ORIENTED_EDGE('',*,*,#121,.T.);
#422 = ORIENTED_EDGE('',*,*,#171,.F.);
#423 = ORIENTED_EDGE('',*,*,#211,.F.);
#424 = PLANE('',#425);
#425 = AXIS2_PLACEMENT_3D('',#426,#427,#428);
#426 = CARTESIAN_POINT('',(-4.975,8.616952767655,0.));
#427 = DIRECTION('',(0.866025403784,-0.5,0.));
#428 = DIRECTION('',(-0.5,-0.866025403784,0.));
#429 = ADVANCED_FACE('',(#430),#441,.F.);
#430 = FACE_BOUND('',#431,.F.);
#431 = EDGE_LOOP('',(#432,#438,#439,#440));
#432 = ORIENTED_EDGE('',*,*,#433,.T.);
#433 = EDGE_CURVE('',#196,#106,#434,.T.);
#434 = LINE('',#435,#436);
#435 = CARTESIAN_POINT('',(4.975,8.616952767655,0.));
#436 = VECTOR('',#437,1.);
#437 = DIRECTION('',(0.,0.,1.));
#438 = ORIENTED_EDGE('',*,*,#113,.T.);
#439 = ORIENTED_EDGE('',*,*,#416,.F.);
#440 = ORIENTED_EDGE('',*,*,#203,.F.);
#441 = PLANE('',#442);
#442 = AXIS2_PLACEMENT_3D('',#443,#444,#445);
#443 = CARTESIAN_POINT('',(4.975,8.616952767655,0.));
#444 = DIRECTION('',(0.,-1.,0.));
#445 = DIRECTION('',(-1.,0.,0.));
#446 = ADVANCED_FACE('',(#447),#453,.F.);
#447 = FACE_BOUND('',#448,.F.);
#448 = EDGE_LOOP('',(#449,#450,#451,#452));
#449 = ORIENTED_EDGE('',*,*,#249,.T.);
#450 = ORIENTED_EDGE('',*,*,#105,.T.);
#451 = ORIENTED_EDGE('',*,*,#433,.F.);
#452 = ORIENTED_EDGE('',*,*,#195,.F.);
#453 = PLANE('',#454);
#454 = AXIS2_PLACEMENT_3D('',#455,#456,#457);
#455 = CARTESIAN_POINT('',(9.95,0.,0.));
#456 = DIRECTION('',(-0.866025403784,-0.5,0.));
#457 = DIRECTION('',(-0.5,0.866025403784,0.));
#458 = ADVANCED_FACE('',(#459),#490,.F.);
#459 = FACE_BOUND('',#460,.T.);
#460 = EDGE_LOOP('',(#461,#462,#468,#469,#470,#476,#477,#483,#484));
#461 = ORIENTED_EDGE('',*,*,#221,.F.);
#462 = ORIENTED_EDGE('',*,*,#463,.T.);
#463 = EDGE_CURVE('',#222,#374,#464,.T.);
#464 = LINE('',#465,#466);
#465 = CARTESIAN_POINT('',(1.094303431412,-2.27,0.));
#466 = VECTOR('',#467,1.);
#467 = DIRECTION('',(0.,0.,1.));
#468 = ORIENTED_EDGE('',*,*,#382,.T.);
#469 = ORIENTED_EDGE('',*,*,#273,.T.);
#470 = ORIENTED_EDGE('',*,*,#471,.T.);
#471 = EDGE_CURVE('',#274,#139,#472,.T.);
#472 = LINE('',#473,#474);
#473 = CARTESIAN_POINT('',(1.094303431412,-2.27,0.));
#474 = VECTOR('',#475,1.);
#475 = DIRECTION('',(0.,0.,1.));
#476 = ORIENTED_EDGE('',*,*,#138,.T.);
#477 = ORIENTED_EDGE('',*,*,#478,.F.);
#478 = EDGE_CURVE('',#309,#141,#479,.T.);
#479 = LINE('',#480,#481);
#480 = CARTESIAN_POINT('',(-1.094303431412,-2.27,0.));
#481 = VECTOR('',#482,1.);
#482 = DIRECTION('',(0.,0.,1.));
#483 = ORIENTED_EDGE('',*,*,#317,.T.);
#484 = ORIENTED_EDGE('',*,*,#485,.F.);
#485 = EDGE_CURVE('',#224,#318,#486,.T.);
#486 = LINE('',#487,#488);
#487 = CARTESIAN_POINT('',(-1.094303431412,-2.27,0.));
#488 = VECTOR('',#489,1.);
#489 = DIRECTION('',(0.,0.,1.));
#490 = CYLINDRICAL_SURFACE('',#491,2.52);
#491 = AXIS2_PLACEMENT_3D('',#492,#493,#494);
#492 = CARTESIAN_POINT('',(0.,0.,0.));
#493 = DIRECTION('',(-0.,-0.,-1.));
#494 = DIRECTION('',(1.,0.,0.));
#495 = ADVANCED_FACE('',(#496),#502,.F.);
#496 = FACE_BOUND('',#497,.F.);
#497 = EDGE_LOOP('',(#498,#499,#500,#501));
#498 = ORIENTED_EDGE('',*,*,#308,.F.);
#499 = ORIENTED_EDGE('',*,*,#471,.T.);
#500 = ORIENTED_EDGE('',*,*,#149,.T.);
#501 = ORIENTED_EDGE('',*,*,#478,.F.);
#502 = PLANE('',#503);
#503 = AXIS2_PLACEMENT_3D('',#504,#505,#506);
#504 = CARTESIAN_POINT('',(1.094303431412,-2.27,0.));
#505 = DIRECTION('',(0.,-1.,0.));
#506 = DIRECTION('',(-1.,0.,0.));
#507 = ADVANCED_FACE('',(#508),#514,.F.);
#508 = FACE_BOUND('',#509,.F.);
#509 = EDGE_LOOP('',(#510,#511,#512,#513));
#510 = ORIENTED_EDGE('',*,*,#232,.F.);
#511 = ORIENTED_EDGE('',*,*,#463,.T.);
#512 = ORIENTED_EDGE('',*,*,#373,.F.);
#513 = ORIENTED_EDGE('',*,*,#485,.F.);
#514 = PLANE('',#515);
#515 = AXIS2_PLACEMENT_3D('',#516,#517,#518);
#516 = CARTESIAN_POINT('',(1.094303431412,-2.27,0.));
#517 = DIRECTION('',(0.,-1.,0.));
#518 = DIRECTION('',(-1.,0.,0.));
#519 = ( GEOMETRIC_REPRESENTATION_CONTEXT(3) 
GLOBAL_UNCERTAINTY_ASSIGNED_CONTEXT((#523)) GLOBAL_UNIT_ASSIGNED_CONTEXT
((#520,#521,#522)) REPRESENTATION_CONTEXT('Context #1',
  '3D Context with UNIT and UNCERTAINTY') );
#520 = ( LENGTH_UNIT() NAMED_UNIT(*) SI_UNIT(.MILLI.,.METRE.) );
#521 = ( NAMED_UNIT(*) PLANE_ANGLE_UNIT() SI_UNIT($,.RADIAN.) );
#522 = ( NAMED_UNIT(*) SI_UNIT($,.STERADIAN.) SOLID_ANGLE_UNIT() );
#523 = UNCERTAINTY_MEASURE_WITH_UNIT(LENGTH_MEASURE(5.E-06),#520,
  'distance_accuracy_value','confusion accuracy');
#524 = PRODUCT_RELATED_PRODUCT_CATEGORY('part',$,(#7));
#525 = MECHANICAL_DESIGN_GEOMETRIC_PRESENTATION_REPRESENTATION('',(#526)
  ,#519);
#526 = STYLED_ITEM('color',(#527),#15);
#527 = PRESENTATION_STYLE_ASSIGNMENT((#528,#534));
#528 = SURFACE_STYLE_USAGE(.BOTH.,#529);
#529 = SURFACE_SIDE_STYLE('',(#530));
#530 = SURFACE_STYLE_FILL_AREA(#531);
#531 = FILL_AREA_STYLE('',(#532));
#532 = FILL_AREA_STYLE_COLOUR('',#533);
#533 = COLOUR_RGB('',0.447058818107,0.474509808674,0.501960817233);
#534 = CURVE_STYLE('',#535,POSITIVE_LENGTH_MEASURE(0.1),#536);
#535 = DRAUGHTING_PRE_DEFINED_CURVE_FONT('continuous');
#536 = COLOUR_RGB('',9.803921802644E-02,9.803921802644E-02,
  9.803921802644E-02);
ENDSEC;
END-ISO-10303-21;
